<svg width="1535" height="1535" viewBox="0 0 1535 1535" fill="none" xmlns="http://www.w3.org/2000/svg">
<g clip-path="url(#clip0_744_4750)">
<path d="M1199.32 1169.72C1169.43 1200.54 1142.68 1218.65 1122.2 1232.33C922.459 1365.7 694.133 1327.26 623.54 1314.12C509.648 1292.92 413.507 1277.97 330.904 1203.34C143.207 1033.76 152.336 680.011 295.76 460.878C312.766 434.895 455.972 222.618 684.792 192.707C690.389 191.975 694.564 191.559 698.222 191.171C733.619 187.424 952.973 167.643 1131.83 317.493C1157.44 338.944 1198.64 377.634 1236.85 436.644C1376.56 652.41 1377 986.585 1199.32 1169.72Z" fill="url(#paint0_linear_744_4750)"/>
<g opacity="0.3">
<path d="M472.562 366.481C471.375 368.445 468.821 369.073 466.859 367.885C463.046 365.579 459.077 363.404 455.061 361.421C453.029 360.417 452.181 357.973 453.142 355.932C453.153 355.907 453.165 355.883 453.176 355.858C454.191 353.802 456.682 352.959 458.739 353.975C462.966 356.062 467.145 358.352 471.158 360.78C472.994 361.89 473.662 364.196 472.768 366.095C472.707 366.226 472.639 366.356 472.562 366.481ZM434.85 353.109C430.603 351.692 426.256 350.444 421.924 349.398C419.697 348.86 418.325 346.617 418.862 344.387C419.41 342.151 421.645 340.787 423.875 341.326C428.432 342.426 433.009 343.739 437.478 345.229C439.653 345.955 440.829 348.308 440.103 350.483C440.05 350.641 439.989 350.794 439.92 350.941C439.036 352.819 436.868 353.781 434.85 353.109ZM400.387 345.761C395.944 345.326 391.428 345.079 386.961 345.029C384.669 345.003 382.831 343.121 382.857 340.829C382.886 338.538 384.763 336.699 387.057 336.724C391.76 336.778 396.517 337.037 401.195 337.496C403.478 337.719 405.146 339.75 404.924 342.033C404.876 342.519 404.747 342.978 404.55 343.396C403.824 344.94 402.183 345.936 400.387 345.761ZM365.147 346.305C360.713 346.875 356.253 347.645 351.889 348.591C349.648 349.077 347.436 347.654 346.95 345.413C346.466 343.172 347.889 340.962 350.128 340.474C354.723 339.478 359.419 338.668 364.084 338.066C366.359 337.774 368.441 339.381 368.733 341.655C368.838 342.469 368.7 343.258 368.375 343.949C367.791 345.19 366.607 346.115 365.147 346.305ZM330.905 354.686C326.719 356.223 322.539 357.961 318.483 359.854C316.404 360.822 313.933 359.923 312.964 357.845C311.994 355.765 312.894 353.294 314.973 352.327C319.24 350.337 323.639 348.508 328.043 346.89C330.196 346.099 332.582 347.204 333.372 349.357C333.771 350.442 333.688 351.586 333.232 352.555C332.783 353.51 331.973 354.294 330.905 354.686ZM299.372 370.435C295.624 372.863 291.934 375.482 288.404 378.221C286.592 379.626 283.982 379.297 282.578 377.486C281.171 375.674 281.5 373.066 283.312 371.659C287.027 368.777 290.912 366.02 294.856 363.464C296.782 362.218 299.352 362.767 300.6 364.692C301.41 365.943 301.461 367.465 300.87 368.721C300.552 369.398 300.047 369.998 299.372 370.435ZM223.345 504.593C221.052 504.563 219.217 502.68 219.247 500.386C219.309 495.689 219.577 490.929 220.044 486.243C220.272 483.96 222.306 482.295 224.589 482.523C226.87 482.75 228.535 484.784 228.308 487.066C227.864 491.516 227.61 496.035 227.551 500.496C227.543 501.108 227.404 501.687 227.159 502.207C226.488 503.635 225.026 504.616 223.345 504.593ZM272.131 392.768C269.018 395.967 266.006 399.341 263.18 402.796C261.727 404.571 259.11 404.832 257.336 403.38C255.56 401.927 255.308 399.318 256.752 397.536C259.729 393.899 262.9 390.346 266.179 386.977C267.778 385.334 270.407 385.297 272.051 386.897C273.355 388.165 273.647 390.082 272.914 391.641C272.723 392.047 272.461 392.428 272.131 392.768ZM226.971 468.583C224.743 468.041 223.377 465.794 223.919 463.565C225.032 459.001 226.356 454.425 227.853 449.963C228.573 447.783 230.937 446.619 233.111 447.347C235.285 448.076 236.456 450.431 235.727 452.605C234.304 456.846 233.045 461.195 231.989 465.532C231.922 465.809 231.827 466.072 231.71 466.32C230.887 468.07 228.921 469.059 226.971 468.583ZM250.568 420.624C248.251 424.437 246.068 428.4 244.081 432.404C243.062 434.46 240.57 435.298 238.515 434.279C236.488 433.272 235.644 430.832 236.603 428.793C236.616 428.767 236.629 428.739 236.642 428.714C238.733 424.497 241.031 420.325 243.469 416.312C244.661 414.352 247.215 413.729 249.175 414.919C251.005 416.031 251.67 418.335 250.778 420.231C250.715 420.364 250.645 420.496 250.568 420.624Z" fill="#91B3FA"/>
<path d="M229.416 531.278C229.764 530.538 229.899 529.688 229.751 528.821C229.393 526.71 229.074 524.556 228.799 522.419C228.508 520.145 226.427 518.536 224.153 518.828C221.878 519.119 220.267 521.199 220.563 523.475C220.85 525.722 221.186 527.987 221.563 530.209C221.947 532.469 224.091 533.992 226.35 533.609C227.745 533.373 228.857 532.467 229.416 531.278Z" fill="#91B3FA"/>
</g>
<g opacity="0.3">
<path d="M297.647 637.921C298.5 636.108 297.936 633.893 296.227 632.727C294.458 631.521 292.685 630.258 290.958 628.972C289.117 627.603 286.516 627.984 285.147 629.824C283.773 631.672 284.16 634.266 285.999 635.635C287.819 636.988 289.686 638.319 291.548 639.589C293.443 640.88 296.026 640.392 297.319 638.497C297.445 638.312 297.554 638.118 297.647 637.921Z" fill="#91B3FA"/>
<path d="M531.492 580.668C530.416 582.693 527.901 583.462 525.875 582.384C523.85 581.307 523.085 578.797 524.159 576.769C526.208 572.913 528.125 568.911 529.881 564.828C530.775 562.728 533.23 561.747 535.336 562.654C537.443 563.559 538.417 566.002 537.512 568.109C536.751 569.878 535.964 571.628 535.151 573.356C533.991 575.823 532.76 578.283 531.492 580.668ZM539.908 549.652C537.699 549.04 536.403 546.752 537.016 544.543C538.191 540.299 539.201 535.961 540.014 531.647C540.432 529.395 542.61 527.911 544.865 528.336C547.117 528.761 548.599 530.933 548.175 533.186C547.318 537.728 546.256 542.295 545.018 546.76C544.954 546.992 544.872 547.213 544.773 547.423C543.928 549.22 541.887 550.201 539.908 549.652ZM519.526 599.873C516.82 603.618 513.917 607.299 510.895 610.811C509.399 612.55 506.777 612.747 505.038 611.251C503.3 609.756 503.105 607.136 504.598 605.395C507.468 602.06 510.225 598.566 512.794 595.009C514.138 593.151 516.733 592.732 518.593 594.076C520.237 595.264 520.753 597.433 519.92 599.204C519.811 599.435 519.68 599.66 519.526 599.873ZM546.484 514.65C544.193 514.539 542.426 512.59 542.539 510.3C542.754 505.909 542.784 501.457 542.627 497.067C542.545 494.773 544.336 492.851 546.63 492.769C548.921 492.687 550.845 494.479 550.927 496.77C551.091 501.393 551.06 506.082 550.834 510.706C550.806 511.265 550.671 511.793 550.446 512.27C549.752 513.747 548.215 514.735 546.484 514.65ZM495.006 626.9C491.545 629.956 487.904 632.906 484.185 635.669C482.344 637.037 479.744 636.654 478.376 634.813C477.007 632.972 477.392 630.371 479.232 629.003C482.765 626.378 486.223 623.576 489.51 620.674C491.229 619.156 493.854 619.319 495.372 621.039C496.503 622.32 496.7 624.103 496.016 625.556C495.783 626.054 495.445 626.514 495.006 626.9ZM465.154 647.894C461.099 650.125 456.902 652.21 452.681 654.093C450.586 655.026 448.131 654.086 447.197 651.991C446.262 649.893 447.203 647.439 449.299 646.508C453.31 644.719 457.298 642.737 461.152 640.618C463.162 639.512 465.687 640.245 466.792 642.255C467.458 643.466 467.456 644.864 466.909 646.026C466.549 646.793 465.952 647.456 465.154 647.894ZM431.435 661.884C426.988 663.18 422.436 664.301 417.908 665.219C415.66 665.674 413.47 664.222 413.014 661.974C412.558 659.724 414.012 657.535 416.259 657.08C420.562 656.209 424.885 655.142 429.112 653.911C431.314 653.269 433.619 654.535 434.26 656.736C434.555 657.748 434.448 658.78 434.032 659.664C433.542 660.704 432.625 661.537 431.435 661.884ZM395.467 668.186C390.844 668.478 386.156 668.575 381.532 668.475C379.24 668.425 377.42 666.526 377.471 664.233C377.52 661.944 379.42 660.123 381.713 660.172C386.103 660.267 390.554 660.174 394.946 659.897C397.234 659.753 399.206 661.491 399.35 663.779C399.396 664.503 399.253 665.193 398.966 665.805C398.342 667.131 397.034 668.086 395.467 668.186ZM358.975 666.429C354.413 665.696 349.822 664.759 345.329 663.642C343.103 663.089 341.746 660.836 342.3 658.61C342.852 656.392 345.105 655.029 347.331 655.582C351.6 656.643 355.96 657.533 360.293 658.23C362.557 658.593 364.098 660.724 363.734 662.988C363.671 663.382 363.555 663.755 363.393 664.099C362.624 665.731 360.845 666.729 358.975 666.429ZM323.796 656.711C320.632 655.453 317.468 654.081 314.393 652.635C313.279 652.111 312.176 651.576 311.079 651.031C309.026 650.01 308.136 647.524 309.21 645.465C310.23 643.411 312.723 642.574 314.777 643.595C315.819 644.112 316.87 644.622 317.928 645.12C320.852 646.495 323.858 647.799 326.866 648.996C328.997 649.843 330.037 652.258 329.189 654.389C329.157 654.469 329.123 654.548 329.087 654.625C328.16 656.595 325.846 657.528 323.796 656.711Z" fill="#91B3FA"/>
<path d="M548.219 476.632C548.571 475.885 548.704 475.027 548.552 474.154C548.165 471.939 547.724 469.691 547.241 467.471C546.753 465.23 544.541 463.808 542.3 464.296C540.06 464.784 538.637 466.993 539.125 469.236C539.584 471.345 540.002 473.48 540.371 475.583C540.764 477.841 542.916 479.353 545.175 478.959C546.56 478.716 547.664 477.814 548.219 476.632Z" fill="#91B3FA"/>
</g>
<path d="M490.01 435.649C489.652 434.902 488.861 434.465 488.038 434.56L464.571 437.262C457.662 428.662 449.332 421.102 439.768 414.987L439.925 391.382C439.93 390.553 439.41 389.813 438.628 389.538L411.905 380.124C411.123 379.849 410.254 380.099 409.739 380.748L395.066 399.241C383.781 398.01 372.551 398.68 361.778 401.051L345.186 384.238C344.605 383.649 343.713 383.493 342.967 383.851L317.413 396.091C316.667 396.448 316.229 397.241 316.324 398.063L319.026 421.53C310.426 428.438 302.865 436.768 296.751 446.333L273.145 446.176C272.317 446.171 271.577 446.691 271.302 447.472L261.887 474.197C261.613 474.978 261.863 475.847 262.512 476.362L281.004 491.035C279.774 502.321 280.444 513.55 282.815 524.323L266.001 540.915C265.412 541.497 265.256 542.388 265.615 543.135L277.854 568.689C278.212 569.435 279.004 569.873 279.826 569.778L303.294 567.076C310.202 575.676 318.532 583.236 328.097 589.35L327.94 612.956C327.935 613.784 328.455 614.525 329.236 614.799L355.96 624.213C356.741 624.488 357.611 624.238 358.125 623.589L372.798 605.097C384.084 606.327 395.313 605.657 406.087 603.286L422.679 620.099C423.26 620.689 424.151 620.844 424.898 620.487L450.452 608.246C451.198 607.889 451.636 607.097 451.541 606.274L448.839 582.807C457.439 575.898 464.999 567.569 471.114 558.004L494.72 558.161C495.547 558.166 496.287 557.646 496.563 556.865L505.977 530.141C506.252 529.36 506.002 528.49 505.353 527.975L486.861 513.302C488.091 502.017 487.42 490.787 485.05 480.014L501.863 463.422C502.453 462.841 502.608 461.949 502.25 461.203L490.01 435.649Z" fill="#91B3FA"/>
<path d="M407.661 517.919C398.976 531.003 381.267 534.583 368.181 525.898C361.842 521.691 357.522 515.267 356.015 507.811C354.508 500.355 355.993 492.757 360.203 486.419C368.888 473.335 386.597 469.755 399.682 478.44C411.586 486.341 415.623 501.712 409.714 514.275C409.128 515.52 408.444 516.739 407.661 517.919ZM362.528 506.494C363.684 512.212 366.996 517.136 371.857 520.363C381.888 527.02 395.468 524.276 402.126 514.245C408.79 504.212 406.04 490.633 396.007 483.974C385.976 477.317 372.396 480.06 365.738 490.092C365.135 491.002 364.605 491.944 364.149 492.915C362.167 497.128 361.59 501.847 362.528 506.494Z" fill="#BDD0FB"/>
<path d="M446.69 532.31C447.705 530.152 448.617 527.931 449.42 525.651C449.673 524.934 449.914 524.212 450.144 523.487C451.276 519.91 452.122 516.248 452.669 512.559C452.676 512.509 452.683 512.459 452.691 512.409C452.712 512.266 452.732 512.123 452.751 511.98C452.791 511.702 452.827 511.423 452.863 511.145C452.956 510.413 452.558 509.732 451.924 509.433C451.77 509.36 451.602 509.311 451.424 509.288C450.514 509.172 449.685 509.818 449.568 510.726C448.973 515.409 447.869 520.059 446.287 524.547C438.436 546.844 419.867 562.358 398.393 567.359C386.449 570.142 373.605 569.67 361.205 565.301C359.03 564.536 356.91 563.666 354.853 562.697C341.003 556.181 329.908 545.192 323.208 531.201C315.51 515.132 314.531 497.026 320.451 480.22C332.681 445.514 370.841 427.245 405.532 439.466C407.672 440.219 409.765 441.078 411.803 442.038C420.637 446.195 428.464 452.239 434.699 459.763C434.861 459.957 435.056 460.106 435.271 460.206C435.834 460.471 436.526 460.406 437.038 459.982C437.743 459.394 437.844 458.35 437.256 457.642C430.709 449.743 422.493 443.397 413.218 439.032C411.078 438.025 408.882 437.124 406.637 436.332C370.214 423.501 330.144 442.706 317.317 479.115C311.101 496.758 312.13 515.765 320.211 532.635C327.245 547.323 338.893 558.859 353.432 565.7C355.592 566.717 357.818 567.63 360.099 568.434C377.744 574.649 396.751 573.622 413.621 565.541C428.312 558.505 439.85 546.853 446.69 532.31Z" fill="#BDD0FB"/>
<g opacity="0.3">
<path d="M632.106 284.441C632.578 283.437 632.358 282.204 631.485 281.431C629.855 279.986 628.16 278.572 626.446 277.227C625.331 276.353 623.721 276.547 622.845 277.661C621.965 278.774 622.166 280.388 623.28 281.262C624.913 282.544 626.529 283.892 628.085 285.27C629.143 286.209 630.764 286.111 631.705 285.052C631.871 284.863 632.004 284.657 632.106 284.441Z" fill="#91B3FA"/>
<path d="M616.078 272.999C615.347 274.212 613.773 274.605 612.558 273.874C609.494 272.033 606.3 270.327 603.065 268.806C602.383 268.485 601.695 268.171 601.001 267.863C599.709 267.286 599.126 265.771 599.702 264.476C600.294 263.274 601.793 262.601 603.089 263.176C603.815 263.499 604.535 263.828 605.249 264.164C608.639 265.759 611.989 267.547 615.201 269.479C616.339 270.163 616.755 271.59 616.202 272.766C616.165 272.844 616.123 272.921 616.078 272.999ZM588.801 263.302C584.656 262.034 580.395 261.012 576.138 260.264C574.742 260.019 573.811 258.691 574.055 257.295C574.301 255.907 575.629 254.967 577.025 255.212C581.487 255.995 585.954 257.066 590.3 258.396C591.655 258.811 592.417 260.244 592.003 261.6C591.967 261.718 591.921 261.834 591.869 261.944C591.335 263.08 590.035 263.679 588.801 263.302ZM563.193 258.818C558.87 258.605 554.489 258.661 550.168 258.986C548.757 259.091 547.525 258.032 547.42 256.62C547.314 255.203 548.37 253.976 549.785 253.87C554.315 253.529 558.912 253.472 563.444 253.693C564.859 253.763 565.951 254.966 565.881 256.381C565.862 256.726 565.778 257.051 565.64 257.346C565.211 258.258 564.262 258.869 563.193 258.818ZM537.265 260.762C533.016 261.617 528.78 262.744 524.682 264.112C523.336 264.56 521.884 263.834 521.437 262.49C520.991 261.149 521.714 259.695 523.057 259.245C527.358 257.811 531.796 256.63 536.253 255.733C537.642 255.453 538.995 256.354 539.275 257.743C539.385 258.302 539.307 258.857 539.081 259.337C538.747 260.048 538.093 260.595 537.265 260.762ZM512.598 268.978C508.686 270.84 504.853 272.961 501.204 275.283C500.011 276.043 498.424 275.69 497.663 274.495C496.902 273.3 497.252 271.714 498.451 270.954C502.275 268.521 506.293 266.298 510.392 264.345C511.672 263.737 513.202 264.28 513.81 265.558C514.154 266.281 514.13 267.083 513.815 267.755C513.571 268.272 513.154 268.712 512.598 268.978ZM490.672 282.932C487.334 285.687 484.138 288.676 481.171 291.818C480.199 292.847 478.575 292.894 477.546 291.922C476.517 290.949 476.47 289.331 477.441 288.295C480.552 285.001 483.906 281.865 487.408 278.975C488.501 278.075 490.117 278.229 491.018 279.32C491.67 280.111 491.77 281.177 491.361 282.046C491.204 282.378 490.975 282.683 490.672 282.932ZM472.833 301.817C470.281 305.296 467.913 308.982 465.797 312.774C465.106 314.01 463.544 314.452 462.307 313.762C461.071 313.073 460.646 311.522 461.317 310.271C463.537 306.298 466.02 302.433 468.696 298.784C469.535 297.642 471.14 297.396 472.282 298.233C473.286 298.97 473.598 300.302 473.086 301.39C473.017 301.537 472.934 301.681 472.833 301.817ZM452.855 338.666C451.488 338.297 450.679 336.89 451.049 335.522C452.071 331.736 453.319 327.941 454.752 324.253C454.967 323.691 455.189 323.136 455.414 322.58C455.908 321.26 457.446 320.638 458.76 321.177C460.072 321.712 460.699 323.208 460.165 324.521C459.951 325.041 459.743 325.564 459.538 326.1C458.165 329.63 456.975 333.25 456 336.86C455.96 337.009 455.907 337.151 455.844 337.285C455.324 338.39 454.073 338.995 452.855 338.666Z" fill="#91B3FA"/>
</g>
<g opacity="0.3">
<path d="M657.58 412.9C655.626 416.92 653.407 420.854 650.99 424.598C650.221 425.786 648.634 426.129 647.443 425.359C646.252 424.59 645.929 423.001 646.682 421.812C648.988 418.244 651.103 414.491 652.967 410.655C653.586 409.381 655.122 408.851 656.395 409.471C657.658 410.085 658.191 411.601 657.595 412.868C657.59 412.879 657.585 412.89 657.58 412.9ZM659.456 402.073C658.118 401.611 657.408 400.151 657.871 398.812C659.261 394.785 660.423 390.633 661.32 386.47C661.621 385.095 662.984 384.205 664.37 384.506C665.755 384.804 666.633 386.168 666.336 387.553C665.394 391.915 664.178 396.267 662.718 400.486C662.687 400.576 662.653 400.66 662.614 400.745C662.064 401.914 660.709 402.506 659.456 402.073ZM643.021 435.415C640.151 438.845 637.048 442.13 633.797 445.176C632.763 446.144 631.138 446.091 630.171 445.058C629.201 444.025 629.256 442.408 630.287 441.433C633.39 438.527 636.349 435.395 639.089 432.124C639.998 431.038 641.616 430.895 642.7 431.802C643.614 432.567 643.86 433.831 643.376 434.86C643.285 435.055 643.167 435.241 643.021 435.415ZM665.574 376.591C664.164 376.465 663.123 375.217 663.25 373.807C663.632 369.564 663.756 365.256 663.618 361.001C663.575 359.586 664.686 358.401 666.097 358.354C667.514 358.309 668.699 359.418 668.745 360.835C668.89 365.297 668.76 369.817 668.359 374.267C668.33 374.575 668.249 374.864 668.125 375.128C667.679 376.075 666.676 376.69 665.574 376.591ZM623.459 453.738C619.857 456.371 616.055 458.811 612.159 460.992C610.923 461.683 609.36 461.241 608.668 460.005C607.976 458.769 608.415 457.206 609.654 456.514C613.371 454.436 616.996 452.108 620.431 449.595C621.574 448.76 623.179 449.008 624.016 450.153C624.589 450.936 624.651 451.938 624.265 452.76C624.089 453.135 623.818 453.475 623.459 453.738ZM600.069 466.834C595.933 468.532 591.656 469.992 587.359 471.177C585.995 471.553 584.584 470.753 584.207 469.387C583.83 468.023 584.631 466.609 585.998 466.233C590.095 465.102 594.174 463.708 598.122 462.088C599.433 461.551 600.931 462.178 601.469 463.488C601.752 464.18 601.712 464.925 601.416 465.554C601.153 466.114 600.687 466.581 600.069 466.834ZM574.215 473.955C569.789 474.613 565.284 475.005 560.829 475.121C559.411 475.157 558.235 474.039 558.198 472.622C558.161 471.207 559.281 470.03 560.695 469.992C564.945 469.883 569.239 469.509 573.458 468.879C574.859 468.671 576.165 469.638 576.372 471.039C576.451 471.559 576.366 472.064 576.158 472.506C575.805 473.257 575.096 473.823 574.215 473.955Z" fill="#91B3FA"/>
<path d="M667.265 348.822C667.475 348.375 667.559 347.862 667.477 347.336C667.138 345.167 666.732 342.999 666.274 340.89C665.972 339.507 664.606 338.627 663.222 338.928C661.841 339.233 660.962 340.596 661.26 341.98C661.698 343.991 662.084 346.06 662.409 348.13C662.628 349.53 663.941 350.486 665.34 350.267C666.213 350.129 666.915 349.567 667.265 348.822Z" fill="#91B3FA"/>
</g>
<path d="M628.185 319.55C627.946 319.05 627.416 318.757 626.865 318.821L611.162 320.629C606.539 314.874 600.965 309.816 594.565 305.724L594.67 289.928C594.673 289.374 594.325 288.879 593.802 288.695L575.92 282.395C575.397 282.211 574.815 282.379 574.471 282.812L564.653 295.187C557.101 294.363 549.587 294.811 542.378 296.398L531.275 285.148C530.886 284.753 530.289 284.649 529.79 284.889L512.691 293.079C512.191 293.318 511.898 293.848 511.962 294.399L513.77 310.101C508.015 314.724 502.956 320.299 498.864 326.699L483.068 326.594C482.514 326.591 482.019 326.939 481.835 327.461L475.535 345.344C475.351 345.867 475.519 346.449 475.953 346.793L488.327 356.612C487.504 364.164 487.952 371.678 489.539 378.887L478.288 389.989C477.894 390.378 477.789 390.975 478.029 391.475L486.22 408.574C486.459 409.074 486.989 409.367 487.539 409.303L503.242 407.495C507.865 413.25 513.439 418.309 519.839 422.401L519.735 438.197C519.731 438.751 520.079 439.246 520.602 439.43L538.485 445.73C539.007 445.914 539.589 445.746 539.933 445.312L549.752 432.937C557.304 433.761 564.818 433.312 572.027 431.726L583.129 442.976C583.518 443.371 584.115 443.474 584.615 443.235L601.714 435.045C602.214 434.805 602.506 434.275 602.444 433.725L600.635 418.022C606.39 413.399 611.449 407.825 615.54 401.424L631.336 401.53C631.89 401.533 632.386 401.185 632.57 400.662L638.869 382.78C639.053 382.257 638.886 381.676 638.451 381.331L626.077 371.513C626.9 363.961 626.452 356.447 624.865 349.238L636.116 338.135C636.511 337.746 636.614 337.149 636.375 336.65L628.185 319.55Z" fill="#91B3FA"/>
<path d="M573.367 374.789C570.502 379.109 566.125 382.052 561.045 383.078C555.967 384.105 550.792 383.092 546.474 380.226C537.562 374.311 535.131 362.267 541.039 353.333C546.957 344.421 559.02 341.983 567.929 347.898C572.247 350.764 575.191 355.139 576.218 360.218C577.052 364.347 576.539 368.54 574.778 372.283C574.373 373.144 573.901 373.982 573.367 374.789ZM549.309 375.952C552.486 378.061 556.293 378.806 560.03 378.051C563.765 377.295 566.984 375.13 569.092 371.954C571.196 368.775 571.945 364.971 571.19 361.234C570.436 357.499 568.269 354.28 565.094 352.173C558.538 347.821 549.666 349.614 545.312 356.169C544.92 356.761 544.578 357.371 544.284 357.995C541.323 364.29 543.347 371.994 549.309 375.952Z" fill="#BDD0FB"/>
<path d="M600.531 384.803C601.222 383.335 601.843 381.82 602.395 380.258C603.489 377.156 604.268 373.94 604.712 370.69C604.731 370.544 604.749 370.398 604.768 370.252C604.913 369.121 604.298 368.069 603.319 367.607C603.081 367.496 602.821 367.419 602.547 367.384C601.142 367.205 599.864 368.204 599.681 369.605C599.296 372.643 598.58 375.653 597.558 378.551L597.557 378.552C597.502 378.711 597.443 378.871 597.386 379.028C594.903 385.866 590.81 391.826 585.502 396.522C582.62 399.071 579.377 401.246 575.834 402.983C575.805 402.997 575.776 403.011 575.747 403.025C575.658 403.067 575.571 403.111 575.483 403.153C565.079 408.135 553.358 408.769 542.478 404.936C541.07 404.442 539.699 403.878 538.366 403.251C529.401 399.033 522.219 391.918 517.879 382.861C512.896 372.457 512.264 360.737 516.097 349.858C519.931 338.988 527.77 330.243 538.171 325.258C548.575 320.276 560.296 319.642 571.176 323.475C572.56 323.961 573.915 324.518 575.234 325.139C580.954 327.831 586.02 331.743 590.056 336.614C590.305 336.914 590.607 337.143 590.939 337.297C591.809 337.707 592.877 337.607 593.667 336.952C594.755 336.045 594.91 334.432 594.004 333.339C589.487 327.889 583.818 323.511 577.422 320.499C575.944 319.804 574.429 319.182 572.881 318.636C560.707 314.348 547.594 315.057 535.955 320.633C524.317 326.209 515.54 335.972 511.258 348.153C506.969 360.325 507.677 373.437 513.255 385.077C518.107 395.21 526.143 403.169 536.174 407.889C537.663 408.589 539.199 409.22 540.773 409.775C564.339 418.075 590.117 406.944 600.531 384.803Z" fill="#BDD0FB"/>
<path d="M1149.08 520.083C1147.2 520.083 1145.65 518.597 1145.57 516.704C1145.51 515.126 1138.65 358.309 1070.26 301.963C1050.12 285.362 1026.3 279.049 999.509 283.199C942.928 291.955 903.777 333.633 883.141 407.077C867.59 462.422 869.035 515.926 869.051 516.459C869.111 518.399 867.586 520.021 865.647 520.081C863.7 520.084 862.085 518.619 862.025 516.676C862.008 516.134 860.523 461.696 876.331 405.328C885.663 372.052 899.11 344.57 916.3 323.647C937.962 297.28 965.596 281.333 998.433 276.251C1027.31 271.782 1052.98 278.61 1074.74 296.544C1104.57 321.123 1126.73 365.658 1140.63 428.918C1150.92 475.756 1152.58 516.032 1152.6 516.433C1152.67 518.373 1151.16 520.005 1149.22 520.081C1149.17 520.082 1149.13 520.083 1149.08 520.083Z" fill="url(#paint1_linear_744_4750)"/>
<path d="M708.667 473.609C709.198 470.008 712.258 467.321 715.898 467.261L1113.22 460.693L1243.32 1236.27H615.528C593.964 1236.27 708.667 473.609 708.667 473.609Z" fill="url(#paint2_linear_744_4750)"/>
<path d="M1182.71 466.607L1113.22 460.693L1243.32 1236.27H1321.14C1336.92 1236.27 1348.72 1221.77 1345.5 1206.33L1193.44 476.119C1192.36 470.924 1187.99 467.057 1182.71 466.607Z" fill="url(#paint3_linear_744_4750)"/>
<path d="M1062.35 518.415C1060.47 518.415 1058.91 516.929 1058.84 515.036C1058.78 513.458 1051.92 356.641 983.533 300.296C963.386 283.695 939.575 277.385 912.777 281.531C856.196 290.287 817.045 331.965 796.409 405.409C780.858 460.755 782.302 514.257 782.319 514.792C782.378 516.732 780.854 518.353 778.914 518.413C777.025 518.442 775.352 516.95 775.292 515.008C775.275 514.466 773.79 460.028 789.598 403.66C798.931 370.384 812.378 342.902 829.568 321.979C851.229 295.613 878.863 279.665 911.7 274.583C940.573 270.112 966.248 276.941 988.01 294.877C1017.83 319.455 1040 363.99 1053.9 427.25C1064.19 474.088 1065.85 514.364 1065.86 514.764C1065.94 516.704 1064.43 518.337 1062.49 518.412C1062.44 518.414 1062.4 518.415 1062.35 518.415Z" fill="url(#paint4_linear_744_4750)"/>
<path d="M813.82 803.62C813.763 802.163 807.429 657.319 744.14 605.167C725.388 589.715 703.234 583.837 678.296 587.697C625.809 595.82 589.509 634.431 570.404 702.459C556.05 753.571 557.387 802.959 557.402 803.452L552.575 803.601C552.56 803.102 551.195 753.072 565.726 701.258C574.293 670.709 586.63 645.491 602.394 626.302C622.22 602.169 647.509 587.575 677.558 582.925C703.915 578.846 727.355 585.076 747.215 601.444C774.546 623.968 794.877 664.848 807.641 722.947C817.107 766.031 818.631 803.064 818.645 803.433L813.82 803.62Z" fill="url(#paint5_linear_744_4750)"/>
<path d="M354.387 1206.02L418.539 783.154C419.151 779.115 422.59 776.109 426.675 776.042L797.357 769.915L877.54 1247.31H385.943C365.09 1247.31 351.344 1226.65 354.387 1206.02Z" fill="#BDD0FB"/>
<path d="M868.825 775.997L797.357 769.915L877.54 1247.31L956.695 1245.26C964.509 1245.06 970.23 1237.83 968.626 1230.18L874.361 780.546C873.637 778.029 871.435 776.219 868.825 775.997Z" fill="#91B3FA"/>
<path d="M733.909 802.084C733.853 800.627 727.52 655.783 664.23 603.631C645.479 588.179 623.325 582.302 598.386 586.161C545.899 594.284 509.599 632.895 490.494 700.923C476.14 752.035 477.476 801.423 477.492 801.916L472.665 802.065C472.65 801.566 471.285 751.536 485.816 699.722C494.383 669.173 506.72 643.955 522.484 624.766C542.31 600.633 567.599 586.039 597.648 581.388C624.006 577.31 647.444 583.54 667.305 599.908C694.636 622.432 714.966 663.311 727.731 721.411C737.197 764.495 738.721 801.528 738.735 801.897L733.909 802.084Z" fill="url(#paint6_linear_744_4750)"/>
<path d="M465.196 942.667C465.166 941.885 461.764 864.188 427.92 836.3C417.977 828.108 406.224 824.992 392.994 827.039C325.985 837.41 328.433 941.479 328.466 942.529L324.531 942.651C324.523 942.381 323.785 915.341 331.636 887.345C342.145 849.873 363.154 827.675 392.392 823.15C406.782 820.922 419.579 824.326 430.426 833.266C465.632 862.28 469.003 939.252 469.129 942.514L465.196 942.667Z" fill="url(#paint7_linear_744_4750)"/>
<path d="M259.529 910.372L467.099 906.941L528.037 1252.51H217.841C207.243 1252.51 249.986 951.064 255.263 914.129C255.568 911.996 257.375 910.408 259.529 910.372Z" fill="#91B3FA"/>
<path d="M503.629 910.05L467.099 906.941L528.038 1252.51H568.841C573.602 1252.51 577.167 1248.14 576.213 1243.47L509.044 914.867C508.506 912.239 506.302 910.278 503.629 910.05Z" fill="#7D97F4"/>
<path d="M422.169 941.839C422.139 941.058 418.738 863.36 384.893 835.473C374.95 827.28 363.197 824.165 349.968 826.212C282.958 836.582 285.406 940.652 285.439 941.702L281.504 941.824C281.496 941.554 280.759 914.513 288.61 886.517C299.118 849.046 320.127 826.847 349.365 822.322C363.755 820.096 376.551 823.499 387.399 832.439C422.605 861.452 425.976 938.424 426.102 941.687L422.169 941.839Z" fill="url(#paint8_linear_744_4750)"/>
<path d="M1063.42 1288.5C1063.42 1288.5 1066.69 1307.02 1068.3 1325.35C1068.92 1332.51 1063.4 1338.73 1056.22 1339.03C1031.81 1340.05 979.6 1342.02 960.865 1341.19C958.049 1341.06 956.207 1338.18 957.25 1335.56C958.123 1333.36 959.807 1331.59 961.954 1330.6L1048.2 1290.97L1063.42 1288.5Z" fill="url(#paint9_linear_744_4750)"/>
<path d="M1066.1 1277.62L1063.48 1299.77C1063.48 1299.77 1048.37 1306.8 1038.05 1298.88L1044.31 1274.2L1066.1 1277.62Z" fill="url(#paint10_linear_744_4750)"/>
<path d="M1064.13 861.25C1065.26 867.034 1070.22 1149.87 1039.99 1276.61C1039.49 1278.68 1040.54 1280.81 1042.51 1281.62C1047.15 1283.51 1056.24 1286.25 1067.13 1286.62C1070.51 1286.73 1073.53 1284.54 1074.48 1281.3C1083.13 1251.9 1124.54 1104.56 1129.94 963.81C1135.97 806.538 1129.94 958.455 1129.94 958.455L1126.4 861.239L1064.13 861.25Z" fill="url(#paint11_linear_744_4750)"/>
<path d="M1162.63 1298.16C1162.63 1298.16 1167.84 1307.51 1172.88 1332.35C1173.79 1336.83 1170.65 1341.13 1166.1 1341.57C1158.04 1342.37 1145.63 1343.39 1135.69 1343.32C1131.11 1343.29 1127.53 1339.3 1128.09 1334.75C1129.19 1325.68 1132.62 1310.81 1143.21 1299.21L1162.63 1298.16Z" fill="url(#paint12_linear_744_4750)"/>
<path d="M1167.2 1269.68L1161.06 1303.17C1161.06 1303.17 1154.99 1307.68 1142.98 1304.41L1145.91 1268.38L1167.2 1269.68Z" fill="url(#paint13_linear_744_4750)"/>
<path d="M1183.79 869.929C1208.52 1019.15 1178.43 1238.75 1168.28 1281.73C1167.66 1284.36 1165.53 1286.38 1162.87 1286.82C1158.34 1287.57 1150.88 1288.18 1143.53 1286.05C1140.99 1285.31 1139.21 1283.03 1139.11 1280.39C1137.75 1245.64 1140.2 1032.32 1117.16 948.017C1115.99 943.744 1113.38 940.018 1109.77 937.452L1065.06 905.661L1061.63 854.275L1183.79 869.929Z" fill="url(#paint14_linear_744_4750)"/>
<path d="M1038.05 592.5C1038.05 592.5 1151.64 564.192 1231.08 606.263L1183.79 869.929C1183.79 869.929 1108.55 875.995 1061.63 861.068L1038.05 592.5Z" fill="#91B3FA"/>
<path d="M1165.45 513.506L1174.14 588.325C1174.69 589.383 1174.42 590.689 1173.47 591.417C1167.65 595.893 1146.29 609.513 1116.06 596.195C1112.91 594.807 1110.5 592.132 1109.55 588.823L1121.85 523.98L1165.45 513.506Z" fill="url(#paint15_linear_744_4750)"/>
<path d="M1095.72 474.502C1095.72 474.502 1084.66 528.567 1093.4 546.514C1102.15 564.461 1132.53 554.039 1154.89 530.785L1158.8 474.773L1095.72 474.502Z" fill="url(#paint16_linear_744_4750)"/>
<path d="M1146.4 506.344C1145.16 506.182 1144.37 504.965 1144.73 503.772C1145.82 500.146 1147.73 492.846 1147.32 487.066C1147.32 487.066 1150.94 482.892 1133.99 483.766C1117.05 484.639 1091.71 485.711 1082.78 473.699C1074.08 461.989 1077.06 425.212 1105.09 445.56C1106.15 446.335 1107.67 445.911 1108.15 444.682C1110.2 439.377 1116.29 427.822 1130.03 429.693C1142.88 431.443 1146.61 439.386 1147.69 443.626C1148.01 444.873 1149.39 445.507 1150.54 444.919C1155.96 442.133 1169.45 437.135 1180.05 449.373C1188.77 459.452 1187.27 467.056 1185.08 471.202C1184.37 472.545 1185.33 474.133 1186.85 474.149C1190.96 474.193 1196.77 475.957 1198.89 484.939C1201.81 497.358 1187.83 500.305 1183.78 500.893C1183.12 500.991 1182.54 501.398 1182.25 502.002C1180 506.675 1169.59 526.774 1153.88 533.453C1152.52 534.032 1151.02 532.962 1151.09 531.486L1152.1 508.953C1152.14 507.906 1151.38 506.998 1150.34 506.861L1146.4 506.344Z" fill="url(#paint17_linear_744_4750)"/>
<path d="M1144.43 510.082C1144.43 510.082 1158.54 492.74 1162.84 502.577C1167.14 512.413 1151.27 522.066 1141.62 520.768L1144.43 510.082Z" fill="url(#paint18_linear_744_4750)"/>
<path d="M1251.86 750.996C1251.86 750.996 1244.11 850.006 1178.93 854.276C1178.93 854.276 1151 851.714 1138.87 861.239C1126.74 870.762 1132.62 885.434 1132.62 885.434L1185.21 879.022C1185.21 879.022 1260.41 891.544 1305.63 765.662L1251.86 750.996Z" fill="url(#paint19_linear_744_4750)"/>
<path d="M1231.08 606.264C1231.08 606.264 1320.3 659.335 1305.63 765.662C1305.63 765.662 1273.76 779.475 1250.59 760.958C1250.59 760.958 1232.53 691.877 1193.31 688.438L1231.08 606.264Z" fill="#91B3FA"/>
<path d="M978.776 644.31C978.776 644.31 935.932 664.224 885.823 611.06C851.577 574.726 830.626 597.004 824.004 611.671C817.382 626.337 833.222 625.115 838.746 625.115C844.27 625.115 844.955 609.159 854.695 611.331C864.435 613.505 861.57 610.595 862.181 620.373C862.792 630.15 915.155 740.56 979.929 686.785L978.776 644.31Z" fill="url(#paint20_linear_744_4750)"/>
<path d="M781.749 659.737L928.972 651.479C942.396 650.727 954.171 659.375 955.889 671.248L988.857 899.13C990.823 912.715 978.934 924.745 963.545 924.745H771.445C756.867 924.745 745.251 913.895 745.954 900.936L757.864 681.311C758.491 669.755 768.776 660.465 781.749 659.737Z" fill="url(#paint21_linear_744_4750)"/>
<path d="M806.613 682.89C804.351 682.89 802.471 681.105 802.377 678.824C802.254 675.898 799.947 607.064 848.392 599.493C858.756 597.882 867.951 600.31 875.725 606.733C899.309 626.225 901.301 676.376 901.375 678.501C901.456 680.843 899.623 682.804 897.282 682.887C894.956 682.923 892.976 681.135 892.894 678.793C892.878 678.312 890.958 630.321 870.31 613.269C864.414 608.395 857.668 606.642 849.701 607.879C808.658 614.29 810.828 677.829 810.855 678.47C810.953 680.812 809.134 682.787 806.793 682.887C806.732 682.89 806.672 682.89 806.613 682.89Z" fill="#BDD0FB"/>
<path d="M1038.05 592.501L968.929 644.31C968.929 644.31 967.707 683.124 976.873 701.478L1053.87 682.555L1038.05 592.501Z" fill="#91B3FA"/>
<path d="M598.396 998.083V1059.46C598.396 1082.31 606.992 1104.32 619.381 1123.52L631.107 1138.52C644.68 1159.54 667.917 1171.56 692.929 1171.56H949.732L951.677 1164.95L1014.62 934.354L1067.44 905.877L1059.57 891.494L1000.56 923.49L980.325 998.083H598.396V998.083ZM616.721 1016.41H975.823L950.493 1109.85L937.131 1159.34H692.929C673.541 1159.34 655.34 1147.99 644.832 1131.71L634.158 1114.69C623.481 1098.18 616.721 1079.12 616.721 1059.46V1016.41Z" fill="url(#paint22_linear_744_4750)"/>
<path d="M633.856 1255.25C633.856 1259.79 637.556 1264.4 642.122 1264.4H943.432C947.999 1264.4 951.448 1257.95 951.448 1253.4V1111.32C951.448 1109.75 951.14 1109.92 950.379 1108.67L937.131 1159.34H933.124V1246.07H642.122C637.556 1246.07 633.856 1250.68 633.856 1255.25Z" fill="url(#paint23_linear_744_4750)"/>
<path d="M801.134 1006.71H790.135V1161.37H801.134V1006.71Z" fill="url(#paint24_linear_744_4750)"/>
<path d="M898.287 1006.71H887.289V1161.37H898.287V1006.71Z" fill="url(#paint25_linear_744_4750)"/>
<path d="M706.273 1006.71H695.274V1161.37H706.273V1006.71Z" fill="url(#paint26_linear_744_4750)"/>
<path d="M971.645 1052.21H613.907V1062.04H971.645V1052.21Z" fill="url(#paint27_linear_744_4750)"/>
<path d="M956.029 1106.04H622.868V1115.88H956.029V1106.04Z" fill="url(#paint28_linear_744_4750)"/>
<path d="M869.313 1311.22C869.313 1330.84 885.22 1346.75 904.84 1346.75C924.461 1346.75 940.367 1330.84 940.367 1311.22C940.367 1291.6 924.461 1275.69 904.84 1275.69C885.22 1275.69 869.313 1291.6 869.313 1311.22ZM883.397 1311.22C883.397 1299.38 892.997 1289.78 904.839 1289.78C916.682 1289.78 926.283 1299.38 926.283 1311.22C926.283 1323.06 916.681 1332.66 904.839 1332.66C892.997 1332.66 883.397 1323.06 883.397 1311.22Z" fill="url(#paint29_linear_744_4750)"/>
<path d="M648.541 1311.22C648.541 1330.84 664.447 1346.75 684.067 1346.75C703.689 1346.75 719.594 1330.84 719.594 1311.22C719.594 1291.6 703.689 1275.69 684.067 1275.69C664.447 1275.69 648.541 1291.6 648.541 1311.22ZM662.625 1311.22C662.625 1299.38 672.225 1289.78 684.068 1289.78C695.91 1289.78 705.51 1299.38 705.51 1311.22C705.51 1323.06 695.91 1332.66 684.068 1332.66C672.225 1332.66 662.625 1323.06 662.625 1311.22Z" fill="url(#paint30_linear_744_4750)"/>
<path d="M1022.97 905.866C1022.97 915.084 1030.44 922.556 1039.66 922.556H1095.2C1104.42 922.556 1111.89 915.084 1111.89 905.866C1111.89 896.647 1104.42 889.175 1095.2 889.175H1039.66C1030.44 889.175 1022.97 896.647 1022.97 905.866Z" fill="url(#paint31_linear_744_4750)"/>
</g>
<defs>
<linearGradient id="paint0_linear_744_4750" x1="1442.48" y1="1515.59" x2="632.647" y2="653.51" gradientUnits="userSpaceOnUse">
<stop stop-color="#DAE3FE"/>
<stop offset="1" stop-color="#E9EFFD"/>
</linearGradient>
<linearGradient id="paint1_linear_744_4750" x1="1030" y1="273.003" x2="1091.87" y2="-359.673" gradientUnits="userSpaceOnUse">
<stop stop-color="#09005D"/>
<stop offset="1" stop-color="#1A0F91"/>
</linearGradient>
<linearGradient id="paint2_linear_744_4750" x1="1030.48" y1="838.394" x2="-557.366" y2="1252.39" gradientUnits="userSpaceOnUse">
<stop stop-color="#4F52FF"/>
<stop offset="1" stop-color="#4042E2"/>
</linearGradient>
<linearGradient id="paint3_linear_744_4750" x1="1772.61" y1="569.677" x2="1471.74" y2="721.519" gradientUnits="userSpaceOnUse">
<stop stop-color="#4F52FF"/>
<stop offset="1" stop-color="#4042E2"/>
</linearGradient>
<linearGradient id="paint4_linear_744_4750" x1="961.775" y1="-107.63" x2="946.31" y2="122.945" gradientUnits="userSpaceOnUse">
<stop stop-color="#09005D"/>
<stop offset="1" stop-color="#1A0F91"/>
</linearGradient>
<linearGradient id="paint5_linear_744_4750" x1="739.219" y1="244.571" x2="801.081" y2="-388.105" gradientUnits="userSpaceOnUse">
<stop stop-color="#09005D"/>
<stop offset="1" stop-color="#1A0F91"/>
</linearGradient>
<linearGradient id="paint6_linear_744_4750" x1="683.321" y1="182.153" x2="653.797" y2="412.728" gradientUnits="userSpaceOnUse">
<stop stop-color="#09005D"/>
<stop offset="1" stop-color="#1A0F91"/>
</linearGradient>
<linearGradient id="paint7_linear_744_4750" x1="467.117" y1="217.966" x2="528.979" y2="-414.711" gradientUnits="userSpaceOnUse">
<stop stop-color="#09005D"/>
<stop offset="1" stop-color="#1A0F91"/>
</linearGradient>
<linearGradient id="paint8_linear_744_4750" x1="510.793" y1="458.761" x2="429.249" y2="700.583" gradientUnits="userSpaceOnUse">
<stop stop-color="#09005D"/>
<stop offset="1" stop-color="#1A0F91"/>
</linearGradient>
<linearGradient id="paint9_linear_744_4750" x1="963.595" y1="1262.91" x2="1279.41" y2="1606.43" gradientUnits="userSpaceOnUse">
<stop stop-color="#09005D"/>
<stop offset="1" stop-color="#1A0F91"/>
</linearGradient>
<linearGradient id="paint10_linear_744_4750" x1="1066.1" y1="1288.43" x2="1038.05" y2="1288.43" gradientUnits="userSpaceOnUse">
<stop stop-color="#FEBBBA"/>
<stop offset="1" stop-color="#FF928E"/>
</linearGradient>
<linearGradient id="paint11_linear_744_4750" x1="1035.59" y1="758.081" x2="1111.72" y2="1249.78" gradientUnits="userSpaceOnUse">
<stop stop-color="#09005D"/>
<stop offset="1" stop-color="#1A0F91"/>
</linearGradient>
<linearGradient id="paint12_linear_744_4750" x1="1034.44" y1="1197.78" x2="1350.25" y2="1541.29" gradientUnits="userSpaceOnUse">
<stop stop-color="#09005D"/>
<stop offset="1" stop-color="#1A0F91"/>
</linearGradient>
<linearGradient id="paint13_linear_744_4750" x1="1167.2" y1="1286.99" x2="1142.98" y2="1286.99" gradientUnits="userSpaceOnUse">
<stop stop-color="#FEBBBA"/>
<stop offset="1" stop-color="#FF928E"/>
</linearGradient>
<linearGradient id="paint14_linear_744_4750" x1="1102.74" y1="747.683" x2="1178.88" y2="1239.38" gradientUnits="userSpaceOnUse">
<stop stop-color="#09005D"/>
<stop offset="1" stop-color="#1A0F91"/>
</linearGradient>
<linearGradient id="paint15_linear_744_4750" x1="1163.69" y1="678.611" x2="1132.06" y2="524.668" gradientUnits="userSpaceOnUse">
<stop stop-color="#FEBBBA"/>
<stop offset="1" stop-color="#FF928E"/>
</linearGradient>
<linearGradient id="paint16_linear_744_4750" x1="1098.42" y1="532.289" x2="1160.46" y2="463.888" gradientUnits="userSpaceOnUse">
<stop stop-color="#FEBBBA"/>
<stop offset="1" stop-color="#FF928E"/>
</linearGradient>
<linearGradient id="paint17_linear_744_4750" x1="1186.17" y1="403.474" x2="1111.2" y2="509.417" gradientUnits="userSpaceOnUse">
<stop stop-color="#09005D"/>
<stop offset="1" stop-color="#1A0F91"/>
</linearGradient>
<linearGradient id="paint18_linear_744_4750" x1="1123.35" y1="543.641" x2="1179.17" y2="482.098" gradientUnits="userSpaceOnUse">
<stop stop-color="#FEBBBA"/>
<stop offset="1" stop-color="#FF928E"/>
</linearGradient>
<linearGradient id="paint19_linear_744_4750" x1="1217.17" y1="873.23" x2="1221.1" y2="709.672" gradientUnits="userSpaceOnUse">
<stop stop-color="#FEBBBA"/>
<stop offset="1" stop-color="#FF928E"/>
</linearGradient>
<linearGradient id="paint20_linear_744_4750" x1="900.281" y1="689.254" x2="903.371" y2="560.705" gradientUnits="userSpaceOnUse">
<stop stop-color="#FEBBBA"/>
<stop offset="1" stop-color="#FF928E"/>
</linearGradient>
<linearGradient id="paint21_linear_744_4750" x1="1113.54" y1="422.855" x2="894.209" y2="760.283" gradientUnits="userSpaceOnUse">
<stop stop-color="#FF928E"/>
<stop offset="1" stop-color="#FE7062"/>
</linearGradient>
<linearGradient id="paint22_linear_744_4750" x1="-387.613" y1="-3282.41" x2="51.0429" y2="-1747.12" gradientUnits="userSpaceOnUse">
<stop stop-color="#FF928E"/>
<stop offset="1" stop-color="#FE7062"/>
</linearGradient>
<linearGradient id="paint23_linear_744_4750" x1="-476.106" y1="-3257.11" x2="-37.4517" y2="-1721.82" gradientUnits="userSpaceOnUse">
<stop stop-color="#FF928E"/>
<stop offset="1" stop-color="#FE7062"/>
</linearGradient>
<linearGradient id="paint24_linear_744_4750" x1="-447.069" y1="-3265.42" x2="-8.4158" y2="-1730.13" gradientUnits="userSpaceOnUse">
<stop stop-color="#FF928E"/>
<stop offset="1" stop-color="#FE7062"/>
</linearGradient>
<linearGradient id="paint25_linear_744_4750" x1="-357.249" y1="-3291.08" x2="81.4081" y2="-1755.78" gradientUnits="userSpaceOnUse">
<stop stop-color="#FF928E"/>
<stop offset="1" stop-color="#FE7062"/>
</linearGradient>
<linearGradient id="paint26_linear_744_4750" x1="-534.768" y1="-3240.37" x2="-96.1126" y2="-1705.08" gradientUnits="userSpaceOnUse">
<stop stop-color="#FF928E"/>
<stop offset="1" stop-color="#FE7062"/>
</linearGradient>
<linearGradient id="paint27_linear_744_4750" x1="-442.603" y1="-3266.7" x2="-3.94726" y2="-1731.4" gradientUnits="userSpaceOnUse">
<stop stop-color="#FF928E"/>
<stop offset="1" stop-color="#FE7062"/>
</linearGradient>
<linearGradient id="paint28_linear_744_4750" x1="-459.901" y1="-3261.75" x2="-21.2469" y2="-1726.46" gradientUnits="userSpaceOnUse">
<stop stop-color="#FF928E"/>
<stop offset="1" stop-color="#FE7062"/>
</linearGradient>
<linearGradient id="paint29_linear_744_4750" x1="-406.116" y1="-3277.12" x2="32.5383" y2="-1741.83" gradientUnits="userSpaceOnUse">
<stop stop-color="#FF928E"/>
<stop offset="1" stop-color="#FE7062"/>
</linearGradient>
<linearGradient id="paint30_linear_744_4750" x1="-610.224" y1="-3218.8" x2="-171.569" y2="-1683.51" gradientUnits="userSpaceOnUse">
<stop stop-color="#FF928E"/>
<stop offset="1" stop-color="#FE7062"/>
</linearGradient>
<linearGradient id="paint31_linear_744_4750" x1="-148.723" y1="-3350.66" x2="289.931" y2="-1815.36" gradientUnits="userSpaceOnUse">
<stop stop-color="#FF928E"/>
<stop offset="1" stop-color="#FE7062"/>
</linearGradient>
<clipPath id="clip0_744_4750">
<rect width="1535" height="1535" fill="white"/>
</clipPath>
</defs>
</svg>
