<svg width="1535" height="1535" viewBox="0 0 1535 1535" fill="none" xmlns="http://www.w3.org/2000/svg">
<g clip-path="url(#clip0_744_5008)">
<path d="M1204.29 1168.61C1180.81 1192.93 1158.6 1208.62 1141.05 1221.01C934.779 1366.69 690.702 1324.23 638.829 1313.85C562.229 1298.54 414.162 1268.94 307.112 1145.03C145.154 957.568 170.373 662.224 295.998 467.263C318.977 431.601 440.358 233.671 687.064 201.929C836.368 182.719 1010.41 221.463 1136.44 325.395C1401 543.557 1382.17 984.285 1204.29 1168.61Z" fill="url(#paint0_linear_744_5008)"/>
<path d="M412.362 514.602C412.469 509.09 417.1 504.654 422.777 504.654H767.121C772.875 504.654 778.986 509.227 778.986 514.814V1295.28C778.986 1299.45 776.553 1303.45 773.513 1306.4C770.472 1309.34 765.987 1310.99 761.693 1310.98L413.577 1310.06C409.245 1310.05 405.01 1308.35 401.979 1305.34C398.949 1302.33 397.243 1298.26 397.325 1294.06L412.362 514.602Z" fill="#BDD0FB"/>
<g opacity="0.52">
<path d="M610.114 559.965L722.757 559.586L722.715 545.898L610.198 546.244L610.114 559.965Z" fill="white"/>
<path d="M609.805 610.38L722.911 609.879L722.869 596.079L609.89 596.546L609.805 610.38Z" fill="white"/>
<path d="M609.494 661.212L723.067 660.587L723.024 646.673L609.58 647.265L609.494 661.212Z" fill="white"/>
<path d="M609.18 712.467L723.224 711.715L723.181 697.686L609.266 698.403L609.18 712.467Z" fill="white"/>
<path d="M608.863 764.149L723.382 763.268L723.339 749.122L608.95 749.968L608.863 764.149Z" fill="white"/>
<path d="M608.222 868.815L723.703 867.67L723.659 853.286L608.311 854.395L608.222 868.815Z" fill="white"/>
<path d="M607.24 1029.15L724.193 1027.6L724.148 1012.84L607.331 1014.36L607.24 1029.15Z" fill="white"/>
<path d="M608.544 816.263L723.541 815.251L723.498 800.986L608.632 801.963L608.544 816.263Z" fill="white"/>
<path d="M607.898 921.811L723.865 920.53L723.82 906.024L607.987 907.269L607.898 921.811Z" fill="white"/>
<path d="M607.57 975.256L724.028 973.837L723.983 959.209L607.66 960.59L607.57 975.256Z" fill="white"/>
<path d="M606.907 1083.51L724.36 1081.81L724.314 1066.94L606.999 1068.6L606.907 1083.51Z" fill="white"/>
<path d="M606.571 1138.34L724.528 1136.5L724.481 1121.49L606.664 1123.3L606.571 1138.34Z" fill="white"/>
<path d="M606.233 1193.64L724.697 1191.65L724.651 1176.51L606.325 1178.46L606.233 1193.64Z" fill="white"/>
<path d="M605.891 1249.42L724.868 1247.28L724.821 1232.01L605.985 1234.11L605.891 1249.42Z" fill="white"/>
<path d="M462.431 560.461L575.78 560.08L575.903 546.35L462.681 546.697L462.431 560.461Z" fill="white"/>
<path d="M461.511 611.038L575.33 610.533L575.453 596.689L461.764 597.16L461.511 611.038Z" fill="white"/>
<path d="M460.584 662.033L574.876 661.403L575 647.444L460.838 648.04L460.584 662.033Z" fill="white"/>
<path d="M459.65 713.455L574.418 712.698L574.544 698.623L459.906 699.345L459.65 713.455Z" fill="white"/>
<path d="M458.707 765.305L573.956 764.418L574.083 750.226L458.966 751.077L458.707 765.305Z" fill="white"/>
<path d="M456.798 870.317L573.021 869.164L573.15 854.732L457.061 855.848L456.798 870.317Z" fill="white"/>
<path d="M453.873 1031.2L571.588 1029.63L571.72 1014.83L454.143 1016.36L453.873 1031.2Z" fill="white"/>
<path d="M457.756 817.591L573.49 816.572L573.618 802.261L458.017 803.243L457.756 817.591Z" fill="white"/>
<path d="M455.831 923.49L572.548 922.201L572.677 907.647L456.096 908.899L455.831 923.49Z" fill="white"/>
<path d="M454.857 977.115L572.07 975.687L572.201 961.01L455.124 962.399L454.857 977.115Z" fill="white"/>
<path d="M452.882 1085.74L571.103 1084.03L571.236 1069.1L453.154 1070.78L452.882 1085.74Z" fill="white"/>
<path d="M451.882 1140.76L570.612 1138.9L570.747 1123.84L452.156 1125.66L451.882 1140.76Z" fill="white"/>
<path d="M450.872 1196.25L570.119 1194.25L570.254 1179.06L451.149 1181.02L450.872 1196.25Z" fill="white"/>
<path d="M449.855 1252.23L569.62 1250.07L569.757 1234.75L450.134 1236.87L449.855 1252.23Z" fill="white"/>
</g>
<path d="M214.761 729.879C214.912 723.504 221.458 718.258 229.482 718.258H532.764C540.896 718.258 548.881 723.778 548.881 730.239V1307.79C548.881 1310.9 546.628 1313.88 543.858 1316.08C541.088 1318.27 536.984 1319.5 533.072 1319.49L215.975 1318.8C212.029 1318.79 208.165 1317.53 205.406 1315.29C202.646 1313.05 201.09 1309.95 201.164 1306.81L214.761 729.879Z" fill="#BDD0FB"/>
<path d="M438.113 786.315L524.511 786.223L525.197 751.031H438.714L438.113 786.315Z" fill="url(#paint1_linear_744_5008)"/>
<path d="M341.27 786.298L427.582 786.205L428.173 751.031H341.777L341.27 786.298Z" fill="url(#paint2_linear_744_5008)"/>
<path d="M244.524 786.28L330.75 786.188L331.247 751.031H244.938L244.524 786.28Z" fill="url(#paint3_linear_744_5008)"/>
<path d="M437.033 849.484L523.281 849.528L523.964 814.566L437.633 814.537L437.033 849.484Z" fill="url(#paint4_linear_744_5008)"/>
<path d="M340.359 849.434L426.52 849.478L427.11 814.533L340.865 814.505L340.359 849.434Z" fill="url(#paint5_linear_744_5008)"/>
<path d="M243.782 849.386L329.857 849.429L330.352 814.502L244.194 814.474L243.782 849.386Z" fill="url(#paint6_linear_744_5008)"/>
<path d="M435.957 912.218L522.055 912.29L522.735 877.449L436.554 877.393L435.957 912.218Z" fill="url(#paint7_linear_744_5008)"/>
<path d="M339.451 912.137L425.463 912.209L426.05 877.386L339.955 877.329L339.451 912.137Z" fill="url(#paint8_linear_744_5008)"/>
<path d="M243.042 912.057L328.967 912.129L329.461 877.323L243.453 877.267L243.042 912.057Z" fill="url(#paint9_linear_744_5008)"/>
<path d="M434.885 974.734L520.833 974.834L521.512 940.113L435.48 940.029L434.885 974.734Z" fill="url(#paint10_linear_744_5008)"/>
<path d="M338.546 974.623L424.409 974.722L424.994 940.019L339.048 939.936L338.546 974.623Z" fill="url(#paint11_linear_744_5008)"/>
<path d="M242.304 974.511L328.08 974.611L328.573 939.925L242.713 939.841L242.304 974.511Z" fill="url(#paint12_linear_744_5008)"/>
<path d="M433.816 1037.04L519.616 1037.16L520.291 1002.56L434.41 1002.45L433.816 1037.04Z" fill="url(#paint13_linear_744_5008)"/>
<path d="M337.645 1036.89L423.358 1037.02L423.941 1002.44L338.145 1002.33L337.645 1036.89Z" fill="url(#paint14_linear_744_5008)"/>
<path d="M241.569 1036.75L327.197 1036.88L327.687 1002.31L241.977 1002.2L241.569 1036.75Z" fill="url(#paint15_linear_744_5008)"/>
<path d="M432.752 1099.12L518.402 1099.28L519.076 1064.8L433.343 1064.66L432.752 1099.12Z" fill="url(#paint16_linear_744_5008)"/>
<path d="M336.746 1098.95L422.312 1099.1L422.893 1064.64L337.245 1064.5L336.746 1098.95Z" fill="url(#paint17_linear_744_5008)"/>
<path d="M240.837 1098.78L326.317 1098.93L326.805 1064.48L241.243 1064.34L240.837 1098.78Z" fill="url(#paint18_linear_744_5008)"/>
<path d="M431.69 1160.99L517.193 1161.18L517.864 1126.81L432.279 1126.65L431.69 1160.99Z" fill="url(#paint19_linear_744_5008)"/>
<path d="M335.851 1160.79L421.269 1160.97L421.847 1126.63L336.348 1126.46L335.851 1160.79Z" fill="url(#paint20_linear_744_5008)"/>
<path d="M240.106 1160.59L325.439 1160.77L325.926 1126.44L240.512 1126.27L240.106 1160.59Z" fill="url(#paint21_linear_744_5008)"/>
<path d="M430.633 1222.65L515.988 1222.86L516.657 1188.62L431.22 1188.42L430.633 1222.65Z" fill="url(#paint22_linear_744_5008)"/>
<path d="M334.959 1222.42L420.229 1222.63L420.806 1188.4L335.454 1188.21L334.959 1222.42Z" fill="url(#paint23_linear_744_5008)"/>
<path d="M239.379 1222.19L324.565 1222.39L325.05 1188.18L239.783 1187.99L239.379 1222.19Z" fill="url(#paint24_linear_744_5008)"/>
<path d="M429.579 1284.1L514.787 1284.34L515.453 1250.21L430.164 1249.99L429.579 1284.1Z" fill="url(#paint25_linear_744_5008)"/>
<path d="M334.069 1283.84L419.193 1284.07L419.768 1249.96L334.563 1249.74L334.069 1283.84Z" fill="url(#paint26_linear_744_5008)"/>
<path d="M238.654 1283.57L323.693 1283.81L324.177 1249.72L239.056 1249.5L238.654 1283.57Z" fill="url(#paint27_linear_744_5008)"/>
<path d="M1006.42 743.671C1006.57 737.296 1013.11 732.05 1021.14 732.05H1324.42C1332.55 732.05 1340.54 737.57 1340.54 744.031V1321.58C1340.54 1324.69 1338.28 1327.67 1335.51 1329.87C1332.74 1332.06 1328.64 1333.29 1324.73 1333.28L1007.63 1332.6C1003.69 1332.59 999.823 1331.32 997.063 1329.08C994.303 1326.84 992.747 1323.74 992.821 1320.61L1006.42 743.671Z" fill="#BDD0FB"/>
<g opacity="0.5">
<path d="M1229.77 800.107L1316.17 800.015L1316.85 764.823H1230.37L1229.77 800.107Z" fill="white"/>
<path d="M1132.93 800.09L1219.24 799.998L1219.83 764.823H1133.43L1132.93 800.09Z" fill="white"/>
<path d="M1036.18 800.072L1122.41 799.98L1122.9 764.823H1036.59L1036.18 800.072Z" fill="white"/>
<path d="M1228.69 863.276L1314.94 863.319L1315.62 828.357L1229.29 828.329L1228.69 863.276Z" fill="white"/>
<path d="M1132.02 863.226L1218.18 863.27L1218.77 828.325L1132.52 828.297L1132.02 863.226Z" fill="white"/>
<path d="M1035.44 863.178L1121.51 863.221L1122.01 828.294L1035.85 828.266L1035.44 863.178Z" fill="white"/>
<path d="M1227.61 926.01L1313.71 926.082L1314.39 891.241L1228.21 891.185L1227.61 926.01Z" fill="white"/>
<path d="M1131.11 925.93L1217.12 926.001L1217.71 891.178L1131.61 891.122L1131.11 925.93Z" fill="white"/>
<path d="M1034.7 925.849L1120.62 925.921L1121.12 891.115L1035.11 891.059L1034.7 925.849Z" fill="white"/>
<path d="M1226.54 988.526L1312.49 988.626L1313.17 953.905L1227.14 953.821L1226.54 988.526Z" fill="white"/>
<path d="M1130.2 988.415L1216.07 988.514L1216.65 953.811L1130.71 953.728L1130.2 988.415Z" fill="white"/>
<path d="M1033.96 988.303L1119.74 988.403L1120.23 953.717L1034.37 953.633L1033.96 988.303Z" fill="white"/>
<path d="M1225.47 1050.83L1311.27 1050.96L1311.95 1016.36L1226.07 1016.24L1225.47 1050.83Z" fill="white"/>
<path d="M1129.3 1050.69L1215.01 1050.81L1215.6 1016.23L1129.8 1016.12L1129.3 1050.69Z" fill="white"/>
<path d="M1033.23 1050.54L1118.85 1050.67L1119.34 1016.1L1033.63 1015.99L1033.23 1050.54Z" fill="white"/>
<path d="M1224.41 1112.91L1310.06 1113.07L1310.73 1078.59L1225 1078.45L1224.41 1112.91Z" fill="white"/>
<path d="M1128.4 1112.74L1213.97 1112.89L1214.55 1078.43L1128.9 1078.29L1128.4 1112.74Z" fill="white"/>
<path d="M1032.49 1112.57L1117.97 1112.72L1118.46 1078.27L1032.9 1078.14L1032.49 1112.57Z" fill="white"/>
<path d="M1223.35 1174.79L1308.85 1174.97L1309.52 1140.61L1223.94 1140.44L1223.35 1174.79Z" fill="white"/>
<path d="M1127.51 1174.58L1212.92 1174.76L1213.5 1140.42L1128 1140.25L1127.51 1174.58Z" fill="white"/>
<path d="M1031.76 1174.38L1117.1 1174.56L1117.58 1140.23L1032.17 1140.07L1031.76 1174.38Z" fill="white"/>
<path d="M1222.29 1236.45L1307.64 1236.65L1308.31 1202.41L1222.88 1202.22L1222.29 1236.45Z" fill="white"/>
<path d="M1126.61 1236.21L1211.89 1236.42L1212.46 1202.19L1127.11 1202L1126.61 1236.21Z" fill="white"/>
<path d="M1031.04 1235.98L1116.22 1236.19L1116.71 1201.98L1031.44 1201.78L1031.04 1235.98Z" fill="white"/>
<path d="M1221.24 1297.89L1306.44 1298.13L1307.11 1264L1221.82 1263.78L1221.24 1297.89Z" fill="white"/>
<path d="M1125.73 1297.63L1210.85 1297.86L1211.42 1263.75L1126.22 1263.53L1125.73 1297.63Z" fill="white"/>
<path d="M1030.31 1297.37L1115.35 1297.6L1115.83 1263.51L1030.71 1263.29L1030.31 1297.37Z" fill="white"/>
</g>
<path d="M704.918 900.784C680.167 823.071 632.277 761.138 575.551 724.73C524.84 692.182 488.305 641.493 474.779 582.941C473.357 576.787 471.667 570.615 469.702 564.445C439.933 470.982 358.286 413.535 287.336 436.132C216.386 458.729 183.002 552.815 212.77 646.278C218.857 665.389 227.114 682.99 237.006 698.707C268.576 748.865 280.929 809.025 269.314 867.213C258.932 919.212 261.749 977.761 280.306 1036.02C307.982 1122.92 364.588 1190.09 430.131 1223.91C454.922 1236.7 477.277 1253.9 495.788 1274.68C526.552 1309.22 569.907 1325.45 609.74 1312.77C652.71 1299.08 679.556 1255.57 681.488 1204.8C682.581 1176.07 689.336 1147.91 700.347 1121.29C726.339 1058.44 729.944 979.355 704.918 900.784Z" fill="#91B3FA"/>
<path opacity="0.57" d="M343.847 527.646C372.79 586.462 399.81 646.164 426.203 706.148C432.808 721.141 439.171 736.238 445.581 751.315L455.194 773.932L464.616 796.63C470.839 811.786 477.272 826.855 483.323 842.082L501.477 887.761C513.19 918.368 525.162 948.874 536.303 979.7C541.894 995.103 547.787 1010.39 553.064 1025.91L569.109 1072.38C589.872 1134.56 609.075 1197.29 625.053 1260.87L622.308 1261.59L608.534 1214.48L605.118 1202.69L601.406 1191L593.938 1167.62L586.516 1144.24C584.056 1136.44 581.305 1128.73 578.714 1120.97C573.428 1105.49 568.265 1089.97 562.879 1074.52C540.929 1012.88 518.157 951.524 494.117 890.649C481.863 860.304 469.871 829.856 457.405 799.595L448.118 776.874L438.639 754.23C432.33 739.13 426.019 724.031 419.556 708.996C406.888 678.815 394.001 648.723 380.869 618.737C367.894 588.682 354.632 558.743 341.283 528.858L343.847 527.646Z" fill="white"/>
<path d="M911.981 746.313C900.414 661.442 862.179 588.7 810.264 540.757C763.854 497.9 735.301 438.846 731.863 375.83C731.502 369.206 730.867 362.515 729.949 355.777C716.037 253.705 642.218 179.484 565.07 189.998C487.921 200.513 436.658 291.783 450.57 393.854C453.414 414.726 458.766 434.428 466.139 452.479C489.67 510.084 491.613 574.551 469.212 632.633C449.194 684.539 441.598 745.612 450.27 809.241C463.205 904.141 509.48 983.882 570.943 1030.74C594.192 1048.46 614.139 1070.31 629.486 1095.16C654.988 1136.46 696.743 1161.11 740.056 1155.21C786.781 1148.84 822.241 1108.7 833.334 1056.53C839.611 1027.01 851.62 999.112 867.736 973.57C905.784 913.276 923.677 832.122 911.981 746.313Z" fill="#7D97F4"/>
<path opacity="0.57" d="M606.884 294.901C626.157 360.987 643.291 427.638 659.728 494.468C663.845 511.173 667.693 527.943 671.594 544.701L677.443 569.837L683.081 595.023C686.775 611.828 690.701 628.582 694.204 645.43L704.718 695.97C711.297 729.752 718.163 763.476 724.113 797.381C727.112 814.327 730.441 831.213 733.096 848.221L741.294 899.198C751.538 967.274 760.077 1035.64 765.139 1104.3L762.182 1104.55L756.438 1053.32L755.03 1040.51L753.303 1027.74L749.8 1002.21L746.346 976.677C745.21 968.164 743.757 959.692 742.479 951.198C739.808 934.226 737.272 917.236 734.492 900.283C722.931 832.539 710.47 764.948 696.616 697.623C689.432 664.013 682.537 630.345 675.119 596.783L669.625 571.598L663.919 546.459C660.125 529.696 656.331 512.934 652.368 496.21C644.728 462.695 636.847 429.233 628.693 395.836C620.715 362.396 612.419 329.023 604.023 295.692L606.884 294.901Z" fill="white"/>
<path d="M1266.57 1329.64H593.133C587.87 1329.64 583.603 1325.38 583.603 1320.11V410.079C583.603 404.816 587.87 400.549 593.133 400.549H1266.57C1271.83 400.549 1276.1 404.816 1276.1 410.079V1320.11C1276.1 1325.38 1271.83 1329.64 1266.57 1329.64Z" fill="url(#paint28_linear_744_5008)"/>
<path d="M1158.21 1207.26H700.016C682.647 1207.26 668.567 1193.18 668.567 1175.81V571.579C668.567 554.211 682.647 540.131 700.016 540.131H1158.21C1175.58 540.131 1189.66 554.211 1189.66 571.579V1175.81C1189.66 1193.18 1175.58 1207.26 1158.21 1207.26Z" fill="#7D97F4"/>
<path d="M1140.87 1160.85H717.767C712.557 1160.85 708.333 1156.62 708.333 1151.41V604.444C708.333 599.234 712.557 595.01 717.767 595.01H1140.87C1146.08 595.01 1150.31 599.234 1150.31 604.444V1151.41C1150.31 1156.62 1146.08 1160.85 1140.87 1160.85Z" fill="url(#paint29_linear_744_5008)"/>
<path d="M928.589 492.508C940.03 492.508 949.305 483.232 949.305 471.791C949.305 460.349 940.03 451.074 928.589 451.074C917.147 451.074 907.872 460.349 907.872 471.791C907.872 483.232 917.147 492.508 928.589 492.508Z" fill="url(#paint30_linear_744_5008)"/>
<path d="M1062.43 806.226L795.904 810.657C775.619 810.994 759.115 826.768 759.115 845.888V1013.74C759.115 1032.85 775.619 1047.69 795.904 1046.88L1062.43 1036.17C1081.57 1035.41 1097.04 1019.81 1097.04 1001.33V839.108C1097.04 820.63 1081.57 805.908 1062.43 806.226Z" fill="url(#paint31_linear_744_5008)"/>
<path d="M1075.92 775.87C1067.85 775.99 1061.29 769.76 1061.29 761.955V725.219C1061.29 688.365 1030.12 658.473 991.528 658.584L904.702 658.835C865.118 658.949 832.681 689.726 832.681 727.439V765.033C832.681 773.021 825.809 779.598 817.318 779.725C808.813 779.852 801.907 773.459 801.907 765.447V727.738C801.907 673.91 848.283 630.116 904.703 630.116H991.529C1046.35 630.116 1090.5 672.652 1090.5 724.935V761.561C1090.5 769.343 1083.98 775.749 1075.92 775.87Z" fill="url(#paint32_linear_744_5008)"/>
<path d="M972.286 899.248C972.286 880.596 956.003 865.951 936.207 867.296C918.702 868.485 904.226 882.504 903.281 899.242C902.547 912.23 909.685 923.458 920.535 929.136C925.151 931.551 927.443 936.641 926.546 941.677L918.935 984.381C917.966 989.819 922.338 994.597 928.09 994.391L947.647 993.69C953.369 993.485 957.709 988.415 956.748 983.065L949.143 940.758C948.236 935.712 950.859 930.698 955.487 927.932C965.551 921.915 972.286 911.244 972.286 899.248Z" fill="url(#paint33_linear_744_5008)"/>
<path d="M436.991 1331.27C436.997 1330.9 436.973 1330.53 436.879 1330.16C431.352 1308.25 403.921 1294.6 403.921 1294.6L393.051 1295.45C386.801 1314.76 387.604 1326.61 388.608 1331.88C388.636 1332.03 388.681 1332.17 388.72 1332.31C397.687 1333.11 416.142 1333.64 436.991 1331.27Z" fill="url(#paint34_linear_744_5008)"/>
<path d="M388.72 1332.31C389.204 1334.08 390.505 1335.45 392.169 1335.8C404.925 1338.48 425.198 1336.32 433.71 1335.21C435.588 1334.96 436.961 1333.23 436.992 1331.26C416.142 1333.64 397.687 1333.11 388.72 1332.31Z" fill="#91B3FA"/>
<path d="M388.68 1279.26L393.284 1301.42C393.621 1303.05 394.869 1304.26 396.38 1304.4C398.23 1304.58 400.864 1304.68 403.513 1304.29C405.888 1303.94 407.542 1301.53 407.121 1298.94L403.921 1279.26H388.68Z" fill="url(#paint35_linear_744_5008)"/>
<path d="M484.068 1332.03C472.063 1331.7 465.854 1330.28 462.643 1328.97C462.636 1330.17 462.642 1331.38 462.681 1332.64C462.723 1333.98 463.718 1335.06 464.943 1335.05L530.859 1334.62C532.962 1334.61 534.192 1332.17 533.28 1330.24C524.637 1330.96 502.626 1332.55 484.068 1332.03Z" fill="#91B3FA"/>
<path d="M533.28 1330.24C533.201 1330.07 533.132 1329.9 533.019 1329.74C527.198 1321.61 512.371 1305.41 483.074 1298.39L469.019 1297.94C469.019 1297.94 462.761 1308.82 462.643 1328.97C465.853 1330.28 472.062 1331.7 484.067 1332.03C502.626 1332.55 524.637 1330.95 533.28 1330.24Z" fill="url(#paint36_linear_744_5008)"/>
<path d="M465.788 1277.3C466.009 1278.33 468.934 1294.1 470.067 1300.22C470.336 1301.67 471.468 1302.74 472.815 1302.81C475.221 1302.95 479.102 1302.96 482.441 1302.06C484.241 1301.57 485.451 1299.73 485.323 1297.69L483.75 1272.75L465.788 1277.3Z" fill="url(#paint37_linear_744_5008)"/>
<path d="M455.137 986.126C455.137 986.126 474.471 1118.98 488.424 1277.07C488.684 1280.02 486.337 1282.58 483.445 1283.19C479.183 1284.08 472.917 1285.15 467.731 1285C464.962 1284.93 462.647 1282.87 462.181 1280.14C457.428 1252.27 423.511 1102.67 414.61 1069.75C414.61 1069.75 404.384 1209.6 407.653 1282.16C407.734 1283.97 406.413 1285.53 404.619 1285.74C401.898 1286.05 397.544 1286.29 392.003 1285.7C389.9 1285.48 388.204 1283.89 387.903 1281.8C384.517 1258.21 365.03 1117.79 365.859 1016.63C365.905 1010.93 372.552 964.06 372.552 964.06L455.137 986.126Z" fill="url(#paint38_linear_744_5008)"/>
<path d="M462.63 762.712L465.218 832.231C472.57 834.761 479.57 836.729 486.235 838.199C490.404 824.776 499.585 808.302 507.102 796.053C479.482 786.289 462.63 762.712 462.63 762.712Z" fill="url(#paint39_linear_744_5008)"/>
<path d="M369.646 993.783C367.658 993.077 366.272 991.275 366.056 989.176C363.485 964.233 351.036 809.573 429.627 745.952C429.627 745.952 434.134 734.16 471.179 763.146C508.225 792.132 488.391 822.515 479.522 864.421C468.789 915.13 449.958 956.581 458.29 987.786C458.865 989.94 457.732 992.201 455.641 992.972C426.864 1003.58 398.198 1003.93 369.646 993.783Z" fill="url(#paint40_linear_744_5008)"/>
<path d="M460.283 699.613C460.258 701.814 428.876 746.388 428.876 746.388C428.876 746.388 434.509 757.482 461.4 766.489L484.612 718.763L460.283 699.613Z" fill="url(#paint41_linear_744_5008)"/>
<path d="M444.736 852.136C444.54 852.136 444.341 852.08 444.167 851.961C419.097 835.023 407.304 807.684 407.187 807.409C406.968 806.889 407.21 806.292 407.727 806.073C408.247 805.852 408.843 806.093 409.064 806.613C409.178 806.882 420.752 833.681 445.308 850.273C445.774 850.587 445.897 851.22 445.581 851.688C445.385 851.979 445.064 852.136 444.736 852.136Z" fill="url(#paint42_linear_744_5008)"/>
<path d="M482.079 814.242C481.744 814.242 481.416 814.077 481.221 813.774C481.145 813.657 473.486 801.735 458.899 775.614C454.413 767.582 448.517 762.496 441.377 760.497C429.55 757.193 418.153 763.533 418.04 763.597C417.55 763.868 416.93 763.704 416.651 763.215C416.373 762.725 416.544 762.104 417.033 761.826C417.525 761.547 429.248 754.988 441.907 758.531C449.599 760.677 455.915 766.09 460.678 774.619C475.229 800.674 482.859 812.554 482.935 812.672C483.24 813.143 483.103 813.774 482.63 814.079C482.458 814.19 482.268 814.242 482.079 814.242Z" fill="url(#paint43_linear_744_5008)"/>
<path d="M484.99 674.071C484.99 674.071 496.157 699.722 496.907 713.186C497.657 726.649 500.558 735.385 484.99 738.096C469.423 740.807 456.31 733.052 449.205 719.641C449.205 719.641 438.074 698.977 440.571 690.514C443.068 682.05 484.99 674.071 484.99 674.071Z" fill="url(#paint44_linear_744_5008)"/>
<path d="M454.525 709.999L455.411 709.608C456.539 709.111 457.022 707.768 456.455 706.673C454.26 702.432 449.98 692.712 455.509 690.445C462.634 687.523 490.855 681.768 496.944 671.754C502.796 662.13 497.611 649.706 489.819 646.173C489.297 645.936 488.683 646.124 488.415 646.63L487.766 647.859C487.321 648.7 486.079 648.573 485.814 647.659C485.56 646.781 484.393 646.612 483.909 647.386C482.038 650.382 476.984 655.239 463.471 657.733C444.267 661.277 431.57 669.049 431.253 682.32C431.234 683.163 430.337 683.632 429.616 683.193C428.198 682.328 425.929 681.923 422.897 684.473C417.622 688.908 419.781 700.412 431.343 709.875C431.892 710.325 431.888 711.182 431.293 711.569C429.197 712.934 426.072 716.18 434.168 720.508C442.543 724.985 448.796 724.618 451.204 724.221C451.803 724.122 452.189 723.542 452.059 722.949L449.489 711.285C449.343 710.625 449.846 710 450.522 710H454.525V709.999Z" fill="url(#paint45_linear_744_5008)"/>
<path d="M455.008 712.459C455.008 712.459 450.748 696.074 443.402 700.668C436.056 705.262 447.214 719.028 453.12 719.64L455.008 712.459Z" fill="url(#paint46_linear_744_5008)"/>
<path d="M599.599 757.483C599.599 757.483 594.002 747.56 594.358 742.739C594.714 737.918 591.71 730.837 594.906 731.362C598.103 731.885 598.763 731.458 599.631 737.243C600.499 743.028 610.588 768.296 599.599 757.483Z" fill="url(#paint47_linear_744_5008)"/>
<path d="M600.651 741.706L600.523 761.529C562.635 802.436 531.97 804.844 507.102 796.053C499.584 808.302 490.404 824.777 486.235 838.2C587.411 860.506 611.237 767.492 611.237 767.492C624.941 761.816 627.703 758.495 627.114 754.775L600.651 741.706Z" fill="url(#paint48_linear_744_5008)"/>
<path d="M629.789 722.04C626.555 720.727 620.227 708.663 619.015 712.632C617.803 716.6 619.527 722.04 619.015 723.727C618.503 725.415 610.614 744.831 612.19 749.144C613.326 752.257 619.59 751.797 620.546 756.889C620.863 758.579 622.214 759.791 623.781 759.792C625.347 759.793 626.699 758.582 627.019 756.893C627.146 756.215 633.022 723.352 629.789 722.04Z" fill="url(#paint49_linear_744_5008)"/>
<path d="M526.519 680.753C500.97 731.283 521.222 792.957 571.753 818.505C612.823 839.27 661.255 829.777 691.668 798.363L867.232 887.129C870.148 888.603 873.617 888.483 876.424 886.811L893.594 876.583C893.89 876.407 894.169 876.213 894.439 876.01C894.515 875.953 894.587 875.892 894.661 875.833C894.861 875.674 895.053 875.508 895.237 875.335C895.3 875.276 895.363 875.217 895.423 875.157C895.651 874.932 895.869 874.697 896.071 874.452C896.074 874.448 896.078 874.445 896.08 874.441C898.236 871.817 898.895 868.154 897.575 864.846L883.621 829.87C882.759 827.709 881.138 825.938 879.063 824.888L861.478 815.997L856.824 825.201L841.718 817.563L846.371 808.359L832.239 801.213L827.957 809.68L809.597 800.398L813.879 791.93L807.038 788.472L804.834 792.83L789.443 785.048L791.647 780.69L779.676 774.637L775.022 783.841L766.471 779.518L771.125 770.314L763.714 766.567L759.061 775.771L744.24 768.278L748.893 759.073L728.06 748.541L719.139 744.03C726.408 700.914 705.342 656.284 664.271 635.518C613.74 609.97 552.066 630.222 526.519 680.753ZM586.335 687.733C596.566 692.906 600.668 705.395 595.495 715.627C590.321 725.859 577.832 729.96 567.601 724.787C557.369 719.614 553.267 707.125 558.441 696.893C563.614 686.661 576.103 682.56 586.335 687.733Z" fill="url(#paint50_linear_744_5008)"/>
<path d="M668.826 711.718L752.053 753.797L747.399 763.001L762.221 770.495L766.874 761.291L774.285 765.038L769.631 774.242L778.182 778.565L782.836 769.361L794.806 775.414L792.603 779.772L807.994 787.554L810.198 783.196L817.038 786.654L812.757 795.121L831.117 804.404L835.398 795.937L849.531 803.083L844.878 812.287L859.984 819.925L864.638 810.721L882.223 819.612C884.299 820.661 885.92 822.433 886.781 824.593L900.735 859.569C902.474 863.928 900.786 868.905 896.754 871.307L879.584 881.535C876.776 883.207 873.308 883.327 870.392 881.852L658.456 774.697L668.826 711.718Z" fill="url(#paint51_linear_744_5008)"/>
<path d="M574.913 813.228C625.443 838.777 687.117 818.524 712.665 767.994C738.213 717.464 717.961 655.79 667.431 630.242C616.9 604.694 555.227 624.946 529.679 675.476C504.131 726.006 524.383 787.68 574.913 813.228ZM570.761 719.51C560.53 714.337 556.428 701.848 561.601 691.616C566.775 681.384 579.264 677.283 589.495 682.456C599.727 687.629 603.828 700.118 598.655 710.35C593.482 720.582 580.993 724.683 570.761 719.51Z" fill="url(#paint52_linear_744_5008)"/>
<path d="M694.828 793.087L870.393 881.852C873.309 883.326 876.777 883.207 879.584 881.534L896.755 871.306C899.344 869.764 900.949 867.157 901.319 864.337C885.317 846.999 733.217 780.582 727.528 766.912C725.504 762.05 725.157 754.686 731.221 743.265L722.299 738.754C729.569 695.639 708.503 651.008 667.431 630.242C616.901 604.694 555.227 624.946 529.679 675.476C504.131 726.006 524.383 787.68 574.913 813.228C615.984 833.993 664.415 824.5 694.828 793.087ZM589.496 682.457C599.727 687.63 603.828 700.119 598.655 710.351C593.482 720.582 580.993 724.683 570.761 719.51C560.53 714.337 556.428 701.848 561.602 691.616C566.775 681.384 579.264 677.283 589.496 682.457Z" fill="url(#paint53_linear_744_5008)"/>
<path d="M583.992 795.272C624.606 815.806 674.175 799.529 694.709 758.916C715.243 718.303 698.966 668.733 658.352 648.199C617.738 627.665 568.169 643.942 547.635 684.555C527.101 725.168 543.378 774.737 583.992 795.272ZM570.761 719.51C560.53 714.337 556.428 701.848 561.602 691.616C566.775 681.384 579.264 677.283 589.496 682.456C599.727 687.63 603.828 700.119 598.655 710.35C593.482 720.583 580.993 724.683 570.761 719.51Z" fill="url(#paint54_linear_744_5008)"/>
<path d="M444.736 852.137C444.736 852.137 541.283 884.457 595.287 843.34C598.636 840.79 602.863 839.678 607.018 840.355L627.649 843.716C636.308 845.126 644.558 839.515 646.425 830.942C647.489 826.052 648.002 820.703 646.917 816.109L607.969 813.76L609.083 808.706C609.083 808.706 591.869 812.917 591.522 826.385C591.522 826.385 551.142 852.837 477.492 811.781C477.492 811.781 448.812 834.226 444.736 852.137Z" fill="url(#paint55_linear_744_5008)"/>
<g opacity="0.3">
<path d="M1190.45 368.095C1188.2 368.003 1186.45 366.105 1186.55 363.857C1186.72 359.49 1186.72 355.05 1186.52 350.66C1186.42 348.44 1188.12 346.555 1190.33 346.415C1190.36 346.413 1190.38 346.412 1190.41 346.41C1192.66 346.31 1194.56 348.052 1194.66 350.3C1194.87 354.92 1194.87 359.595 1194.69 364.192C1194.6 366.294 1192.93 367.959 1190.88 368.09C1190.74 368.098 1190.59 368.101 1190.45 368.095ZM1184.11 329.359C1183.32 325.039 1182.33 320.712 1181.18 316.495C1180.59 314.326 1181.87 312.085 1184.04 311.493C1186.22 310.907 1188.45 312.182 1189.04 314.353C1190.25 318.79 1191.29 323.345 1192.12 327.89C1192.53 330.103 1191.06 332.226 1188.85 332.631C1188.69 332.66 1188.53 332.68 1188.37 332.69C1186.34 332.819 1184.48 331.411 1184.11 329.359ZM1174.13 296.265C1172.4 292.24 1170.47 288.242 1168.41 284.38C1167.34 282.396 1168.09 279.927 1170.07 278.866C1172.06 277.807 1174.52 278.551 1175.59 280.534C1177.77 284.602 1179.79 288.813 1181.61 293.05C1182.5 295.117 1181.54 297.513 1179.48 298.401C1179.03 298.59 1178.58 298.696 1178.13 298.725C1176.46 298.83 1174.82 297.891 1174.13 296.265ZM1156.99 266.234C1154.41 262.693 1151.63 259.224 1148.76 255.921C1147.28 254.224 1147.46 251.651 1149.15 250.174C1150.85 248.698 1153.42 248.876 1154.9 250.569C1157.93 254.047 1160.85 257.7 1163.57 261.426C1164.9 263.242 1164.5 265.791 1162.68 267.118C1162.03 267.593 1161.29 267.847 1160.54 267.895C1159.2 267.98 1157.84 267.4 1156.99 266.234ZM1133.6 240.769C1130.29 237.898 1126.82 235.127 1123.28 232.537C1121.46 231.208 1121.07 228.659 1122.4 226.844C1123.72 225.026 1126.27 224.632 1128.09 225.961C1131.82 228.687 1135.47 231.602 1138.94 234.623C1140.64 236.099 1140.82 238.672 1139.34 240.37C1138.6 241.225 1137.58 241.695 1136.53 241.762C1135.49 241.827 1134.44 241.502 1133.6 240.769ZM1105.15 221.116C1101.29 219.042 1097.29 217.11 1093.27 215.371C1091.2 214.478 1090.25 212.08 1091.15 210.016C1092.04 207.951 1094.43 206.999 1096.5 207.892C1100.73 209.721 1104.94 211.757 1109 213.938C1110.98 215.004 1111.73 217.473 1110.66 219.455C1109.97 220.742 1108.69 221.506 1107.33 221.593C1106.6 221.639 1105.84 221.49 1105.15 221.116ZM953.891 219.219C952.832 217.235 953.583 214.767 955.569 213.708C959.635 211.54 963.853 209.52 968.101 207.705C970.17 206.821 972.564 207.782 973.447 209.851C974.331 211.919 973.37 214.313 971.302 215.197C967.267 216.919 963.263 218.838 959.402 220.898C958.872 221.18 958.309 221.334 957.746 221.369C956.201 221.467 954.667 220.675 953.891 219.219ZM1073.07 208.265C1068.85 207.103 1064.53 206.109 1060.22 205.315C1058.01 204.905 1056.54 202.78 1056.95 200.568C1057.36 198.355 1059.49 196.904 1061.7 197.303C1066.23 198.141 1070.79 199.186 1075.23 200.411C1077.4 201.008 1078.68 203.25 1078.08 205.42C1077.6 207.14 1076.1 208.298 1074.41 208.405C1073.97 208.433 1073.52 208.388 1073.07 208.265ZM986.554 205.306C985.967 203.135 987.252 200.898 989.424 200.31C993.872 199.108 998.432 198.082 1002.97 197.258C1005.19 196.846 1007.31 198.327 1007.71 200.54C1008.11 202.753 1006.64 204.873 1004.43 205.275C1000.11 206.058 995.776 207.032 991.549 208.176C991.279 208.249 991.009 208.292 990.74 208.309C988.847 208.429 987.068 207.208 986.554 205.306ZM1038.93 202.906C1034.56 202.718 1030.12 202.716 1025.74 202.902C1023.49 202.998 1021.59 201.253 1021.5 199.005C1021.4 196.786 1023.1 194.907 1025.31 194.767C1025.34 194.765 1025.36 194.763 1025.39 194.763C1030.01 194.566 1034.68 194.568 1039.28 194.765C1041.53 194.863 1043.27 196.763 1043.18 199.011C1043.09 201.11 1041.42 202.77 1039.37 202.9C1039.23 202.91 1039.08 202.911 1038.93 202.906Z" fill="#91B3FA"/>
<path d="M933.827 237.057C934.628 237.006 935.422 236.72 936.098 236.183C937.743 234.876 939.442 233.584 941.149 232.337C942.966 231.011 943.365 228.462 942.039 226.646C940.713 224.828 938.163 224.427 936.347 225.757C934.551 227.067 932.764 228.427 931.033 229.801C929.271 231.2 928.976 233.763 930.375 235.524C931.237 236.611 932.541 237.139 933.827 237.057Z" fill="#91B3FA"/>
</g>
<g opacity="0.3">
<path d="M874.441 346.13C876.403 346.006 878.04 344.473 878.234 342.454C878.434 340.364 878.681 338.242 878.969 336.149C879.275 333.92 877.717 331.865 875.489 331.558C873.25 331.251 871.204 332.811 870.898 335.039C870.595 337.242 870.334 339.476 870.123 341.677C869.909 343.917 871.551 345.906 873.79 346.121C874.01 346.142 874.228 346.144 874.441 346.13Z" fill="#91B3FA"/>
<path d="M1034.24 520.033C1031.99 520.066 1030.14 518.268 1030.1 516.017C1030.07 513.768 1031.87 511.923 1034.12 511.886C1038.4 511.825 1042.75 511.579 1047.09 511.157C1049.31 510.933 1051.32 512.579 1051.54 514.818C1051.75 517.057 1050.12 519.049 1047.88 519.268C1046 519.451 1044.12 519.602 1042.25 519.72C1039.58 519.89 1036.88 519.996 1034.24 520.033ZM1064.87 512.599C1064.35 510.411 1065.71 508.216 1067.9 507.697C1072.1 506.7 1076.3 505.516 1080.4 504.176C1082.53 503.47 1084.84 504.64 1085.54 506.778C1086.24 508.915 1085.07 511.217 1082.93 511.917C1078.63 513.329 1074.2 514.576 1069.78 515.623C1069.55 515.678 1069.32 515.712 1069.09 515.726C1067.14 515.849 1065.34 514.559 1064.87 512.599ZM1012.07 518.832C1007.57 518.277 1003.04 517.522 998.588 516.586C996.386 516.123 994.977 513.963 995.44 511.761C995.903 509.56 998.062 508.153 1000.26 508.613C1004.49 509.502 1008.8 510.219 1013.07 510.745C1015.3 511.021 1016.89 513.054 1016.61 515.288C1016.37 517.263 1014.75 518.732 1012.83 518.853C1012.58 518.869 1012.33 518.863 1012.07 518.832ZM1098.06 501.697C1097.08 499.676 1097.92 497.236 1099.94 496.25C1103.81 494.358 1107.65 492.278 1111.35 490.068C1113.29 488.912 1115.78 489.543 1116.94 491.475C1118.09 493.406 1117.46 495.906 1115.53 497.06C1111.64 499.388 1107.59 501.579 1103.51 503.571C1103.02 503.811 1102.5 503.945 1101.98 503.977C1100.39 504.079 1098.81 503.225 1098.06 501.697ZM977.247 510.54C972.984 509.01 968.727 507.276 964.593 505.386C962.547 504.451 961.646 502.035 962.581 499.989C963.516 497.941 965.934 497.042 967.98 497.977C971.907 499.772 975.95 501.419 979.999 502.871C982.117 503.631 983.218 505.964 982.458 508.082C981.891 509.66 980.452 510.672 978.88 510.772C978.341 510.807 977.786 510.733 977.247 510.54ZM945.086 494.811C941.251 492.381 937.474 489.76 933.86 487.023C932.067 485.663 931.714 483.109 933.072 481.315C934.433 479.519 936.988 479.168 938.779 480.529C942.214 483.129 945.803 485.62 949.447 487.93C951.347 489.135 951.911 491.652 950.707 493.552C949.981 494.696 948.778 495.356 947.521 495.436C946.692 495.489 945.84 495.29 945.086 494.811ZM917.115 472.447C913.899 469.238 910.783 465.856 907.853 462.399C906.398 460.682 906.611 458.113 908.327 456.658C910.046 455.201 912.615 455.417 914.068 457.132C916.852 460.418 919.813 463.629 922.87 466.68C924.463 468.269 924.465 470.849 922.876 472.44C922.146 473.172 921.209 473.568 920.252 473.628C919.127 473.7 917.977 473.307 917.115 472.447ZM894.69 444.515C892.254 440.68 889.953 436.697 887.852 432.675C886.81 430.681 887.582 428.22 889.577 427.178C891.567 426.138 894.031 426.91 895.073 428.903C897.068 432.721 899.252 436.503 901.567 440.146C902.774 442.045 902.213 444.562 900.313 445.768C899.714 446.149 899.053 446.354 898.39 446.396C896.956 446.487 895.516 445.814 894.69 444.515ZM878.943 412.32C877.415 408.053 876.05 403.664 874.884 399.275C874.307 397.1 875.602 394.868 877.777 394.292C879.945 393.717 882.181 395.009 882.759 397.183C883.865 401.354 885.162 405.523 886.613 409.576C887.371 411.693 886.268 414.025 884.151 414.783C883.782 414.915 883.407 414.992 883.035 415.016C881.269 415.127 879.569 414.07 878.943 412.32ZM870.657 377.49C870.243 374.176 869.925 370.808 869.714 367.481C869.638 366.276 869.575 365.075 869.525 363.874C869.432 361.627 871.148 359.686 873.426 359.636C875.673 359.541 877.571 361.287 877.666 363.536C877.713 364.676 877.773 365.82 877.845 366.965C878.046 370.129 878.347 373.328 878.741 376.48C879.02 378.711 877.437 380.747 875.205 381.026C875.121 381.036 875.037 381.045 874.954 381.05C872.821 381.186 870.925 379.639 870.657 377.49Z" fill="#91B3FA"/>
<path d="M1131.56 485.21C1132.37 485.158 1133.17 484.867 1133.85 484.323C1135.57 482.943 1137.29 481.501 1138.97 480.036C1140.67 478.557 1140.84 475.983 1139.36 474.288C1137.88 472.593 1135.31 472.415 1133.62 473.896C1132.02 475.287 1130.38 476.657 1128.75 477.967C1126.99 479.373 1126.71 481.938 1128.12 483.693C1128.98 484.769 1130.28 485.291 1131.56 485.21Z" fill="#91B3FA"/>
</g>
<path d="M1139.25 415.801C1139.73 415.139 1139.73 414.252 1139.26 413.59L1125.84 394.7C1129.96 384.695 1132.52 373.96 1133.25 362.848L1153.61 351.819C1154.33 351.432 1154.72 350.635 1154.59 349.834L1150.04 322.414C1149.91 321.612 1149.28 320.984 1148.48 320.848L1125.65 316.983C1121.37 306.701 1115.48 297.367 1108.35 289.229L1114.95 267.019C1115.18 266.24 1114.89 265.4 1114.23 264.928L1091.63 248.754C1090.97 248.282 1090.08 248.28 1089.42 248.75L1070.53 262.17C1060.52 258.046 1049.79 255.487 1038.68 254.756L1027.65 234.394C1027.26 233.679 1026.46 233.289 1025.66 233.422L998.242 237.969C997.441 238.103 996.812 238.729 996.677 239.53L992.811 262.362C982.53 266.642 973.195 272.528 965.058 279.661L942.847 273.057C942.068 272.826 941.229 273.113 940.756 273.774L924.582 296.378C924.11 297.038 924.108 297.926 924.578 298.588L937.998 317.479C933.874 327.483 931.316 338.218 930.584 349.331L910.222 360.359C909.508 360.746 909.118 361.544 909.251 362.345L913.798 389.765C913.931 390.567 914.558 391.195 915.358 391.331L938.191 395.197C942.47 405.478 948.357 414.812 955.489 422.95L948.886 445.161C948.654 445.939 948.942 446.779 949.603 447.252L972.207 463.426C972.867 463.898 973.755 463.9 974.417 463.429L993.308 450.009C1003.31 454.133 1014.05 456.692 1025.16 457.424L1036.19 477.786C1036.57 478.499 1037.37 478.89 1038.17 478.757L1065.59 474.21C1066.39 474.077 1067.02 473.45 1067.16 472.649L1071.02 449.817C1081.31 445.537 1090.64 439.651 1098.78 432.518L1120.99 439.122C1121.77 439.354 1122.61 439.066 1123.08 438.405L1139.25 415.801Z" fill="#91B3FA"/>
<path d="M1029.6 383.932C1014.25 382.655 1002.8 369.128 1004.08 353.774C1004.69 346.337 1008.17 339.586 1013.87 334.765C1019.56 329.944 1026.79 327.627 1034.23 328.247C1049.59 329.524 1061.04 343.051 1059.76 358.405C1058.6 372.372 1047.3 383.11 1033.71 383.973C1032.36 384.058 1030.99 384.046 1029.6 383.932ZM1018.08 339.739C1013.71 343.437 1011.05 348.612 1010.57 354.315C1009.59 366.085 1018.37 376.459 1030.14 377.437C1041.92 378.42 1052.29 369.635 1053.27 357.864C1054.24 346.094 1045.46 335.72 1033.69 334.742C1032.63 334.653 1031.57 334.644 1030.52 334.711C1025.96 335 1021.63 336.735 1018.08 339.739Z" fill="#BDD0FB"/>
<path d="M1035.69 424.281C1038.03 424.133 1040.37 423.866 1042.71 423.478C1043.44 423.357 1044.18 423.222 1044.91 423.077C1048.52 422.358 1052.07 421.354 1055.49 420.079C1055.54 420.062 1055.59 420.044 1055.64 420.027C1055.77 419.978 1055.9 419.928 1056.03 419.876C1056.29 419.779 1056.55 419.678 1056.8 419.577C1057.48 419.311 1057.87 418.647 1057.83 417.961C1057.82 417.794 1057.78 417.626 1057.72 417.463C1057.39 416.626 1056.44 416.219 1055.6 416.548C1051.3 418.251 1046.78 419.501 1042.17 420.264C1019.3 424.061 997.183 415.439 982.729 399.347C974.689 390.398 969.02 379.136 966.911 366.413C966.54 364.182 966.285 361.949 966.145 359.722C965.196 344.738 969.394 330.005 978.249 317.63C988.42 303.415 1003.52 294.011 1020.76 291.152C1056.37 285.249 1090.12 309.407 1096.02 345.002C1096.39 347.197 1096.64 349.402 1096.78 351.607C1097.38 361.166 1095.89 370.751 1092.37 379.668C1092.28 379.898 1092.25 380.137 1092.26 380.369C1092.3 380.978 1092.68 381.542 1093.29 381.781C1094.13 382.109 1095.07 381.703 1095.4 380.863C1099.1 371.5 1100.67 361.437 1100.03 351.403C1099.88 349.087 1099.62 346.773 1099.24 344.469C1093.04 307.098 1057.59 281.741 1020.23 287.935C1002.13 290.937 986.276 300.81 975.598 315.733C966.302 328.725 961.895 344.191 962.891 359.922C963.04 362.26 963.308 364.604 963.695 366.945C966.697 385.049 976.569 400.899 991.493 411.577C1004.49 420.874 1019.96 425.279 1035.69 424.281Z" fill="#BDD0FB"/>
<g opacity="0.3">
<path d="M1336.41 466.417C1337.5 466.347 1338.45 465.575 1338.7 464.459C1339.17 462.376 1339.59 460.25 1339.93 458.14C1340.16 456.769 1339.23 455.477 1337.86 455.251C1336.48 455.02 1335.19 455.957 1334.97 457.327C1334.64 459.338 1334.24 461.364 1333.79 463.352C1333.49 464.706 1334.34 466.053 1335.69 466.361C1335.93 466.414 1336.17 466.431 1336.41 466.417Z" fill="#91B3FA"/>
<path d="M1338.66 447.231C1337.28 447.176 1336.19 446.009 1336.25 444.619C1336.38 441.115 1336.34 437.563 1336.11 434.064C1336.07 433.326 1336.01 432.585 1335.95 431.844C1335.83 430.46 1336.86 429.243 1338.24 429.125C1339.56 429.067 1340.84 430.036 1340.96 431.422C1341.03 432.198 1341.09 432.973 1341.13 433.745C1341.37 437.413 1341.41 441.138 1341.27 444.813C1341.22 446.113 1340.19 447.146 1338.92 447.227C1338.84 447.232 1338.75 447.232 1338.66 447.231ZM1334.1 419.201C1333.23 415.039 1332.09 410.894 1330.72 406.882C1330.27 405.566 1330.97 404.138 1332.29 403.688C1333.6 403.243 1335.03 403.939 1335.48 405.255C1336.92 409.46 1338.11 413.806 1339.02 418.17C1339.31 419.53 1338.44 420.863 1337.07 421.149C1336.96 421.174 1336.83 421.189 1336.72 421.196C1335.49 421.274 1334.36 420.44 1334.1 419.201ZM1325.84 395.071C1323.98 391.255 1321.86 387.517 1319.54 383.957C1318.78 382.794 1319.11 381.235 1320.27 380.476C1321.44 379.715 1322.99 380.043 1323.75 381.208C1326.19 384.94 1328.41 388.864 1330.36 392.864C1330.97 394.113 1330.46 395.62 1329.21 396.229C1328.9 396.376 1328.58 396.458 1328.26 396.479C1327.28 396.541 1326.3 396.015 1325.84 395.071ZM1311.91 373.708C1309.16 370.46 1306.19 367.352 1303.08 364.477C1302.06 363.532 1301.99 361.941 1302.94 360.921C1303.88 359.904 1305.47 359.837 1306.49 360.779C1309.76 363.797 1312.87 367.053 1315.75 370.46C1316.65 371.521 1316.52 373.11 1315.45 374.007C1315.03 374.367 1314.51 374.562 1313.99 374.595C1313.22 374.643 1312.44 374.341 1311.91 373.708ZM1293.18 356.392C1289.73 353.911 1286.1 351.62 1282.38 349.582C1281.16 348.916 1280.71 347.385 1281.38 346.167C1282.05 344.947 1283.57 344.498 1284.79 345.169C1288.69 347.305 1292.5 349.707 1296.12 352.307C1297.25 353.119 1297.51 354.691 1296.7 355.818C1296.24 356.455 1295.54 356.814 1294.81 356.861C1294.25 356.896 1293.67 356.745 1293.18 356.392ZM1270.82 344.148C1266.87 342.581 1262.79 341.248 1258.69 340.184C1257.35 339.836 1256.54 338.462 1256.89 337.118C1257.24 335.773 1258.6 334.968 1259.95 335.313C1264.26 336.428 1268.54 337.828 1272.68 339.471C1273.97 339.985 1274.6 341.447 1274.09 342.737C1273.72 343.671 1272.85 344.261 1271.91 344.321C1271.55 344.343 1271.18 344.29 1270.82 344.148ZM1246.15 337.747C1241.96 337.199 1237.67 336.907 1233.41 336.882C1232.02 336.871 1230.9 335.739 1230.91 334.35C1230.92 332.961 1232.05 331.862 1233.44 331.848C1237.91 331.877 1242.4 332.182 1246.8 332.757C1248.18 332.938 1249.15 334.201 1248.97 335.579C1248.82 336.79 1247.82 337.688 1246.64 337.763C1246.48 337.773 1246.32 337.769 1246.15 337.747ZM1205.04 338.003C1204.71 336.653 1205.53 335.293 1206.88 334.964C1210.62 334.052 1214.47 333.33 1218.32 332.817C1218.9 332.736 1219.49 332.664 1220.07 332.595C1221.44 332.395 1222.7 333.423 1222.86 334.806C1223.02 336.187 1222.03 337.434 1220.65 337.595C1220.1 337.657 1219.55 337.727 1219 337.804C1215.31 338.293 1211.64 338.982 1208.08 339.851C1207.93 339.888 1207.78 339.909 1207.64 339.918C1206.44 339.994 1205.33 339.206 1205.04 338.003Z" fill="#91B3FA"/>
</g>
<g opacity="0.3">
<path d="M1238.05 549.061C1233.67 549.282 1229.24 549.236 1224.88 548.929C1223.5 548.83 1222.45 547.628 1222.55 546.241C1222.65 544.853 1223.86 543.824 1225.24 543.909C1229.4 544.203 1233.62 544.245 1237.8 544.034C1239.19 543.963 1240.37 545.033 1240.44 546.42C1240.51 547.797 1239.46 548.971 1238.09 549.058C1238.08 549.059 1238.06 549.06 1238.05 549.061ZM1248.24 545.553C1248.01 544.184 1248.93 542.882 1250.3 542.648C1254.42 541.938 1258.53 540.973 1262.54 539.776C1263.86 539.384 1265.27 540.134 1265.67 541.468C1266.07 542.8 1265.31 544.199 1263.98 544.599C1259.78 545.852 1255.47 546.865 1251.15 547.606C1251.06 547.622 1250.97 547.633 1250.88 547.638C1249.61 547.719 1248.47 546.834 1248.24 545.553ZM1211.82 547.195C1207.51 546.351 1203.22 545.237 1199.07 543.883C1197.74 543.453 1197.02 542.031 1197.45 540.712C1197.88 539.389 1199.3 538.672 1200.62 539.097C1204.59 540.389 1208.68 541.452 1212.79 542.259C1214.15 542.527 1215.04 543.85 1214.77 545.211C1214.54 546.357 1213.57 547.167 1212.46 547.238C1212.25 547.252 1212.03 547.238 1211.82 547.195ZM1273.04 538.76C1272.48 537.488 1273.06 536.004 1274.33 535.445C1278.16 533.767 1281.92 531.837 1285.51 529.706C1286.71 529 1288.25 529.394 1288.96 530.585C1289.67 531.781 1289.28 533.325 1288.08 534.033C1284.31 536.269 1280.37 538.294 1276.35 540.054C1276.07 540.174 1275.79 540.242 1275.5 540.26C1274.48 540.325 1273.47 539.754 1273.04 538.76ZM1186.82 539.048C1182.85 537.197 1178.96 535.083 1175.24 532.766C1174.06 532.031 1173.7 530.478 1174.44 529.299C1175.17 528.12 1176.72 527.758 1177.9 528.495C1181.45 530.708 1185.16 532.722 1188.95 534.486C1190.21 535.073 1190.75 536.57 1190.16 537.831C1189.76 538.693 1188.93 539.221 1188.04 539.277C1187.63 539.304 1187.21 539.232 1186.82 539.048ZM1164.5 525.139C1161.09 522.386 1157.81 519.402 1154.76 516.269C1153.79 515.274 1153.81 513.683 1154.81 512.713C1155.8 511.744 1157.39 511.764 1158.36 512.761C1161.27 515.747 1164.4 518.594 1167.66 521.221C1168.74 522.093 1168.91 523.677 1168.04 524.759C1167.58 525.33 1166.92 525.648 1166.24 525.691C1165.63 525.729 1165.01 525.549 1164.5 525.139ZM1146.15 506.285C1143.5 502.793 1141.03 499.107 1138.82 495.332C1138.12 494.131 1138.52 492.591 1139.72 491.89C1140.92 491.188 1142.46 491.595 1143.17 492.791C1145.27 496.393 1147.62 499.907 1150.16 503.234C1151 504.34 1150.79 505.92 1149.68 506.761C1149.27 507.075 1148.8 507.24 1148.32 507.27C1147.51 507.322 1146.68 506.98 1146.15 506.285Z" fill="#91B3FA"/>
<path d="M1297.7 527.081C1298.19 527.05 1298.67 526.879 1299.08 526.56C1300.79 525.243 1302.46 523.869 1304.05 522.478C1305.1 521.564 1305.21 519.974 1304.3 518.927C1303.38 517.885 1301.79 517.774 1300.74 518.685C1299.22 520.012 1297.63 521.322 1296 522.58C1294.9 523.43 1294.7 525.011 1295.55 526.109C1296.08 526.795 1296.9 527.132 1297.7 527.081Z" fill="#91B3FA"/>
</g>
<path d="M1304.38 479.65C1304.7 479.208 1304.7 478.614 1304.38 478.171L1295.4 465.53C1298.16 458.835 1299.87 451.653 1300.36 444.217L1313.99 436.837C1314.47 436.578 1314.73 436.044 1314.64 435.508L1311.6 417.16C1311.51 416.624 1311.09 416.202 1310.55 416.112L1295.27 413.525C1292.41 406.646 1288.47 400.399 1283.7 394.954L1288.12 380.091C1288.27 379.57 1288.08 379.009 1287.64 378.692L1272.51 367.869C1272.07 367.553 1271.48 367.552 1271.03 367.867L1258.39 376.847C1251.7 374.087 1244.51 372.375 1237.08 371.886L1229.7 358.26C1229.44 357.782 1228.91 357.521 1228.37 357.61L1210.02 360.653C1209.49 360.742 1209.07 361.161 1208.97 361.697L1206.39 376.975C1199.51 379.839 1193.26 383.778 1187.82 388.551L1172.95 384.132C1172.43 383.977 1171.87 384.17 1171.55 384.612L1160.73 399.738C1160.42 400.18 1160.42 400.774 1160.73 401.217L1169.71 413.858C1166.95 420.552 1165.24 427.736 1164.75 435.171L1151.12 442.551C1150.65 442.81 1150.38 443.343 1150.47 443.88L1153.52 462.228C1153.61 462.765 1154.02 463.185 1154.56 463.276L1169.84 465.863C1172.7 472.742 1176.64 478.988 1181.41 484.434L1177 499.297C1176.84 499.818 1177.03 500.38 1177.48 500.696L1192.6 511.519C1193.04 511.835 1193.64 511.836 1194.08 511.521L1206.72 502.541C1213.42 505.301 1220.6 507.012 1228.04 507.502L1235.42 521.128C1235.67 521.606 1236.21 521.867 1236.74 521.778L1255.09 518.735C1255.63 518.646 1256.05 518.226 1256.14 517.69L1258.73 502.412C1265.61 499.549 1271.85 495.609 1277.3 490.836L1292.16 495.256C1292.68 495.411 1293.24 495.218 1293.56 494.776L1304.38 479.65Z" fill="#91B3FA"/>
<path d="M1230.98 458.659C1225.91 458.24 1221.31 455.871 1218.03 451.99C1214.75 448.111 1213.17 443.184 1213.59 438.118C1214.46 427.661 1223.66 419.876 1234.13 420.728C1244.59 421.6 1252.39 430.815 1251.52 441.269C1251.1 446.335 1248.73 450.934 1244.85 454.219C1241.7 456.888 1237.85 458.43 1233.8 458.687C1232.87 458.746 1231.93 458.737 1230.98 458.659ZM1218.61 438.533C1218.3 442.26 1219.45 445.884 1221.87 448.74C1224.29 451.592 1227.67 453.335 1231.4 453.645C1235.12 453.95 1238.75 452.794 1241.6 450.378C1244.46 447.964 1246.2 444.579 1246.51 440.854C1247.15 433.161 1241.41 426.383 1233.72 425.742C1233.02 425.685 1232.34 425.68 1231.66 425.722C1224.85 426.155 1219.19 431.537 1218.61 438.533Z" fill="#BDD0FB"/>
<path d="M1235.22 486.742C1236.81 486.641 1238.41 486.458 1240.01 486.194C1243.19 485.667 1246.32 484.816 1249.33 483.66C1249.46 483.607 1249.6 483.554 1249.73 483.501C1250.77 483.091 1251.38 482.064 1251.32 481.005C1251.3 480.748 1251.25 480.488 1251.15 480.236C1250.63 478.944 1249.17 478.318 1247.88 478.823C1245.09 479.928 1242.16 480.737 1239.19 481.228H1239.19C1239.02 481.256 1238.86 481.281 1238.7 481.306C1231.65 482.406 1224.59 481.707 1218.04 479.365C1214.49 478.094 1211.09 476.336 1207.92 474.112C1207.89 474.093 1207.87 474.076 1207.84 474.057C1207.76 474.001 1207.68 473.947 1207.61 473.89C1198.4 467.305 1192.31 457.531 1190.46 446.368C1190.22 444.923 1190.06 443.479 1189.97 442.037C1189.35 432.336 1192.07 422.799 1197.8 414.786C1204.39 405.584 1214.16 399.498 1225.32 397.647C1236.48 395.801 1247.7 398.403 1256.91 404.985C1266.11 411.57 1272.2 421.344 1274.05 432.507C1274.28 433.927 1274.45 435.355 1274.54 436.782C1274.93 442.971 1273.96 449.175 1271.68 454.948C1271.54 455.304 1271.49 455.671 1271.51 456.03C1271.57 456.971 1272.16 457.842 1273.1 458.211C1274.4 458.718 1275.85 458.088 1276.37 456.793C1278.91 450.334 1280 443.391 1279.56 436.469C1279.46 434.871 1279.28 433.274 1279.01 431.686C1276.94 419.195 1270.13 408.261 1259.83 400.894C1249.54 393.529 1237 390.602 1224.5 392.683C1212.01 394.753 1201.08 401.563 1193.71 411.861C1187.3 420.824 1184.26 431.494 1184.95 442.347C1185.05 443.958 1185.23 445.576 1185.5 447.191C1189.51 471.371 1211.27 488.262 1235.22 486.742Z" fill="#BDD0FB"/>
</g>
<defs>
<linearGradient id="paint0_linear_744_5008" x1="1478.7" y1="1667.21" x2="466.453" y2="410.062" gradientUnits="userSpaceOnUse">
<stop stop-color="#DAE3FE"/>
<stop offset="1" stop-color="#E9EFFD"/>
</linearGradient>
<linearGradient id="paint1_linear_744_5008" x1="438.113" y1="768.673" x2="525.197" y2="768.673" gradientUnits="userSpaceOnUse">
<stop stop-color="#DAE3FE"/>
<stop offset="1" stop-color="#E9EFFD"/>
</linearGradient>
<linearGradient id="paint2_linear_744_5008" x1="341.27" y1="768.664" x2="428.173" y2="768.664" gradientUnits="userSpaceOnUse">
<stop stop-color="#DAE3FE"/>
<stop offset="1" stop-color="#E9EFFD"/>
</linearGradient>
<linearGradient id="paint3_linear_744_5008" x1="244.524" y1="768.656" x2="331.247" y2="768.656" gradientUnits="userSpaceOnUse">
<stop stop-color="#DAE3FE"/>
<stop offset="1" stop-color="#E9EFFD"/>
</linearGradient>
<linearGradient id="paint4_linear_744_5008" x1="437.033" y1="832.032" x2="523.964" y2="832.032" gradientUnits="userSpaceOnUse">
<stop stop-color="#DAE3FE"/>
<stop offset="1" stop-color="#E9EFFD"/>
</linearGradient>
<linearGradient id="paint5_linear_744_5008" x1="340.359" y1="831.992" x2="427.11" y2="831.992" gradientUnits="userSpaceOnUse">
<stop stop-color="#DAE3FE"/>
<stop offset="1" stop-color="#E9EFFD"/>
</linearGradient>
<linearGradient id="paint6_linear_744_5008" x1="243.782" y1="831.951" x2="330.352" y2="831.951" gradientUnits="userSpaceOnUse">
<stop stop-color="#DAE3FE"/>
<stop offset="1" stop-color="#E9EFFD"/>
</linearGradient>
<linearGradient id="paint7_linear_744_5008" x1="435.957" y1="894.841" x2="522.735" y2="894.841" gradientUnits="userSpaceOnUse">
<stop stop-color="#DAE3FE"/>
<stop offset="1" stop-color="#E9EFFD"/>
</linearGradient>
<linearGradient id="paint8_linear_744_5008" x1="339.451" y1="894.769" x2="426.05" y2="894.769" gradientUnits="userSpaceOnUse">
<stop stop-color="#DAE3FE"/>
<stop offset="1" stop-color="#E9EFFD"/>
</linearGradient>
<linearGradient id="paint9_linear_744_5008" x1="243.042" y1="894.698" x2="329.461" y2="894.698" gradientUnits="userSpaceOnUse">
<stop stop-color="#DAE3FE"/>
<stop offset="1" stop-color="#E9EFFD"/>
</linearGradient>
<linearGradient id="paint10_linear_744_5008" x1="434.885" y1="957.432" x2="521.511" y2="957.432" gradientUnits="userSpaceOnUse">
<stop stop-color="#DAE3FE"/>
<stop offset="1" stop-color="#E9EFFD"/>
</linearGradient>
<linearGradient id="paint11_linear_744_5008" x1="338.546" y1="957.329" x2="424.994" y2="957.329" gradientUnits="userSpaceOnUse">
<stop stop-color="#DAE3FE"/>
<stop offset="1" stop-color="#E9EFFD"/>
</linearGradient>
<linearGradient id="paint12_linear_744_5008" x1="242.304" y1="957.226" x2="328.573" y2="957.226" gradientUnits="userSpaceOnUse">
<stop stop-color="#DAE3FE"/>
<stop offset="1" stop-color="#E9EFFD"/>
</linearGradient>
<linearGradient id="paint13_linear_744_5008" x1="433.816" y1="1019.81" x2="520.291" y2="1019.81" gradientUnits="userSpaceOnUse">
<stop stop-color="#DAE3FE"/>
<stop offset="1" stop-color="#E9EFFD"/>
</linearGradient>
<linearGradient id="paint14_linear_744_5008" x1="337.645" y1="1019.67" x2="423.941" y2="1019.67" gradientUnits="userSpaceOnUse">
<stop stop-color="#DAE3FE"/>
<stop offset="1" stop-color="#E9EFFD"/>
</linearGradient>
<linearGradient id="paint15_linear_744_5008" x1="241.569" y1="1019.54" x2="327.687" y2="1019.54" gradientUnits="userSpaceOnUse">
<stop stop-color="#DAE3FE"/>
<stop offset="1" stop-color="#E9EFFD"/>
</linearGradient>
<linearGradient id="paint16_linear_744_5008" x1="432.752" y1="1081.97" x2="519.076" y2="1081.97" gradientUnits="userSpaceOnUse">
<stop stop-color="#DAE3FE"/>
<stop offset="1" stop-color="#E9EFFD"/>
</linearGradient>
<linearGradient id="paint17_linear_744_5008" x1="336.746" y1="1081.8" x2="422.893" y2="1081.8" gradientUnits="userSpaceOnUse">
<stop stop-color="#DAE3FE"/>
<stop offset="1" stop-color="#E9EFFD"/>
</linearGradient>
<linearGradient id="paint18_linear_744_5008" x1="240.836" y1="1081.64" x2="326.805" y2="1081.64" gradientUnits="userSpaceOnUse">
<stop stop-color="#DAE3FE"/>
<stop offset="1" stop-color="#E9EFFD"/>
</linearGradient>
<linearGradient id="paint19_linear_744_5008" x1="431.69" y1="1143.91" x2="517.864" y2="1143.91" gradientUnits="userSpaceOnUse">
<stop stop-color="#DAE3FE"/>
<stop offset="1" stop-color="#E9EFFD"/>
</linearGradient>
<linearGradient id="paint20_linear_744_5008" x1="335.851" y1="1143.72" x2="421.847" y2="1143.72" gradientUnits="userSpaceOnUse">
<stop stop-color="#DAE3FE"/>
<stop offset="1" stop-color="#E9EFFD"/>
</linearGradient>
<linearGradient id="paint21_linear_744_5008" x1="240.106" y1="1143.52" x2="325.926" y2="1143.52" gradientUnits="userSpaceOnUse">
<stop stop-color="#DAE3FE"/>
<stop offset="1" stop-color="#E9EFFD"/>
</linearGradient>
<linearGradient id="paint22_linear_744_5008" x1="430.633" y1="1205.64" x2="516.657" y2="1205.64" gradientUnits="userSpaceOnUse">
<stop stop-color="#DAE3FE"/>
<stop offset="1" stop-color="#E9EFFD"/>
</linearGradient>
<linearGradient id="paint23_linear_744_5008" x1="334.958" y1="1205.42" x2="420.806" y2="1205.42" gradientUnits="userSpaceOnUse">
<stop stop-color="#DAE3FE"/>
<stop offset="1" stop-color="#E9EFFD"/>
</linearGradient>
<linearGradient id="paint24_linear_744_5008" x1="239.379" y1="1205.19" x2="325.05" y2="1205.19" gradientUnits="userSpaceOnUse">
<stop stop-color="#DAE3FE"/>
<stop offset="1" stop-color="#E9EFFD"/>
</linearGradient>
<linearGradient id="paint25_linear_744_5008" x1="429.579" y1="1267.16" x2="515.454" y2="1267.16" gradientUnits="userSpaceOnUse">
<stop stop-color="#DAE3FE"/>
<stop offset="1" stop-color="#E9EFFD"/>
</linearGradient>
<linearGradient id="paint26_linear_744_5008" x1="334.069" y1="1266.91" x2="419.768" y2="1266.91" gradientUnits="userSpaceOnUse">
<stop stop-color="#DAE3FE"/>
<stop offset="1" stop-color="#E9EFFD"/>
</linearGradient>
<linearGradient id="paint27_linear_744_5008" x1="238.654" y1="1266.65" x2="324.177" y2="1266.65" gradientUnits="userSpaceOnUse">
<stop stop-color="#DAE3FE"/>
<stop offset="1" stop-color="#E9EFFD"/>
</linearGradient>
<linearGradient id="paint28_linear_744_5008" x1="1134.2" y1="-326.937" x2="884.253" y2="1131.09" gradientUnits="userSpaceOnUse">
<stop stop-color="#4042E2"/>
<stop offset="1" stop-color="#4F52FF"/>
</linearGradient>
<linearGradient id="paint29_linear_744_5008" x1="708.333" y1="877.927" x2="1150.31" y2="877.927" gradientUnits="userSpaceOnUse">
<stop stop-color="#4042E2"/>
<stop offset="1" stop-color="#4F52FF"/>
</linearGradient>
<linearGradient id="paint30_linear_744_5008" x1="963.739" y1="390.676" x2="1098.2" y2="80.3733" gradientUnits="userSpaceOnUse">
<stop stop-color="#09005D"/>
<stop offset="1" stop-color="#1A0F91"/>
</linearGradient>
<linearGradient id="paint31_linear_744_5008" x1="975.964" y1="591.696" x2="673.353" y2="2689.1" gradientUnits="userSpaceOnUse">
<stop stop-color="#FEBBBA"/>
<stop offset="1" stop-color="#FF928E"/>
</linearGradient>
<linearGradient id="paint32_linear_744_5008" x1="968.027" y1="590.551" x2="665.416" y2="2687.96" gradientUnits="userSpaceOnUse">
<stop stop-color="#FEBBBA"/>
<stop offset="1" stop-color="#FF928E"/>
</linearGradient>
<linearGradient id="paint33_linear_744_5008" x1="985.304" y1="830.231" x2="1428.92" y2="-51.7793" gradientUnits="userSpaceOnUse">
<stop stop-color="#FE7062"/>
<stop offset="1" stop-color="#FF928E"/>
</linearGradient>
<linearGradient id="paint34_linear_744_5008" x1="387.921" y1="1313.79" x2="436.992" y2="1313.79" gradientUnits="userSpaceOnUse">
<stop stop-color="#09005D"/>
<stop offset="1" stop-color="#1A0F91"/>
</linearGradient>
<linearGradient id="paint35_linear_744_5008" x1="401.567" y1="1257.93" x2="392.194" y2="1339.73" gradientUnits="userSpaceOnUse">
<stop stop-color="#FEBBBA"/>
<stop offset="1" stop-color="#FF928E"/>
</linearGradient>
<linearGradient id="paint36_linear_744_5008" x1="462.643" y1="1315.04" x2="533.28" y2="1315.04" gradientUnits="userSpaceOnUse">
<stop stop-color="#09005D"/>
<stop offset="1" stop-color="#1A0F91"/>
</linearGradient>
<linearGradient id="paint37_linear_744_5008" x1="476.641" y1="1266.57" x2="472.432" y2="1348.8" gradientUnits="userSpaceOnUse">
<stop stop-color="#FEBBBA"/>
<stop offset="1" stop-color="#FF928E"/>
</linearGradient>
<linearGradient id="paint38_linear_744_5008" x1="463.698" y1="1335.1" x2="366.676" y2="872.473" gradientUnits="userSpaceOnUse">
<stop stop-color="#09005D"/>
<stop offset="1" stop-color="#1A0F91"/>
</linearGradient>
<linearGradient id="paint39_linear_744_5008" x1="562.785" y1="702.982" x2="348.41" y2="939.486" gradientUnits="userSpaceOnUse">
<stop stop-color="#4042E2"/>
<stop offset="1" stop-color="#4F52FF"/>
</linearGradient>
<linearGradient id="paint40_linear_744_5008" x1="521.109" y1="716.115" x2="208.615" y2="1289.68" gradientUnits="userSpaceOnUse">
<stop stop-color="#4042E2"/>
<stop offset="1" stop-color="#4F52FF"/>
</linearGradient>
<linearGradient id="paint41_linear_744_5008" x1="438.961" y1="781.137" x2="460.731" y2="721.689" gradientUnits="userSpaceOnUse">
<stop stop-color="#FEBBBA"/>
<stop offset="1" stop-color="#FF928E"/>
</linearGradient>
<linearGradient id="paint42_linear_744_5008" x1="457.801" y1="589.52" x2="447.686" y2="666.755" gradientUnits="userSpaceOnUse">
<stop stop-color="#4042E2"/>
<stop offset="1" stop-color="#4F52FF"/>
</linearGradient>
<linearGradient id="paint43_linear_744_5008" x1="475.491" y1="591.836" x2="465.377" y2="669.071" gradientUnits="userSpaceOnUse">
<stop stop-color="#4042E2"/>
<stop offset="1" stop-color="#4F52FF"/>
</linearGradient>
<linearGradient id="paint44_linear_744_5008" x1="492.469" y1="691.963" x2="362.76" y2="795.271" gradientUnits="userSpaceOnUse">
<stop stop-color="#FEBBBA"/>
<stop offset="1" stop-color="#FF928E"/>
</linearGradient>
<linearGradient id="paint45_linear_744_5008" x1="442.395" y1="657.977" x2="501.846" y2="734.52" gradientUnits="userSpaceOnUse">
<stop stop-color="#09005D"/>
<stop offset="1" stop-color="#1A0F91"/>
</linearGradient>
<linearGradient id="paint46_linear_744_5008" x1="479.413" y1="686.301" x2="415.579" y2="735.143" gradientUnits="userSpaceOnUse">
<stop stop-color="#FEBBBA"/>
<stop offset="1" stop-color="#FF928E"/>
</linearGradient>
<linearGradient id="paint47_linear_744_5008" x1="630.494" y1="718.57" x2="495.34" y2="835.318" gradientUnits="userSpaceOnUse">
<stop stop-color="#FEBBBA"/>
<stop offset="1" stop-color="#FF928E"/>
</linearGradient>
<linearGradient id="paint48_linear_744_5008" x1="633.313" y1="729.455" x2="501.752" y2="843.099" gradientUnits="userSpaceOnUse">
<stop stop-color="#FEBBBA"/>
<stop offset="1" stop-color="#FF928E"/>
</linearGradient>
<linearGradient id="paint49_linear_744_5008" x1="635.498" y1="724.363" x2="500.344" y2="841.111" gradientUnits="userSpaceOnUse">
<stop stop-color="#FEBBBA"/>
<stop offset="1" stop-color="#FF928E"/>
</linearGradient>
<linearGradient id="paint50_linear_744_5008" x1="464.897" y1="485.65" x2="806.692" y2="936.822" gradientUnits="userSpaceOnUse">
<stop stop-color="#E1473D"/>
<stop offset="1" stop-color="#E9605A"/>
</linearGradient>
<linearGradient id="paint51_linear_744_5008" x1="830.467" y1="565.496" x2="766.967" y2="876.923" gradientUnits="userSpaceOnUse">
<stop stop-color="#FE7062"/>
<stop offset="1" stop-color="#FF928E"/>
</linearGradient>
<linearGradient id="paint52_linear_744_5008" x1="502.113" y1="712.833" x2="1038.09" y2="752.906" gradientUnits="userSpaceOnUse">
<stop stop-color="#FF9085"/>
<stop offset="1" stop-color="#FB6FBB"/>
</linearGradient>
<linearGradient id="paint53_linear_744_5008" x1="745.859" y1="692.487" x2="875.503" y2="362.861" gradientUnits="userSpaceOnUse">
<stop stop-color="#FE7062"/>
<stop offset="1" stop-color="#FF928E"/>
</linearGradient>
<linearGradient id="paint54_linear_744_5008" x1="817.272" y1="341.793" x2="795.205" y2="384.547" gradientUnits="userSpaceOnUse">
<stop stop-color="#FE7062"/>
<stop offset="1" stop-color="#FF928E"/>
</linearGradient>
<linearGradient id="paint55_linear_744_5008" x1="549.872" y1="820.15" x2="485.596" y2="1140.79" gradientUnits="userSpaceOnUse">
<stop stop-color="#FEBBBA"/>
<stop offset="1" stop-color="#FF928E"/>
</linearGradient>
<clipPath id="clip0_744_5008">
<rect width="1535" height="1535" fill="white"/>
</clipPath>
</defs>
</svg>
