<svg width="1535" height="1535" viewBox="0 0 1535 1535" fill="none" xmlns="http://www.w3.org/2000/svg">
<g clip-path="url(#clip0_744_4471)">
<path d="M1198.17 1178.25C1174.86 1202.83 1152.8 1218.68 1135.37 1231.21C930.53 1378.44 688.148 1335.53 636.634 1325.04C560.565 1309.57 413.527 1279.65 307.22 1154.42C146.386 964.947 171.431 666.445 296.184 469.399C319.003 433.356 439.541 233.309 684.535 201.227C832.802 181.812 1005.63 220.971 1130.79 326.014C1393.52 546.51 1374.81 991.95 1198.17 1178.25Z" fill="url(#paint0_linear_744_4471)"/>
<path d="M350.837 800.337C353.599 727.459 359.289 437.644 285.533 253.986C280.267 240.872 260.591 237.612 254.56 250.306C219.568 323.956 102.035 551.937 337.828 805.34C342.366 810.217 350.586 806.955 350.837 800.337Z" fill="#91B3FA"/>
<path opacity="0.24" d="M339.064 801.544C338.444 801.083 337.943 800.45 337.642 799.678C282.54 657.743 265.533 542.28 260.97 470.411C256.012 392.338 264.015 348.528 264.359 346.701C264.79 344.404 267.002 342.892 269.299 343.324C271.596 343.748 273.109 345.966 272.68 348.263C272.352 350.021 240.98 527.297 345.536 796.613C346.382 798.794 345.301 801.245 343.122 802.092C341.714 802.639 340.193 802.381 339.064 801.544Z" fill="white"/>
<g opacity="0.84">
<path d="M406.758 893.001C412.72 901.948 425.871 901.903 431.872 892.994C464.988 843.835 546.05 696.36 486.442 500.441C436.105 334.995 424.52 240.513 422.231 197.259C421.746 188.113 409.874 184.89 404.835 192.532C349.239 276.837 190.719 568.799 406.758 893.001Z" fill="#BDD0FB"/>
<path opacity="0.24" d="M419.995 889.433C418.537 888.527 417.681 886.811 417.956 885.008C418.351 882.428 456.789 624.367 397.626 392.918C397.022 390.554 398.449 388.146 400.814 387.541C403.18 386.94 405.588 388.362 406.192 390.729C465.81 623.965 427.092 883.75 426.695 886.346C426.324 888.76 424.068 890.416 421.656 890.045C421.047 889.952 420.487 889.738 419.995 889.433Z" fill="white"/>
</g>
<path d="M1230 687.273C1240.67 444.498 1036.88 238.356 774.831 226.84C512.78 215.325 291.697 402.797 281.029 645.571C270.361 888.346 474.146 1094.49 736.198 1106C998.249 1117.52 1219.33 930.047 1230 687.273Z" fill="#7D97F4"/>
<path opacity="0.11" d="M729.802 986.698C935.637 986.698 1102.5 829.066 1102.5 634.618C1102.5 440.17 935.637 282.539 729.802 282.539C523.967 282.539 357.105 440.17 357.105 634.618C357.105 829.066 523.967 986.698 729.802 986.698Z" fill="white"/>
<g opacity="0.68">
<path d="M876.844 668.492C876.73 746.099 871.408 823.866 857.731 900.374C854.269 919.486 850.255 938.506 845.472 957.345C840.675 976.177 835.136 994.845 828.355 1013.1C821.517 1031.3 813.58 1049.25 802.818 1065.64C797.395 1073.78 791.243 1081.58 783.652 1088C779.857 1091.19 775.69 1094.01 771.106 1096.08C766.532 1098.14 761.532 1099.44 756.459 1099.53C751.392 1099.68 746.317 1098.69 741.652 1096.81C736.969 1094.95 732.701 1092.25 728.815 1089.17C721.042 1082.95 714.755 1075.24 709.235 1067.17C698.282 1050.88 690.237 1032.98 683.328 1014.8C676.461 996.58 670.868 977.926 666.029 959.106C661.198 940.279 657.144 921.268 653.653 902.162C646.685 863.944 641.933 825.357 638.727 786.665C635.543 747.966 633.947 709.144 633.751 670.316C633.655 650.904 634.185 631.496 634.875 612.099C635.602 592.703 636.67 573.32 638.098 553.963C640.97 515.253 645.258 476.629 651.633 438.323C654.831 419.175 658.561 400.107 663.048 381.208C667.545 362.316 672.772 343.573 679.256 325.236C682.515 316.076 686.078 307.015 690.141 298.166C694.199 289.319 698.739 280.666 704.075 272.484C709.424 264.338 715.572 256.563 723.229 250.339C727.056 247.254 731.273 244.57 735.893 242.751C740.495 240.909 745.487 239.977 750.454 240.166C755.424 240.307 760.323 241.546 764.842 243.537C769.369 245.537 773.528 248.257 777.346 251.34C784.984 257.547 791.305 265.135 796.912 273.103C808.061 289.15 816.466 306.848 823.747 324.855C830.974 342.911 836.941 361.435 842.139 380.15C847.318 398.874 851.704 417.807 855.499 436.851C870.52 513.095 876.621 590.87 876.844 668.492ZM871.1 668.492C871.172 629.822 869.702 591.142 866.488 552.606C863.32 514.072 858.52 475.649 851.369 437.651C847.798 418.654 843.639 399.765 838.691 381.086C833.725 362.415 827.993 343.936 821.014 325.934C813.986 307.984 805.835 290.348 795.019 274.414C789.582 266.503 783.449 258.991 776.09 252.878C772.412 249.841 768.418 247.171 764.097 245.205C759.78 243.263 755.13 241.989 750.401 241.865C745.675 241.715 740.956 242.666 736.584 244.465C732.197 246.246 728.17 248.867 724.498 251.893C717.152 257.996 711.201 265.672 706.028 273.745C700.864 281.853 696.469 290.453 692.549 299.254C688.622 308.057 685.186 317.083 682.05 326.21C675.813 344.482 670.819 363.174 666.549 382.019C662.291 400.871 658.785 419.894 655.808 438.996C649.876 477.211 646.024 515.739 643.585 554.338C641.122 592.942 640.271 631.633 640.341 670.308C640.239 708.976 641.531 747.655 644.404 786.218C647.301 824.775 651.738 863.235 658.378 901.317C661.706 920.354 665.593 939.294 670.249 958.038C674.913 976.776 680.326 995.338 686.987 1013.43C693.685 1031.48 701.517 1049.24 712.103 1065.23C717.43 1073.16 723.491 1080.68 730.837 1086.64C734.508 1089.6 738.503 1092.16 742.821 1093.92C747.127 1095.67 751.746 1096.65 756.375 1096.49C761.002 1096.37 765.561 1095.15 769.793 1093.21C774.032 1091.26 777.942 1088.57 781.533 1085.5C788.72 1079.33 794.652 1071.72 799.886 1063.72C810.285 1047.6 818.005 1029.8 824.628 1011.73C831.2 993.596 836.552 975.018 841.169 956.269C845.773 937.512 849.613 918.563 852.908 899.521C859.503 861.432 863.885 822.967 866.799 784.411C869.752 745.852 871.116 707.169 871.1 668.492Z" fill="white"/>
<path d="M1072.62 668.492C1072.36 718.469 1065.93 768.468 1052.55 816.663C1038.94 864.748 1018.42 911.007 990.563 952.538C976.631 973.282 960.849 992.806 943.214 1010.52C925.587 1028.23 906.091 1044.12 884.929 1057.44C863.748 1070.71 840.871 1081.33 816.923 1088.54C792.99 1095.76 768.004 1099.53 742.996 1099.55C717.988 1099.55 692.996 1095.81 669.049 1088.6C645.089 1081.42 622.193 1070.81 600.99 1057.56C579.806 1044.25 560.282 1028.37 542.626 1010.67C524.962 992.965 509.148 973.444 495.186 952.7C467.27 911.164 446.707 864.885 433.031 816.776C426.3 792.678 421.297 768.104 417.983 743.311C414.687 718.513 413.03 693.507 412.917 668.492C413.046 643.476 414.718 618.472 418.029 593.678C421.359 568.89 426.381 544.322 433.128 520.233C446.839 472.145 467.433 425.897 495.367 384.403C509.335 363.68 525.151 344.18 542.814 326.497C560.47 308.822 579.98 292.958 601.16 279.695C622.357 266.475 645.247 255.949 669.166 248.766C693.069 241.553 718.022 237.791 742.997 237.767C767.972 237.812 792.917 241.595 816.809 248.826C840.716 256.029 863.586 266.575 884.761 279.81C905.918 293.088 925.401 308.965 943.027 326.648C960.66 344.339 976.445 363.842 990.382 384.566C1018.26 426.054 1038.81 472.282 1052.46 520.347C1065.86 568.524 1072.32 618.514 1072.62 668.492ZM1066.04 668.492C1065.97 619.082 1059.81 569.619 1046.78 521.923C1033.67 474.301 1013.93 428.325 986.754 386.979C973.174 366.327 957.751 346.862 940.476 329.167C923.195 311.5 904.107 295.516 883.231 282.231C862.329 269.02 839.758 258.386 816.091 251.194C792.436 243.996 767.739 240.213 742.996 240.13C718.253 240.234 693.562 244.038 669.919 251.254C646.264 258.466 623.712 269.12 602.833 282.345C581.98 295.645 562.92 311.642 545.668 329.317C528.423 347.019 513.03 366.489 499.482 387.141C472.364 428.481 452.668 474.436 439.623 522.035C433.125 545.861 428.42 570.157 425.231 594.633C422.036 619.112 420.458 643.798 420.403 668.491C420.474 693.184 422.067 717.867 425.278 742.343C428.482 766.814 433.206 791.103 439.721 814.92C452.799 862.499 472.528 908.423 499.664 949.72C513.217 970.353 528.612 989.801 545.855 1007.48C563.108 1025.13 582.154 1041.11 603.003 1054.37C623.876 1067.56 646.422 1078.13 670.035 1085.34C693.636 1092.57 718.286 1096.39 742.996 1096.52C767.706 1096.41 792.364 1092.62 815.977 1085.41C839.603 1078.22 862.167 1067.66 883.062 1054.48C903.933 1041.24 923.008 1025.27 940.289 1007.63C957.562 989.96 972.988 970.516 986.573 949.883C1013.76 908.58 1033.54 862.636 1046.68 815.032C1059.74 767.356 1065.93 717.901 1066.04 668.492Z" fill="white"/>
<path d="M358.346 498.786C358.107 498.784 357.914 498.589 357.916 498.349C357.918 498.113 358.11 497.922 358.346 497.92L457.338 497.12L556.329 496.667L754.313 496.302L952.296 496.704L1051.29 497.199L1150.28 498.062C1150.44 498.064 1150.57 498.195 1150.57 498.356C1150.57 498.514 1150.44 498.642 1150.28 498.644L1051.29 499.507L952.296 500.001L754.313 500.404L556.329 500.038L457.338 499.585L358.346 498.786Z" fill="white"/>
<path d="M472.762 332.543C472.765 332.309 472.955 332.121 473.188 332.117C496.615 331.746 520.042 331.587 543.469 331.317L613.75 330.864C637.177 330.671 660.604 330.692 684.031 330.633L754.313 330.499L894.875 330.902L965.156 331.396C988.583 331.69 1012.01 331.862 1035.44 332.26C1035.6 332.263 1035.73 332.395 1035.72 332.555C1035.72 332.712 1035.59 332.838 1035.44 332.841C1012.01 333.238 988.583 333.411 965.156 333.704L894.875 334.199L754.313 334.602L684.031 334.468C660.604 334.409 637.177 334.429 613.75 334.236L543.469 333.783C520.042 333.514 496.615 333.355 473.188 332.984C472.949 332.979 472.758 332.782 472.762 332.543Z" fill="white"/>
<path d="M323.945 664.588C323.706 664.586 323.514 664.391 323.515 664.152C323.517 663.915 323.709 663.724 323.945 663.723L431.537 662.925L539.129 662.469L754.313 662.104L969.496 662.506L1077.09 663.001L1184.68 663.864C1184.84 663.866 1184.97 663.997 1184.97 664.157C1184.97 664.316 1184.84 664.444 1184.68 664.446L1077.09 665.308L969.496 665.804L754.313 666.206L539.129 665.84L431.537 665.385L323.945 664.588Z" fill="white"/>
<path d="M358.346 829.524L457.338 828.725L556.329 828.272L754.313 827.906L952.296 828.309L1051.29 828.804L1150.28 829.667C1150.44 829.669 1150.57 829.8 1150.57 829.961C1150.57 830.119 1150.44 830.247 1150.28 830.248L1051.29 831.112L952.296 831.607L754.313 832.01L556.329 831.644L457.338 831.191L358.346 830.391C358.107 830.39 357.914 830.194 357.916 829.955C357.918 829.717 358.11 829.526 358.346 829.524Z" fill="white"/>
<path d="M1051.12 995.761C1051.12 996.599 1050.44 997.278 1049.6 997.278H487.353C486.514 997.278 485.836 996.599 485.836 995.761C485.836 994.923 486.514 994.243 487.353 994.243H1049.6C1050.44 994.243 1051.12 994.923 1051.12 995.761Z" fill="white"/>
</g>
<path d="M370.638 589.875C370.127 589.875 369.607 589.794 369.096 589.621C366.568 588.769 365.21 586.03 366.061 583.501C366.68 581.662 367.321 579.83 367.984 578.004C368.892 575.496 371.662 574.202 374.171 575.11C376.679 576.019 377.974 578.789 377.065 581.298C376.429 583.054 375.812 584.817 375.215 586.586C374.536 588.602 372.656 589.875 370.638 589.875ZM379.366 567.509C378.71 567.509 378.042 567.374 377.404 567.09C374.967 566.005 373.871 563.15 374.956 560.712C375.746 558.94 376.553 557.173 377.38 555.414C378.514 552.999 381.393 551.963 383.805 553.096C386.22 554.231 387.258 557.108 386.124 559.522C385.324 561.222 384.544 562.929 383.781 564.642C382.98 566.441 381.215 567.509 379.366 567.509ZM390.059 546.018C389.27 546.018 388.47 545.825 387.73 545.417C385.394 544.129 384.545 541.191 385.834 538.855C386.766 537.163 387.716 535.478 388.686 533.8C390.021 531.489 392.977 530.7 395.284 532.032C397.594 533.366 398.387 536.32 397.052 538.63C396.116 540.253 395.195 541.882 394.292 543.519C393.412 545.116 391.761 546.018 390.059 546.018ZM402.473 525.491C401.561 525.491 400.639 525.233 399.819 524.694C397.591 523.226 396.975 520.231 398.443 518.003C399.505 516.391 400.583 514.788 401.676 513.192C403.181 510.989 406.188 510.429 408.39 511.934C410.591 513.441 411.154 516.448 409.646 518.648C408.586 520.198 407.54 521.754 406.51 523.317C405.582 524.726 404.043 525.491 402.473 525.491ZM416.399 505.949C415.373 505.949 414.339 505.624 413.464 504.951C411.346 503.328 410.947 500.295 412.57 498.179C413.742 496.65 414.93 495.129 416.131 493.616C417.79 491.525 420.829 491.177 422.916 492.833C425.007 494.492 425.357 497.53 423.7 499.619C422.531 501.092 421.376 502.572 420.236 504.059C419.284 505.299 417.85 505.949 416.399 505.949ZM431.637 487.408C430.505 487.408 429.37 487.013 428.453 486.209C426.447 484.449 426.248 481.397 428.008 479.393C429.277 477.945 430.56 476.506 431.856 475.074C433.648 473.095 436.701 472.944 438.678 474.732C440.657 476.522 440.81 479.576 439.02 481.555C437.758 482.95 436.507 484.353 435.27 485.763C434.316 486.852 432.98 487.408 431.637 487.408ZM448.018 469.863C446.788 469.863 445.559 469.397 444.618 468.463C442.723 466.586 442.709 463.527 444.586 461.632C445.941 460.266 447.306 458.908 448.681 457.557C450.585 455.689 453.642 455.716 455.513 457.62C457.381 459.524 457.352 462.582 455.449 464.451C454.104 465.77 452.772 467.097 451.449 468.432C450.504 469.386 449.261 469.863 448.018 469.863ZM465.393 453.299C464.073 453.299 462.758 452.761 461.804 451.703C460.018 449.722 460.176 446.668 462.157 444.882C463.584 443.594 465.021 442.315 466.468 441.043C468.467 439.284 471.521 439.478 473.285 441.482C475.046 443.486 474.85 446.537 472.846 448.299C471.431 449.544 470.024 450.797 468.626 452.056C467.703 452.889 466.545 453.299 465.393 453.299ZM483.64 437.699C482.234 437.699 480.839 437.088 479.885 435.911C478.205 433.839 478.522 430.797 480.595 429.116C482.088 427.906 483.589 426.704 485.097 425.51C487.187 423.854 490.228 424.208 491.881 426.299C493.538 428.391 493.183 431.429 491.092 433.084C489.613 434.255 488.143 435.433 486.679 436.62C485.784 437.346 484.708 437.699 483.64 437.699ZM502.686 423.023C501.198 423.023 499.73 422.339 498.784 421.046C497.208 418.893 497.676 415.871 499.828 414.295C501.384 413.157 502.945 412.028 504.513 410.906C506.684 409.353 509.701 409.857 511.252 412.026C512.805 414.196 512.303 417.213 510.133 418.765C508.593 419.865 507.061 420.974 505.535 422.091C504.675 422.72 503.675 423.023 502.686 423.023ZM522.418 409.282C520.852 409.282 519.317 408.522 518.386 407.119C516.913 404.895 517.523 401.897 519.746 400.424C521.35 399.362 522.96 398.309 524.575 397.263C526.817 395.816 529.806 396.456 531.255 398.696C532.704 400.936 532.063 403.926 529.824 405.375C528.237 406.401 526.655 407.435 525.081 408.479C524.26 409.022 523.334 409.282 522.418 409.282ZM542.743 396.479C541.102 396.479 539.5 395.641 538.595 394.129C537.224 391.841 537.968 388.874 540.256 387.504C541.905 386.517 543.558 385.539 545.216 384.57C547.518 383.224 550.477 383.998 551.824 386.303C553.17 388.606 552.394 391.564 550.092 392.91C548.464 393.861 546.84 394.822 545.221 395.791C544.444 396.257 543.588 396.479 542.743 396.479ZM563.597 384.61C561.88 384.61 560.217 383.693 559.344 382.075C558.076 379.728 558.951 376.798 561.297 375.53C562.984 374.618 564.676 373.716 566.371 372.823C568.735 371.58 571.654 372.485 572.897 374.845C574.139 377.205 573.235 380.126 570.875 381.37C569.209 382.247 567.548 383.134 565.89 384.029C565.16 384.424 564.372 384.61 563.597 384.61ZM584.928 373.685C583.134 373.685 581.412 372.682 580.578 370.96C579.414 368.559 580.417 365.67 582.818 364.507C584.541 363.671 586.267 362.846 587.994 362.03C590.403 360.891 593.285 361.922 594.426 364.333C595.565 366.745 594.534 369.625 592.121 370.764C590.423 371.567 588.725 372.379 587.031 373.2C586.353 373.528 585.634 373.685 584.928 373.685ZM606.737 363.693C604.868 363.693 603.089 362.601 602.3 360.776C601.243 358.327 602.37 355.485 604.819 354.427C606.586 353.664 608.353 352.912 610.123 352.171C612.589 351.136 615.417 352.298 616.445 354.757C617.477 357.217 616.318 360.048 613.858 361.079C612.121 361.808 610.384 362.546 608.649 363.296C608.025 363.565 607.376 363.693 606.737 363.693ZM628.988 354.669C627.039 354.669 625.203 353.481 624.47 351.551C623.524 349.057 624.779 346.268 627.273 345.321C629.073 344.638 630.873 343.966 632.674 343.306C635.175 342.386 637.953 343.671 638.873 346.176C639.793 348.68 638.507 351.456 636.003 352.374C634.234 353.023 632.466 353.683 630.699 354.354C630.136 354.567 629.556 354.669 628.988 354.669ZM651.627 346.67C649.595 346.67 647.702 345.376 647.036 343.338C646.209 340.802 647.593 338.075 650.128 337.247C651.96 336.648 653.79 336.061 655.617 335.487C658.167 334.682 660.873 336.1 661.675 338.643C662.476 341.188 661.062 343.9 658.517 344.701C656.722 345.266 654.927 345.842 653.128 346.43C652.63 346.592 652.124 346.67 651.627 346.67ZM674.622 339.761C672.5 339.761 670.553 338.35 669.966 336.204C669.262 333.631 670.777 330.974 673.35 330.27C675.211 329.761 677.071 329.265 678.927 328.781C681.508 328.112 684.147 329.656 684.818 332.238C685.49 334.82 683.943 337.458 681.361 338.13C679.543 338.603 677.723 339.089 675.9 339.588C675.472 339.705 675.044 339.761 674.622 339.761ZM697.938 334.031C695.714 334.031 693.714 332.488 693.222 330.227C692.655 327.62 694.308 325.047 696.915 324.48C698.804 324.069 700.689 323.672 702.569 323.29C705.175 322.759 707.733 324.446 708.264 327.06C708.797 329.675 707.108 332.225 704.493 332.756C702.656 333.13 700.816 333.518 698.969 333.919C698.622 333.995 698.277 334.031 697.938 334.031ZM822.691 330.421C822.342 330.421 821.988 330.383 821.633 330.303C819.837 329.901 818.02 329.525 816.187 329.172C813.567 328.67 811.852 326.138 812.354 323.519C812.857 320.898 815.38 319.18 818.009 319.686C819.939 320.055 821.851 320.452 823.741 320.876C826.345 321.458 827.984 324.04 827.402 326.644C826.897 328.892 824.903 330.421 822.691 330.421ZM721.534 329.604C719.195 329.604 717.141 327.904 716.767 325.522C716.353 322.886 718.155 320.415 720.79 320.002C722.703 319.701 724.609 319.416 726.511 319.146C729.131 318.775 731.596 320.608 731.972 323.251C732.345 325.892 730.509 328.337 727.867 328.711C726.014 328.974 724.154 329.252 722.289 329.545C722.035 329.585 721.781 329.604 721.534 329.604ZM745.36 326.645C742.888 326.645 740.78 324.758 740.554 322.248C740.315 319.591 742.275 317.243 744.931 317.004C746.865 316.829 748.79 316.672 750.708 316.533C753.34 316.341 755.681 318.338 755.876 321C756.069 323.66 754.069 325.974 751.409 326.167C749.548 326.303 747.677 326.456 745.799 326.625C745.651 326.639 745.506 326.645 745.36 326.645ZM799.008 326.625C798.843 326.625 798.677 326.616 798.509 326.599C796.67 326.411 794.815 326.243 792.945 326.1C790.285 325.894 788.296 323.571 788.502 320.912C788.707 318.251 791.041 316.27 793.689 316.467C795.639 316.618 797.575 316.792 799.494 316.989C802.149 317.261 804.079 319.633 803.807 322.287C803.552 324.773 801.454 326.625 799.008 326.625ZM769.336 325.38C766.699 325.38 764.544 323.261 764.507 320.615C764.471 317.948 766.604 315.756 769.272 315.72C770.586 315.702 771.893 315.693 773.195 315.693L775.079 315.7C777.746 315.717 779.895 317.894 779.877 320.561C779.859 323.219 777.7 325.36 775.047 325.36C775.036 325.36 775.026 325.36 775.014 325.36L773.195 325.354C771.936 325.354 770.672 325.363 769.404 325.38C769.38 325.38 769.358 325.38 769.336 325.38Z" fill="white"/>
<path d="M366.237 523.537C401.552 523.537 430.181 494.908 430.181 459.593C430.181 424.277 401.552 395.648 366.237 395.648C330.922 395.648 302.293 424.277 302.293 459.593C302.293 494.908 330.922 523.537 366.237 523.537Z" fill="url(#paint1_linear_744_4471)"/>
<path d="M430.065 456.164H366.237H302.293C302.293 456.164 297.202 491.656 354.271 588.869C356.761 593.11 361.311 595.645 366.229 595.648C371.147 595.65 375.705 593.158 378.195 588.916C435.259 491.695 430.065 456.164 430.065 456.164Z" fill="url(#paint2_linear_744_4471)"/>
<path opacity="0.8" d="M366.208 597.723V598.083H366.228C360.662 598.083 355.467 595.02 352.671 590.256C319.312 533.432 307.088 497.502 302.709 477.398C301.461 472.773 300.744 468.239 300.517 463.59C300.131 458.836 300.426 456.832 300.461 456.62L300.629 455.597C303.206 421.248 331.793 394.517 366.237 394.517C401.134 394.517 429.979 421.627 431.929 456.249C431.978 456.702 432.072 457.852 432.035 459.774L432.038 460.01C432.038 466.29 431.15 472.511 429.401 478.5C424.871 498.588 412.572 534.163 379.782 590.029C376.967 594.825 371.962 597.723 366.208 597.723ZM304.038 459.041C304.023 460 304.052 461.369 304.22 463.431L304.224 463.424C304.436 467.828 305.117 472.068 306.305 476.457L306.327 476.531C310.641 496.363 322.737 531.843 355.873 588.286C358.006 591.92 361.961 594.174 366.216 594.176L366.208 596.028V594.172C370.044 594.172 374.429 591.895 376.58 588.231C409.16 532.722 421.323 497.446 425.784 477.628L425.817 477.513C427.479 471.846 427.951 465.957 427.951 460.01L427.578 459.749V459.728C427.578 457.877 427.891 456.876 427.861 456.613L428.038 456.505C426.223 423.826 399.088 398.226 366.143 398.226C333.263 398.226 306.084 424.186 304.209 457.153L304.156 459.041L304.038 459.041Z" fill="white"/>
<path d="M392.546 485.494C406.965 471.075 406.965 447.697 392.546 433.278C378.127 418.859 354.749 418.859 340.33 433.278C325.91 447.697 325.91 471.075 340.33 485.494C354.749 499.913 378.127 499.913 392.546 485.494Z" fill="white"/>
<path d="M366.443 498.372C344.947 498.372 327.458 480.884 327.458 459.387C327.458 437.89 344.947 420.401 366.443 420.401C387.94 420.401 405.429 437.89 405.429 459.387C405.429 480.883 387.94 498.372 366.443 498.372ZM366.443 424.527C347.222 424.527 331.584 440.165 331.584 459.387C331.584 478.609 347.222 494.247 366.443 494.247C385.665 494.247 401.304 478.609 401.304 459.387C401.303 440.165 385.665 424.527 366.443 424.527Z" fill="#7D97F4"/>
<path d="M331.418 420.944C331.244 420.944 331.071 420.871 330.949 420.728C330.726 420.469 330.756 420.078 331.015 419.856C341.388 410.948 354.64 406.042 368.331 406.042C368.673 406.042 368.95 406.319 368.95 406.661C368.95 407.003 368.673 407.28 368.331 407.28C354.935 407.28 341.97 412.08 331.821 420.795C331.704 420.895 331.561 420.944 331.418 420.944Z" fill="white"/>
<path d="M311.647 463.963C311.305 463.963 311.028 463.686 311.028 463.344C311.028 452.652 313.992 442.221 319.6 433.181C319.78 432.89 320.162 432.801 320.452 432.981C320.743 433.161 320.832 433.543 320.652 433.833C315.166 442.678 312.265 452.882 312.265 463.344C312.266 463.686 311.989 463.963 311.647 463.963Z" fill="white"/>
<path d="M822.727 284.107C848.434 284.107 869.274 263.268 869.274 237.561C869.274 211.853 848.434 191.014 822.727 191.014C797.02 191.014 776.18 211.853 776.18 237.561C776.18 263.268 797.02 284.107 822.727 284.107Z" fill="url(#paint3_linear_744_4471)"/>
<path d="M869.189 235.064H822.727H776.18C776.18 235.064 772.475 260.9 814.017 331.665C815.83 334.752 819.141 336.597 822.721 336.599C826.302 336.6 829.619 334.786 831.432 331.699C872.97 260.928 869.189 235.064 869.189 235.064Z" fill="url(#paint4_linear_744_4471)"/>
<path opacity="0.8" d="M822.706 338.11V338.372H822.721C818.669 338.372 814.887 336.142 812.852 332.675C788.569 291.31 779.671 265.156 776.483 250.521C775.574 247.155 775.052 243.854 774.887 240.47C774.606 237.009 774.821 235.551 774.847 235.397L774.969 234.652C776.845 209.649 797.654 190.19 822.727 190.19C848.13 190.19 869.127 209.925 870.547 235.127C870.583 235.457 870.651 236.293 870.624 237.693L870.626 237.864C870.626 242.436 869.98 246.965 868.706 251.324C865.409 265.946 856.456 291.843 832.587 332.509C830.538 336 826.895 338.11 822.706 338.11ZM777.451 237.159C777.439 237.857 777.461 238.854 777.583 240.355L777.586 240.35C777.741 243.555 778.236 246.642 779.101 249.836L779.117 249.89C782.256 264.326 791.062 290.153 815.182 331.24C816.735 333.885 819.614 335.526 822.712 335.527L822.706 336.876V335.524C825.498 335.524 828.69 333.867 830.255 331.2C853.971 290.794 862.826 265.115 866.073 250.688L866.097 250.605C867.306 246.48 867.65 242.193 867.65 237.864L867.379 237.674V237.659C867.379 236.311 867.607 235.583 867.585 235.391L867.714 235.313C866.392 211.524 846.64 192.89 822.659 192.89C798.724 192.89 778.94 211.787 777.575 235.784L777.537 237.159H777.451V237.159Z" fill="white"/>
<path d="M830.677 263.123C844.884 258.821 852.913 243.817 848.612 229.61C844.31 215.403 829.306 207.373 815.099 211.675C800.892 215.977 792.862 230.981 797.164 245.188C801.466 259.395 816.47 267.425 830.677 263.123Z" fill="white"/>
<path d="M822.877 265.789C807.23 265.789 794.499 253.058 794.499 237.41C794.499 221.762 807.23 209.031 822.877 209.031C838.525 209.031 851.256 221.762 851.256 237.41C851.256 253.058 838.525 265.789 822.877 265.789ZM822.877 212.035C808.885 212.035 797.502 223.418 797.502 237.411C797.502 251.403 808.885 262.786 822.877 262.786C836.87 262.786 848.253 251.403 848.253 237.411C848.253 223.418 836.87 212.035 822.877 212.035Z" fill="#7D97F4"/>
<path d="M797.382 209.427C797.255 209.427 797.129 209.374 797.039 209.27C796.878 209.081 796.899 208.797 797.088 208.635C804.638 202.15 814.285 198.579 824.251 198.579C824.499 198.579 824.701 198.781 824.701 199.03C824.701 199.279 824.5 199.48 824.251 199.48C814.5 199.48 805.062 202.974 797.675 209.318C797.59 209.391 797.485 209.427 797.382 209.427Z" fill="white"/>
<path d="M782.989 240.742C782.741 240.742 782.539 240.54 782.539 240.291C782.539 232.508 784.697 224.916 788.779 218.334C788.91 218.123 789.188 218.058 789.399 218.189C789.61 218.32 789.675 218.598 789.544 218.809C785.55 225.247 783.439 232.676 783.439 240.291C783.44 240.54 783.238 240.742 782.989 240.742Z" fill="white"/>
<path d="M624.869 878.563H1322.69V856.559H624.869V878.563Z" fill="url(#paint5_linear_744_4471)"/>
<path d="M624.869 656.795H1335.12V635.696H624.869V656.795Z" fill="url(#paint6_linear_744_4471)"/>
<path d="M624.869 486.78H1328.1V467.413H624.869V486.78Z" fill="url(#paint7_linear_744_4471)"/>
<path d="M618.858 995.537H641.116V320.756C641.116 317.071 638.129 314.083 634.443 314.083H618.858V995.537Z" fill="url(#paint8_linear_744_4471)"/>
<path d="M1316.17 1044.63H1340.74V317.104H1323.54C1319.47 317.104 1316.17 320.403 1316.17 324.472V1044.63Z" fill="url(#paint9_linear_744_4471)"/>
<path d="M962.642 635.129C952.131 635.328 943.504 626.863 943.504 616.351V532.785C943.504 521.806 952.327 512.873 963.306 512.753C996.255 512.394 1064.21 512.377 1119.81 517.062C1127.4 517.702 1133.3 523.921 1133.58 531.53L1138.78 612.321C1139.16 623.007 1130.71 631.935 1120.02 632.138L962.642 635.129Z" fill="url(#paint10_linear_744_4471)"/>
<path opacity="0.37" d="M1033.45 583.907L1056.07 586.347C1059.24 586.689 1061.94 584.079 1061.7 580.904L1056.76 513.616C1047.28 513.316 1037.92 513.096 1028.9 512.942V578.837C1028.9 581.441 1030.86 583.628 1033.45 583.907Z" fill="white"/>
<path d="M1042.72 572.244C1042.79 573.455 1043.79 574.388 1044.99 574.388C1045.04 574.388 1045.08 574.386 1045.13 574.384C1046.38 574.311 1047.34 573.235 1047.26 571.981L1043.85 513.255C1042.32 513.217 1040.81 513.183 1039.29 513.149L1042.72 572.244Z" fill="white"/>
<path d="M1161.07 635.062C1152.06 635.233 1144.67 627.98 1144.67 618.974V547.377C1144.67 537.971 1152.23 530.317 1161.63 530.214C1189.86 529.907 1248.09 529.892 1295.73 533.906C1302.23 534.454 1307.28 539.782 1307.52 546.302L1311.97 615.521C1312.3 624.677 1305.06 632.326 1295.9 632.5L1161.07 635.062Z" fill="url(#paint11_linear_744_4471)"/>
<path opacity="0.37" d="M1221.73 591.176L1241.11 593.267C1243.82 593.559 1246.14 591.323 1245.94 588.602L1241.7 530.953C1233.58 530.695 1225.57 530.507 1217.83 530.375V586.832C1217.83 589.064 1219.51 590.937 1221.73 591.176Z" fill="white"/>
<path d="M1229.68 581.185C1229.74 582.222 1230.6 583.021 1231.62 583.021C1231.66 583.021 1231.7 583.02 1231.73 583.018C1232.81 582.956 1233.63 582.034 1233.57 580.959L1230.65 530.644C1229.33 530.612 1228.04 530.583 1226.74 530.554L1229.68 581.185Z" fill="white"/>
<path d="M873.937 476.705C867.451 476.863 862.128 470.181 862.128 461.884V395.925C862.128 387.259 867.572 380.208 874.346 380.113C894.677 379.83 936.61 379.816 970.919 383.514C975.601 384.019 979.243 388.927 979.413 394.934L982.619 458.702C982.858 467.137 977.644 474.183 971.047 474.344L873.937 476.705Z" fill="url(#paint12_linear_744_4471)"/>
<path opacity="0.37" d="M926.642 436.275L944.496 438.201C946.994 438.47 949.126 436.41 948.942 433.904L945.039 380.794C937.555 380.556 930.172 380.383 923.049 380.262V432.273C923.049 434.329 924.598 436.054 926.642 436.275Z" fill="white"/>
<path d="M933.96 427.07C934.015 428.026 934.807 428.762 935.751 428.762C935.786 428.762 935.822 428.761 935.857 428.758C936.847 428.701 937.604 427.852 937.545 426.862L934.853 380.509C933.646 380.479 932.448 380.452 931.251 380.426L933.96 427.07Z" fill="white"/>
<path d="M1013.25 474.601C1005.72 474.785 999.534 467.022 999.534 457.381V380.748C999.534 370.679 1005.86 362.487 1013.73 362.377C1037.35 362.048 1086.07 362.032 1125.93 366.329C1131.37 366.915 1135.6 372.618 1135.8 379.596L1139.53 453.686C1139.8 463.485 1133.75 471.673 1126.08 471.859L1013.25 474.601Z" fill="url(#paint13_linear_744_4471)"/>
<path opacity="0.37" d="M1074.49 427.628L1095.23 429.866C1098.14 430.18 1100.61 427.786 1100.4 424.874L1095.86 363.168C1087.17 362.892 1078.59 362.691 1070.32 362.55V422.978C1070.31 425.367 1072.12 427.372 1074.49 427.628Z" fill="white"/>
<path d="M1082.99 416.934C1083.06 418.044 1083.98 418.899 1085.07 418.899C1085.11 418.899 1085.15 418.898 1085.2 418.895C1086.35 418.829 1087.23 417.842 1087.16 416.692L1084.03 362.837C1082.63 362.802 1081.24 362.771 1079.84 362.74L1082.99 416.934Z" fill="white"/>
<path d="M1175.28 478.084C1167.75 478.267 1161.56 470.504 1161.56 460.864V384.23C1161.56 374.162 1167.89 365.969 1175.76 365.86C1199.38 365.531 1248.1 365.514 1287.96 369.811C1293.4 370.398 1297.63 376.101 1297.83 383.079L1301.56 457.168C1301.83 466.968 1295.78 475.155 1288.11 475.342L1175.28 478.084Z" fill="url(#paint14_linear_744_4471)"/>
<path opacity="0.37" d="M1236.52 431.111L1257.26 433.348C1260.17 433.662 1262.64 431.268 1262.43 428.356L1257.89 366.65C1249.2 366.375 1240.62 366.174 1232.35 366.032V426.461C1232.34 428.85 1234.14 430.855 1236.52 431.111Z" fill="white"/>
<path d="M1245.02 420.416C1245.09 421.526 1246 422.382 1247.1 422.382C1247.14 422.382 1247.18 422.38 1247.23 422.378C1248.38 422.311 1249.25 421.325 1249.19 420.174L1246.06 366.319C1244.66 366.285 1243.27 366.254 1241.87 366.223L1245.02 420.416Z" fill="white"/>
<path d="M816.405 859.092C807.4 859.362 800.008 847.903 800.008 833.675V720.561C800.008 705.7 807.568 693.607 816.974 693.446C845.204 692.96 903.428 692.936 951.067 699.278C957.568 700.143 962.625 708.561 962.86 718.862L967.312 828.219C967.643 842.684 960.404 854.769 951.244 855.044L816.405 859.092Z" fill="url(#paint15_linear_744_4471)"/>
<path opacity="0.37" d="M877.073 754.338L896.454 756.429C899.165 756.722 901.479 754.485 901.28 751.764L897.043 694.115C888.919 693.857 880.905 693.669 873.173 693.537V749.994C873.172 752.226 874.854 754.099 877.073 754.338Z" fill="white"/>
<path d="M885.016 744.346C885.076 745.383 885.935 746.182 886.961 746.182C886.999 746.182 887.037 746.181 887.075 746.179C888.15 746.117 888.971 745.195 888.907 744.12L885.985 693.805C884.675 693.773 883.375 693.744 882.076 693.715L885.016 744.346Z" fill="white"/>
<path d="M989.439 857.934C980.434 858.204 973.042 846.745 973.042 832.516V719.403C973.042 704.542 980.602 692.449 990.008 692.287C1018.24 691.802 1076.46 691.778 1124.1 698.12C1130.6 698.985 1135.66 707.403 1135.89 717.703L1140.35 827.061C1140.68 841.526 1133.44 853.61 1124.28 853.886L989.439 857.934Z" fill="url(#paint16_linear_744_4471)"/>
<path opacity="0.37" d="M1050.11 753.18L1069.49 755.27C1072.2 755.563 1074.51 753.327 1074.31 750.606L1070.08 692.956C1061.95 692.699 1053.94 692.511 1046.21 692.379V748.835C1046.21 751.068 1047.89 752.94 1050.11 753.18Z" fill="white"/>
<path d="M1058.05 743.188C1058.11 744.224 1058.97 745.024 1059.99 745.024C1060.03 745.024 1060.07 745.023 1060.11 745.021C1061.18 744.958 1062 744.037 1061.94 742.962L1059.02 692.647C1057.71 692.615 1056.41 692.586 1055.11 692.557L1058.05 743.188Z" fill="white"/>
<path d="M1162.89 860.042C1153.89 860.344 1146.5 847.536 1146.5 831.631V705.193C1146.5 688.581 1154.06 675.064 1163.46 674.883C1191.69 674.34 1249.92 674.313 1297.55 681.403C1304.06 682.37 1309.11 691.78 1309.35 703.293L1313.8 825.534C1314.13 841.702 1306.89 855.21 1297.73 855.518L1162.89 860.042Z" fill="url(#paint17_linear_744_4471)"/>
<path opacity="0.37" d="M1223.56 742.949L1242.94 745.285C1245.65 745.613 1247.97 743.113 1247.77 740.072L1243.53 675.631C1235.41 675.343 1227.39 675.133 1219.66 674.985V738.092C1219.66 740.587 1221.34 742.681 1223.56 742.949Z" fill="white"/>
<path d="M1231.5 731.779C1231.56 732.939 1232.42 733.832 1233.45 733.832C1233.49 733.832 1233.52 733.831 1233.56 733.828C1234.64 733.759 1235.46 732.729 1235.39 731.527L1232.47 675.286C1231.16 675.25 1229.86 675.216 1228.56 675.185L1231.5 731.779Z" fill="white"/>
<path d="M1114.57 1125.23H523.828V1179.42H1114.57V1125.23Z" fill="url(#paint18_linear_744_4471)"/>
<path d="M528.163 1179.42H520.054C514.954 1179.42 510.821 1175.29 510.821 1170.19V1125.23H528.164L528.163 1179.42Z" fill="url(#paint19_linear_744_4471)"/>
<path d="M1108.07 815.102C1108.07 802.188 1094.42 791.373 1079.63 791.373H522.171C507.371 791.373 495.645 802.188 495.645 815.102V1108.89C495.645 1121.8 507.371 1132.81 522.171 1132.81H1079.63C1094.42 1132.81 1108.07 1121.8 1108.07 1108.89V815.102Z" fill="url(#paint20_linear_744_4471)"/>
<path opacity="0.24" d="M1088.56 826.942C1088.56 815.126 1078.38 805.465 1064.42 805.465H538.533C524.577 805.465 510.821 815.126 510.821 826.942V1095.49C510.821 1107.3 524.577 1118.72 538.533 1118.72H1064.42C1078.38 1118.72 1088.56 1107.3 1088.56 1095.49V826.942Z" fill="#91B3FA"/>
<path d="M1301.69 1029.16L1265.07 916.213C1264.16 913.376 1261.51 911.69 1258.53 911.69C1232.97 911.69 1116.74 911.69 1111.32 911.69V1179.42H1310.36L1301.69 1029.16Z" fill="url(#paint21_linear_744_4471)"/>
<path d="M1311.47 1138.4C1309.5 1137.1 1307.1 1136.4 1304.35 1136.45L1150.95 1139.41L1150.27 1182.99L1303.54 1186.76C1309.16 1186.76 1314.02 1184.05 1314.02 1180.25V1143.33C1314.02 1141.47 1313.44 1139.69 1311.47 1138.4Z" fill="url(#paint22_linear_744_4471)"/>
<path d="M1273.11 1021.31L1250.97 933.512C1250.2 930.459 1247.45 927.949 1244.3 927.949H1157.74C1155.88 927.949 1154.1 929.074 1152.8 930.408C1151.51 931.742 1150.81 933.73 1150.86 935.589L1152.94 1005.89C1153.03 1009.18 1155.46 1011.99 1158.72 1012.52L1265.34 1029.77C1267.63 1030.14 1269.95 1029.34 1271.51 1027.63C1273.07 1025.93 1273.67 1023.56 1273.11 1021.31Z" fill="url(#paint23_linear_744_4471)"/>
<path d="M1268.68 927.266L1267.55 927.453C1265.64 927.77 1263.95 928.883 1262.89 930.515C1261.84 932.148 1261.53 934.149 1262.04 936.024L1286.16 1025.75C1287.1 1029.22 1290.54 1031.38 1294.07 1030.72L1301.69 1029.29L1268.68 927.266Z" fill="url(#paint24_linear_744_4471)"/>
<path d="M1192.62 1045.01C1192.62 1048.61 1189.7 1051.52 1186.11 1051.52H1159.02C1155.42 1051.52 1152.51 1048.61 1152.51 1045.01V1041.76C1152.51 1038.17 1155.42 1035.26 1159.02 1035.26H1186.11C1189.7 1035.26 1192.62 1038.17 1192.62 1041.76V1045.01Z" fill="url(#paint25_linear_744_4471)"/>
<path d="M1121.58 832.631C1119.27 832.462 1116.34 833.178 1114.65 834.753C1112.95 836.329 1111.32 838.455 1111.32 840.77V911.69H1201.09C1201.09 911.69 1196.27 838.08 1121.58 832.631Z" fill="url(#paint26_linear_744_4471)"/>
<path d="M1203.36 1253.98C1241.88 1253.98 1273.11 1222.75 1273.11 1184.23C1273.11 1145.7 1241.88 1114.47 1203.36 1114.47C1164.83 1114.47 1133.6 1145.7 1133.6 1184.23C1133.6 1222.75 1164.83 1253.98 1203.36 1253.98Z" fill="url(#paint27_linear_744_4471)"/>
<path d="M1213.49 1240.05C1244.27 1234.47 1264.71 1204.99 1259.13 1174.21C1253.54 1143.42 1224.06 1122.99 1193.28 1128.57C1162.49 1134.15 1142.06 1163.63 1147.64 1194.42C1153.22 1225.2 1182.7 1245.64 1213.49 1240.05Z" fill="#7D97F4"/>
<path d="M1250.94 1205.13C1250.76 1205.13 1250.58 1205.1 1250.4 1205.02C1249.7 1204.72 1249.37 1203.92 1249.67 1203.21C1252.21 1197.2 1253.5 1190.81 1253.5 1184.23C1253.5 1157.33 1231.62 1135.45 1204.73 1135.45C1196.38 1135.45 1188.15 1137.59 1180.92 1141.65C1180.25 1142.02 1179.41 1141.78 1179.04 1141.12C1178.66 1140.45 1178.9 1139.61 1179.57 1139.24C1187.21 1134.96 1195.91 1132.69 1204.73 1132.69C1233.14 1132.69 1256.26 1155.81 1256.26 1184.23C1256.26 1191.19 1254.9 1197.94 1252.21 1204.29C1251.99 1204.81 1251.48 1205.13 1250.94 1205.13Z" fill="#BDD0FB"/>
<path d="M1203.36 1210.21C1217.7 1210.21 1229.34 1198.58 1229.34 1184.23C1229.34 1169.88 1217.7 1158.25 1203.36 1158.25C1189.01 1158.25 1177.38 1169.88 1177.38 1184.23C1177.38 1198.58 1189.01 1210.21 1203.36 1210.21Z" fill="url(#paint28_linear_744_4471)"/>
<path d="M773.288 1253.98C811.813 1253.98 843.043 1222.75 843.043 1184.23C843.043 1145.7 811.813 1114.47 773.288 1114.47C734.763 1114.47 703.533 1145.7 703.533 1184.23C703.533 1222.75 734.763 1253.98 773.288 1253.98Z" fill="url(#paint29_linear_744_4471)"/>
<path d="M782.393 1240.15C813.276 1235.14 834.248 1206.04 829.236 1175.15C824.224 1144.27 795.125 1123.3 764.243 1128.31C733.36 1133.32 712.388 1162.42 717.4 1193.3C722.412 1224.19 751.51 1245.16 782.393 1240.15Z" fill="#7D97F4"/>
<path d="M820.87 1205.13C820.691 1205.13 820.508 1205.1 820.333 1205.02C819.63 1204.73 819.303 1203.92 819.599 1203.21C822.143 1197.2 823.432 1190.81 823.432 1184.23C823.432 1157.33 801.552 1135.45 774.657 1135.45C766.313 1135.45 758.079 1137.59 750.846 1141.65C750.178 1142.02 749.338 1141.78 748.967 1141.12C748.594 1140.45 748.831 1139.61 749.496 1139.24C757.141 1134.96 765.841 1132.69 774.657 1132.69C803.074 1132.69 826.192 1155.81 826.192 1184.23C826.192 1191.18 824.83 1197.93 822.141 1204.29C821.919 1204.82 821.408 1205.13 820.87 1205.13Z" fill="#BDD0FB"/>
<path d="M773.288 1210.21C787.636 1210.21 799.267 1198.58 799.267 1184.23C799.267 1169.88 787.636 1158.25 773.288 1158.25C758.94 1158.25 747.308 1169.88 747.308 1184.23C747.308 1198.58 758.94 1210.21 773.288 1210.21Z" fill="url(#paint30_linear_744_4471)"/>
<path d="M613.715 1253.98C652.239 1253.98 683.47 1222.75 683.47 1184.23C683.47 1145.7 652.239 1114.47 613.715 1114.47C575.19 1114.47 543.959 1145.7 543.959 1184.23C543.959 1222.75 575.19 1253.98 613.715 1253.98Z" fill="url(#paint31_linear_744_4471)"/>
<path d="M613.715 1240.88C645.001 1240.88 670.363 1215.51 670.363 1184.23C670.363 1152.94 645.001 1127.58 613.715 1127.58C582.428 1127.58 557.066 1152.94 557.066 1184.23C557.066 1215.51 582.428 1240.88 613.715 1240.88Z" fill="url(#paint32_linear_744_4471)"/>
<path d="M661.297 1205.13C661.117 1205.13 660.935 1205.1 660.759 1205.02C660.057 1204.73 659.729 1203.92 660.026 1203.21C662.569 1197.2 663.859 1190.82 663.859 1184.23C663.859 1157.33 641.979 1135.45 615.083 1135.45C606.74 1135.45 598.506 1137.59 591.274 1141.65C590.604 1142.02 589.766 1141.78 589.395 1141.12C589.022 1140.45 589.259 1139.61 589.924 1139.24C597.568 1134.96 606.267 1132.69 615.083 1132.69C643.5 1132.69 666.619 1155.81 666.619 1184.23C666.619 1191.19 665.257 1197.94 662.568 1204.29C662.345 1204.82 661.835 1205.13 661.297 1205.13Z" fill="white"/>
<path d="M613.715 1210.21C628.063 1210.21 639.694 1198.58 639.694 1184.23C639.694 1169.88 628.063 1158.25 613.715 1158.25C599.366 1158.25 587.735 1169.88 587.735 1184.23C587.735 1198.58 599.366 1210.21 613.715 1210.21Z" fill="url(#paint33_linear_744_4471)"/>
<path d="M1310.77 1128.1C1310.77 1131.9 1307.68 1134.98 1303.88 1134.98H1286.22C1282.41 1134.98 1279.33 1131.9 1279.33 1128.1V1103.93C1279.33 1100.13 1282.41 1097.04 1286.22 1097.04H1303.88C1307.68 1097.04 1310.77 1100.13 1310.77 1103.93V1128.1Z" fill="url(#paint34_linear_744_4471)"/>
<path opacity="0.8" d="M1293.42 1097.04V1132.81H1287.76C1283.97 1132.81 1279.33 1128.54 1279.33 1124.74V1102.09C1279.33 1098.29 1283.97 1097.04 1287.76 1097.04H1293.42Z" fill="white"/>
<path opacity="0.7" d="M1123.25 1088.67C1122.48 1088.67 1121.86 1088.05 1121.86 1087.29V927.95C1121.86 927.188 1122.48 926.569 1123.25 926.569C1124.01 926.569 1124.62 927.188 1124.62 927.95V1087.29C1124.63 1088.05 1124.01 1088.67 1123.25 1088.67Z" fill="white"/>
<path d="M1184.62 904.491C1184.04 904.491 1183.51 904.132 1183.31 903.561C1162.7 843.84 1120.16 848.063 1119.73 848.111C1118.98 848.191 1118.29 847.659 1118.2 846.902C1118.11 846.145 1118.65 845.46 1119.41 845.37C1119.85 845.317 1164.55 840.751 1185.92 902.661C1186.17 903.381 1185.79 904.167 1185.07 904.415C1184.92 904.467 1184.76 904.491 1184.62 904.491Z" fill="#BDD0FB"/>
<path d="M319.086 1333.51C319.102 1333.15 319.081 1332.8 318.975 1332.44C312.748 1311.26 279.571 1297.8 279.571 1297.8L266.274 1298.5C258.181 1317.04 258.88 1328.46 259.98 1333.55C260.01 1333.69 260.062 1333.83 260.106 1333.97C271.038 1334.84 293.566 1335.56 319.086 1333.51Z" fill="url(#paint35_linear_744_4471)"/>
<path d="M260.106 1333.97C260.655 1335.67 262.211 1337.01 264.236 1337.36C279.751 1340.09 304.562 1338.24 314.984 1337.27C317.284 1337.05 319.002 1335.4 319.087 1333.51C293.566 1335.56 271.038 1334.84 260.106 1333.97Z" fill="url(#paint36_linear_744_4471)"/>
<path d="M355.366 1330.01C343.569 1329.68 337.466 1328.29 334.312 1327C334.304 1328.17 334.311 1329.37 334.349 1330.6C334.39 1331.92 335.369 1332.98 336.572 1332.97L401.349 1332.55C403.416 1332.54 404.624 1330.14 403.728 1328.25C395.235 1328.95 373.603 1330.52 355.366 1330.01Z" fill="url(#paint37_linear_744_4471)"/>
<path d="M403.728 1328.25C403.65 1328.08 403.583 1327.91 403.472 1327.76C397.751 1319.76 383.181 1303.85 354.39 1296.94L340.578 1296.51C340.578 1296.51 334.428 1307.2 334.311 1327C337.466 1328.29 343.568 1329.68 355.366 1330.01C373.603 1330.52 395.235 1328.95 403.728 1328.25Z" fill="url(#paint38_linear_744_4471)"/>
<path d="M331.133 977.042C331.133 977.042 360.26 1139.56 359.658 1298.88C359.647 1301.78 338.475 1305.63 338.017 1302.95C333.346 1275.56 302.381 1097.25 287.108 1072.19C287.108 1072.19 280.905 1230.02 284.117 1301.32C284.197 1303.1 264.397 1305.91 264.101 1303.86C260.774 1280.67 238.385 1119.4 239.199 1020C239.245 1014.39 244.439 967.691 244.439 967.691C277.343 973.399 302.414 983.359 331.133 977.042Z" fill="url(#paint39_linear_744_4471)"/>
<path d="M225.45 883.713C206.245 841.369 204.201 811.623 225.45 798.974C226.718 798.652 228.008 798.4 229.318 798.233C236.086 797.374 245.448 796.186 256.232 794.764C256.232 794.764 256.263 794.764 256.326 794.748C257.889 794.404 279.457 789.794 302.886 788.34C325.392 786.934 349.586 788.45 359.354 799.484C359.354 799.484 366.053 816.159 378.644 832.682C396.731 856.421 405.614 882.874 415.007 877.717C417.573 876.312 419.473 866.867 421.437 862.592C428.284 863.409 441.902 865.472 452.518 876.794C444.673 919.468 418.68 937.108 354.977 884.71C342.88 918.922 329.556 962.148 333.886 993.516C334.245 996.188 332.073 999.054 329.4 999.445C314.896 1001.6 268.85 1007.12 246.391 998.113C245.078 997.597 241.446 996.888 241.446 995.466C241.493 985.104 244.104 943.898 227.021 889.821C226.399 887.816 225.871 885.78 225.45 883.713Z" fill="url(#paint40_linear_744_4471)"/>
<path d="M268.064 754.114L263.734 798.354C263.734 798.354 288.622 805.85 306.723 793.078L293.998 752.871L268.064 754.114Z" fill="url(#paint41_linear_744_4471)"/>
<path d="M310.309 716.413C310.604 717.181 311.855 771.555 311.855 771.555L280.793 771.609L271.951 720.25C271.951 720.25 305.359 703.562 310.309 716.413Z" fill="url(#paint42_linear_744_4471)"/>
<path d="M282.597 726.67C281.588 727.618 281.075 728.97 281.202 730.348L283.703 757.353C283.741 757.763 283.83 758.159 283.98 758.543C284.807 760.655 287.981 767.169 294.592 763.554C300.227 760.474 305.448 757.72 309.688 757.587C312.164 757.51 314.207 759.504 314.255 761.981C314.354 767.083 314.344 777.381 313.05 786.53C312.726 788.824 310.673 790.466 308.362 790.32C302.263 789.935 290.374 788.826 280.827 785.759C279.259 785.255 278.101 783.935 277.802 782.315C276.486 775.186 272.716 755.221 270.785 749.748C268.99 744.664 262.015 742.903 258.756 742.35C257.52 742.14 256.434 741.433 255.746 740.385C253.683 737.239 250.707 730.446 258.89 725.298C260.924 724.018 261.51 721.293 260.273 719.232C258.055 715.54 256.46 709.845 262.929 704.971C269.479 700.038 275.823 702.361 279.708 704.849C281.428 705.951 283.742 705.884 285.261 704.519C285.937 703.912 286.863 703.563 288.122 703.882C294.517 705.501 293.412 696.572 296.698 693.785C301.305 689.879 306.288 695.564 308.148 699.757C309.18 702.083 309.91 704.54 311.041 706.819C312.814 710.391 315.573 713.468 318.931 715.618C319.446 715.947 320 716.282 320.282 716.824C320.683 717.595 320.394 718.582 319.813 719.227C319.232 719.873 318.416 720.249 317.617 720.589C311.041 723.385 304.226 723.682 297.37 721.395C291.407 719.408 285.378 724.061 282.597 726.67Z" fill="url(#paint43_linear_744_4471)"/>
<path d="M273.22 759.268C273.22 759.268 273.773 743.237 267.331 740.781C260.89 738.325 253.052 742.151 257.393 752.773C262.793 765.986 273.22 759.268 273.22 759.268Z" fill="url(#paint44_linear_744_4471)"/>
<path d="M320.225 715.214C310.628 664.782 238.997 685.844 255.433 730.9C280.237 723.554 309.769 710.372 320.225 715.214Z" fill="url(#paint45_linear_744_4471)"/>
<path d="M278.712 722.535L320.325 733.959C321.381 734.249 322.516 733.965 323.306 733.205C329.053 727.674 335.764 725.091 343.24 724.839C344.185 724.807 344.396 723.492 343.513 723.153L318.771 713.648C318.744 713.638 318.716 713.629 318.687 713.623C305.794 710.711 292.31 714.854 278.617 721.504C278.16 721.726 278.222 722.401 278.712 722.535Z" fill="url(#paint46_linear_744_4471)"/>
<path d="M267.194 945.373C254.697 945.611 244.439 935.545 244.439 923.046V823.684C244.439 810.629 254.93 800.007 267.984 799.865C307.162 799.438 387.965 799.417 454.079 804.988C463.101 805.748 470.118 813.143 470.446 822.191L476.625 918.254C477.084 930.96 467.038 941.575 454.326 941.817L267.194 945.373Z" fill="url(#paint47_linear_744_4471)"/>
<path opacity="0.37" d="M351.39 884.469L378.286 887.37C382.049 887.776 385.261 884.672 384.983 880.897L379.104 800.89C367.829 800.533 356.708 800.272 345.977 800.089V878.44C345.977 881.537 348.311 884.137 351.39 884.469Z" fill="white"/>
<path d="M362.413 870.602C362.496 872.041 363.689 873.151 365.112 873.151C365.165 873.151 365.218 873.149 365.27 873.145C366.762 873.059 367.902 871.78 367.814 870.289L363.758 800.461C361.94 800.416 360.136 800.376 358.332 800.336L362.413 870.602Z" fill="white"/>
<path d="M358.984 955.735C363.833 948.978 360.192 944.474 360.192 944.474C335.718 935.736 300.646 936.426 274.056 903.054C263.254 908.78 271.98 912.181 260.142 929.404C315.832 965.244 358.984 955.735 358.984 955.735Z" fill="url(#paint48_linear_744_4471)"/>
<path d="M245.84 830.277C246.185 870.406 258.821 900.986 319.021 932.126L306.723 951.204C277.415 948.476 225.839 909.355 210.271 880.314C206.431 873.152 201.124 850.608 201.896 834.729C203.482 802.05 237.141 772.206 245.84 830.277Z" fill="url(#paint49_linear_744_4471)"/>
<path d="M358.45 955.548C373.15 960.975 383.228 952.156 389.775 942.616C376.044 941.043 367.412 940.851 356.109 943.126L358.45 955.548Z" fill="url(#paint50_linear_744_4471)"/>
<path d="M478.246 853.302C474.511 852.386 466.12 841.034 465.227 845.182C464.335 849.329 466.865 854.589 466.49 856.352C466.114 858.115 463.298 867.994 465.537 872.139C467.151 875.13 470.321 884.538 471.961 889.544C472.505 891.205 472.948 893.4 474.686 893.204C476.423 893.009 477.769 890.671 477.931 888.93C477.995 888.232 481.983 854.218 478.246 853.302Z" fill="url(#paint51_linear_744_4471)"/>
<path d="M459.073 1299.07H713.006V997.428H463.746C461.165 997.428 459.073 999.52 459.073 1002.1V1299.07Z" fill="url(#paint52_linear_744_4471)"/>
<path d="M500.182 1299.18H744.26V1003.02C744.26 1000.1 741.889 997.728 738.963 997.728H500.182V1299.18Z" fill="url(#paint53_linear_744_4471)"/>
<path opacity="0.37" d="M629.885 1084.83L601.689 1087.87C597.743 1088.3 594.376 1085.04 594.667 1081.08L600.831 997.208C612.651 996.833 624.31 996.56 635.559 996.367V1078.51C635.559 1081.75 633.113 1084.48 629.885 1084.83Z" fill="white"/>
<path d="M618.328 1070.29C618.241 1071.8 616.991 1072.96 615.499 1072.96C615.444 1072.96 615.389 1072.96 615.333 1072.96C613.769 1072.87 612.575 1071.52 612.667 1069.96L616.919 996.758C618.825 996.71 620.716 996.668 622.607 996.626L618.328 1070.29Z" fill="white"/>
</g>
<defs>
<linearGradient id="paint0_linear_744_4471" x1="1478.11" y1="1675.51" x2="462.18" y2="413.793" gradientUnits="userSpaceOnUse">
<stop stop-color="#DAE3FE"/>
<stop offset="1" stop-color="#E9EFFD"/>
</linearGradient>
<linearGradient id="paint1_linear_744_4471" x1="302.293" y1="459.593" x2="430.181" y2="459.593" gradientUnits="userSpaceOnUse">
<stop stop-color="#4F52FF"/>
<stop offset="1" stop-color="#4042E2"/>
</linearGradient>
<linearGradient id="paint2_linear_744_4471" x1="302.176" y1="525.906" x2="430.188" y2="525.906" gradientUnits="userSpaceOnUse">
<stop stop-color="#4F52FF"/>
<stop offset="1" stop-color="#4042E2"/>
</linearGradient>
<linearGradient id="paint3_linear_744_4471" x1="776.18" y1="237.561" x2="869.274" y2="237.561" gradientUnits="userSpaceOnUse">
<stop stop-color="#4F52FF"/>
<stop offset="1" stop-color="#4042E2"/>
</linearGradient>
<linearGradient id="paint4_linear_744_4471" x1="776.095" y1="285.832" x2="869.279" y2="285.832" gradientUnits="userSpaceOnUse">
<stop stop-color="#4F52FF"/>
<stop offset="1" stop-color="#4042E2"/>
</linearGradient>
<linearGradient id="paint5_linear_744_4471" x1="-1738.93" y1="-2736.99" x2="-1587.81" y2="-2536.2" gradientUnits="userSpaceOnUse">
<stop stop-color="#09005D"/>
<stop offset="1" stop-color="#1A0F91"/>
</linearGradient>
<linearGradient id="paint6_linear_744_4471" x1="-1628.62" y1="-2820" x2="-1477.51" y2="-2619.21" gradientUnits="userSpaceOnUse">
<stop stop-color="#09005D"/>
<stop offset="1" stop-color="#1A0F91"/>
</linearGradient>
<linearGradient id="paint7_linear_744_4471" x1="-1549.59" y1="-2879.47" x2="-1398.48" y2="-2678.68" gradientUnits="userSpaceOnUse">
<stop stop-color="#09005D"/>
<stop offset="1" stop-color="#1A0F91"/>
</linearGradient>
<linearGradient id="paint8_linear_744_4471" x1="2845.85" y1="-2289.56" x2="2693.03" y2="-2086.49" gradientUnits="userSpaceOnUse">
<stop stop-color="#09005D"/>
<stop offset="1" stop-color="#1A0F91"/>
</linearGradient>
<linearGradient id="paint9_linear_744_4471" x1="-1457.22" y1="-3020.65" x2="-1304.34" y2="-2817.5" gradientUnits="userSpaceOnUse">
<stop stop-color="#09005D"/>
<stop offset="1" stop-color="#1A0F91"/>
</linearGradient>
<linearGradient id="paint10_linear_744_4471" x1="951.678" y1="655.953" x2="1100.72" y2="517.263" gradientUnits="userSpaceOnUse">
<stop stop-color="#FF928E"/>
<stop offset="1" stop-color="#FE7062"/>
</linearGradient>
<linearGradient id="paint11_linear_744_4471" x1="1141.99" y1="659.051" x2="1303.45" y2="514.151" gradientUnits="userSpaceOnUse">
<stop stop-color="#FF928E"/>
<stop offset="1" stop-color="#FE7062"/>
</linearGradient>
<linearGradient id="paint12_linear_744_4471" x1="846.711" y1="521.364" x2="966.771" y2="372.324" gradientUnits="userSpaceOnUse">
<stop stop-color="#FF928E"/>
<stop offset="1" stop-color="#FE7062"/>
</linearGradient>
<linearGradient id="paint13_linear_744_4471" x1="990.402" y1="488.302" x2="1131.16" y2="362.031" gradientUnits="userSpaceOnUse">
<stop stop-color="#FF928E"/>
<stop offset="1" stop-color="#FE7062"/>
</linearGradient>
<linearGradient id="paint14_linear_744_4471" x1="1157.16" y1="498.763" x2="1287.57" y2="362.144" gradientUnits="userSpaceOnUse">
<stop stop-color="#FF928E"/>
<stop offset="1" stop-color="#FE7062"/>
</linearGradient>
<linearGradient id="paint15_linear_744_4471" x1="814.414" y1="857.887" x2="936.544" y2="710.917" gradientUnits="userSpaceOnUse">
<stop stop-color="#FF928E"/>
<stop offset="1" stop-color="#FE7062"/>
</linearGradient>
<linearGradient id="paint16_linear_744_4471" x1="956.742" y1="863.78" x2="1130.62" y2="706.459" gradientUnits="userSpaceOnUse">
<stop stop-color="#FF928E"/>
<stop offset="1" stop-color="#FE7062"/>
</linearGradient>
<linearGradient id="paint17_linear_744_4471" x1="1138.91" y1="903.043" x2="1294.16" y2="669.132" gradientUnits="userSpaceOnUse">
<stop stop-color="#FF928E"/>
<stop offset="1" stop-color="#FE7062"/>
</linearGradient>
<linearGradient id="paint18_linear_744_4471" x1="803.505" y1="1012.43" x2="740.022" y2="446.603" gradientUnits="userSpaceOnUse">
<stop stop-color="#09005D"/>
<stop offset="1" stop-color="#1A0F91"/>
</linearGradient>
<linearGradient id="paint19_linear_744_4471" x1="481.628" y1="1156.82" x2="544.386" y2="1149.37" gradientUnits="userSpaceOnUse">
<stop stop-color="#CB236D"/>
<stop offset="1" stop-color="#4C246D"/>
</linearGradient>
<linearGradient id="paint20_linear_744_4471" x1="1354.79" y1="476.893" x2="686.832" y2="1062.47" gradientUnits="userSpaceOnUse">
<stop stop-color="#4F52FF"/>
<stop offset="1" stop-color="#4042E2"/>
</linearGradient>
<linearGradient id="paint21_linear_744_4471" x1="1111.69" y1="1219.07" x2="1285.57" y2="914.779" gradientUnits="userSpaceOnUse">
<stop stop-color="#FF928E"/>
<stop offset="1" stop-color="#FE7062"/>
</linearGradient>
<linearGradient id="paint22_linear_744_4471" x1="1426.04" y1="1164.72" x2="1647.29" y2="1170.29" gradientUnits="userSpaceOnUse">
<stop stop-color="#09005D"/>
<stop offset="1" stop-color="#1A0F91"/>
</linearGradient>
<linearGradient id="paint23_linear_744_4471" x1="1150.86" y1="978.903" x2="1273.32" y2="978.903" gradientUnits="userSpaceOnUse">
<stop stop-color="#09005D"/>
<stop offset="1" stop-color="#1A0F91"/>
</linearGradient>
<linearGradient id="paint24_linear_744_4471" x1="1261.8" y1="979.053" x2="1301.69" y2="979.053" gradientUnits="userSpaceOnUse">
<stop stop-color="#09005D"/>
<stop offset="1" stop-color="#1A0F91"/>
</linearGradient>
<linearGradient id="paint25_linear_744_4471" x1="1152.51" y1="1043.39" x2="1192.62" y2="1043.39" gradientUnits="userSpaceOnUse">
<stop stop-color="#E1473D"/>
<stop offset="1" stop-color="#E9605A"/>
</linearGradient>
<linearGradient id="paint26_linear_744_4471" x1="1302.72" y1="798.33" x2="1053.15" y2="927.141" gradientUnits="userSpaceOnUse">
<stop stop-color="#4F52FF"/>
<stop offset="1" stop-color="#4042E2"/>
</linearGradient>
<linearGradient id="paint27_linear_744_4471" x1="1133.6" y1="1184.23" x2="1273.11" y2="1184.23" gradientUnits="userSpaceOnUse">
<stop stop-color="#09005D"/>
<stop offset="1" stop-color="#1A0F91"/>
</linearGradient>
<linearGradient id="paint28_linear_744_4471" x1="1228.96" y1="1142.28" x2="1158.05" y2="1258.46" gradientUnits="userSpaceOnUse">
<stop stop-color="#09005D"/>
<stop offset="1" stop-color="#1A0F91"/>
</linearGradient>
<linearGradient id="paint29_linear_744_4471" x1="703.533" y1="1184.23" x2="843.043" y2="1184.23" gradientUnits="userSpaceOnUse">
<stop stop-color="#09005D"/>
<stop offset="1" stop-color="#1A0F91"/>
</linearGradient>
<linearGradient id="paint30_linear_744_4471" x1="798.89" y1="1142.28" x2="727.981" y2="1258.46" gradientUnits="userSpaceOnUse">
<stop stop-color="#09005D"/>
<stop offset="1" stop-color="#1A0F91"/>
</linearGradient>
<linearGradient id="paint31_linear_744_4471" x1="543.959" y1="1184.23" x2="683.47" y2="1184.23" gradientUnits="userSpaceOnUse">
<stop stop-color="#09005D"/>
<stop offset="1" stop-color="#1A0F91"/>
</linearGradient>
<linearGradient id="paint32_linear_744_4471" x1="777.317" y1="1072.5" x2="503.712" y2="1259.35" gradientUnits="userSpaceOnUse">
<stop stop-color="#FF928E"/>
<stop offset="1" stop-color="#FE7062"/>
</linearGradient>
<linearGradient id="paint33_linear_744_4471" x1="639.317" y1="1142.28" x2="568.408" y2="1258.46" gradientUnits="userSpaceOnUse">
<stop stop-color="#09005D"/>
<stop offset="1" stop-color="#1A0F91"/>
</linearGradient>
<linearGradient id="paint34_linear_744_4471" x1="1285.5" y1="1138.83" x2="1307.77" y2="1085.6" gradientUnits="userSpaceOnUse">
<stop stop-color="#E1473D"/>
<stop offset="1" stop-color="#E9605A"/>
</linearGradient>
<linearGradient id="paint35_linear_744_4471" x1="259.572" y1="1316.11" x2="319.481" y2="1317.6" gradientUnits="userSpaceOnUse">
<stop stop-color="#09005D"/>
<stop offset="1" stop-color="#1A0F91"/>
</linearGradient>
<linearGradient id="paint36_linear_744_4471" x1="410.987" y1="1261.74" x2="229.523" y2="1436.26" gradientUnits="userSpaceOnUse">
<stop stop-color="#4F52FF"/>
<stop offset="1" stop-color="#4042E2"/>
</linearGradient>
<linearGradient id="paint37_linear_744_4471" x1="418.626" y1="1307.93" x2="280.815" y2="1367.5" gradientUnits="userSpaceOnUse">
<stop stop-color="#4F52FF"/>
<stop offset="1" stop-color="#4042E2"/>
</linearGradient>
<linearGradient id="paint38_linear_744_4471" x1="339.408" y1="1323.17" x2="483.978" y2="1275.51" gradientUnits="userSpaceOnUse">
<stop stop-color="#09005D"/>
<stop offset="1" stop-color="#1A0F91"/>
</linearGradient>
<linearGradient id="paint39_linear_744_4471" x1="128.367" y1="745.368" x2="409.722" y2="1402.16" gradientUnits="userSpaceOnUse">
<stop stop-color="#09005D"/>
<stop offset="1" stop-color="#1A0F91"/>
</linearGradient>
<linearGradient id="paint40_linear_744_4471" x1="381.556" y1="1178.84" x2="344.296" y2="938.723" gradientUnits="userSpaceOnUse">
<stop stop-color="#4F52FF"/>
<stop offset="1" stop-color="#4042E2"/>
</linearGradient>
<linearGradient id="paint41_linear_744_4471" x1="294.641" y1="742.279" x2="259.47" y2="894.268" gradientUnits="userSpaceOnUse">
<stop stop-color="#FEBBBA"/>
<stop offset="1" stop-color="#FF928E"/>
</linearGradient>
<linearGradient id="paint42_linear_744_4471" x1="299.012" y1="721.15" x2="270.451" y2="820.603" gradientUnits="userSpaceOnUse">
<stop stop-color="#FEBBBA"/>
<stop offset="1" stop-color="#FF928E"/>
</linearGradient>
<linearGradient id="paint43_linear_744_4471" x1="261.668" y1="756.774" x2="326.119" y2="731.952" gradientUnits="userSpaceOnUse">
<stop stop-color="#09005D"/>
<stop offset="1" stop-color="#1A0F91"/>
</linearGradient>
<linearGradient id="paint44_linear_744_4471" x1="238.155" y1="814.247" x2="266.033" y2="749.211" gradientUnits="userSpaceOnUse">
<stop stop-color="#FEBBBA"/>
<stop offset="1" stop-color="#FF928E"/>
</linearGradient>
<linearGradient id="paint45_linear_744_4471" x1="272.168" y1="660.74" x2="290.109" y2="732.504" gradientUnits="userSpaceOnUse">
<stop stop-color="#4F52FF"/>
<stop offset="1" stop-color="#4042E2"/>
</linearGradient>
<linearGradient id="paint46_linear_744_4471" x1="319.897" y1="653.344" x2="307.476" y2="752.709" gradientUnits="userSpaceOnUse">
<stop stop-color="#4F52FF"/>
<stop offset="1" stop-color="#4042E2"/>
</linearGradient>
<linearGradient id="paint47_linear_744_4471" x1="513.22" y1="778.584" x2="297.939" y2="908.995" gradientUnits="userSpaceOnUse">
<stop stop-color="#FF928E"/>
<stop offset="1" stop-color="#FE7062"/>
</linearGradient>
<linearGradient id="paint48_linear_744_4471" x1="238.736" y1="893.53" x2="410.279" y2="997.871" gradientUnits="userSpaceOnUse">
<stop stop-color="#FEBBBA"/>
<stop offset="1" stop-color="#FF928E"/>
</linearGradient>
<linearGradient id="paint49_linear_744_4471" x1="349.011" y1="815.704" x2="558.081" y2="670.804" gradientUnits="userSpaceOnUse">
<stop stop-color="#4F52FF"/>
<stop offset="1" stop-color="#4042E2"/>
</linearGradient>
<linearGradient id="paint50_linear_744_4471" x1="259.577" y1="957.536" x2="409.961" y2="946.216" gradientUnits="userSpaceOnUse">
<stop stop-color="#FEBBBA"/>
<stop offset="1" stop-color="#FF928E"/>
</linearGradient>
<linearGradient id="paint51_linear_744_4471" x1="451.814" y1="801.866" x2="549.886" y2="1096.06" gradientUnits="userSpaceOnUse">
<stop stop-color="#FEBBBA"/>
<stop offset="1" stop-color="#FF928E"/>
</linearGradient>
<linearGradient id="paint52_linear_744_4471" x1="942.681" y1="1148.25" x2="702.56" y2="1148.25" gradientUnits="userSpaceOnUse">
<stop stop-color="#FF928E"/>
<stop offset="1" stop-color="#FE7062"/>
</linearGradient>
<linearGradient id="paint53_linear_744_4471" x1="757.318" y1="952.565" x2="362.837" y2="1524.56" gradientUnits="userSpaceOnUse">
<stop stop-color="#FF928E"/>
<stop offset="1" stop-color="#FE7062"/>
</linearGradient>
<clipPath id="clip0_744_4471">
<rect width="1535" height="1535" fill="white"/>
</clipPath>
</defs>
</svg>
