<svg width="1535" height="1535" viewBox="0 0 1535 1535" fill="none" xmlns="http://www.w3.org/2000/svg">
<g clip-path="url(#clip0_744_5197)">
<path d="M1202.55 1161.16C1179.41 1185.52 1157.51 1201.23 1140.22 1213.64C936.875 1359.54 696.269 1317.02 645.134 1306.63C569.622 1291.29 423.661 1261.65 318.134 1137.55C158.479 949.798 183.34 654.003 307.178 458.744C329.831 423.028 449.485 224.796 692.683 193.005C839.863 173.766 1011.43 212.569 1135.67 316.66C1396.47 535.156 1377.9 976.557 1202.55 1161.16Z" fill="url(#paint0_linear_744_5197)"/>
<path d="M1226.73 322.187C1226.34 322.519 1225.8 322.661 1225.27 322.518C1223.24 321.967 1221.19 321.457 1219.17 321.002C1218.32 320.809 1217.78 319.959 1217.97 319.103C1218.17 318.247 1219.02 317.709 1219.87 317.903C1221.93 318.366 1224.03 318.886 1226.1 319.449C1226.95 319.679 1227.45 320.552 1227.22 321.398C1227.14 321.717 1226.96 321.987 1226.73 322.187Z" fill="#91B3FA"/>
<path d="M1286.14 584.388C1283.33 586.808 1280.4 589.15 1277.42 591.348C1276.72 591.87 1275.72 591.721 1275.2 591.016C1274.68 590.311 1274.81 589.323 1275.53 588.793C1278.95 586.262 1282.31 583.543 1285.52 580.717C1285.52 580.712 1285.53 580.708 1285.53 580.704C1286.19 580.137 1287.18 580.204 1287.76 580.858C1288.34 581.517 1288.28 582.521 1287.62 583.101C1287.13 583.534 1286.64 583.963 1286.14 584.388ZM1302.4 568.1C1301.81 568.603 1300.93 568.619 1300.33 568.102C1299.66 567.531 1299.58 566.528 1300.15 565.861C1302.92 562.624 1305.59 559.226 1308.09 555.761C1308.59 555.04 1309.59 554.886 1310.3 555.399C1311.02 555.91 1311.18 556.905 1310.67 557.616C1308.12 561.153 1305.4 564.623 1302.57 567.927C1302.51 567.99 1302.46 568.048 1302.4 568.1ZM1321.52 539.981C1321.04 540.395 1320.33 540.497 1319.74 540.181C1318.96 539.772 1318.67 538.809 1319.08 538.034C1321.07 534.257 1322.93 530.357 1324.59 526.441C1324.93 525.633 1325.87 525.256 1326.68 525.599C1327.48 525.942 1327.86 526.875 1327.52 527.684C1325.82 531.682 1323.93 535.663 1321.89 539.52C1321.79 539.7 1321.66 539.855 1321.52 539.981ZM1333.95 508.343C1333.56 508.674 1333.03 508.816 1332.5 508.674C1331.65 508.447 1331.15 507.575 1331.38 506.728C1332.48 502.617 1333.42 498.402 1334.16 494.199C1334.32 493.335 1335.14 492.757 1336 492.912C1336.87 493.065 1337.45 493.889 1337.29 494.755C1336.53 499.047 1335.57 503.353 1334.45 507.551C1334.36 507.87 1334.18 508.142 1333.95 508.343ZM1338.99 474.735C1338.7 474.987 1338.32 475.133 1337.9 475.117C1337.02 475.085 1336.34 474.348 1336.37 473.471C1336.53 469.216 1336.5 464.897 1336.29 460.634C1336.25 459.757 1336.93 459.014 1337.8 458.969C1338.68 458.927 1339.43 459.603 1339.47 460.479C1339.68 464.834 1339.71 469.243 1339.55 473.589C1339.53 474.049 1339.32 474.456 1338.99 474.735ZM1336.44 440.834C1336.24 441.01 1335.99 441.136 1335.7 441.19C1334.84 441.353 1334.01 440.786 1333.85 439.924C1333.05 435.727 1332.07 431.52 1330.93 427.418C1330.7 426.573 1331.19 425.695 1332.04 425.461C1332.88 425.226 1333.76 425.72 1333.99 426.566C1335.16 430.754 1336.16 435.05 1336.97 439.333C1337.08 439.912 1336.86 440.476 1336.44 440.834ZM1326.46 408.331C1326.34 408.432 1326.21 408.519 1326.06 408.584C1325.25 408.933 1324.32 408.564 1323.97 407.76C1322.27 403.847 1320.38 399.96 1318.36 396.209C1317.94 395.436 1318.23 394.476 1319 394.056C1319.77 393.639 1320.74 393.927 1321.15 394.699C1323.22 398.53 1325.15 402.498 1326.88 406.493C1327.17 407.147 1326.98 407.889 1326.46 408.331ZM1309.51 378.85C1309.48 378.876 1309.45 378.901 1309.42 378.926C1308.71 379.446 1307.72 379.294 1307.2 378.587C1304.96 375.554 1302.59 372.57 1300.14 369.72C1299.81 369.34 1299.48 368.96 1299.15 368.584C1298.57 367.924 1298.64 366.92 1299.29 366.341C1299.3 366.337 1299.3 366.333 1299.31 366.33C1299.97 365.762 1300.96 365.83 1301.54 366.485C1301.88 366.871 1302.21 367.258 1302.55 367.647C1305.05 370.559 1307.48 373.605 1309.76 376.704C1310.25 377.377 1310.14 378.313 1309.51 378.85ZM1286.4 353.91C1285.82 354.414 1284.94 354.427 1284.33 353.908C1281.11 351.131 1277.72 348.454 1274.25 345.948C1273.54 345.435 1273.38 344.44 1273.9 343.729C1274.42 343.021 1275.4 342.858 1276.12 343.373C1279.65 345.931 1283.12 348.665 1286.41 351.499C1287.07 352.072 1287.15 353.075 1286.57 353.741C1286.52 353.801 1286.46 353.858 1286.4 353.91ZM1258.34 334.707C1257.86 335.122 1257.15 335.223 1256.56 334.905C1252.78 332.896 1248.88 331.03 1244.97 329.358C1244.17 329.013 1243.79 328.079 1244.14 327.272C1244.48 326.465 1245.42 326.089 1246.22 326.436C1250.22 328.142 1254.19 330.047 1258.05 332.098C1258.82 332.51 1259.12 333.474 1258.7 334.248C1258.61 334.429 1258.48 334.582 1258.34 334.707Z" fill="#91B3FA"/>
<path d="M1259.67 602.64C1259.59 602.712 1259.49 602.778 1259.39 602.834C1257.49 603.862 1255.57 604.852 1253.69 605.775C1252.9 606.161 1251.94 605.835 1251.56 605.047C1251.17 604.258 1251.5 603.309 1252.29 602.92C1254.14 602.016 1256.02 601.045 1257.88 600.038C1258.65 599.62 1259.61 599.907 1260.03 600.678C1260.39 601.349 1260.23 602.163 1259.67 602.64Z" fill="#91B3FA"/>
<path d="M1141.05 614.015C1140.65 614.362 1140.08 614.499 1139.54 614.326C1137.52 613.685 1135.47 612.988 1133.46 612.253C1132.63 611.953 1132.21 611.04 1132.51 610.216C1132.81 609.39 1133.72 608.966 1134.55 609.266C1136.52 609.985 1138.52 610.668 1140.5 611.295C1141.33 611.561 1141.8 612.454 1141.53 613.291C1141.44 613.583 1141.27 613.829 1141.05 614.015Z" fill="#91B3FA"/>
<path d="M1116.09 603.543C1115.6 603.957 1114.9 604.058 1114.31 603.743C1110.53 601.747 1106.78 599.56 1103.16 597.245C1102.42 596.771 1102.21 595.788 1102.68 595.049C1103.16 594.315 1104.14 594.094 1104.88 594.567C1108.42 596.836 1112.09 598.978 1115.79 600.934C1116.57 601.343 1116.86 602.305 1116.45 603.081C1116.36 603.262 1116.23 603.417 1116.09 603.543ZM1088.38 584.784C1087.79 585.285 1086.92 585.302 1086.31 584.788C1083.04 582.01 1079.86 579.061 1076.84 576.027C1076.22 575.404 1076.23 574.398 1076.85 573.78C1077.48 573.152 1078.48 573.164 1079.1 573.788C1082.05 576.758 1085.17 579.645 1088.37 582.367C1089.04 582.934 1089.12 583.938 1088.55 584.608C1088.5 584.671 1088.44 584.73 1088.38 584.784ZM1065.43 560.426C1065.41 560.448 1065.38 560.471 1065.35 560.493C1064.65 561.02 1063.65 560.878 1063.13 560.177C1060.55 556.755 1058.1 553.179 1055.82 549.547C1055.35 548.803 1055.58 547.823 1056.32 547.356C1057.06 546.89 1058.04 547.115 1058.51 547.858C1060.74 551.415 1063.15 554.917 1065.67 558.266C1066.17 558.94 1066.06 559.884 1065.43 560.426ZM1048.41 531.622C1048.3 531.719 1048.17 531.802 1048.02 531.866C1047.22 532.227 1046.28 531.871 1045.92 531.07C1044.16 527.167 1042.55 523.138 1041.12 519.097C1040.83 518.269 1041.26 517.359 1042.09 517.069C1042.92 516.777 1043.83 517.21 1044.12 518.038C1045.52 521.996 1047.1 525.942 1048.82 529.765C1049.12 530.422 1048.93 531.175 1048.41 531.622ZM1038.09 499.799C1037.89 499.969 1037.65 500.093 1037.38 500.148C1036.52 500.327 1035.68 499.775 1035.5 498.914C1034.63 494.72 1033.93 490.438 1033.42 486.185C1033.31 485.313 1033.93 484.523 1034.81 484.416C1035.68 484.311 1036.47 484.932 1036.58 485.804C1037.08 489.969 1037.76 494.162 1038.61 498.271C1038.73 498.857 1038.52 499.434 1038.09 499.799ZM1034.94 466.495C1034.66 466.739 1034.29 466.885 1033.88 466.879C1033.01 466.865 1032.31 466.142 1032.32 465.264C1032.39 460.978 1032.64 456.646 1033.06 452.389C1033.15 451.518 1033.93 450.879 1034.8 450.967C1035.68 451.054 1036.31 451.833 1036.23 452.706C1035.81 456.874 1035.56 461.117 1035.5 465.315C1035.49 465.787 1035.28 466.209 1034.94 466.495ZM1039.15 433.32C1038.78 433.643 1038.26 433.786 1037.74 433.662C1036.89 433.456 1036.37 432.597 1036.57 431.744C1037.58 427.576 1038.77 423.404 1040.13 419.342C1040.41 418.512 1041.3 418.06 1042.14 418.336C1042.97 418.614 1043.42 419.513 1043.14 420.347C1041.82 424.324 1040.65 428.409 1039.66 432.489C1039.58 432.825 1039.4 433.111 1039.15 433.32ZM1050.56 401.876C1050.09 402.279 1049.41 402.386 1048.82 402.097C1048.03 401.708 1047.71 400.755 1048.1 399.968C1049.99 396.14 1052.07 392.332 1054.28 388.652C1054.73 387.894 1055.71 387.657 1056.46 388.109C1057.21 388.562 1057.46 389.538 1057 390.29C1054.83 393.896 1052.8 397.625 1050.94 401.375C1050.85 401.572 1050.71 401.74 1050.56 401.876ZM1068.54 373.666C1067.97 374.156 1067.12 374.187 1066.51 373.699C1065.83 373.149 1065.72 372.15 1066.27 371.465C1068.96 368.114 1071.82 364.847 1074.76 361.754C1075.38 361.125 1076.37 361.094 1077.01 361.699C1077.64 362.304 1077.67 363.311 1077.06 363.946C1074.18 366.974 1071.38 370.174 1068.75 373.456C1068.68 373.534 1068.61 373.603 1068.54 373.666ZM1102.55 342.519C1102.5 342.562 1102.45 342.602 1102.4 342.638C1098.91 344.968 1095.47 347.473 1092.19 350.085C1091.51 350.632 1090.51 350.52 1089.96 349.834C1089.41 349.146 1089.5 348.146 1090.21 347.6C1093.56 344.932 1097.07 342.373 1100.64 339.994C1101.37 339.507 1102.35 339.703 1102.84 340.434C1103.29 341.109 1103.15 342.003 1102.55 342.519Z" fill="#91B3FA"/>
<path d="M1126.4 329.535C1126.28 329.637 1126.15 329.723 1126 329.788C1124.07 330.626 1122.15 331.508 1120.29 332.41C1119.5 332.792 1118.55 332.462 1118.16 331.673C1117.78 330.882 1118.11 329.932 1118.9 329.549C1120.8 328.629 1122.76 327.728 1124.73 326.873C1125.54 326.524 1126.47 326.893 1126.82 327.697C1127.11 328.352 1126.92 329.093 1126.4 329.535Z" fill="#91B3FA"/>
<path d="M1153.3 355.658C1152.53 355.795 1151.94 356.403 1151.82 357.172L1148.38 379.119C1138.85 383.223 1129.91 388.876 1121.97 396.011L1100.61 389.947C1099.86 389.734 1099.06 390.02 1098.62 390.659L1083.38 412.518C1082.93 413.158 1082.94 414.009 1083.4 414.637L1096.48 432.575C1092.53 442.495 1090.32 452.84 1089.77 463.199L1070.37 474.019C1069.69 474.399 1069.33 475.168 1069.46 475.934L1074.15 502.164C1074.28 502.932 1074.89 503.527 1075.66 503.647L1097.61 507.084C1101.71 516.612 1107.36 525.554 1114.5 533.495L1108.43 554.851C1108.22 555.599 1108.51 556.401 1109.15 556.846L1131.01 572.083C1131.64 572.528 1132.49 572.519 1133.12 572.06L1151.06 558.981C1160.98 562.927 1171.33 565.137 1181.69 565.691L1192.51 585.092C1192.89 585.771 1193.65 586.136 1194.42 585.999L1220.65 581.316C1221.42 581.18 1222.01 580.571 1222.13 579.802L1225.57 557.856C1235.1 553.752 1244.04 548.099 1251.98 540.964L1273.34 547.028C1274.09 547.24 1274.89 546.955 1275.33 546.316L1290.57 524.456C1291.02 523.818 1291.01 522.967 1290.55 522.338L1277.47 504.4C1281.41 494.48 1283.62 484.134 1284.18 473.775L1303.58 462.956C1304.26 462.577 1304.62 461.807 1304.49 461.041L1299.8 434.811C1299.67 434.044 1299.06 433.449 1298.29 433.328L1276.34 429.89C1272.24 420.363 1266.59 411.421 1259.45 403.48L1265.51 382.124C1265.73 381.376 1265.44 380.574 1264.8 380.129L1242.94 364.892C1242.3 364.447 1241.45 364.456 1240.82 364.915L1222.89 377.994C1212.97 374.047 1202.62 371.838 1192.26 371.284L1181.44 351.884C1181.06 351.204 1180.29 350.839 1179.53 350.976L1153.3 355.658Z" fill="#91B3FA"/>
<path d="M1203.99 488.218C1202.12 489.829 1200 491.179 1197.69 492.224C1191.35 495.086 1184.27 495.308 1177.76 492.847C1171.26 490.388 1166.1 485.542 1163.24 479.2C1160.37 472.859 1160.15 465.784 1162.61 459.277C1165.07 452.771 1169.92 447.61 1176.26 444.748C1182.6 441.886 1189.68 441.665 1196.18 444.127C1202.69 446.586 1207.85 451.432 1210.71 457.773C1213.57 464.114 1213.8 471.189 1211.34 477.696C1209.77 481.828 1207.25 485.416 1203.99 488.218ZM1173.07 452.367C1170.41 454.657 1168.35 457.588 1167.07 460.965C1165.06 466.28 1165.24 472.059 1167.58 477.239C1169.92 482.419 1174.14 486.378 1179.45 488.388C1184.77 490.397 1190.55 490.216 1195.73 487.878C1200.91 485.543 1204.87 481.327 1206.87 476.009C1208.88 470.694 1208.7 464.915 1206.37 459.734C1204.03 454.555 1199.81 450.596 1194.5 448.586C1189.18 446.576 1183.4 446.756 1178.22 449.095C1176.33 449.948 1174.6 451.051 1173.07 452.367Z" fill="#BDD0FB"/>
<path d="M1230.61 519.587C1208.1 538.952 1174.45 541.484 1148.99 523.737C1144.29 520.462 1140.15 516.687 1136.57 512.533C1117.2 490.018 1114.67 456.371 1132.42 430.906C1132.74 430.449 1133.06 429.995 1133.39 429.545C1135.62 426.514 1138.09 423.676 1140.77 421.082C1141.08 420.778 1141.4 420.478 1141.72 420.182L1144.97 423.672C1141.77 426.652 1138.86 430.003 1136.33 433.634C1136.31 433.667 1136.28 433.701 1136.26 433.736C1116.83 461.735 1123.75 500.33 1151.72 519.825C1179.72 539.345 1218.38 532.442 1237.91 504.436C1254.39 480.794 1252.04 449.552 1234.05 428.648C1230.73 424.79 1226.88 421.285 1222.52 418.245C1213.31 411.827 1202.56 408.03 1191.43 407.264L1191.75 402.508C1203.75 403.333 1215.33 407.421 1225.25 414.332C1229.95 417.608 1234.09 421.382 1237.67 425.537C1257.04 448.052 1259.57 481.699 1241.82 507.164C1238.55 511.863 1234.77 516.013 1230.61 519.587Z" fill="#BDD0FB"/>
<path d="M1101.22 206.141C1100.99 206.341 1100.67 206.426 1100.35 206.34C1099.13 206.008 1097.89 205.703 1096.68 205.429C1096.17 205.313 1095.84 204.802 1095.96 204.287C1096.08 203.773 1096.59 203.449 1097.1 203.566C1098.34 203.844 1099.6 204.156 1100.85 204.495C1101.36 204.633 1101.66 205.157 1101.52 205.666C1101.47 205.859 1101.36 206.021 1101.22 206.141Z" fill="#91B3FA"/>
<path d="M1136.93 363.732C1135.24 365.187 1133.48 366.594 1131.69 367.915C1131.27 368.229 1130.67 368.14 1130.36 367.715C1130.04 367.292 1130.12 366.697 1130.56 366.38C1132.61 364.858 1134.63 363.224 1136.56 361.525C1136.56 361.523 1136.56 361.52 1136.57 361.518C1136.96 361.177 1137.56 361.218 1137.91 361.611C1138.25 362.006 1138.22 362.609 1137.82 362.959C1137.53 363.218 1137.23 363.477 1136.93 363.732ZM1146.7 353.943C1146.35 354.245 1145.82 354.254 1145.46 353.944C1145.06 353.601 1145.01 352.998 1145.35 352.597C1147.02 350.651 1148.62 348.609 1150.12 346.527C1150.43 346.093 1151.03 346.001 1151.46 346.309C1151.88 346.617 1151.98 347.214 1151.67 347.642C1150.14 349.768 1148.51 351.853 1146.81 353.839C1146.77 353.876 1146.74 353.911 1146.7 353.943ZM1158.2 337.042C1157.91 337.291 1157.48 337.352 1157.13 337.162C1156.66 336.916 1156.48 336.338 1156.73 335.871C1157.93 333.601 1159.04 331.257 1160.04 328.904C1160.25 328.418 1160.81 328.192 1161.29 328.398C1161.78 328.604 1162.01 329.165 1161.8 329.651C1160.78 332.054 1159.64 334.447 1158.42 336.765C1158.36 336.873 1158.28 336.967 1158.2 337.042ZM1165.67 318.027C1165.44 318.226 1165.11 318.311 1164.8 318.226C1164.29 318.089 1163.98 317.565 1164.12 317.056C1164.78 314.585 1165.35 312.052 1165.79 309.526C1165.89 309.006 1166.38 308.659 1166.9 308.752C1167.42 308.843 1167.77 309.339 1167.68 309.859C1167.22 312.439 1166.64 315.027 1165.97 317.55C1165.91 317.743 1165.81 317.906 1165.67 318.027ZM1168.7 297.827C1168.52 297.978 1168.29 298.066 1168.04 298.057C1167.51 298.038 1167.1 297.595 1167.12 297.067C1167.22 294.51 1167.2 291.914 1167.08 289.352C1167.05 288.824 1167.46 288.378 1167.98 288.351C1168.51 288.326 1168.96 288.732 1168.98 289.259C1169.11 291.876 1169.13 294.526 1169.03 297.138C1169.02 297.415 1168.89 297.659 1168.7 297.827ZM1167.17 277.452C1167.04 277.557 1166.89 277.633 1166.72 277.666C1166.2 277.763 1165.7 277.423 1165.6 276.904C1165.13 274.382 1164.54 271.853 1163.85 269.389C1163.71 268.88 1164.01 268.353 1164.52 268.212C1165.02 268.07 1165.55 268.368 1165.69 268.876C1166.39 271.393 1166.99 273.975 1167.48 276.55C1167.55 276.897 1167.42 277.237 1167.17 277.452ZM1161.17 257.916C1161.1 257.977 1161.01 258.029 1160.92 258.069C1160.44 258.278 1159.88 258.057 1159.67 257.573C1158.65 255.221 1157.51 252.885 1156.3 250.631C1156.04 250.166 1156.22 249.589 1156.68 249.336C1157.15 249.086 1157.73 249.259 1157.98 249.723C1159.22 252.026 1160.38 254.411 1161.42 256.812C1161.59 257.205 1161.48 257.651 1161.17 257.916ZM1150.98 240.197C1150.96 240.213 1150.94 240.228 1150.92 240.243C1150.5 240.555 1149.9 240.464 1149.59 240.039C1148.24 238.216 1146.82 236.423 1145.34 234.71C1145.15 234.481 1144.95 234.253 1144.75 234.026C1144.4 233.63 1144.44 233.026 1144.84 232.679C1144.84 232.676 1144.84 232.674 1144.85 232.672C1145.24 232.331 1145.84 232.372 1146.19 232.765C1146.39 232.998 1146.59 233.23 1146.79 233.464C1148.3 235.214 1149.76 237.045 1151.13 238.907C1151.42 239.313 1151.36 239.874 1150.98 240.197ZM1137.09 225.207C1136.74 225.51 1136.21 225.519 1135.85 225.206C1133.91 223.538 1131.87 221.928 1129.79 220.422C1129.36 220.113 1129.26 219.516 1129.57 219.088C1129.89 218.662 1130.48 218.565 1130.91 218.874C1133.03 220.412 1135.11 222.055 1137.09 223.758C1137.49 224.103 1137.54 224.706 1137.19 225.106C1137.16 225.142 1137.13 225.176 1137.09 225.207ZM1120.22 213.666C1119.93 213.915 1119.51 213.976 1119.15 213.785C1116.88 212.577 1114.54 211.456 1112.19 210.451C1111.7 210.244 1111.48 209.682 1111.69 209.198C1111.89 208.712 1112.46 208.486 1112.94 208.695C1115.34 209.721 1117.73 210.865 1120.05 212.098C1120.51 212.346 1120.69 212.925 1120.44 213.39C1120.38 213.498 1120.31 213.59 1120.22 213.666Z" fill="#91B3FA"/>
<path d="M1121.02 374.702C1120.97 374.746 1120.92 374.785 1120.85 374.818C1119.71 375.437 1118.56 376.031 1117.43 376.586C1116.95 376.818 1116.38 376.622 1116.15 376.149C1115.92 375.674 1116.12 375.104 1116.59 374.87C1117.7 374.327 1118.83 373.743 1119.94 373.138C1120.41 372.887 1120.99 373.06 1121.24 373.523C1121.46 373.926 1121.36 374.415 1121.02 374.702Z" fill="#91B3FA"/>
<path d="M1049.73 381.538C1049.49 381.747 1049.15 381.829 1048.82 381.725C1047.61 381.34 1046.38 380.921 1045.16 380.48C1044.67 380.299 1044.41 379.75 1044.59 379.255C1044.78 378.759 1045.32 378.505 1045.82 378.685C1047 379.117 1048.21 379.527 1049.4 379.904C1049.9 380.064 1050.18 380.601 1050.02 381.104C1049.96 381.279 1049.86 381.427 1049.73 381.538Z" fill="#91B3FA"/>
<path d="M1034.72 375.244C1034.43 375.493 1034.01 375.554 1033.65 375.365C1031.38 374.165 1029.13 372.851 1026.96 371.459C1026.51 371.175 1026.38 370.584 1026.67 370.14C1026.95 369.699 1027.54 369.566 1027.99 369.85C1030.12 371.214 1032.32 372.501 1034.55 373.677C1035.01 373.923 1035.19 374.501 1034.94 374.967C1034.89 375.076 1034.81 375.169 1034.72 375.244ZM1018.07 363.969C1017.72 364.271 1017.19 364.281 1016.83 363.972C1014.86 362.302 1012.95 360.53 1011.14 358.706C1010.77 358.332 1010.77 357.727 1011.14 357.356C1011.52 356.978 1012.12 356.985 1012.49 357.36C1014.27 359.145 1016.14 360.881 1018.07 362.516C1018.47 362.857 1018.52 363.461 1018.18 363.863C1018.14 363.901 1018.11 363.937 1018.07 363.969ZM1004.28 349.329C1004.26 349.343 1004.25 349.356 1004.23 349.369C1003.81 349.686 1003.21 349.601 1002.89 349.18C1001.35 347.123 999.87 344.974 998.501 342.791C998.221 342.344 998.357 341.754 998.803 341.474C999.249 341.193 999.839 341.329 1000.12 341.776C1001.46 343.914 1002.91 346.018 1004.42 348.031C1004.72 348.437 1004.66 349.004 1004.28 349.329ZM994.048 332.017C993.98 332.076 993.903 332.126 993.817 332.164C993.336 332.381 992.771 332.167 992.554 331.686C991.496 329.34 990.526 326.919 989.668 324.489C989.493 323.992 989.752 323.445 990.251 323.271C990.749 323.095 991.294 323.356 991.469 323.853C992.309 326.232 993.26 328.604 994.296 330.901C994.473 331.296 994.361 331.749 994.048 332.017ZM987.847 312.891C987.728 312.993 987.583 313.068 987.418 313.101C986.902 313.208 986.396 312.876 986.289 312.359C985.768 309.838 985.347 307.265 985.038 304.708C984.974 304.184 985.347 303.709 985.871 303.645C986.395 303.582 986.871 303.955 986.935 304.479C987.237 306.982 987.65 309.503 988.16 311.972C988.233 312.325 988.102 312.671 987.847 312.891ZM985.955 292.874C985.784 293.021 985.561 293.109 985.318 293.105C984.79 293.096 984.369 292.662 984.378 292.134C984.418 289.558 984.569 286.955 984.825 284.396C984.878 283.873 985.346 283.488 985.87 283.541C986.396 283.594 986.778 284.062 986.726 284.586C986.475 287.092 986.327 289.641 986.288 292.164C986.284 292.449 986.155 292.702 985.955 292.874ZM988.485 272.935C988.26 273.129 987.948 273.215 987.638 273.14C987.125 273.017 986.81 272.5 986.933 271.988C987.538 269.483 988.257 266.975 989.07 264.534C989.238 264.035 989.778 263.763 990.278 263.929C990.778 264.096 991.049 264.637 990.882 265.138C990.086 267.527 989.383 269.983 988.79 272.435C988.741 272.638 988.632 272.809 988.485 272.935ZM995.339 254.036C995.057 254.278 994.647 254.343 994.293 254.168C993.819 253.934 993.625 253.362 993.859 252.889C994.995 250.588 996.246 248.299 997.577 246.088C997.847 245.632 998.436 245.49 998.888 245.761C999.34 246.033 999.486 246.62 999.214 247.072C997.91 249.239 996.684 251.48 995.572 253.734C995.513 253.853 995.433 253.955 995.339 254.036ZM1006.15 237.081C1005.81 237.376 1005.29 237.394 1004.93 237.101C1004.52 236.77 1004.45 236.17 1004.78 235.758C1006.4 233.744 1008.12 231.781 1009.89 229.922C1010.26 229.543 1010.86 229.525 1011.24 229.888C1011.62 230.252 1011.63 230.857 1011.27 231.239C1009.54 233.059 1007.85 234.982 1006.27 236.954C1006.23 237.002 1006.19 237.043 1006.15 237.081ZM1026.59 218.36C1026.56 218.386 1026.53 218.41 1026.5 218.431C1024.4 219.832 1022.33 221.338 1020.36 222.908C1019.95 223.237 1019.35 223.169 1019.02 222.756C1018.69 222.343 1018.75 221.742 1019.17 221.414C1021.19 219.81 1023.29 218.272 1025.44 216.842C1025.88 216.55 1026.47 216.668 1026.76 217.107C1027.03 217.513 1026.95 218.051 1026.59 218.36Z" fill="#91B3FA"/>
<path d="M1040.92 210.557C1040.85 210.618 1040.77 210.67 1040.68 210.709C1039.52 211.213 1038.37 211.742 1037.25 212.285C1036.77 212.515 1036.2 212.316 1035.97 211.842C1035.74 211.366 1035.94 210.796 1036.42 210.565C1037.56 210.012 1038.74 209.47 1039.92 208.956C1040.41 208.746 1040.97 208.968 1041.18 209.452C1041.35 209.846 1041.23 210.291 1040.92 210.557Z" fill="#91B3FA"/>
<path d="M1057.09 226.258C1056.63 226.341 1056.27 226.706 1056.2 227.168L1054.13 240.359C1048.41 242.826 1043.03 246.223 1038.26 250.512L1025.42 246.868C1024.97 246.74 1024.49 246.912 1024.22 247.295L1015.07 260.433C1014.8 260.817 1014.8 261.329 1015.08 261.707L1022.94 272.488C1020.57 278.45 1019.24 284.667 1018.91 290.894L1007.25 297.397C1006.84 297.625 1006.62 298.087 1006.7 298.547L1009.52 314.313C1009.6 314.774 1009.96 315.132 1010.43 315.204L1023.62 317.27C1026.08 322.997 1029.48 328.371 1033.77 333.144L1030.12 345.979C1030 346.43 1030.17 346.911 1030.55 347.179L1043.69 356.336C1044.07 356.604 1044.59 356.599 1044.96 356.323L1055.75 348.462C1061.71 350.834 1067.93 352.162 1074.15 352.495L1080.65 364.155C1080.88 364.564 1081.34 364.783 1081.8 364.701L1097.57 361.886C1098.03 361.804 1098.39 361.438 1098.46 360.976L1100.53 347.785C1106.25 345.319 1111.63 341.921 1116.4 337.633L1129.24 341.278C1129.69 341.405 1130.17 341.233 1130.44 340.85L1139.59 327.711C1139.86 327.328 1139.86 326.816 1139.58 326.438L1131.72 315.657C1134.09 309.695 1135.42 303.476 1135.75 297.25L1147.41 290.747C1147.82 290.52 1148.04 290.057 1147.96 289.596L1145.14 273.831C1145.06 273.371 1144.7 273.012 1144.23 272.94L1131.04 270.874C1128.58 265.147 1125.18 259.773 1120.89 255L1124.54 242.165C1124.66 241.715 1124.49 241.233 1124.11 240.965L1110.97 231.808C1110.59 231.54 1110.07 231.546 1109.7 231.821L1098.91 239.682C1092.95 237.31 1086.73 235.982 1080.51 235.649L1074.01 223.989C1073.78 223.58 1073.32 223.361 1072.85 223.443L1057.09 226.258Z" fill="#91B3FA"/>
<path d="M1087.56 305.931C1086.43 306.9 1085.16 307.711 1083.77 308.339C1079.96 310.059 1075.71 310.192 1071.8 308.713C1067.88 307.235 1064.78 304.322 1063.06 300.511C1061.34 296.699 1061.21 292.447 1062.69 288.537C1064.17 284.626 1067.08 281.524 1070.89 279.804C1074.7 278.084 1078.96 277.951 1082.87 279.431C1086.78 280.908 1089.88 283.821 1091.6 287.633C1093.32 291.444 1093.45 295.696 1091.97 299.607C1091.03 302.09 1089.52 304.247 1087.56 305.931ZM1068.98 284.384C1067.38 285.76 1066.14 287.522 1065.37 289.551C1064.16 292.746 1064.27 296.22 1065.68 299.333C1067.08 302.446 1069.61 304.826 1072.81 306.034C1076 307.241 1079.48 307.133 1082.59 305.727C1085.71 304.324 1088.08 301.79 1089.29 298.594C1090.5 295.399 1090.39 291.925 1088.99 288.812C1087.58 285.699 1085.05 283.319 1081.85 282.111C1078.66 280.903 1075.18 281.011 1072.07 282.417C1070.93 282.93 1069.89 283.593 1068.98 284.384Z" fill="#BDD0FB"/>
<path d="M1103.56 324.785C1090.03 336.423 1069.8 337.946 1054.5 327.279C1051.68 325.311 1049.19 323.042 1047.04 320.545C1035.4 307.013 1033.87 286.79 1044.54 271.484C1044.73 271.21 1044.93 270.937 1045.13 270.666C1046.46 268.845 1047.95 267.139 1049.56 265.58C1049.75 265.397 1049.94 265.217 1050.13 265.039L1052.08 267.137C1050.16 268.927 1048.41 270.942 1046.89 273.124C1046.88 273.144 1046.86 273.165 1046.85 273.185C1035.17 290.013 1039.33 313.21 1056.14 324.928C1072.97 336.659 1096.21 332.511 1107.94 315.678C1117.85 301.468 1116.43 282.691 1105.63 270.127C1103.63 267.808 1101.32 265.702 1098.7 263.874C1093.16 260.017 1086.7 257.735 1080.01 257.275L1080.2 254.416C1087.41 254.912 1094.37 257.369 1100.33 261.523C1103.16 263.492 1105.65 265.76 1107.8 268.257C1119.44 281.789 1120.96 302.012 1110.29 317.317C1108.33 320.143 1106.06 322.637 1103.56 324.785Z" fill="#BDD0FB"/>
<path d="M272.332 1173.58C272.332 1183.48 280.438 1191.58 290.345 1191.58H1264.4C1274.31 1191.58 1282.42 1183.48 1282.42 1173.58L1290.52 613.816C1290.52 603.919 1278.86 584.596 1257.49 586.048L305.532 561.417C293.102 561.095 281.083 565.879 272.281 574.653C263.478 583.427 258.662 595.423 258.956 607.842L272.332 1173.58Z" fill="url(#paint1_linear_744_5197)"/>
<path d="M290.115 1156.32C290.115 1165.69 297.784 1173.36 307.157 1173.36H1240.91C1250.29 1173.36 1257.95 1165.69 1257.95 1156.32L1265.6 648.156C1264.7 617.576 1237.89 606.586 1221.64 607.235L309.276 582.758C300.543 582.523 292.1 585.888 285.915 592.057C279.73 598.227 276.328 606.67 276.547 615.403L290.115 1156.32Z" fill="#91B3FA"/>
<path d="M1247.86 914.905C1247.85 914.905 1247.84 914.905 1247.84 914.905C1246.45 914.885 1245.35 913.75 1245.37 912.37L1245.97 871.159C1245.99 869.793 1247.1 868.698 1248.47 868.698C1248.48 868.698 1248.49 868.698 1248.5 868.698C1249.88 868.718 1250.98 869.853 1250.96 871.233L1250.36 912.444C1250.34 913.81 1249.23 914.905 1247.86 914.905Z" fill="#BDD0FB"/>
<path d="M1249.35 813.916C1249.33 813.916 1249.32 813.916 1249.31 813.916C1247.93 813.896 1246.83 812.759 1246.85 811.381L1249.17 653.543C1249.12 644.167 1246.28 636.682 1240.71 631.344C1230.31 621.383 1213.8 621.891 1213.11 621.924L921.495 614.104C920.117 614.069 919.029 612.92 919.066 611.542C919.102 610.163 920.162 608.989 921.63 609.114L1213.07 616.933C1214.88 616.826 1232.46 616.522 1244.16 627.737C1250.75 634.046 1254.11 642.739 1254.16 653.567L1251.84 811.456C1251.82 812.822 1250.71 813.916 1249.35 813.916Z" fill="#BDD0FB"/>
<path d="M195.652 1238.04H1339.35C1340.64 1238.04 1341.69 1236.99 1341.69 1235.7V1191.2C1341.69 1189.91 1340.64 1188.86 1339.35 1188.86H195.652C194.365 1188.86 193.312 1189.91 193.312 1191.2V1235.7C193.312 1236.99 194.365 1238.04 195.652 1238.04Z" fill="url(#paint2_linear_744_5197)"/>
<path d="M479.167 373.302C479.167 339.03 506.951 311.246 541.223 311.246H1068.95C1098.07 311.246 1122.07 334.062 1123.55 363.139L1162.51 1128.25C1163.67 1151 1145.75 1170.19 1122.97 1170.61L518.131 1181.6C496.727 1181.99 479.166 1164.74 479.166 1143.34V373.302H479.167Z" fill="url(#paint3_linear_744_5197)"/>
<path d="M606.531 1168.59H606.512L538.833 1167.72C516.203 1167.43 497.792 1148.77 497.792 1126.14V1023.96C497.792 1023.16 498.439 1022.52 499.237 1022.52C500.035 1022.52 500.682 1023.16 500.682 1023.96V1126.14C500.682 1147.2 517.813 1164.56 538.871 1164.83L606.548 1165.7C607.347 1165.71 607.985 1166.37 607.975 1167.17C607.965 1167.96 607.32 1168.59 606.531 1168.59Z" fill="#91B3FA"/>
<path d="M499.237 993.755C498.44 993.755 497.793 993.109 497.793 992.31V975.762C497.793 974.964 498.44 974.317 499.237 974.317C500.036 974.317 500.682 974.964 500.682 975.762V992.31C500.682 993.109 500.035 993.755 499.237 993.755Z" fill="#91B3FA"/>
<path d="M522.402 323.023C522.337 312.058 531.98 303.571 542.846 305.045C614.912 314.817 862.729 345.043 1067.62 329.315C1076.96 328.597 1085.07 335.677 1085.57 345.035L1126.42 1113.55C1126.98 1124.09 1118.93 1133.1 1108.4 1133.73C1022.22 1138.83 667.332 1158.54 540.748 1145.28C533.043 1144.47 527.196 1137.99 527.15 1130.24L522.402 323.023Z" fill="#7D97F4"/>
<path d="M530.89 342.281C530.828 331.729 540.108 323.561 550.565 324.98C619.917 334.385 858.403 363.472 1055.58 348.336C1064.57 347.646 1072.37 354.458 1072.85 363.464L1112.16 1103.04C1112.7 1113.18 1104.96 1121.86 1094.82 1122.46C1011.89 1127.36 670.363 1146.34 548.545 1133.58C541.131 1132.8 535.504 1126.56 535.46 1119.1L530.89 342.281Z" fill="#BDD0FB"/>
<path opacity="0.78" d="M595.091 399.302L602.456 557.861C602.701 563.134 606.962 567.327 612.239 567.476C641.604 568.305 733.107 570.536 784.773 567.843C790.617 567.538 795.241 562.81 795.434 556.961C796.42 527.226 798.576 440.678 791.8 404.498C790.705 398.654 785.682 394.372 779.739 394.164L606.171 388.094C599.913 387.875 594.8 393.047 595.091 399.302Z" fill="white"/>
<g opacity="0.6">
<path d="M1029.33 413.104C1032.73 413.104 1035.45 410.711 1035.36 407.785C1035.28 404.859 1032.42 402.416 1029.02 402.356L838.693 398.964C835.292 398.904 833.435 401.478 834.564 404.686L835.475 407.272C836.604 410.48 840.312 413.104 843.712 413.104H1029.33Z" fill="white"/>
</g>
<g opacity="0.6">
<path d="M838.693 428.524C835.292 428.463 833.435 431.038 834.564 434.246L835.475 436.832C836.604 440.039 840.312 442.664 843.712 442.664H1029.33C1032.73 442.664 1035.45 440.27 1035.36 437.345C1035.28 434.419 1032.42 431.976 1029.02 431.915L838.693 428.524Z" fill="white"/>
</g>
<g opacity="0.6">
<path d="M838.693 458.512C835.292 458.451 833.435 461.026 834.564 464.234L835.475 466.82C836.604 470.028 840.312 472.652 843.712 472.652H1029.33C1032.73 472.652 1035.45 470.258 1035.36 467.333C1035.28 464.407 1032.42 461.964 1029.02 461.904L838.693 458.512Z" fill="white"/>
</g>
<g opacity="0.6">
<path d="M1047.82 617.273C1051.22 617.273 1053.85 614.88 1053.65 611.954C1053.46 609.029 1050.52 606.613 1047.12 606.586L601.223 603.072C597.822 603.045 596.773 605.199 598.891 607.86L602.535 612.435C604.653 615.096 609.169 617.273 612.57 617.273H1047.82V617.273Z" fill="white"/>
</g>
<g opacity="0.6">
<path d="M601.223 640.99C597.822 640.963 596.773 643.117 598.891 645.778L602.535 650.354C604.653 653.014 609.169 655.191 612.57 655.191H1047.82C1051.22 655.191 1053.85 652.797 1053.65 649.872C1053.46 646.946 1050.52 644.531 1047.12 644.504L601.223 640.99Z" fill="white"/>
</g>
<path d="M656.753 834.205C656.719 834.205 656.685 834.205 656.65 834.205L619.017 833.844C613.641 833.792 609.203 830.092 608.693 825.239L605.385 793.664C605.191 791.81 605.767 789.979 607.006 788.504C608.393 786.855 610.492 785.819 612.764 785.662C615.935 785.447 620.4 785.065 625.126 784.664C635.08 783.816 647.468 782.762 654.437 782.674C659.494 782.649 663.784 785.641 664.975 790.045C666.936 797.293 666.763 811.014 666.391 825.63C666.27 830.379 661.956 834.205 656.753 834.205ZM612.961 788.546C611.467 788.648 610.103 789.311 609.218 790.364C608.488 791.232 608.148 792.297 608.26 793.362L611.568 824.938C611.923 828.33 615.138 830.916 619.046 830.954L656.679 831.315C656.704 831.315 656.729 831.315 656.754 831.315C660.401 831.315 663.42 828.746 663.502 825.557C663.869 811.162 664.045 797.673 662.186 790.799C661.352 787.718 658.148 785.575 654.474 785.564C647.608 785.65 635.279 786.7 625.372 787.544C620.632 787.947 616.155 788.328 612.961 788.546Z" fill="white"/>
<path opacity="0.6" d="M617.01 791.805C624.916 791.265 642.099 789.52 650.248 789.419C653.701 789.376 656.73 791.462 657.539 794.456C659.113 800.272 658.904 811.863 658.631 822.562C658.549 825.766 655.606 828.324 652.013 828.29L621.939 828.001C618.241 827.966 615.171 825.444 614.826 822.16L612.182 796.927C611.909 794.317 614.08 792.006 617.01 791.805Z" fill="white"/>
<g opacity="0.6">
<path d="M689.808 813.239C690.897 817.37 694.65 820.236 698.922 820.2L1047.12 817.231C1051.06 817.197 1054.21 813.949 1054.12 810.011C1054.04 806.182 1050.92 803.117 1047.09 803.1L698.885 801.512C692.739 801.483 688.24 807.296 689.808 813.239Z" fill="white"/>
</g>
<path d="M656.753 914.862C656.719 914.862 656.685 914.862 656.65 914.862L619.017 914.5C613.641 914.448 609.203 910.749 608.693 905.896L605.385 874.321C605.191 872.467 605.767 870.635 607.006 869.161C608.393 867.511 610.492 866.476 612.764 866.319C615.935 866.103 620.4 865.722 625.126 865.32C635.08 864.472 647.468 863.418 654.437 863.33C654.488 863.33 654.538 863.329 654.589 863.329C659.538 863.329 663.795 866.343 664.975 870.702C666.936 877.95 666.763 891.671 666.39 906.287C666.27 911.035 661.956 914.862 656.753 914.862ZM612.961 869.203C611.467 869.305 610.103 869.968 609.218 871.021C608.488 871.888 608.148 872.954 608.26 874.019L611.568 905.594C611.923 908.986 615.138 911.573 619.046 911.611L656.679 911.972C656.704 911.972 656.729 911.972 656.754 911.972C660.401 911.972 663.42 909.403 663.502 906.214C663.869 891.819 664.045 878.33 662.186 871.455C661.352 868.377 658.102 866.163 654.473 866.221C647.608 866.307 635.279 867.356 625.372 868.201C620.632 868.604 616.155 868.985 612.961 869.203Z" fill="white"/>
<path opacity="0.6" d="M617.01 872.462C624.916 871.922 642.099 870.178 650.248 870.076C653.701 870.033 656.73 872.119 657.539 875.113C659.113 880.929 658.904 892.521 658.631 903.219C658.549 906.423 655.606 908.981 652.013 908.947L621.939 908.658C618.241 908.623 615.171 906.101 614.826 902.817L612.182 877.584C611.909 874.974 614.08 872.663 617.01 872.462Z" fill="white"/>
<g opacity="0.6">
<path d="M689.808 893.896C690.897 898.027 694.65 900.893 698.922 900.857L1047.12 897.888C1051.06 897.854 1054.21 894.606 1054.12 890.668C1054.04 886.839 1050.92 883.774 1047.09 883.756L698.885 882.168C692.739 882.14 688.24 887.952 689.808 893.896Z" fill="white"/>
</g>
<path d="M656.753 995.519C656.719 995.519 656.685 995.519 656.65 995.519L619.017 995.158C613.641 995.107 609.203 991.408 608.693 986.555L605.385 954.98C605.191 953.126 605.767 951.293 607.006 949.818C608.394 948.168 610.491 947.133 612.764 946.976C615.935 946.761 620.4 946.379 625.126 945.978C635.08 945.13 647.468 944.076 654.437 943.988C654.488 943.988 654.538 943.986 654.589 943.986C659.538 943.986 663.795 947 664.975 951.359C666.936 958.607 666.763 972.328 666.39 986.944C666.27 991.692 661.956 995.519 656.753 995.519ZM612.961 949.86C611.467 949.962 610.103 950.625 609.218 951.678C608.488 952.545 608.148 953.611 608.26 954.677L611.568 986.252C611.923 989.644 615.138 992.23 619.045 992.267L656.679 992.629C656.704 992.629 656.729 992.629 656.754 992.629C660.401 992.629 663.42 990.059 663.502 986.87C663.869 972.475 664.045 958.986 662.186 952.112C661.352 949.033 658.102 946.808 654.473 946.877C647.608 946.963 635.279 948.013 625.372 948.857C620.632 949.261 616.155 949.641 612.961 949.86Z" fill="white"/>
<path opacity="0.6" d="M617.01 953.119C624.916 952.579 642.099 950.835 650.248 950.733C653.701 950.69 656.73 952.776 657.539 955.77C659.113 961.586 658.904 973.178 658.631 983.877C658.549 987.081 655.606 989.638 652.013 989.604L621.939 989.315C618.241 989.28 615.171 986.758 614.826 983.474L612.182 958.241C611.909 955.631 614.08 953.32 617.01 953.119Z" fill="white"/>
<g opacity="0.6">
<path d="M689.808 974.554C690.897 978.685 694.65 981.551 698.922 981.514L1047.12 978.546C1051.06 978.512 1054.21 975.264 1054.12 971.326C1054.04 967.497 1050.92 964.432 1047.09 964.415L698.885 962.826C692.739 962.798 688.24 968.61 689.808 974.554Z" fill="white"/>
</g>
<path d="M656.753 1076.18C656.719 1076.18 656.685 1076.18 656.65 1076.18L619.017 1075.81C613.641 1075.76 609.203 1072.07 608.693 1067.21L605.385 1035.64C605.191 1033.78 605.767 1031.95 607.006 1030.47C608.394 1028.83 610.491 1027.79 612.764 1027.63C615.935 1027.42 620.4 1027.04 625.126 1026.63C635.08 1025.79 647.468 1024.73 654.437 1024.64C654.488 1024.64 654.538 1024.64 654.589 1024.64C659.538 1024.64 663.795 1027.66 664.975 1032.02C666.936 1039.26 666.763 1052.98 666.39 1067.6C666.27 1072.35 661.956 1076.18 656.753 1076.18ZM612.961 1030.52C611.467 1030.62 610.103 1031.28 609.218 1032.33C608.488 1033.2 608.148 1034.27 608.26 1035.33L611.568 1066.91C611.923 1070.3 615.138 1072.89 619.045 1072.92L656.679 1073.29C656.704 1073.29 656.729 1073.29 656.754 1073.29C660.401 1073.29 663.42 1070.72 663.502 1067.53C663.869 1053.13 664.045 1039.64 662.186 1032.77C661.352 1029.69 658.102 1027.46 654.473 1027.53C647.608 1027.62 635.279 1028.67 625.372 1029.51C620.632 1029.92 616.155 1030.3 612.961 1030.52Z" fill="white"/>
<path opacity="0.6" d="M617.01 1033.78C624.916 1033.24 642.099 1031.49 650.248 1031.39C653.701 1031.35 656.73 1033.43 657.539 1036.43C659.113 1042.24 658.904 1053.84 658.631 1064.53C658.549 1067.74 655.606 1070.3 652.013 1070.26L621.939 1069.97C618.241 1069.94 615.171 1067.42 614.826 1064.13L612.182 1038.9C611.909 1036.29 614.08 1033.98 617.01 1033.78Z" fill="white"/>
<g opacity="0.6">
<path d="M689.808 1055.21C690.897 1059.34 694.65 1062.21 698.922 1062.17L1047.12 1059.2C1051.06 1059.17 1054.21 1055.92 1054.12 1051.98C1054.04 1048.15 1050.92 1045.09 1047.09 1045.07L698.885 1043.48C692.739 1043.46 688.24 1049.27 689.808 1055.21Z" fill="white"/>
</g>
<path d="M653.433 764.024C653.399 764.024 653.364 764.024 653.33 764.024L615.697 763.663C610.321 763.612 605.882 759.914 605.373 755.061L602.065 723.485C601.871 721.631 602.447 719.798 603.686 718.324C605.073 716.674 607.171 715.638 609.444 715.482C612.614 715.266 617.08 714.885 621.806 714.483C631.76 713.635 644.147 712.581 651.117 712.493C651.168 712.493 651.218 712.492 651.268 712.492C656.217 712.492 660.475 715.506 661.655 719.865C663.615 727.113 663.443 740.834 663.07 755.45C662.95 760.198 658.636 764.024 653.433 764.024ZM609.641 718.366C608.147 718.468 606.783 719.13 605.898 720.183C605.168 721.051 604.828 722.116 604.939 723.183L608.247 754.758C608.603 758.15 611.818 760.737 615.725 760.774L653.358 761.135C653.383 761.135 653.409 761.135 653.434 761.135C657.081 761.135 660.1 758.565 660.182 755.377C660.549 740.982 660.724 727.493 658.865 720.618C658.032 717.539 654.781 715.304 651.153 715.383C644.288 715.47 631.958 716.519 622.052 717.363C617.312 717.766 612.835 718.147 609.641 718.366Z" fill="white"/>
<path opacity="0.6" d="M613.69 721.624C621.596 721.084 638.779 719.339 646.928 719.238C650.381 719.195 653.409 721.281 654.219 724.275C655.792 730.091 655.584 741.683 655.311 752.382C655.229 755.586 652.286 758.143 648.693 758.109L618.619 757.82C614.921 757.785 611.851 755.263 611.506 751.979L608.862 726.746C608.589 724.136 610.759 721.825 613.69 721.624Z" fill="white"/>
<g opacity="0.6">
<path d="M686.487 743.059C687.577 747.19 691.33 750.056 695.602 750.02L1043.8 747.051C1047.74 747.017 1050.89 743.769 1050.8 739.831C1050.72 736.002 1047.6 732.937 1043.77 732.92L695.565 731.331C689.419 731.303 684.92 737.115 686.487 743.059Z" fill="white"/>
</g>
<path d="M837.818 206.928C818.755 193.667 802.181 193.929 790.513 197.372C779.869 200.513 772.97 210.789 773.983 221.84L779.015 276.763L838.892 282.077C838.892 282.077 875.202 232.935 837.818 206.928ZM811.486 251.237C803.24 251.237 796.556 244.553 796.556 236.307C796.556 228.061 803.24 221.377 811.486 221.377C819.732 221.377 826.416 228.061 826.416 236.307C826.416 244.553 819.732 251.237 811.486 251.237Z" fill="url(#paint4_linear_744_5197)"/>
<path d="M784.996 253.66C784.257 253.66 783.627 253.097 783.559 252.346L782.757 243.6C782.684 242.805 783.27 242.103 784.064 242.029C784.875 241.953 785.562 242.541 785.635 243.337L786.436 252.084C786.509 252.878 785.924 253.581 785.129 253.655C785.084 253.659 785.04 253.66 784.996 253.66ZM783.425 236.519C782.687 236.519 782.056 235.956 781.988 235.206L781.379 228.565C780.414 218.038 787.039 208.236 797.13 205.257C804.276 203.148 811.64 202.846 819.014 204.358C819.795 204.518 820.299 205.283 820.139 206.064C819.979 206.845 819.221 207.344 818.434 207.189C811.526 205.775 804.635 206.056 797.947 208.028C789.176 210.617 783.417 219.144 784.256 228.303L784.865 234.943C784.938 235.738 784.353 236.441 783.558 236.514C783.514 236.518 783.469 236.519 783.425 236.519Z" fill="#91B3FA"/>
<path d="M697.293 312.257V284.643C697.293 275.111 705.193 267.477 714.72 267.803L905.103 274.326C913.552 274.615 920.394 281.284 920.9 289.723L922.491 316.256L697.293 312.257Z" fill="url(#paint5_linear_744_5197)"/>
<path d="M768.282 278.208H760.095C759.297 278.208 758.65 277.562 758.65 276.763C758.65 275.964 759.297 275.318 760.095 275.318H768.282C769.08 275.318 769.727 275.965 769.727 276.763C769.727 277.562 769.08 278.208 768.282 278.208Z" fill="#91B3FA"/>
<path d="M707.597 303.586C706.8 303.586 706.153 302.94 706.153 302.141V290.97C706.153 282.339 713.174 275.318 721.805 275.318H751.906C752.704 275.318 753.351 275.965 753.351 276.763C753.351 277.562 752.704 278.208 751.906 278.208H721.805C714.768 278.208 709.042 283.934 709.042 290.97V302.141C709.043 302.94 708.395 303.586 707.597 303.586Z" fill="#91B3FA"/>
<path d="M619.72 319.23C620.179 309.668 628.066 302.151 637.639 302.151L970.559 302.142C982.53 302.141 992.764 310.756 994.806 322.551L995.088 324.179C997.325 337.099 987.377 348.916 974.265 348.916H632.709C624.862 348.916 618.608 342.354 618.985 334.516L619.72 319.23Z" fill="url(#paint6_linear_744_5197)"/>
<path d="M660.022 506.732V499.969C660.022 493.787 660.971 488.394 662.872 483.789C664.77 479.186 668.233 474.242 673.256 468.96C678.021 463.744 681.064 459.655 682.385 456.692C683.704 453.731 684.365 449.963 684.365 445.39C684.365 441.204 683.399 437.792 681.468 435.15C679.535 432.51 676.476 431.189 672.29 431.189C665.335 431.189 658.025 433.669 650.362 438.627L641.281 419.307C651.391 412.417 662.596 408.971 674.899 408.971C685.525 408.971 693.912 411.917 700.063 417.81C706.212 423.702 709.288 431.899 709.288 442.394C709.288 449.736 708.226 455.967 706.1 461.087C703.975 466.207 699.563 472.375 692.866 479.586C688.55 484.288 685.797 487.91 684.606 490.453C683.413 492.999 682.819 496.46 682.819 500.838V506.73H660.022V506.732ZM655.481 538.996C655.481 533.91 656.848 529.998 659.587 527.259C662.323 524.523 666.301 523.154 671.517 523.154C676.797 523.154 680.791 524.554 683.496 527.356C686.2 530.157 687.553 534.038 687.553 538.996C687.553 543.891 686.167 547.755 683.399 550.588C680.629 553.421 676.668 554.838 671.517 554.838C666.363 554.838 662.403 553.452 659.635 550.684C656.865 547.918 655.481 544.02 655.481 538.996Z" fill="url(#paint7_linear_744_5197)"/>
<path d="M450.208 1310.17C450.208 1310.17 448.026 1322.53 446.957 1334.75C446.539 1339.53 450.223 1343.68 455.016 1343.88C471.3 1344.56 506.131 1345.88 518.629 1345.32C520.508 1345.24 521.737 1343.31 521.041 1341.57C520.459 1340.1 519.335 1338.92 517.903 1338.26L460.368 1311.82L450.208 1310.17Z" fill="url(#paint8_linear_744_5197)"/>
<path d="M448.421 1302.92L450.174 1317.69C450.174 1317.69 460.253 1322.38 467.136 1317.1L462.962 1300.63L448.421 1302.92Z" fill="url(#paint9_linear_744_5197)"/>
<path d="M449.738 1025.14C448.981 1029 445.674 1217.69 465.843 1302.24C466.172 1303.62 465.473 1305.04 464.16 1305.58C461.066 1306.84 455.002 1308.67 447.733 1308.92C445.483 1308.99 443.465 1307.53 442.83 1305.37C437.065 1285.75 409.438 1187.46 405.834 1093.56C401.807 988.639 405.834 1089.99 405.834 1089.99L408.196 1025.13L449.738 1025.14Z" fill="url(#paint10_linear_744_5197)"/>
<path d="M384.025 1316.62C384.025 1316.62 380.552 1322.86 377.189 1339.43C376.582 1342.42 378.673 1345.28 381.712 1345.58C387.088 1346.11 395.366 1346.79 401.996 1346.74C405.053 1346.72 407.438 1344.06 407.07 1341.03C406.335 1334.98 404.047 1325.06 396.979 1317.32L384.025 1316.62Z" fill="url(#paint11_linear_744_5197)"/>
<path d="M380.974 1297.62L385.071 1319.96C385.071 1319.96 389.121 1322.97 397.133 1320.79L395.178 1296.75L380.974 1297.62Z" fill="url(#paint12_linear_744_5197)"/>
<path d="M369.909 1030.93C353.413 1130.48 373.487 1276.98 380.257 1305.66C380.671 1307.41 382.088 1308.76 383.868 1309.05C386.89 1309.55 391.865 1309.96 396.77 1308.54C398.46 1308.05 399.647 1306.52 399.716 1304.76C400.624 1281.58 398.99 1139.27 414.36 1083.03C415.139 1080.18 416.879 1077.69 419.288 1075.98L449.12 1054.77L451.407 1020.49L369.909 1030.93Z" fill="url(#paint13_linear_744_5197)"/>
<path d="M475.019 842.296C425.585 841.479 371.039 855.276 371.039 855.276C356.304 941.257 368.462 1040.43 368.462 1040.43C406.733 1050.47 449.905 1034.29 449.905 1034.29C456.266 998.355 485.944 897.214 485.944 897.214C510.098 894.217 529.995 887.248 546.381 878.035C533.882 863.547 527.99 845.112 525.43 834.215C507.953 839.647 490.267 842.548 475.019 842.296Z" fill="url(#paint14_linear_744_5197)"/>
<path d="M621.04 769.482C616.184 763.617 610.038 766.391 610.038 766.391C602.763 797.12 564.619 822.036 525.431 834.215C527.99 845.112 533.883 863.547 546.381 878.035C611.417 841.468 621.04 769.482 621.04 769.482Z" fill="url(#paint15_linear_744_5197)"/>
<path d="M619.862 770.974C620.37 772.589 614.485 775.049 611.021 768.442C610.9 765.276 608.974 751.711 610.866 749.132C620.943 735.394 640.48 718.172 640.48 718.172C643.782 721.43 641.062 724.63 641.062 724.63L631.584 734.504C633.567 738.086 635.985 741.11 637.118 745.443C637.977 748.725 637.452 752.231 635.794 755.218C634.13 758.215 631.861 762.111 629.715 765.16C625.653 770.93 619.862 770.974 619.862 770.974Z" fill="url(#paint16_linear_744_5197)"/>
<path d="M627.439 740.909L618.802 748.231L616.09 755.52L623.791 764.063C623.791 764.063 626.38 749.599 628.304 746.468C630.229 743.339 629.231 741.825 627.439 740.909Z" fill="url(#paint17_linear_744_5197)"/>
<path d="M390.001 903.144L371.039 855.276C371.039 855.276 324.865 886.65 317.271 926.428C325.996 927.071 341.872 929.34 357.411 937.187C360.827 918.404 390.001 903.144 390.001 903.144Z" fill="url(#paint18_linear_744_5197)"/>
<path d="M430.352 948.186C430.352 948.186 378.51 977.484 361.017 952.467C357.385 947.272 356.517 942.109 357.412 937.187C341.872 929.341 325.996 927.071 317.271 926.429C314.982 938.421 316.192 951.175 323.239 964.065C353.88 1020.12 437.213 960.967 437.213 960.967L430.352 948.186Z" fill="url(#paint19_linear_744_5197)"/>
<path d="M424.123 985.251L452.417 886.443C452.738 885.322 453.695 884.504 454.854 884.368C459.98 883.77 474.834 882.092 491.985 880.641C512.644 878.893 536.634 877.477 550.97 878.682C553.008 878.853 554.24 881.009 553.333 882.842C545.181 899.335 511.647 966.426 494.855 988.403C494.298 989.132 493.438 989.557 492.522 989.549L426.876 988.938C424.965 988.92 423.597 987.088 424.123 985.251Z" fill="url(#paint20_linear_744_5197)"/>
<path d="M494.92 872.075L515.433 868.657C516.525 868.474 517.42 869.518 517.073 870.57L515.042 876.724C514.865 877.26 514.398 877.647 513.839 877.721L494.099 880.359C493.078 880.495 492.236 879.567 492.47 878.564L493.727 873.191C493.863 872.613 494.333 872.173 494.92 872.075Z" fill="#91B3FA"/>
<path d="M479.56 889.441L481.249 880.639C481.419 879.756 482.148 879.089 483.042 878.998L524.475 874.794C525.869 874.652 526.986 875.931 526.659 877.293L524.024 888.262C523.814 889.14 523.05 889.774 522.148 889.819L481.66 891.857C480.342 891.923 479.311 890.737 479.56 889.441Z" fill="#91B3FA"/>
<path d="M430.959 961.379C430.959 961.379 427.018 945.172 428.607 939.423C430.197 933.673 433.278 926.28 443.545 927.923C453.812 929.566 465.924 933.892 465.924 933.892C465.924 933.892 465.312 941.381 457.509 938.964L462.348 942.709C462.348 942.709 461.656 948.705 455.065 945.502L459.565 950.467C459.565 950.467 456.734 955.393 451.885 952.234C447.036 949.074 444.711 963.33 430.959 961.379Z" fill="url(#paint21_linear_744_5197)"/>
<path d="M424.946 802.163L409.217 847.651C408.956 848.405 409.266 849.239 409.964 849.625C414.251 851.996 429.699 858.848 448.315 847.046C450.254 845.816 451.574 843.811 451.869 841.533L456.962 802.163H424.946Z" fill="url(#paint22_linear_744_5197)"/>
<path d="M459.171 760.04C459.171 760.04 476.443 792.554 474.229 805.687C472.015 818.821 450.609 817.878 431.916 807.211L418.854 772.104L459.171 760.04Z" fill="url(#paint23_linear_744_5197)"/>
<path d="M432.743 789.97C433.502 789.634 433.782 788.704 433.328 788.009C431.944 785.895 429.35 781.582 428.522 777.806C428.522 777.806 425.417 775.817 436.425 773.182C447.433 770.547 463.849 766.458 467.299 757.088C470.663 747.952 461.824 724.978 447.722 743.284C447.186 743.98 446.135 743.996 445.599 743.299C443.287 740.29 437.209 734.045 428.771 737.831C420.875 741.373 419.986 747.16 420.094 750.077C420.126 750.934 419.359 751.601 418.516 751.441C414.523 750.679 404.943 750.025 400.471 759.853C396.787 767.949 399.182 772.531 401.362 774.773C402.068 775.499 401.759 776.695 400.79 776.991C398.166 777.794 394.778 780.019 395.117 786.166C395.586 794.665 405.087 793.916 407.792 793.529C408.236 793.465 408.682 793.617 408.983 793.949C411.302 796.516 421.753 807.416 433.064 808.729C434.043 808.843 434.803 807.876 434.482 806.944L429.587 792.714C429.36 792.053 429.676 791.328 430.315 791.045L432.743 789.97Z" fill="url(#paint24_linear_744_5197)"/>
<path d="M434.71 791.99C434.71 791.99 422.412 783.552 421.513 790.658C420.615 797.763 432.588 800.95 438.518 798.301L434.71 791.99Z" fill="url(#paint25_linear_744_5197)"/>
<path d="M1019.97 782.475C1020.78 780.927 1023.07 781.171 1023.53 782.854C1025.27 789.085 1029.46 799.957 1038.25 803.818C1038.69 804.012 1039.11 804.209 1039.51 804.407C1039.91 803.212 1039.92 801.824 1038.96 800.364C1036.23 796.187 1041.16 790.482 1041.16 790.482C1041.16 790.482 1041.49 795.507 1045.31 798.67C1048.6 801.395 1050.18 807.459 1047.93 812.434C1043.17 830.915 1036.05 855.358 1063.8 873.216C1091.55 891.073 1130.64 839.514 1130.64 839.514L1111.24 901.011C1111.24 901.011 1081.3 923.106 1046.47 892.036C1011.64 860.967 1034.73 815.756 1034.73 815.756C1034.73 815.756 1008.16 805.04 1019.97 782.475Z" fill="url(#paint26_linear_744_5197)"/>
<path d="M1135.5 749.158C1135.5 749.158 1127.46 713.09 1168.77 722.638C1168.77 722.638 1188.83 719.361 1189.85 738.289C1189.85 738.289 1202.77 746.807 1193.31 763.188C1193.31 763.188 1231.73 748.349 1248.47 782.023C1265.21 815.696 1249.82 834.225 1233.69 839.051C1233.69 839.051 1246.76 845.613 1240.57 860.428C1234.39 875.244 1203.06 885.687 1184.56 867.67C1184.56 867.67 1131.9 874.629 1132.96 837.437C1132.96 837.437 1108.46 821.622 1134.19 790.885C1159.91 760.149 1135.5 749.158 1135.5 749.158Z" fill="url(#paint27_linear_744_5197)"/>
<path d="M1133.23 832.759C1141.53 830.27 1165.71 825.675 1188.7 846.893C1192.6 850.492 1194.19 855.96 1192.8 861.08C1186.62 883.816 1170.33 950.987 1184.62 980.051C1184.62 980.051 1159.44 1007.8 1131.97 985.436C1131.97 985.436 1119.65 931.725 1103.51 908.146C1092.36 891.868 1121.28 847.017 1128.59 836.182C1129.7 834.541 1131.33 833.327 1133.23 832.759Z" fill="url(#paint28_linear_744_5197)"/>
<path d="M1156.15 787.589C1156.15 787.589 1168.43 822.318 1169.36 837.639C1169.36 837.639 1155.79 843.81 1143 833.395C1143 833.395 1141.66 798.707 1139.72 792.495L1156.15 787.589Z" fill="url(#paint29_linear_744_5197)"/>
<path d="M1139.1 740.237C1139.1 740.237 1106.98 785.179 1126.18 798.232C1145.38 811.286 1168.24 779.349 1168.24 779.349C1168.24 779.349 1175.69 754.75 1167.9 746.406C1160.11 738.061 1139.1 740.237 1139.1 740.237Z" fill="url(#paint30_linear_744_5197)"/>
<path d="M1153.96 729.497C1153.96 729.497 1139.21 732.993 1137.14 739.668C1135.08 746.343 1158.06 752.533 1164.5 752.836L1169.69 779.772C1169.69 779.772 1185.04 754.432 1178.96 739.798C1172.88 725.164 1153.96 729.497 1153.96 729.497Z" fill="url(#paint31_linear_744_5197)"/>
<path d="M1162.01 776.041C1162.01 776.041 1174.51 761.565 1179.49 771.003C1184.46 780.44 1168.23 787.526 1162.62 782.892L1162.01 776.041Z" fill="url(#paint32_linear_744_5197)"/>
<path d="M1099.91 1098.21C1100 1100.64 1095.72 1119.98 1093.39 1130.3C1092.46 1134.45 1093.11 1138.8 1095.22 1142.49L1175.91 1278.29C1176.89 1279.93 1177.6 1281.71 1178.03 1283.57C1179.51 1289.95 1182.57 1305.57 1180.97 1319.77L1176.8 1328.44L1194.85 1324.34L1198.78 1275.87L1193.67 1272.75C1189.25 1270.06 1185.82 1266.03 1183.85 1261.25C1176.55 1243.53 1158.43 1198.41 1153.76 1176.43C1148.45 1151.44 1120.71 1131.15 1120.71 1131.15L1125.58 1119.62L1099.91 1098.21Z" fill="url(#paint33_linear_744_5197)"/>
<path d="M1214.91 1307.66C1214.91 1307.66 1205.17 1292.21 1204.02 1286.19C1202.87 1280.18 1199.68 1269.55 1193.67 1272.75C1193.67 1272.75 1190.84 1301.98 1191.81 1313.39C1192.79 1324.81 1178.9 1324.45 1178.9 1324.45C1178.9 1324.45 1175.08 1324.98 1172.27 1327.79C1170.34 1329.72 1171.72 1333.08 1174.45 1333.25C1179 1333.55 1186.21 1333.62 1193.79 1332.16C1196.44 1331.65 1198.41 1329.39 1198.57 1326.7L1200.57 1293.07L1212.86 1308.59L1214.91 1307.66Z" fill="url(#paint34_linear_744_5197)"/>
<path d="M1148.11 1119.84C1148.11 1119.84 1150.96 1241.31 1151.34 1258.56C1151.73 1275.82 1148.62 1314.05 1131.32 1325.48L1138.85 1331.05C1138.85 1331.05 1148.25 1323.06 1157.44 1307.67C1167.76 1290.39 1170.89 1287.23 1170.89 1287.23L1167.46 1280.22C1165.96 1277.15 1165.52 1273.67 1166.21 1270.33C1169.94 1252.24 1182.41 1192.07 1185.81 1179.11C1189.83 1163.82 1190.11 1143.39 1176.15 1126.3C1162.18 1109.2 1148.11 1119.84 1148.11 1119.84Z" fill="url(#paint35_linear_744_5197)"/>
<path d="M1164.08 1336.53C1164.62 1336.53 1165.08 1336.15 1165.15 1335.61C1165.73 1331.57 1168.12 1315.33 1170.08 1311.13C1172.33 1306.31 1179.67 1286.05 1170.08 1284.33C1170.08 1284.33 1146.25 1319.14 1141.67 1323.84C1137.1 1328.53 1131.32 1325.48 1131.32 1325.48C1131.32 1325.48 1126.87 1326.8 1123.5 1331.09C1121.9 1333.14 1123.39 1336.14 1125.99 1336.16L1142.04 1336.31C1146.71 1336.36 1150.9 1333.53 1152.63 1329.2C1155.46 1322.14 1160.31 1311.79 1165.97 1307.2L1163.03 1335.34C1162.96 1335.97 1163.45 1336.52 1164.08 1336.53Z" fill="url(#paint36_linear_744_5197)"/>
<path d="M1128.17 972.338C1128.17 972.338 1131.79 983.868 1126.23 1002.86L1091.76 1123.24C1091.22 1125.13 1092.24 1127.11 1094.09 1127.78C1104.4 1131.48 1138.3 1141.94 1184.58 1138.75C1186.91 1138.59 1188.86 1136.94 1189.37 1134.66C1192.41 1120.94 1202.82 1074.11 1204.96 1064.49C1213.12 1027.83 1222.23 988.292 1182.14 964.386C1163.67 972.299 1146.44 976.964 1128.17 972.338Z" fill="url(#paint37_linear_744_5197)"/>
<path d="M1191.99 851.43C1191.99 851.43 1231.21 884.026 1240.94 928.568C1250.68 973.111 1183.63 977.845 1183.63 977.845C1183.63 977.845 1174.53 967.681 1163.72 971.306C1152.91 974.93 1162.88 953.566 1175.53 953.622C1188.17 953.678 1182.31 963.676 1200.2 955.574C1217.62 947.682 1228.39 923.273 1183.94 886.274C1181.36 884.129 1179.3 881.395 1178.07 878.279C1169.43 856.539 1176.28 842.289 1191.99 851.43Z" fill="url(#paint38_linear_744_5197)"/>
</g>
<defs>
<linearGradient id="paint0_linear_744_5197" x1="1479.69" y1="1654.57" x2="472.285" y2="403.428" gradientUnits="userSpaceOnUse">
<stop stop-color="#DAE3FE"/>
<stop offset="1" stop-color="#E9EFFD"/>
</linearGradient>
<linearGradient id="paint1_linear_744_5197" x1="593.821" y1="1182.65" x2="1031.28" y2="449.833" gradientUnits="userSpaceOnUse">
<stop stop-color="#09005D"/>
<stop offset="1" stop-color="#1A0F91"/>
</linearGradient>
<linearGradient id="paint2_linear_744_5197" x1="812.267" y1="878.172" x2="768.313" y2="1207.36" gradientUnits="userSpaceOnUse">
<stop stop-color="#09005D"/>
<stop offset="1" stop-color="#1A0F91"/>
</linearGradient>
<linearGradient id="paint3_linear_744_5197" x1="1216.09" y1="54.7991" x2="547.39" y2="1229.2" gradientUnits="userSpaceOnUse">
<stop stop-color="#4042E2"/>
<stop offset="1" stop-color="#4F52FF"/>
</linearGradient>
<linearGradient id="paint4_linear_744_5197" x1="1115.33" y1="-552.053" x2="1009.44" y2="-276.2" gradientUnits="userSpaceOnUse">
<stop stop-color="#09005D"/>
<stop offset="1" stop-color="#1A0F91"/>
</linearGradient>
<linearGradient id="paint5_linear_744_5197" x1="1133.79" y1="-544.965" x2="1027.91" y2="-269.112" gradientUnits="userSpaceOnUse">
<stop stop-color="#09005D"/>
<stop offset="1" stop-color="#1A0F91"/>
</linearGradient>
<linearGradient id="paint6_linear_744_5197" x1="892.733" y1="167.927" x2="725.129" y2="475.683" gradientUnits="userSpaceOnUse">
<stop stop-color="#4042E2"/>
<stop offset="1" stop-color="#4F52FF"/>
</linearGradient>
<linearGradient id="paint7_linear_744_5197" x1="692.695" y1="424.078" x2="416.814" y2="984.199" gradientUnits="userSpaceOnUse">
<stop stop-color="#FE7062"/>
<stop offset="1" stop-color="#FF928E"/>
</linearGradient>
<linearGradient id="paint8_linear_744_5197" x1="516.808" y1="1293.1" x2="306.119" y2="1522.27" gradientUnits="userSpaceOnUse">
<stop stop-color="#09005D"/>
<stop offset="1" stop-color="#1A0F91"/>
</linearGradient>
<linearGradient id="paint9_linear_744_5197" x1="448.421" y1="1310.12" x2="467.136" y2="1310.12" gradientUnits="userSpaceOnUse">
<stop stop-color="#FEBBBA"/>
<stop offset="1" stop-color="#FF928E"/>
</linearGradient>
<linearGradient id="paint10_linear_744_5197" x1="533.398" y1="1033.93" x2="354.121" y2="1276.92" gradientUnits="userSpaceOnUse">
<stop stop-color="#4042E2"/>
<stop offset="1" stop-color="#4F52FF"/>
</linearGradient>
<linearGradient id="paint11_linear_744_5197" x1="469.543" y1="1249.65" x2="258.853" y2="1478.82" gradientUnits="userSpaceOnUse">
<stop stop-color="#09005D"/>
<stop offset="1" stop-color="#1A0F91"/>
</linearGradient>
<linearGradient id="paint12_linear_744_5197" x1="380.974" y1="1309.16" x2="397.132" y2="1309.16" gradientUnits="userSpaceOnUse">
<stop stop-color="#FEBBBA"/>
<stop offset="1" stop-color="#FF928E"/>
</linearGradient>
<linearGradient id="paint13_linear_744_5197" x1="501.446" y1="1010.36" x2="322.169" y2="1253.35" gradientUnits="userSpaceOnUse">
<stop stop-color="#4042E2"/>
<stop offset="1" stop-color="#4F52FF"/>
</linearGradient>
<linearGradient id="paint14_linear_744_5197" x1="501.822" y1="851.626" x2="220.396" y2="1138.62" gradientUnits="userSpaceOnUse">
<stop stop-color="#FE7062"/>
<stop offset="1" stop-color="#FF928E"/>
</linearGradient>
<linearGradient id="paint15_linear_744_5197" x1="606.297" y1="710.49" x2="573.278" y2="804.831" gradientUnits="userSpaceOnUse">
<stop stop-color="#FEBBBA"/>
<stop offset="1" stop-color="#FF928E"/>
</linearGradient>
<linearGradient id="paint16_linear_744_5197" x1="634.519" y1="720.368" x2="601.5" y2="814.709" gradientUnits="userSpaceOnUse">
<stop stop-color="#FEBBBA"/>
<stop offset="1" stop-color="#FF928E"/>
</linearGradient>
<linearGradient id="paint17_linear_744_5197" x1="609.153" y1="780.643" x2="634.025" y2="730.47" gradientUnits="userSpaceOnUse">
<stop stop-color="#FEBBBA"/>
<stop offset="1" stop-color="#FF928E"/>
</linearGradient>
<linearGradient id="paint18_linear_744_5197" x1="453.01" y1="803.762" x2="171.584" y2="1090.76" gradientUnits="userSpaceOnUse">
<stop stop-color="#FE7062"/>
<stop offset="1" stop-color="#FF928E"/>
</linearGradient>
<linearGradient id="paint19_linear_744_5197" x1="316.219" y1="957.314" x2="437.213" y2="957.314" gradientUnits="userSpaceOnUse">
<stop stop-color="#FEBBBA"/>
<stop offset="1" stop-color="#FF928E"/>
</linearGradient>
<linearGradient id="paint20_linear_744_5197" x1="476.919" y1="884.212" x2="543.45" y2="1161.42" gradientUnits="userSpaceOnUse">
<stop stop-color="#09005D"/>
<stop offset="1" stop-color="#1A0F91"/>
</linearGradient>
<linearGradient id="paint21_linear_744_5197" x1="428.23" y1="944.627" x2="465.924" y2="944.627" gradientUnits="userSpaceOnUse">
<stop stop-color="#FEBBBA"/>
<stop offset="1" stop-color="#FF928E"/>
</linearGradient>
<linearGradient id="paint22_linear_744_5197" x1="409.125" y1="827.963" x2="456.962" y2="827.963" gradientUnits="userSpaceOnUse">
<stop stop-color="#FEBBBA"/>
<stop offset="1" stop-color="#FF928E"/>
</linearGradient>
<linearGradient id="paint23_linear_744_5197" x1="468.34" y1="797.53" x2="415.743" y2="765.449" gradientUnits="userSpaceOnUse">
<stop stop-color="#FEBBBA"/>
<stop offset="1" stop-color="#FF928E"/>
</linearGradient>
<linearGradient id="paint24_linear_744_5197" x1="387.901" y1="731.634" x2="455.851" y2="785.302" gradientUnits="userSpaceOnUse">
<stop stop-color="#09005D"/>
<stop offset="1" stop-color="#1A0F91"/>
</linearGradient>
<linearGradient id="paint25_linear_744_5197" x1="454.525" y1="809.493" x2="407.203" y2="780.63" gradientUnits="userSpaceOnUse">
<stop stop-color="#FEBBBA"/>
<stop offset="1" stop-color="#FF928E"/>
</linearGradient>
<linearGradient id="paint26_linear_744_5197" x1="1008.12" y1="739.18" x2="1112.45" y2="906.4" gradientUnits="userSpaceOnUse">
<stop stop-color="#FEBBBA"/>
<stop offset="1" stop-color="#FF928E"/>
</linearGradient>
<linearGradient id="paint27_linear_744_5197" x1="1297.76" y1="723.789" x2="1192.37" y2="794.056" gradientUnits="userSpaceOnUse">
<stop stop-color="#09005D"/>
<stop offset="1" stop-color="#1A0F91"/>
</linearGradient>
<linearGradient id="paint28_linear_744_5197" x1="1164.22" y1="904.593" x2="1420.57" y2="762.487" gradientUnits="userSpaceOnUse">
<stop stop-color="#FE7062"/>
<stop offset="1" stop-color="#FF928E"/>
</linearGradient>
<linearGradient id="paint29_linear_744_5197" x1="1136.62" y1="854.854" x2="1156.18" y2="811.41" gradientUnits="userSpaceOnUse">
<stop stop-color="#FEBBBA"/>
<stop offset="1" stop-color="#FF928E"/>
</linearGradient>
<linearGradient id="paint30_linear_744_5197" x1="1135.61" y1="749.276" x2="1175.31" y2="835.226" gradientUnits="userSpaceOnUse">
<stop stop-color="#FEBBBA"/>
<stop offset="1" stop-color="#FF928E"/>
</linearGradient>
<linearGradient id="paint31_linear_744_5197" x1="1269.44" y1="681.31" x2="1164.05" y2="751.578" gradientUnits="userSpaceOnUse">
<stop stop-color="#09005D"/>
<stop offset="1" stop-color="#1A0F91"/>
</linearGradient>
<linearGradient id="paint32_linear_744_5197" x1="1154.29" y1="740.647" x2="1193.99" y2="826.597" gradientUnits="userSpaceOnUse">
<stop stop-color="#FEBBBA"/>
<stop offset="1" stop-color="#FF928E"/>
</linearGradient>
<linearGradient id="paint33_linear_744_5197" x1="1246.39" y1="1395.87" x2="1100.65" y2="1132.81" gradientUnits="userSpaceOnUse">
<stop stop-color="#FEBBBA"/>
<stop offset="1" stop-color="#FF928E"/>
</linearGradient>
<linearGradient id="paint34_linear_744_5197" x1="1214.96" y1="1303.05" x2="1171.63" y2="1302.64" gradientUnits="userSpaceOnUse">
<stop stop-color="#09005D"/>
<stop offset="1" stop-color="#1A0F91"/>
</linearGradient>
<linearGradient id="paint35_linear_744_5197" x1="1216.7" y1="1188.39" x2="1360.2" y2="1115.94" gradientUnits="userSpaceOnUse">
<stop stop-color="#FEBBBA"/>
<stop offset="1" stop-color="#FF928E"/>
</linearGradient>
<linearGradient id="paint36_linear_744_5197" x1="1174.71" y1="1310.5" x2="1123.06" y2="1310.01" gradientUnits="userSpaceOnUse">
<stop stop-color="#09005D"/>
<stop offset="1" stop-color="#1A0F91"/>
</linearGradient>
<linearGradient id="paint37_linear_744_5197" x1="1107.49" y1="962.453" x2="1228.61" y2="1239.47" gradientUnits="userSpaceOnUse">
<stop stop-color="#09005D"/>
<stop offset="1" stop-color="#1A0F91"/>
</linearGradient>
<linearGradient id="paint38_linear_744_5197" x1="1232.4" y1="990.015" x2="1023.49" y2="680.277" gradientUnits="userSpaceOnUse">
<stop stop-color="#FEBBBA"/>
<stop offset="1" stop-color="#FF928E"/>
</linearGradient>
<clipPath id="clip0_744_5197">
<rect width="1535" height="1535" fill="white"/>
</clipPath>
</defs>
</svg>
