<svg width="1535" height="1535" viewBox="0 0 1535 1535" fill="none" xmlns="http://www.w3.org/2000/svg">
<g clip-path="url(#clip0_744_4842)">
<path d="M1205.58 1171.96C1181.96 1196.52 1159.61 1212.35 1141.95 1224.87C934.383 1371.93 688.772 1329.06 636.572 1318.6C559.49 1303.14 410.492 1273.25 302.769 1148.16C139.793 958.905 165.171 660.739 291.585 463.916C314.709 427.914 436.853 228.093 685.11 196.048C835.353 176.655 1010.49 215.768 1137.32 320.693C1403.54 540.94 1384.59 985.878 1205.58 1171.96Z" fill="url(#paint0_linear_744_4842)"/>
<g opacity="0.3">
<path d="M728.215 431.157C730.886 431.343 732.9 433.661 732.713 436.331C732.35 441.52 732.206 446.801 732.288 452.029C732.329 454.674 730.243 456.857 727.61 456.947C727.579 456.949 727.548 456.949 727.516 456.951C724.839 456.992 722.636 454.855 722.595 452.178C722.51 446.675 722.66 441.115 723.042 435.653C723.216 433.155 725.256 431.232 727.704 431.147C727.873 431.142 728.044 431.144 728.215 431.157ZM734.427 477.448C735.22 482.614 736.241 487.794 737.463 492.851C738.092 495.451 736.493 498.071 733.891 498.702C731.277 499.324 728.669 497.73 728.04 495.128C726.754 489.808 725.679 484.355 724.844 478.92C724.438 476.274 726.255 473.799 728.901 473.393C729.093 473.364 729.285 473.346 729.474 473.34C731.895 473.256 734.051 474.995 734.427 477.448ZM745.164 517.155C747.082 522.002 749.232 526.823 751.56 531.489C752.755 533.884 751.781 536.796 749.386 537.99C746.992 539.182 744.082 538.211 742.885 535.816C740.434 530.903 738.168 525.824 736.15 520.722C735.165 518.232 736.386 515.416 738.874 514.431C739.405 514.221 739.951 514.111 740.49 514.092C742.48 514.024 744.39 515.197 745.164 517.155ZM764.512 553.464C767.467 557.765 770.645 561.986 773.953 566.013C775.652 568.082 775.353 571.137 773.285 572.836C771.215 574.533 768.162 574.233 766.462 572.168C762.979 567.926 759.635 563.482 756.523 558.957C755.007 556.751 755.566 553.733 757.772 552.217C758.561 551.674 759.454 551.397 760.346 551.366C761.946 551.311 763.538 552.048 764.512 553.464ZM791.467 584.557C795.295 588.085 799.328 591.5 803.455 594.704C805.569 596.347 805.952 599.392 804.311 601.506C802.668 603.622 799.623 604.004 797.509 602.36C793.168 598.99 788.924 595.397 784.897 591.684C782.928 589.871 782.803 586.804 784.619 584.836C785.532 583.844 786.765 583.32 788.015 583.277C789.245 583.234 790.491 583.657 791.467 584.557ZM824.63 608.911C829.149 611.51 833.836 613.946 838.562 616.152C840.987 617.285 842.036 620.17 840.903 622.594C839.771 625.02 836.888 626.069 834.46 624.937C829.487 622.615 824.553 620.05 819.797 617.316C817.477 615.98 816.677 613.018 818.011 610.697C818.878 609.189 820.432 608.325 822.051 608.269C822.924 608.239 823.816 608.443 824.63 608.911ZM1004.48 616.362C1005.67 618.759 1004.69 621.669 1002.29 622.86C997.381 625.299 992.296 627.557 987.179 629.57C984.688 630.55 981.873 629.325 980.895 626.833C979.914 624.343 981.139 621.529 983.63 620.549C988.488 618.638 993.316 616.494 997.98 614.177C998.62 613.859 999.295 613.695 999.966 613.672C1001.81 613.608 1003.61 614.604 1004.48 616.362ZM862.343 625.298C867.324 626.826 872.432 628.156 877.527 629.249C880.145 629.812 881.811 632.391 881.249 635.007C880.686 637.626 878.11 639.278 875.491 638.728C870.126 637.576 864.746 636.176 859.5 634.567C856.941 633.782 855.502 631.071 856.287 628.511C856.91 626.481 858.744 625.156 860.754 625.087C861.278 625.068 861.813 625.137 862.343 625.298ZM965.148 631.789C965.772 634.392 964.167 637.009 961.563 637.633C956.231 638.91 950.772 639.974 945.34 640.798C942.693 641.212 940.223 639.378 939.821 636.732C939.42 634.086 941.241 631.615 943.888 631.213C949.05 630.43 954.238 629.419 959.305 628.204C959.628 628.127 959.951 628.085 960.271 628.074C962.528 627.996 964.603 629.51 965.148 631.789ZM902.765 632.845C907.96 633.219 913.238 633.374 918.457 633.303C921.134 633.266 923.333 635.406 923.37 638.084C923.405 640.726 921.32 642.903 918.692 642.994C918.657 642.995 918.623 642.996 918.589 642.995C913.095 643.071 907.537 642.909 902.07 642.516C899.4 642.322 897.391 640.003 897.583 637.332C897.763 634.838 899.8 632.92 902.245 632.836C902.416 632.83 902.59 632.834 902.765 632.845Z" fill="#BDD0FB"/>
<path d="M1028.96 595.834C1028 595.867 1027.05 596.18 1026.22 596.796C1024.22 598.294 1022.16 599.772 1020.08 601.197C1017.88 602.711 1017.32 605.73 1018.83 607.936C1020.35 610.143 1023.36 610.708 1025.57 609.188C1027.75 607.692 1029.92 606.135 1032.03 604.56C1034.17 602.957 1034.61 599.918 1033.01 597.776C1032.02 596.454 1030.49 595.781 1028.96 595.834Z" fill="#BDD0FB"/>
</g>
<g opacity="0.3">
<path d="M1103.34 468.136C1101 468.216 1099 469.983 1098.7 472.379C1098.39 474.858 1098.03 477.374 1097.61 479.853C1097.17 482.494 1098.95 484.992 1101.59 485.433C1104.24 485.876 1106.73 484.09 1107.17 481.451C1107.61 478.841 1108 476.192 1108.32 473.581C1108.65 470.925 1106.77 468.502 1104.11 468.17C1103.85 468.137 1103.59 468.127 1103.34 468.136Z" fill="#BDD0FB"/>
<path d="M919.243 255.798C921.919 255.836 924.059 258.038 924.02 260.716C923.98 263.392 921.781 265.526 919.102 265.491C914.006 265.417 908.828 265.56 903.651 265.913C900.994 266.104 898.668 264.077 898.485 261.406C898.303 258.736 900.321 256.423 902.991 256.24C905.234 256.086 907.471 255.971 909.699 255.894C912.88 255.784 916.091 255.751 919.243 255.798ZM882.547 263.588C883.089 266.208 881.402 268.773 878.781 269.315C873.748 270.356 868.705 271.62 863.791 273.074C861.23 273.841 858.528 272.369 857.767 269.802C857.008 267.236 858.474 264.539 861.04 263.78C866.213 262.248 871.522 260.917 876.818 259.823C877.093 259.766 877.368 259.733 877.638 259.724C879.956 259.644 882.062 261.241 882.547 263.588ZM945.566 257.988C950.897 258.802 956.267 259.856 961.526 261.122C964.129 261.748 965.731 264.366 965.105 266.97C964.478 269.572 961.861 271.171 959.257 270.548C954.263 269.345 949.165 268.345 944.103 267.572C941.457 267.167 939.639 264.695 940.042 262.047C940.4 259.706 942.378 258.015 944.661 257.936C944.959 257.926 945.262 257.942 945.566 257.988ZM842.692 275.415C843.796 277.853 842.715 280.727 840.277 281.83C835.602 283.947 830.962 286.29 826.486 288.792C824.148 290.1 821.197 289.264 819.89 286.926C818.584 284.589 819.419 281.637 821.755 280.331C826.469 277.696 831.355 275.228 836.277 272.999C836.872 272.731 837.492 272.59 838.107 272.568C840.012 272.503 841.857 273.572 842.692 275.415ZM986.703 269.047C991.721 271.013 996.725 273.221 1001.58 275.612C1003.98 276.794 1004.97 279.699 1003.78 282.1C1002.6 284.503 999.696 285.491 997.294 284.308C992.685 282.038 987.932 279.94 983.166 278.074C980.673 277.097 979.444 274.284 980.421 271.791C981.149 269.934 982.895 268.779 984.769 268.714C985.411 268.692 986.068 268.798 986.703 269.047ZM1024.42 288.86C1028.89 291.882 1033.3 295.129 1037.5 298.51C1039.59 300.188 1039.92 303.238 1038.24 305.325C1036.56 307.414 1033.51 307.745 1031.43 306.065C1027.43 302.853 1023.25 299.767 1018.99 296.894C1016.77 295.396 1016.19 292.383 1017.69 290.164C1018.59 288.828 1020.04 288.084 1021.54 288.032C1022.53 287.999 1023.54 288.265 1024.42 288.86ZM1056.92 316.421C1060.63 320.35 1064.22 324.479 1067.59 328.692C1069.26 330.784 1068.92 333.833 1066.83 335.504C1064.73 337.178 1061.69 336.834 1060.02 334.743C1056.82 330.738 1053.41 326.817 1049.87 323.084C1048.04 321.139 1048.12 318.07 1050.07 316.232C1050.96 315.386 1052.09 314.947 1053.23 314.908C1054.57 314.862 1055.92 315.37 1056.92 316.421ZM1082.63 350.417C1085.4 355.061 1088 359.879 1090.36 364.734C1091.53 367.141 1090.53 370.043 1088.12 371.214C1085.72 372.382 1082.81 371.38 1081.64 368.972C1079.4 364.363 1076.93 359.789 1074.3 355.376C1072.93 353.076 1073.69 350.102 1075.99 348.733C1076.71 348.3 1077.51 348.08 1078.3 348.052C1080.01 347.993 1081.69 348.842 1082.63 350.417ZM1100.26 389.251C1101.93 394.379 1103.4 399.646 1104.64 404.908C1105.25 407.515 1103.63 410.125 1101.02 410.736C1098.43 411.345 1095.81 409.732 1095.2 407.125C1094.03 402.126 1092.63 397.124 1091.04 392.252C1090.21 389.708 1091.6 386.972 1094.15 386.143C1094.59 385.998 1095.04 385.921 1095.48 385.905C1097.59 385.832 1099.57 387.149 1100.26 389.251ZM1108.92 430.964C1109.3 434.921 1109.56 438.937 1109.69 442.902C1109.74 444.338 1109.78 445.769 1109.8 447.199C1109.83 449.875 1107.72 452.124 1105.01 452.106C1102.33 452.142 1100.14 449.999 1100.1 447.321C1100.08 445.964 1100.05 444.601 1100.01 443.236C1099.88 439.466 1099.63 435.65 1099.27 431.888C1099.01 429.224 1100.97 426.857 1103.63 426.601C1103.73 426.592 1103.83 426.585 1103.93 426.582C1106.47 426.494 1108.67 428.4 1108.92 430.964Z" fill="#BDD0FB"/>
<path d="M802.284 293.875C801.321 293.908 800.359 294.228 799.533 294.851C797.439 296.433 795.339 298.09 793.292 299.775C791.224 301.476 790.927 304.53 792.627 306.597C794.329 308.664 797.381 308.964 799.45 307.262C801.395 305.662 803.39 304.089 805.377 302.586C807.513 300.974 807.936 297.934 806.322 295.797C805.333 294.488 803.808 293.822 802.284 293.875Z" fill="#BDD0FB"/>
</g>
<path d="M790.747 376.171C790.163 376.941 790.13 377.997 790.667 378.8L805.981 401.731C800.732 413.49 797.32 426.17 796.068 439.362L771.469 451.781C770.607 452.217 770.116 453.152 770.246 454.11L774.713 486.881C774.843 487.838 775.567 488.608 776.515 488.797L803.541 494.179C808.278 506.555 814.959 517.86 823.163 527.785L814.545 553.977C814.244 554.895 814.557 555.904 815.326 556.488L841.658 576.503C842.427 577.087 843.483 577.12 844.287 576.583L867.217 561.269C878.976 566.519 891.656 569.931 904.849 571.182L917.268 595.781C917.704 596.644 918.638 597.136 919.596 597.005L952.368 592.538C953.325 592.407 954.095 591.683 954.283 590.736L959.666 563.71C972.042 558.973 983.347 552.292 993.271 544.087L1019.46 552.705C1020.38 553.007 1021.39 552.694 1021.98 551.924L1041.99 525.593C1042.57 524.824 1042.61 523.767 1042.07 522.964L1026.76 500.034C1032.01 488.275 1035.42 475.595 1036.67 462.402L1061.27 449.983C1062.13 449.548 1062.62 448.613 1062.49 447.655L1058.02 414.884C1057.89 413.926 1057.17 413.157 1056.22 412.968L1029.2 407.586C1024.46 395.21 1017.78 383.905 1009.57 373.98L1018.19 347.788C1018.49 346.87 1018.18 345.861 1017.41 345.276L991.079 325.262C990.309 324.677 989.254 324.645 988.45 325.181L965.52 340.495C953.761 335.246 941.081 331.835 927.888 330.582L915.469 305.984C915.034 305.121 914.099 304.63 913.141 304.76L880.37 309.227C879.413 309.358 878.643 310.081 878.454 311.03L873.072 338.055C860.696 342.792 849.391 349.473 839.467 357.678L813.274 349.06C812.356 348.758 811.347 349.072 810.763 349.841L790.747 376.171Z" fill="#BDD0FB"/>
<path d="M920.078 417.843C938.295 419.889 951.452 436.372 949.406 454.591C948.416 463.417 944.048 471.327 937.107 476.866C930.168 482.405 921.485 484.912 912.659 483.919C894.442 481.873 881.285 465.39 883.33 447.171C885.192 430.597 899.003 418.213 915.199 417.654C916.805 417.598 918.436 417.659 920.078 417.843ZM932.269 470.804C937.591 466.556 940.94 460.491 941.7 453.724C943.267 439.758 933.18 427.117 919.213 425.55C905.242 423.977 892.606 434.07 891.037 448.038C889.47 462.004 899.557 474.644 913.524 476.212C914.791 476.354 916.052 476.402 917.302 476.358C922.734 476.171 927.943 474.255 932.269 470.804Z" fill="url(#paint1_linear_744_4842)"/>
<path d="M914.221 369.641C911.439 369.737 908.646 369.974 905.851 370.354C904.971 370.474 904.093 370.608 903.217 370.756C898.899 371.487 894.646 372.56 890.523 373.958C890.467 373.977 890.411 373.996 890.355 374.015C890.195 374.07 890.036 374.125 889.877 374.181C889.567 374.288 889.259 374.4 888.951 374.511C888.141 374.804 887.645 375.581 887.673 376.398C887.68 376.597 887.718 376.798 887.789 376.995C888.153 378.001 889.266 378.518 890.272 378.156C895.452 376.277 900.869 374.946 906.374 374.197C933.714 370.466 959.723 381.481 976.362 401.117C985.618 412.038 991.974 425.628 994.046 440.835C994.41 443.501 994.637 446.167 994.727 448.82C995.342 466.676 989.842 484.055 978.885 498.47C966.299 515.03 948.017 525.697 927.409 528.506C884.846 534.303 845.535 504.409 839.737 461.868C839.379 459.245 839.155 456.613 839.066 453.985C838.674 442.595 840.779 431.246 845.27 420.76C845.386 420.489 845.436 420.207 845.425 419.93C845.4 419.204 844.964 418.52 844.251 418.215C843.264 417.796 842.126 418.246 841.705 419.235C836.99 430.244 834.779 442.159 835.19 454.117C835.284 456.876 835.519 459.638 835.893 462.391C841.981 507.056 883.283 538.434 927.931 532.349C949.567 529.4 968.758 518.202 981.971 500.818C993.476 485.684 999.248 467.439 998.603 448.693C998.508 445.908 998.27 443.11 997.889 440.312C994.939 418.675 983.741 399.483 966.358 386.27C951.221 374.765 932.97 368.993 914.221 369.641Z" fill="url(#paint2_linear_744_4842)"/>
<g opacity="0.3">
<path d="M557.979 309.193C556.685 309.238 555.521 310.123 555.184 311.443C554.552 313.905 553.987 316.419 553.503 318.917C553.189 320.539 554.25 322.109 555.874 322.424C557.498 322.745 559.068 321.676 559.382 320.054C559.842 317.674 560.381 315.277 560.983 312.927C561.394 311.327 560.428 309.696 558.827 309.283C558.543 309.212 558.258 309.184 557.979 309.193Z" fill="#BDD0FB"/>
<path d="M554.638 331.937C556.287 332.05 557.535 333.476 557.424 335.126C557.145 339.29 557.076 343.517 557.22 347.687C557.25 348.566 557.291 349.448 557.34 350.333C557.431 351.982 556.167 353.395 554.517 353.487C552.952 353.512 551.454 352.315 551.361 350.662C551.31 349.737 551.267 348.814 551.236 347.893C551.085 343.522 551.157 339.09 551.451 334.724C551.554 333.179 552.815 331.986 554.331 331.933C554.431 331.93 554.534 331.932 554.638 331.937ZM559.106 365.434C559.999 370.414 561.208 375.384 562.701 380.203C563.19 381.784 562.308 383.458 560.727 383.949C559.156 384.433 557.471 383.555 556.982 381.975C555.416 376.924 554.148 371.714 553.213 366.491C552.921 364.863 554.004 363.308 555.632 363.014C555.774 362.989 555.919 362.975 556.06 362.97C557.525 362.92 558.84 363.951 559.106 365.434ZM568.098 394.419C570.181 399.022 572.575 403.541 575.215 407.855C576.077 409.264 575.633 411.109 574.223 411.97C572.808 412.835 570.97 412.393 570.107 410.98C567.338 406.457 564.828 401.714 562.643 396.889C561.962 395.382 562.628 393.607 564.135 392.926C564.502 392.761 564.885 392.675 565.265 392.662C566.442 392.621 567.582 393.281 568.098 394.419ZM583.937 420.309C587.09 424.267 590.518 428.065 594.122 431.592C595.304 432.75 595.324 434.645 594.167 435.826C593.013 437.004 591.117 437.029 589.934 435.873C586.152 432.171 582.56 428.191 579.253 424.04C578.222 422.748 578.437 420.862 579.729 419.832C580.252 419.418 580.869 419.204 581.489 419.183C582.405 419.151 583.322 419.537 583.937 420.309ZM605.616 441.548C609.635 444.618 613.88 447.467 618.236 450.02C619.662 450.854 620.141 452.689 619.305 454.117C618.469 455.544 616.636 456.026 615.209 455.185C610.643 452.511 606.193 449.523 601.98 446.307C600.668 445.302 600.415 443.424 601.418 442.111C601.985 441.369 602.831 440.965 603.697 440.935C604.364 440.912 605.044 441.111 605.616 441.548ZM631.795 456.88C636.435 458.879 641.242 460.605 646.087 462.012C647.674 462.472 648.588 464.135 648.127 465.721C647.665 467.308 646.01 468.22 644.416 467.763C639.337 466.288 634.292 464.476 629.425 462.38C627.907 461.724 627.206 459.964 627.859 458.447C628.333 457.348 629.387 456.676 630.507 456.638C630.936 456.623 631.375 456.698 631.795 456.88ZM660.915 465.341C665.888 466.137 670.978 466.632 676.043 466.808C677.696 466.868 678.988 468.254 678.929 469.906C678.873 471.557 677.489 472.825 675.832 472.795C670.522 472.607 665.185 472.089 659.97 471.254C658.337 470.991 657.225 469.456 657.486 467.823C657.716 466.388 658.934 465.354 660.336 465.306C660.526 465.299 660.72 465.31 660.915 465.341ZM709.832 466.448C710.177 468.066 709.147 469.655 707.529 470C703.053 470.957 698.447 471.683 693.853 472.161C693.155 472.237 692.459 472.302 691.762 472.364C690.128 472.555 688.662 471.289 688.522 469.638C688.378 467.99 689.598 466.541 691.246 466.397C691.899 466.342 692.554 466.278 693.22 466.205C697.617 465.75 702.011 465.057 706.279 464.146C706.455 464.107 706.631 464.087 706.803 464.081C708.228 464.032 709.525 465.008 709.832 466.448Z" fill="#BDD0FB"/>
</g>
<g opacity="0.3">
<path d="M677.809 214.27C683.025 214.157 688.293 214.365 693.469 214.879C695.113 215.045 696.315 216.51 696.15 218.157C695.987 219.804 694.509 220.987 692.873 220.838C687.938 220.344 682.913 220.15 677.936 220.257C676.283 220.294 674.914 218.98 674.878 217.329C674.844 215.689 676.134 214.328 677.767 214.271C677.781 214.271 677.795 214.271 677.809 214.27ZM665.565 218.092C665.798 219.728 664.66 221.245 663.024 221.477C658.1 222.18 653.169 223.186 648.367 224.473C646.778 224.894 645.128 223.953 644.702 222.353C644.274 220.756 645.222 219.117 646.819 218.687C651.851 217.341 657.019 216.284 662.179 215.55C662.288 215.535 662.394 215.525 662.502 215.521C664.01 215.469 665.347 216.561 665.565 218.092ZM708.951 217.39C714.043 218.542 719.108 220.014 724.004 221.767C725.561 222.325 726.372 224.04 725.814 225.596C725.258 227.154 723.55 227.959 721.987 227.407C717.316 225.734 712.486 224.33 707.628 223.228C706.015 222.862 705.005 221.259 705.369 219.649C705.676 218.293 706.858 217.363 708.185 217.317C708.436 217.308 708.693 217.331 708.951 217.39ZM635.84 225.321C636.46 226.853 635.719 228.599 634.187 229.219C629.577 231.084 625.037 233.251 620.691 235.662C619.246 236.461 617.423 235.939 616.621 234.498C615.819 233.051 616.34 231.228 617.786 230.427C622.343 227.897 627.106 225.623 631.942 223.668C632.277 223.534 632.621 223.464 632.961 223.452C634.183 223.409 635.356 224.124 635.84 225.321ZM738.406 227.94C743.06 230.277 747.62 232.925 751.962 235.809C753.339 236.724 753.713 238.583 752.799 239.961C751.884 241.338 750.026 241.715 748.647 240.798C744.507 238.044 740.158 235.521 735.718 233.293C734.241 232.551 733.644 230.752 734.387 229.272C734.894 228.26 735.902 227.661 736.961 227.624C737.445 227.607 737.941 227.707 738.406 227.94ZM764.474 245.25C768.441 248.642 772.237 252.305 775.757 256.135C776.876 257.352 776.796 259.244 775.579 260.363C774.363 261.482 772.468 261.403 771.348 260.184C767.991 256.532 764.368 253.038 760.582 249.802C759.325 248.728 759.178 246.837 760.252 245.58C760.82 244.917 761.615 244.562 762.426 244.534C763.148 244.509 763.882 244.744 764.474 245.25ZM785.648 268.306C788.691 272.551 791.499 277.02 793.994 281.586C794.787 283.039 794.253 284.856 792.802 285.649C791.352 286.442 789.533 285.906 788.74 284.459C786.362 280.103 783.684 275.842 780.781 271.797C779.818 270.453 780.126 268.581 781.471 267.619C781.969 267.26 782.539 267.079 783.109 267.06C784.076 267.026 785.041 267.461 785.648 268.306Z" fill="#BDD0FB"/>
<path d="M606.1 238.365C605.523 238.385 604.946 238.572 604.444 238.937C602.372 240.445 600.337 242.022 598.391 243.622C597.115 244.673 596.93 246.56 597.98 247.837C599.032 249.108 600.917 249.295 602.196 248.247C604.05 246.721 605.993 245.217 607.969 243.777C609.306 242.803 609.6 240.93 608.626 239.594C608.019 238.761 607.06 238.332 606.1 238.365Z" fill="#BDD0FB"/>
</g>
<path d="M596.53 294.553C596.139 295.068 596.117 295.774 596.476 296.312L606.724 311.656C603.211 319.524 600.929 328.009 600.091 336.837L583.63 345.148C583.053 345.439 582.724 346.065 582.812 346.706L585.801 368.634C585.888 369.275 586.373 369.79 587.006 369.916L605.091 373.518C608.26 381.799 612.731 389.364 618.221 396.005L612.455 413.532C612.253 414.146 612.463 414.821 612.977 415.212L630.597 428.605C631.112 428.996 631.819 429.018 632.356 428.659L647.7 418.411C655.568 421.924 664.053 424.207 672.881 425.045L681.191 441.505C681.483 442.083 682.109 442.411 682.749 442.324L704.679 439.335C705.319 439.248 705.834 438.763 705.96 438.129L709.562 420.044C717.844 416.875 725.408 412.404 732.049 406.914L749.576 412.681C750.19 412.883 750.865 412.673 751.256 412.158L764.649 394.538C765.04 394.023 765.062 393.317 764.703 392.779L754.456 377.435C757.969 369.566 760.252 361.082 761.089 352.254L777.55 343.943C778.127 343.652 778.456 343.026 778.368 342.385L775.38 320.456C775.292 319.815 774.808 319.3 774.174 319.174L756.089 315.573C752.92 307.291 748.449 299.726 742.958 293.085L748.725 275.559C748.927 274.945 748.717 274.27 748.203 273.878L730.583 260.486C730.068 260.094 729.361 260.073 728.824 260.432L713.48 270.679C705.612 267.167 697.126 264.884 688.298 264.046L679.988 247.586C679.697 247.008 679.071 246.68 678.43 246.767L656.501 249.756C655.86 249.843 655.345 250.328 655.219 250.962L651.618 269.046C643.336 272.216 635.772 276.687 629.13 282.177L611.604 276.41C610.99 276.208 610.315 276.418 609.923 276.933L596.53 294.553Z" fill="#BDD0FB"/>
<path d="M683.115 322.041C689.128 322.714 694.517 325.69 698.29 330.419C702.063 335.145 703.77 341.06 703.094 347.071C701.701 359.479 690.49 368.424 678.062 367.05C665.652 365.654 656.692 354.425 658.086 342.02C658.76 336.008 661.735 330.619 666.462 326.846C670.306 323.779 674.934 322.077 679.76 321.911C680.87 321.873 681.992 321.916 683.115 322.041ZM697.144 346.405C697.641 341.982 696.386 337.632 693.61 334.153C690.835 330.676 686.87 328.488 682.449 327.991C678.026 327.5 673.677 328.75 670.198 331.526C666.72 334.3 664.533 338.266 664.036 342.686C663.011 351.814 669.602 360.073 678.73 361.1C679.554 361.192 680.37 361.222 681.175 361.195C689.29 360.915 696.212 354.707 697.144 346.405Z" fill="url(#paint3_linear_744_4842)"/>
<path d="M679.037 288.493C677.143 288.558 675.238 288.721 673.322 288.98C669.518 289.497 665.762 290.402 662.151 291.673C661.989 291.732 661.828 291.79 661.665 291.848C660.414 292.301 659.65 293.501 659.692 294.763C659.703 295.069 659.761 295.381 659.871 295.684C660.435 297.238 662.152 298.034 663.706 297.477C667.066 296.258 670.573 295.397 674.128 294.914H674.13C674.325 294.887 674.521 294.863 674.715 294.838C683.141 293.772 691.512 294.846 699.217 297.856C703.4 299.491 707.388 301.699 711.08 304.453C711.11 304.476 711.14 304.498 711.17 304.52C711.262 304.591 711.353 304.658 711.443 304.728C722.162 312.876 729.068 324.711 730.887 338.052C731.124 339.779 731.269 341.503 731.329 343.221C731.726 354.78 728.166 366.032 721.072 375.366C712.924 386.085 701.089 392.988 687.749 394.806C674.416 396.619 661.156 393.139 650.436 384.993C639.717 376.844 632.81 365.01 630.992 351.668C630.759 349.971 630.616 348.267 630.557 346.566C630.304 339.191 631.666 331.845 634.574 325.057C634.752 324.639 634.83 324.203 634.814 323.776C634.775 322.654 634.102 321.598 633.001 321.127C631.479 320.481 629.721 321.179 629.069 322.702C625.817 330.298 624.291 338.518 624.573 346.767C624.639 348.672 624.799 350.577 625.058 352.476C627.094 367.404 634.819 380.644 646.814 389.76C658.806 398.874 673.624 402.786 688.557 400.74C703.484 398.707 716.724 390.983 725.839 378.987C733.776 368.547 737.759 355.959 737.314 343.026C737.248 341.106 737.084 339.175 736.822 337.245C732.88 308.346 707.581 287.507 679.037 288.493Z" fill="url(#paint4_linear_744_4842)"/>
<path d="M585.877 790.613C585.877 790.613 588.984 659.95 528.802 624.978C468.621 590.007 354.193 568.143 349.904 380.523C347.393 270.682 344.675 222.658 342.854 201.717C342.143 193.549 349.402 186.955 357.46 188.473C414.457 199.211 599.617 243.406 638.437 369.786C684.459 519.611 585.877 790.613 585.877 790.613Z" fill="#7D97F4"/>
<path opacity="0.43" d="M401.539 240.675C464.105 296.475 536.452 395.23 575.013 493.985C579.963 510.26 594.441 544.871 600.729 606.366C606.344 657.655 603.552 711.851 596.743 747.726C596.313 749.994 594.125 751.484 591.857 751.053C587.957 750.313 588.476 746.118 588.511 746.251C596.288 684.958 593.06 608.667 575.24 539.832C552.474 455.31 501.697 373.362 449.177 303.859L443.773 297.016C403.082 244.76 394.516 244.375 398.32 240.732C399.219 239.871 400.625 239.863 401.539 240.675Z" fill="white"/>
<path d="M420.221 989.343C427.475 996.4 374.209 853.174 404.223 665.364C418.367 576.863 452.634 471.384 417.976 415.1C389.132 368.256 246.414 345.254 199.348 338.856C193.467 338.056 189.308 344.457 192.443 349.497C207.898 374.344 239.678 431.423 237.657 477.825C234.994 538.986 276.634 592.044 321.187 617.278C365.74 642.511 389.218 660.544 387.534 744.428C385.851 828.311 399.61 969.291 420.221 989.343Z" fill="#91B3FA"/>
<path opacity="0.43" d="M254.079 382.946C309.971 403.832 362.353 449.554 377.38 508.128L378.782 513.706C381.966 526.754 394.906 616.338 395.2 687.191C395.203 688.074 394.49 688.793 393.607 688.797C392.107 688.803 391.916 687.092 392.002 687.265C389.044 646.327 382.809 593.612 377.116 553.854C371.22 510.574 366.819 481.13 333.447 443.401C296.016 402.282 252.987 385.251 253.11 385.321C252.462 385.034 252.17 384.275 252.457 383.628C252.733 383.004 253.449 382.711 254.079 382.946Z" fill="white"/>
<path d="M256.744 1137.79C256.744 1148.22 265.289 1156.75 275.732 1156.75H1302.53C1312.98 1156.75 1321.52 1148.22 1321.52 1137.79L1330.07 547.711C1330.07 537.278 1317.77 516.909 1295.25 518.44L291.742 492.474C278.638 492.135 265.969 497.178 256.69 506.427C247.411 515.676 242.333 528.322 242.643 541.413L256.744 1137.79Z" fill="url(#paint5_linear_744_4842)"/>
<path d="M275.491 1119.59C275.491 1129.47 283.574 1137.55 293.455 1137.55H1277.77C1287.65 1137.55 1295.74 1129.47 1295.74 1119.59L1303.8 583.911C1302.85 551.675 1274.59 540.089 1257.46 540.774L295.689 514.971C286.483 514.724 277.583 518.271 271.062 524.774C264.542 531.278 260.956 540.178 261.187 549.384L275.491 1119.59Z" fill="#91B3FA"/>
<path d="M1285.1 865.103C1285.09 865.103 1285.07 865.103 1285.06 865.103C1283.61 865.082 1282.44 863.886 1282.47 862.43L1283.1 818.988C1283.12 817.548 1284.3 816.395 1285.73 816.395C1285.75 816.395 1285.76 816.395 1285.77 816.395C1287.23 816.416 1288.39 817.611 1288.37 819.067L1287.73 862.509C1287.71 863.949 1286.53 865.103 1285.1 865.103Z" fill="white"/>
<path d="M1286.66 758.646C1286.65 758.646 1286.64 758.646 1286.62 758.646C1285.17 758.625 1284.01 757.427 1284.03 755.974L1286.47 589.589C1286.43 579.705 1283.43 571.814 1277.55 566.188C1266.59 555.688 1249.19 556.224 1248.46 556.258L941.058 548.015C939.605 547.978 938.458 546.766 938.498 545.313C938.536 543.86 939.653 542.622 941.2 542.754L1248.42 550.997C1250.33 550.884 1268.86 550.564 1281.2 562.386C1288.14 569.037 1291.68 578.2 1291.74 589.615L1289.29 756.053C1289.27 757.493 1288.1 758.646 1286.66 758.646Z" fill="white"/>
<path d="M195.491 1205.74H1344.07C1345.36 1205.74 1346.41 1204.69 1346.41 1203.4V1156.23C1346.41 1154.95 1345.36 1153.89 1344.07 1153.89H195.491C194.205 1153.89 193.152 1154.95 193.152 1156.23V1203.4C193.152 1204.69 194.205 1205.74 195.491 1205.74Z" fill="url(#paint6_linear_744_4842)"/>
<path d="M1242.28 1100.05H311.893C302.601 1100.05 294.999 1092.45 294.999 1083.16L289.42 584.263C289.222 566.55 303.698 552.174 321.409 552.494L1242.28 569.133C1251.57 569.133 1259.17 576.735 1259.17 586.026V1083.16C1259.17 1092.45 1251.57 1100.05 1242.28 1100.05Z" fill="#BDD0FB"/>
<path d="M1253.65 1113.03H300.049C297.26 1113.03 294.999 1110.77 294.999 1107.98V1063.02H1259.17V1107.51C1259.17 1110.56 1256.7 1113.03 1253.65 1113.03Z" fill="url(#paint7_linear_744_4842)"/>
<path d="M1259.17 1078.9H294.999V1093.14H1259.17V1078.9Z" fill="#7D97F4"/>
<path d="M604.138 1079.18H294.999V1093.42H604.138V1079.18Z" fill="#91B3FA"/>
<path d="M612.641 1089.07C613.799 1081.94 608.955 1075.22 601.821 1074.06C594.687 1072.9 587.965 1077.75 586.807 1084.88C585.649 1092.02 590.494 1098.74 597.628 1099.9C604.762 1101.05 611.484 1096.21 612.641 1089.07Z" fill="#BDD0FB"/>
<mask id="mask0_744_4842" style="mask-type:luminance" maskUnits="userSpaceOnUse" x="337" y="533" width="923" height="531">
<path d="M1259.17 533.531H337.206V1063.02H1259.17V533.531Z" fill="white"/>
</mask>
<g mask="url(#mask0_744_4842)">
<path d="M375.228 1059.59H737.906V628.769H378.08C376.505 628.769 375.228 630.046 375.228 631.621V1059.59Z" fill="url(#paint8_linear_744_4842)"/>
<path d="M433.942 1059.61H782.545V632.742C782.545 630.709 780.897 629.061 778.863 629.061H433.942V1059.61Z" fill="url(#paint9_linear_744_4842)"/>
<path opacity="0.37" d="M619.189 753.459L578.918 757.804C573.283 758.412 568.475 753.765 568.89 748.112L577.694 628.318C594.575 627.783 611.227 627.392 627.294 627.118V744.433C627.294 749.07 623.8 752.962 619.189 753.459Z" fill="white"/>
<path d="M602.684 732.696C602.56 734.851 600.774 736.513 598.643 736.513C598.564 736.513 598.485 736.51 598.406 736.505C596.172 736.376 594.466 734.461 594.598 732.227L600.67 627.675C603.393 627.608 606.094 627.547 608.794 627.487L602.684 732.696Z" fill="white"/>
<path d="M524.74 662.003C528.954 661.871 534.068 664.439 534.545 668.154C536.155 680.712 535.749 704.494 536.129 713.875C536.206 715.773 534.481 719.721 532.344 719.754L461.603 720.841C459.349 720.875 457.703 716.962 457.823 714.955L460.456 670.897C460.687 667.028 464.256 663.906 468.603 663.769L524.74 662.003Z" fill="white"/>
<path d="M498.304 710.884C499.009 710.884 499.603 710.337 499.648 709.622L501.731 676.784C501.778 676.043 501.215 675.403 500.471 675.356C499.69 675.295 499.09 675.874 499.043 676.616L496.96 709.454C496.913 710.195 497.476 710.834 498.22 710.882C498.248 710.884 498.277 710.884 498.304 710.884Z" fill="url(#paint10_linear_744_4842)"/>
<path d="M494.017 710.885C494.74 710.885 495.34 710.312 495.364 709.583L496.455 676.117C496.478 675.373 495.895 674.75 495.153 674.726C494.296 674.684 493.788 675.286 493.762 676.027L492.67 709.494C492.647 710.238 493.231 710.861 493.972 710.885C493.972 710.885 494.004 710.885 494.017 710.885Z" fill="url(#paint11_linear_744_4842)"/>
<path d="M488.205 710.882C487.461 710.847 486.888 710.216 486.925 709.475C487.459 698.232 488.476 676.789 488.492 676.058C488.497 675.322 489.1 674.725 489.839 674.725C490.583 674.725 491.186 675.327 491.186 676.071C491.186 676.626 489.876 704.099 489.613 709.601C489.579 710.324 488.984 710.884 488.269 710.884C488.248 710.884 488.226 710.884 488.205 710.882Z" fill="url(#paint12_linear_744_4842)"/>
<path d="M479.293 712.231C480.737 712.231 481.931 711.087 481.981 709.633C483.119 677.208 482.92 676.476 482.788 675.992C482.399 674.554 480.905 673.71 479.482 674.102C478.164 674.462 477.341 675.74 477.521 677.057C477.607 679.006 477.005 697.872 476.6 709.443C476.548 710.929 477.71 712.178 479.196 712.228C479.227 712.231 479.261 712.231 479.293 712.231Z" fill="url(#paint13_linear_744_4842)"/>
<path d="M473.457 710.885C474.202 710.885 474.804 710.283 474.804 709.538V676.7C474.804 675.956 474.202 675.354 473.457 675.354C472.713 675.354 472.111 675.956 472.111 676.7V709.538C472.111 710.283 472.713 710.885 473.457 710.885Z" fill="url(#paint14_linear_744_4842)"/>
<path d="M468.745 710.884C469.476 710.884 470.076 710.301 470.091 709.57C470.349 698.159 470.952 679.522 471.491 677.281C471.727 676.858 471.724 676.321 471.441 675.885C471.033 675.259 470.199 675.091 469.576 675.498C468.843 675.979 468.146 676.435 467.399 709.507C467.383 710.251 467.972 710.866 468.714 710.885L468.745 710.884Z" fill="url(#paint15_linear_744_4842)"/>
<path d="M524.233 712.232C525.677 712.232 526.871 711.088 526.921 709.634C528.06 677.209 527.86 676.478 527.728 675.993C527.339 674.555 525.845 673.711 524.423 674.103C523.105 674.463 522.282 675.741 522.461 677.058C522.548 679.007 521.945 697.873 521.541 709.444C521.488 710.93 522.65 712.179 524.136 712.229C524.168 712.232 524.202 712.232 524.233 712.232Z" fill="url(#paint16_linear_744_4842)"/>
<path d="M518.398 710.885C519.142 710.885 519.745 710.283 519.745 709.539V676.701C519.745 675.957 519.143 675.354 518.398 675.354C517.654 675.354 517.052 675.956 517.052 676.701V709.539C517.052 710.283 517.654 710.885 518.398 710.885Z" fill="url(#paint17_linear_744_4842)"/>
<path d="M513.686 710.885C514.417 710.885 515.016 710.302 515.032 709.571C515.29 698.16 515.892 679.523 516.431 677.282C516.668 676.859 516.666 676.322 516.381 675.886C515.974 675.26 515.14 675.092 514.517 675.499C513.783 675.98 513.086 676.436 512.339 709.508C512.324 710.252 512.912 710.867 513.654 710.886L513.686 710.885Z" fill="url(#paint18_linear_744_4842)"/>
<path d="M505.549 713.875C506.971 713.875 508.16 712.76 508.236 711.321L510.032 676.84C510.109 675.354 508.967 674.089 507.482 674.01C506.072 673.91 504.731 675.075 504.652 676.561L502.856 711.043C502.779 712.528 503.921 713.793 505.407 713.872C505.454 713.875 505.501 713.875 505.549 713.875Z" fill="url(#paint19_linear_744_4842)"/>
</g>
<mask id="mask1_744_4842" style="mask-type:luminance" maskUnits="userSpaceOnUse" x="337" y="533" width="923" height="531">
<path d="M1259.17 533.531H337.206V1063.02H1259.17V533.531Z" fill="white"/>
</mask>
<g mask="url(#mask1_744_4842)">
<path d="M1257.3 1063.02H348.324V1045.01C348.324 1042.19 350.609 1039.91 353.427 1039.91H1252.89C1255.32 1039.91 1257.3 1041.89 1257.3 1044.32V1063.02Z" fill="#7D97F4"/>
</g>
<mask id="mask2_744_4842" style="mask-type:luminance" maskUnits="userSpaceOnUse" x="337" y="533" width="923" height="531">
<path d="M1259.17 533.531H337.206V1063.02H1259.17V533.531Z" fill="white"/>
</mask>
<g mask="url(#mask2_744_4842)">
<path d="M997.008 772.04H697.293V1040.88H997.008V772.04Z" fill="url(#paint20_linear_744_4842)"/>
<path d="M702.438 1062.71H564.623L564.709 793.871L697.293 772.04L702.438 1062.71Z" fill="url(#paint21_linear_744_4842)"/>
<path d="M989.748 1042.39L891.79 1062.71V793.871L997.008 772.04V1033.47C997.008 1037.79 993.976 1041.51 989.748 1042.39Z" fill="url(#paint22_linear_744_4842)"/>
<path d="M891.79 1062.71H566.168C565.362 1062.71 564.709 1062.06 564.709 1061.25V793.87H891.79V1062.71Z" fill="url(#paint23_linear_744_4842)"/>
<path d="M564.709 795.292L530.49 867.295C529.242 869.921 531.117 872.96 534.023 873.024L836.096 879.628L891.79 795.292H564.709Z" fill="url(#paint24_linear_744_4842)"/>
<path d="M644.917 977.938C649.132 977.805 654.246 980.374 654.722 984.089C656.332 996.647 655.927 1020.43 656.306 1029.81C656.383 1031.71 654.658 1035.66 652.521 1035.69L581.78 1036.78C579.526 1036.81 577.88 1032.9 578 1030.89L580.633 986.832C580.865 982.963 584.433 979.84 588.78 979.703L644.917 977.938Z" fill="white"/>
<path d="M618.482 1026.82C619.187 1026.82 619.781 1026.27 619.825 1025.56L621.908 992.72C621.955 991.978 621.393 991.339 620.649 991.291C619.868 991.231 619.268 991.81 619.221 992.551L617.138 1025.39C617.091 1026.13 617.653 1026.77 618.398 1026.82C618.426 1026.82 618.455 1026.82 618.482 1026.82Z" fill="url(#paint25_linear_744_4842)"/>
<path d="M614.195 1026.82C614.918 1026.82 615.518 1026.25 615.542 1025.52L616.633 992.052C616.656 991.307 616.072 990.684 615.331 990.66C614.473 990.618 613.966 991.22 613.94 991.962L612.848 1025.43C612.825 1026.17 613.408 1026.8 614.15 1026.82C614.15 1026.82 614.182 1026.82 614.195 1026.82Z" fill="url(#paint26_linear_744_4842)"/>
<path d="M608.383 1026.82C607.639 1026.78 607.066 1026.15 607.103 1025.41C607.636 1014.17 608.654 992.725 608.67 991.994C608.675 991.257 609.278 990.66 610.017 990.66C610.761 990.66 611.363 991.263 611.363 992.007C611.363 992.562 610.053 1020.04 609.791 1025.54C609.756 1026.26 609.162 1026.82 608.447 1026.82C608.425 1026.82 608.404 1026.82 608.383 1026.82Z" fill="url(#paint27_linear_744_4842)"/>
<path d="M599.471 1028.17C600.915 1028.17 602.109 1027.02 602.158 1025.57C603.297 993.142 603.097 992.411 602.966 991.927C602.576 990.488 601.083 989.645 599.66 990.036C598.342 990.397 597.519 991.675 597.698 992.992C597.785 994.941 597.183 1013.81 596.778 1025.38C596.726 1026.86 597.888 1028.11 599.374 1028.16C599.405 1028.17 599.439 1028.17 599.471 1028.17Z" fill="url(#paint28_linear_744_4842)"/>
<path d="M593.635 1026.82C594.38 1026.82 594.982 1026.22 594.982 1025.47V992.635C594.982 991.89 594.38 991.288 593.635 991.288C592.891 991.288 592.289 991.89 592.289 992.635V1025.47C592.289 1026.22 592.891 1026.82 593.635 1026.82Z" fill="url(#paint29_linear_744_4842)"/>
<path d="M588.923 1026.82C589.654 1026.82 590.253 1026.24 590.269 1025.51C590.527 1014.09 591.129 995.457 591.668 993.217C591.905 992.793 591.902 992.257 591.618 991.82C591.211 991.194 590.377 991.026 589.754 991.434C589.02 991.915 588.323 992.37 587.576 1025.44C587.561 1026.19 588.15 1026.8 588.891 1026.82L588.923 1026.82Z" fill="url(#paint30_linear_744_4842)"/>
<path d="M644.411 1028.17C645.855 1028.17 647.049 1027.02 647.099 1025.57C648.238 993.142 648.038 992.411 647.906 991.927C647.517 990.488 646.023 989.645 644.6 990.036C643.282 990.397 642.46 991.675 642.639 992.992C642.726 994.941 642.123 1013.81 641.719 1025.38C641.666 1026.86 642.828 1028.11 644.314 1028.16C644.346 1028.17 644.38 1028.17 644.411 1028.17Z" fill="url(#paint31_linear_744_4842)"/>
<path d="M638.576 1026.82C639.32 1026.82 639.923 1026.22 639.923 1025.47V992.635C639.923 991.891 639.321 991.289 638.576 991.289C637.831 991.289 637.229 991.891 637.229 992.635V1025.47C637.23 1026.22 637.831 1026.82 638.576 1026.82Z" fill="url(#paint32_linear_744_4842)"/>
<path d="M633.863 1026.82C634.595 1026.82 635.194 1026.24 635.21 1025.51C635.468 1014.09 636.07 995.457 636.609 993.217C636.846 992.793 636.843 992.257 636.559 991.82C636.152 991.194 635.318 991.026 634.695 991.434C633.961 991.915 633.264 992.37 632.517 1025.44C632.501 1026.19 633.09 1026.8 633.832 1026.82L633.863 1026.82Z" fill="url(#paint33_linear_744_4842)"/>
<path d="M625.726 1029.81C627.149 1029.81 628.338 1028.69 628.414 1027.26L630.21 992.774C630.287 991.288 629.145 990.023 627.659 989.944C626.25 989.845 624.909 991.01 624.83 992.496L623.034 1026.98C622.957 1028.46 624.099 1029.73 625.584 1029.81C625.632 1029.81 625.679 1029.81 625.726 1029.81Z" fill="url(#paint34_linear_744_4842)"/>
</g>
<mask id="mask3_744_4842" style="mask-type:luminance" maskUnits="userSpaceOnUse" x="337" y="533" width="923" height="531">
<path d="M1259.17 533.531H337.206V1063.02H1259.17V533.531Z" fill="white"/>
</mask>
<g mask="url(#mask3_744_4842)">
<path d="M1070.17 1056.28C1079.08 1057.05 1094.55 1058.3 1106.74 1058.84C1114.07 1059.16 1118.28 1058.44 1120.71 1057.47C1120.71 1057.74 1120.7 1058 1120.69 1058.24C1120.63 1059.52 1119.59 1060.55 1118.3 1060.62C1095.26 1061.91 1076.94 1061.07 1070.42 1060.67C1069.07 1060.59 1068.27 1059.12 1068.96 1057.97C1069.3 1057.4 1069.72 1056.84 1070.17 1056.28Z" fill="url(#paint35_linear_744_4842)"/>
<path d="M1106.74 1058.84C1094.55 1058.3 1079.08 1057.05 1070.17 1056.28C1078.93 1045.53 1106.74 1038.29 1106.74 1038.29H1114.59C1119.99 1046.07 1120.77 1053.49 1120.71 1057.47C1118.28 1058.44 1114.07 1059.16 1106.74 1058.84Z" fill="url(#paint36_linear_744_4842)"/>
<path d="M1115.91 1025.47L1115.18 1040.01C1115.1 1041.59 1113.92 1042.91 1112.34 1043.13C1110.77 1043.36 1108.67 1043.39 1106.44 1042.65C1105.07 1042.19 1104.05 1041.03 1103.8 1039.63L1101.26 1025.47H1115.91Z" fill="url(#paint37_linear_744_4842)"/>
<path d="M1217.91 1058.73C1221.77 1058.19 1223.52 1056.18 1224.25 1054.04C1224.26 1054.06 1224.26 1054.08 1224.27 1054.09C1224.83 1056.36 1223.52 1058.7 1220.88 1059.82C1217.7 1061.17 1214.22 1061.4 1211.51 1061.29C1208.61 1061.17 1205.95 1059.97 1204.49 1058.05L1204.47 1058.02C1207.38 1059.46 1211.46 1059.63 1217.91 1058.73Z" fill="url(#paint38_linear_744_4842)"/>
<path d="M1199.69 1025.38H1206.17C1216.03 1025.17 1222.22 1045.98 1224.25 1054.04C1223.52 1056.18 1221.77 1058.19 1217.91 1058.73C1211.46 1059.63 1207.38 1059.46 1204.47 1058.02C1199.14 1051 1196.49 1040.73 1195.22 1034.74C1193.78 1027.92 1199.69 1025.38 1199.69 1025.38Z" fill="url(#paint39_linear_744_4842)"/>
<path d="M1205.33 1011.88L1208.93 1026.18C1209.37 1027.94 1208.53 1029.75 1206.91 1030.58C1204.9 1031.61 1202.06 1032.7 1199.46 1032.38C1198.24 1032.24 1197.22 1031.37 1196.82 1030.22L1191.54 1015.17L1205.33 1011.88Z" fill="url(#paint40_linear_744_4842)"/>
<path d="M1209.62 1016.01C1205.15 1019.98 1190.6 1020.51 1190.6 1020.51C1138.18 894.696 1116.73 876.823 1116.73 876.823C1124.3 924.309 1117.95 1029.44 1117.95 1029.44C1109.3 1033.26 1098.15 1029.44 1098.15 1029.44C1097.45 951.697 1085.5 883.898 1071.38 830.448C1106.81 829.651 1125.65 817.528 1131.81 812.662C1161.34 860.274 1209.62 1016.01 1209.62 1016.01Z" fill="url(#paint41_linear_744_4842)"/>
<path d="M1122.81 667.98C1129.51 701.429 1127.11 761.297 1125.53 788.604C1125.09 796.28 1130.45 806.92 1134.78 814.179C1135.46 815.318 1135.04 816.775 1133.86 817.381C1126.61 821.108 1102.04 832.657 1073.58 834.094C1071.68 834.189 1069.98 832.897 1069.49 831.061C1048.37 752.212 1023.85 701.828 1023.85 701.828C1050.93 658.585 1122.81 667.98 1122.81 667.98Z" fill="url(#paint42_linear_744_4842)"/>
<path d="M1113.16 873.845C1113.46 873.845 1113.76 873.764 1114.03 873.599C1114.82 873.115 1115.07 872.084 1114.59 871.294C1114.31 870.83 1107.53 859.87 1093.81 853.25C1092.97 852.85 1091.97 853.196 1091.56 854.032C1091.16 854.867 1091.51 855.872 1092.35 856.274C1105.14 862.446 1111.66 872.935 1111.72 873.04C1112.04 873.557 1112.59 873.845 1113.16 873.845Z" fill="url(#paint43_linear_744_4842)"/>
<path d="M1164.87 763.979C1162.72 779.561 1156.35 796.558 1143.62 814.612L1138.78 810.666C1138.78 810.666 1144.37 788 1141.19 762.275C1149.05 760.743 1158.32 762.323 1164.87 763.979Z" fill="url(#paint44_linear_744_4842)"/>
<path d="M1115.32 709.252L1122.81 667.98C1122.81 667.98 1172.85 706.234 1164.87 763.979C1158.32 762.322 1149.05 760.743 1141.19 762.275C1138.91 743.744 1132.07 723.627 1115.32 709.252Z" fill="url(#paint45_linear_744_4842)"/>
<path d="M1023.85 701.827L1043.16 743.429C1040.04 768.546 1026.55 779.406 1012 783.571C1011.09 772.124 1008.2 762.876 1005.51 756.479C1024.1 737.287 1023.85 701.827 1023.85 701.827Z" fill="url(#paint46_linear_744_4842)"/>
<path d="M1005.51 756.479C1008.2 762.876 1011.09 772.124 1012 783.571C973.186 798.631 962.917 769.425 962.917 769.425L970.09 768.159C986.289 769.866 997.605 764.644 1005.51 756.479Z" fill="url(#paint47_linear_744_4842)"/>
<path d="M1041.64 650.466L1050.97 684.749C1052.02 688.6 1056.18 690.668 1059.89 689.186C1063.89 687.588 1068.96 685.405 1073.33 683.047C1077.99 680.53 1079.45 674.532 1076.5 670.131L1057.11 641.222L1041.64 650.466Z" fill="url(#paint48_linear_744_4842)"/>
<path d="M945.127 746.484L1184.09 833.458C1194.11 837.105 1198.9 848.517 1194.49 858.226L1193.76 859.82C1189.86 868.41 1179.7 872.177 1171.14 868.216L939.109 760.877L945.127 746.484Z" fill="url(#paint49_linear_744_4842)"/>
<path opacity="0.23" d="M835.29 810.003C900.439 810.003 953.253 758.142 953.253 694.167C953.253 630.193 900.439 578.332 835.29 578.332C770.141 578.332 717.327 630.193 717.327 694.167C717.327 758.142 770.141 810.003 835.29 810.003Z" fill="white"/>
<path d="M704.028 694.167C704.028 765.353 762.796 823.061 835.29 823.061C907.784 823.061 966.551 765.354 966.551 694.167C966.551 622.982 907.784 565.273 835.29 565.273C762.796 565.273 704.028 622.982 704.028 694.167ZM723.31 694.167C723.31 633.438 773.445 584.207 835.29 584.207C897.135 584.207 947.27 633.438 947.27 694.167C947.27 754.896 897.135 804.127 835.29 804.127C773.445 804.127 723.31 754.896 723.31 694.167Z" fill="url(#paint50_linear_744_4842)"/>
<path d="M956.46 710.127C955.977 710.065 955.637 709.624 955.697 709.141C956.082 706.114 956.353 703.051 956.5 700.035C956.523 699.549 956.847 699.163 957.426 699.198C957.91 699.221 958.286 699.635 958.263 700.121C958.112 703.182 957.838 706.291 957.447 709.363C957.391 709.808 957.011 710.134 956.572 710.134C956.537 710.134 956.497 710.132 956.46 710.127ZM954.804 673.366C953.339 665.198 950.993 657.167 947.828 649.495C947.828 649.494 947.828 649.493 947.825 649.491C929.177 604.25 885.004 575.016 835.289 575.016C812.107 575.016 789.57 581.456 770.117 593.64C769.702 593.898 769.155 593.776 768.901 593.361C768.642 592.948 768.766 592.404 769.179 592.145C788.915 579.786 811.773 573.253 835.29 573.253C885.72 573.253 930.534 602.915 949.456 648.817L949.458 648.819C952.67 656.608 955.051 664.763 956.539 673.056C956.626 673.535 956.306 673.994 955.828 674.079C955.774 674.088 955.723 674.093 955.672 674.093C955.252 674.092 954.881 673.793 954.804 673.366Z" fill="#91B3FA"/>
<path d="M1021.24 624.42C1021.16 625.009 1029.02 663.542 1029.02 663.542L1050.93 658.584L1048.9 620.956C1048.9 620.956 1022.66 614.564 1021.24 624.42Z" fill="url(#paint51_linear_744_4842)"/>
<path d="M1043.97 629.34L1046.59 649.065C1046.62 649.318 1046.62 649.568 1046.59 649.821C1046.37 651.367 1045.22 656.631 1039.9 655.125C1035.08 653.76 1030.66 652.585 1027.61 653.519C1026.24 653.938 1025.41 655.327 1025.7 656.732C1026.41 660.232 1028.17 668.091 1030.74 674.686C1031.26 676.025 1032.73 676.727 1034.1 676.325C1038.26 675.114 1046.95 672.314 1053.41 668.424C1054.29 667.897 1054.81 666.944 1054.77 665.923C1054.56 660.943 1053.98 645.806 1054.47 641.563C1054.93 637.581 1059.81 635.195 1061.94 634.339C1062.63 634.059 1063.18 633.51 1063.46 632.813C1064.44 630.349 1065.8 624.646 1058.61 622.31C1057.11 621.82 1056.31 620.199 1056.85 618.71C1057.91 615.747 1058.36 611.225 1052.8 608.734C1047.15 606.201 1042.93 609.214 1040.65 611.662C1039.73 612.651 1038.25 612.802 1037.11 612.08C1036.46 611.669 1035.62 611.534 1034.61 612.165C1033.24 613.015 1031.44 612.436 1030.73 610.99C1029.38 608.212 1026.62 605.237 1021.09 606.185C1011.27 607.866 1010.16 618.743 1012.75 625.118C1015.34 631.492 1025.88 629.065 1031.16 625.851C1035.18 623.408 1040.4 625.969 1042.67 627.337C1043.39 627.771 1043.86 628.508 1043.97 629.34Z" fill="url(#paint52_linear_744_4842)"/>
<path d="M1055.35 648.755C1055.35 648.755 1051.31 637.454 1055.46 634.686C1059.6 631.919 1065.74 633.356 1064.39 641.542C1062.71 651.725 1055.35 648.755 1055.35 648.755Z" fill="url(#paint53_linear_744_4842)"/>
<path d="M1140.78 809.979L1118.19 808.138L1108.4 817.156C1108.4 817.156 1110.72 820.356 1117.95 818.517C1125.19 816.677 1135.1 816.226 1135.1 816.226C1135.1 816.226 1145.09 820.73 1145.21 812.303L1140.78 809.979Z" fill="url(#paint54_linear_744_4842)"/>
<path d="M965.794 774.769C963.84 776.295 957.147 773.108 953.051 770.906C951.054 769.832 950.088 767.498 950.773 765.337C951.759 762.229 953.401 758.217 955.425 757.711C958.782 756.871 973.844 768.479 965.794 774.769Z" fill="url(#paint55_linear_744_4842)"/>
<path d="M1179.37 864.871C1179.47 864.871 1179.57 864.856 1179.66 864.824C1189 861.596 1191.17 856.081 1191.35 852.023C1191.6 846.092 1187.88 840.588 1182.08 838.326L1153.38 827.137C1152.94 826.96 1152.42 827.182 1152.24 827.638C1152.06 828.092 1152.29 828.604 1152.74 828.781L1181.44 839.969C1186.53 841.957 1189.81 846.77 1189.58 851.946C1189.36 857.054 1185.83 860.825 1179.09 863.156C1178.63 863.316 1178.38 863.817 1178.54 864.278C1178.67 864.643 1179.01 864.871 1179.37 864.871Z" fill="#91B3FA"/>
<path d="M1144.22 825.393C1144.58 825.393 1144.91 825.179 1145.04 824.832C1145.22 824.377 1145 823.867 1144.54 823.689L1140.82 822.24C1140.38 822.061 1139.86 822.288 1139.68 822.741C1139.5 823.196 1139.73 823.707 1140.18 823.884L1143.9 825.333C1144.01 825.374 1144.12 825.393 1144.22 825.393Z" fill="#91B3FA"/>
</g>
<path d="M413.775 1309.76C401.394 1310.83 379.907 1312.57 362.967 1313.32C352.783 1313.77 346.921 1312.77 343.545 1311.42C343.551 1311.8 343.561 1312.16 343.576 1312.49C343.657 1314.27 345.105 1315.7 346.905 1315.8C378.914 1317.59 404.371 1316.42 413.433 1315.87C415.307 1315.75 416.424 1313.72 415.466 1312.12C414.987 1311.32 414.406 1310.54 413.775 1309.76Z" fill="url(#paint56_linear_744_4842)"/>
<path d="M362.967 1313.32C379.907 1312.57 401.394 1310.83 413.775 1309.76C401.603 1294.83 362.967 1284.76 362.967 1284.76H352.055C344.549 1295.58 343.463 1305.88 343.545 1311.42C346.921 1312.77 352.784 1313.77 362.967 1313.32Z" fill="url(#paint57_linear_744_4842)"/>
<path d="M350.217 1266.95L351.238 1287.16C351.349 1289.34 352.987 1291.18 355.178 1291.5C357.359 1291.81 360.279 1291.85 363.375 1290.82C365.28 1290.18 366.695 1288.58 367.046 1286.62L370.575 1266.95H350.217Z" fill="url(#paint58_linear_744_4842)"/>
<path d="M223.569 1333.07C218.2 1332.11 215.771 1328.5 214.752 1324.65C214.745 1324.68 214.739 1324.72 214.732 1324.75C213.942 1328.82 215.773 1333.03 219.434 1335.03C223.859 1337.46 228.697 1337.87 232.453 1337.67C236.483 1337.45 240.182 1335.3 242.215 1331.85L242.246 1331.8C238.201 1334.38 232.523 1334.69 223.569 1333.07Z" fill="url(#paint59_linear_744_4842)"/>
<path d="M248.883 1273.17H239.884C226.177 1272.81 217.569 1310.18 214.751 1324.65C215.77 1328.5 218.199 1332.11 223.568 1333.07C232.522 1334.69 238.201 1334.38 242.245 1331.8C249.651 1319.2 253.322 1300.76 255.087 1289.99C257.095 1277.75 248.883 1273.17 248.883 1273.17Z" fill="url(#paint60_linear_744_4842)"/>
<path d="M241.041 1254.42L236.044 1274.29C235.431 1276.73 236.597 1279.25 238.85 1280.41C241.646 1281.84 245.582 1283.35 249.199 1282.91C250.9 1282.71 252.313 1281.51 252.875 1279.91L260.211 1259L241.041 1254.42Z" fill="url(#paint61_linear_744_4842)"/>
<path d="M416.824 992.658C416.824 992.658 372.168 1271.79 372.904 1273.33C372.904 1273.33 360.57 1278.93 347.125 1274.04C347.125 1274.04 351.163 1124.82 360.625 1067.61C360.625 1067.61 284.413 1200.98 260.211 1267.44C260.211 1267.44 247.588 1265.93 237.139 1259.06C237.139 1259.06 319.198 1018.99 341.091 987.02L416.824 992.658Z" fill="url(#paint62_linear_744_4842)"/>
<path d="M362.408 1066.16C362.168 1066.16 361.927 1066.09 361.71 1065.96C361.092 1065.57 360.905 1064.76 361.291 1064.14L377.979 1037.48C378.171 1037.18 378.481 1036.96 378.836 1036.89L391.117 1034.42C391.835 1034.28 392.527 1034.74 392.671 1035.45C392.814 1036.17 392.351 1036.86 391.638 1037.01L379.914 1039.37L363.527 1065.54C363.276 1065.94 362.846 1066.16 362.408 1066.16Z" fill="url(#paint63_linear_744_4842)"/>
<path d="M621.745 719.324C621.745 719.324 591.613 725.97 573.285 734.432C569.645 736.113 566.741 739.051 565.088 742.674C559.606 754.681 543.207 784.79 511.402 799.159C515.982 805.238 523.357 817.883 526.57 839.137C545.672 824.919 562.163 801.176 570.08 762.236C570.08 762.236 576.109 765.514 583.63 761.861C587.603 759.931 592.191 757.194 595.635 755.041C599.067 752.896 601.622 749.562 602.615 745.667C603.926 740.525 603.154 736.003 603.154 731.152L618.642 726.353C618.643 726.353 623.299 724.596 621.745 719.324Z" fill="url(#paint64_linear_744_4842)"/>
<path d="M526.57 839.137C523.358 817.883 515.983 805.238 511.403 799.158C491.646 808.085 465.945 810.938 433.218 799.598C430.201 798.553 427.054 797.94 423.864 797.753C406.442 796.732 349.03 794.868 301.523 810.563C291.525 813.867 283.427 821.258 279.254 830.835C266.403 860.326 245.597 927.489 303.356 961.397C307.794 950.379 312.916 941.524 317.295 935.017C307.993 919.328 305.239 897.899 321.745 869.993C333.781 902.493 339.427 949.914 340.607 970.9C340.996 977.809 339.784 984.706 337.073 991.085L336.777 991.781C336.197 993.146 336.995 994.715 338.455 995.042C370.971 1002.35 404.79 1000.36 414.894 999.527C416.698 999.378 418.197 998.088 418.611 996.344C434.422 929.72 434.458 884.274 430.587 855.544C445.377 858.851 490.606 865.904 526.57 839.137Z" fill="url(#paint65_linear_744_4842)"/>
<path d="M430.65 857.336C429.999 857.336 429.432 856.854 429.344 856.191C425.63 828.14 418.069 815.898 417.993 815.777C417.605 815.162 417.788 814.347 418.403 813.957C419.016 813.571 419.831 813.75 420.221 814.365C420.544 814.872 428.159 827.13 431.959 855.845C432.054 856.567 431.546 857.23 430.824 857.325C430.766 857.333 430.708 857.336 430.65 857.336Z" fill="url(#paint66_linear_744_4842)"/>
<path d="M350.406 758.943C350.406 758.943 347.116 793.724 344.22 804.012C343.78 805.572 344.458 807.218 345.876 808.029C350.792 810.838 362.582 815.419 378.708 807.515C381.321 806.235 382.892 803.511 382.77 800.629L381.349 767.02L350.406 758.943Z" fill="url(#paint67_linear_744_4842)"/>
<path d="M382.059 714.447C382.059 714.447 392.58 738.616 393.287 751.301C393.993 763.987 396.726 772.218 382.059 774.773C367.391 777.328 355.035 770.02 348.341 757.384C348.341 757.384 337.852 737.913 340.205 729.939C342.558 721.965 382.059 714.447 382.059 714.447Z" fill="url(#paint68_linear_744_4842)"/>
<path d="M353.353 748.3L354.188 747.931C355.251 747.463 355.706 746.197 355.172 745.166C353.103 741.17 349.071 732.012 354.28 729.875C360.993 727.122 387.585 721.7 393.322 712.264C398.836 703.196 393.95 691.491 386.607 688.161C386.116 687.938 385.537 688.115 385.285 688.592L384.673 689.75C384.254 690.542 383.083 690.422 382.834 689.561C382.595 688.734 381.495 688.574 381.039 689.304C379.275 692.127 374.514 696.703 361.782 699.053C343.687 702.392 331.724 709.715 331.426 722.219C331.407 723.014 330.562 723.455 329.883 723.042C328.547 722.227 326.409 721.846 323.552 724.248C318.582 728.427 320.616 739.266 331.51 748.183C332.027 748.606 332.023 749.414 331.462 749.779C329.487 751.064 326.543 754.124 334.172 758.201C342.063 762.42 347.955 762.073 350.224 761.699C350.788 761.606 351.152 761.059 351.029 760.501L348.607 749.511C348.47 748.889 348.944 748.3 349.58 748.3H353.353Z" fill="url(#paint69_linear_744_4842)"/>
<path d="M353.808 750.619C353.808 750.619 349.795 735.18 342.873 739.509C335.951 743.837 346.464 756.807 352.029 757.385L353.808 750.619Z" fill="url(#paint70_linear_744_4842)"/>
<path d="M578.116 758.644C577.824 758.644 577.53 758.548 577.286 758.348C576.721 757.89 576.635 757.059 577.095 756.493C578.235 755.091 588.347 742.727 592.243 740.528C593.66 739.726 594.505 738.899 594.684 738.136C594.771 737.772 594.713 737.362 594.507 736.895L582.626 739.277L575.894 745.052C575.344 745.527 574.509 745.465 574.035 744.911C573.56 744.358 573.624 743.526 574.177 743.051L581.17 737.049C581.341 736.903 581.547 736.802 581.769 736.757L594.922 734.121C595.449 734.015 595.978 734.236 596.275 734.678C597.239 736.108 597.559 737.438 597.251 738.741C596.887 740.281 595.674 741.618 593.539 742.823C590.609 744.479 582.152 754.454 579.14 758.158C578.881 758.479 578.5 758.644 578.116 758.644Z" fill="url(#paint71_linear_744_4842)"/>
<path d="M353.297 978.113L399.803 978.689L383.527 963.368C379.481 959.56 373.306 958.943 368.636 961.972C365.902 963.745 362.937 966.153 360.367 969.341C360.367 969.341 331.358 958.739 317.294 935.019C312.914 941.525 307.793 950.381 303.355 961.398C315.962 968.799 332.305 974.619 353.297 978.113Z" fill="url(#paint72_linear_744_4842)"/>
<path d="M358.308 984.111C358.398 984.115 358.489 984.118 358.58 984.117L476.629 983.99C479.547 983.987 481.91 981.644 481.907 978.757C481.904 975.868 479.528 973.482 476.617 973.534L358.568 973.662C355.65 973.664 353.287 976.007 353.29 978.895C353.293 981.692 355.516 983.974 358.308 984.111Z" fill="url(#paint73_linear_744_4842)"/>
<path d="M582.75 878.062H484.438C477.185 878.062 470.584 882.203 467.491 888.693L422.041 984.049H544.217C548.89 984.049 553.089 981.223 554.807 976.922L590.052 888.685C592.088 883.587 588.29 878.062 582.75 878.062Z" fill="url(#paint74_linear_744_4842)"/>
<path d="M528.153 931.714C530.308 925.173 528.766 918.787 524.707 917.449C520.649 916.112 515.612 920.33 513.456 926.87C511.3 933.411 512.843 939.797 516.901 941.135C520.96 942.472 525.997 938.254 528.153 931.714Z" fill="#7D97F4"/>
<path d="M1154.67 407.864C1200.02 414.194 1248.84 443.512 1253.19 493.006C1256.89 535.093 1212.28 557.031 1184.59 567.311C1176.86 570.179 1170.47 575.775 1166.58 583.04C1157.28 600.424 1135.88 630.624 1103.35 620.257C1100.98 619.502 1101.25 616.047 1103.7 615.637C1111.5 614.333 1122.26 610.933 1128.22 602.104C1136.34 590.078 1129.08 573.658 1114.8 571.043C1087.79 566.095 1035.06 548.292 1028.13 484.513C1018.76 398.258 1154.67 407.864 1154.67 407.864Z" fill="url(#paint75_linear_744_4842)"/>
<path d="M1143 480.639C1143 480.639 1135.04 452.806 1107.84 463.342C1082.07 473.323 1098.21 508.062 1140.65 523.474C1145.26 525.145 1150.38 524.464 1154.4 521.671C1169.45 511.214 1203.72 483.103 1176.7 459.595C1159.25 444.414 1143 480.639 1143 480.639Z" fill="white"/>
<path opacity="0.7" d="M1229.75 461.413C1230.1 461.34 1230.45 461.195 1230.76 460.977C1232.02 460.105 1232.33 458.382 1231.46 457.128C1208.1 423.492 1167.19 414.872 1136.99 413.565C1135.46 413.496 1134.18 414.683 1134.11 416.208C1134.04 417.734 1135.23 419.024 1136.75 419.09C1165.7 420.344 1204.85 428.507 1226.91 460.283C1227.57 461.222 1228.7 461.632 1229.75 461.413Z" fill="white"/>
<path opacity="0.7" d="M1243.78 497.789C1245.1 497.514 1246.06 496.302 1245.98 494.914C1245.96 494.687 1245.61 489.252 1243.17 481.246C1242.72 479.785 1241.18 478.957 1239.71 479.409C1238.25 479.854 1237.43 481.399 1237.88 482.86C1240.13 490.247 1240.45 495.201 1240.45 495.25C1240.55 496.774 1241.86 497.934 1243.38 497.842C1243.52 497.834 1243.65 497.816 1243.78 497.789Z" fill="white"/>
</g>
<defs>
<linearGradient id="paint0_linear_744_4842" x1="1483.09" y1="1674.08" x2="462.507" y2="406.58" gradientUnits="userSpaceOnUse">
<stop stop-color="#DAE3FE"/>
<stop offset="1" stop-color="#E9EFFD"/>
</linearGradient>
<linearGradient id="paint1_linear_744_4842" x1="883.121" y1="450.883" x2="949.616" y2="450.883" gradientUnits="userSpaceOnUse">
<stop stop-color="#DAE3FE"/>
<stop offset="1" stop-color="#E9EFFD"/>
</linearGradient>
<linearGradient id="paint2_linear_744_4842" x1="835.142" y1="451.348" x2="998.653" y2="451.348" gradientUnits="userSpaceOnUse">
<stop stop-color="#DAE3FE"/>
<stop offset="1" stop-color="#E9EFFD"/>
</linearGradient>
<linearGradient id="paint3_linear_744_4842" x1="657.943" y1="344.544" x2="703.239" y2="344.544" gradientUnits="userSpaceOnUse">
<stop stop-color="#DAE3FE"/>
<stop offset="1" stop-color="#E9EFFD"/>
</linearGradient>
<linearGradient id="paint4_linear_744_4842" x1="624.539" y1="344.865" x2="737.347" y2="344.865" gradientUnits="userSpaceOnUse">
<stop stop-color="#DAE3FE"/>
<stop offset="1" stop-color="#E9EFFD"/>
</linearGradient>
<linearGradient id="paint5_linear_744_4842" x1="750.901" y1="1185.03" x2="812.965" y2="494.923" gradientUnits="userSpaceOnUse">
<stop stop-color="#09005D"/>
<stop offset="1" stop-color="#1A0F91"/>
</linearGradient>
<linearGradient id="paint6_linear_744_4842" x1="772.234" y1="642.604" x2="769.453" y2="1251.72" gradientUnits="userSpaceOnUse">
<stop stop-color="#09005D"/>
<stop offset="1" stop-color="#1A0F91"/>
</linearGradient>
<linearGradient id="paint7_linear_744_4842" x1="779.736" y1="1018.02" x2="751.8" y2="1727.59" gradientUnits="userSpaceOnUse">
<stop stop-color="#4F52FF"/>
<stop offset="1" stop-color="#4042E2"/>
</linearGradient>
<linearGradient id="paint8_linear_744_4842" x1="207.086" y1="839.379" x2="841.661" y2="848.091" gradientUnits="userSpaceOnUse">
<stop stop-color="#FEBBBA"/>
<stop offset="1" stop-color="#FF928E"/>
</linearGradient>
<linearGradient id="paint9_linear_744_4842" x1="387.619" y1="458.746" x2="568.249" y2="775.545" gradientUnits="userSpaceOnUse">
<stop stop-color="#FF928E"/>
<stop offset="1" stop-color="#FE7062"/>
</linearGradient>
<linearGradient id="paint10_linear_744_4842" x1="483.066" y1="669.463" x2="569.239" y2="794.684" gradientUnits="userSpaceOnUse">
<stop stop-color="#09005D"/>
<stop offset="1" stop-color="#1A0F91"/>
</linearGradient>
<linearGradient id="paint11_linear_744_4842" x1="479.968" y1="671.597" x2="566.141" y2="796.816" gradientUnits="userSpaceOnUse">
<stop stop-color="#09005D"/>
<stop offset="1" stop-color="#1A0F91"/>
</linearGradient>
<linearGradient id="paint12_linear_744_4842" x1="476.229" y1="674.169" x2="562.402" y2="799.39" gradientUnits="userSpaceOnUse">
<stop stop-color="#09005D"/>
<stop offset="1" stop-color="#1A0F91"/>
</linearGradient>
<linearGradient id="paint13_linear_744_4842" x1="469.762" y1="678.619" x2="555.935" y2="803.84" gradientUnits="userSpaceOnUse">
<stop stop-color="#09005D"/>
<stop offset="1" stop-color="#1A0F91"/>
</linearGradient>
<linearGradient id="paint14_linear_744_4842" x1="465.498" y1="681.554" x2="551.671" y2="806.774" gradientUnits="userSpaceOnUse">
<stop stop-color="#09005D"/>
<stop offset="1" stop-color="#1A0F91"/>
</linearGradient>
<linearGradient id="paint15_linear_744_4842" x1="462.851" y1="683.375" x2="549.024" y2="808.595" gradientUnits="userSpaceOnUse">
<stop stop-color="#09005D"/>
<stop offset="1" stop-color="#1A0F91"/>
</linearGradient>
<linearGradient id="paint16_linear_744_4842" x1="514.703" y1="678.62" x2="600.876" y2="803.84" gradientUnits="userSpaceOnUse">
<stop stop-color="#09005D"/>
<stop offset="1" stop-color="#1A0F91"/>
</linearGradient>
<linearGradient id="paint17_linear_744_4842" x1="510.439" y1="681.554" x2="596.612" y2="806.775" gradientUnits="userSpaceOnUse">
<stop stop-color="#09005D"/>
<stop offset="1" stop-color="#1A0F91"/>
</linearGradient>
<linearGradient id="paint18_linear_744_4842" x1="507.792" y1="683.376" x2="593.964" y2="808.595" gradientUnits="userSpaceOnUse">
<stop stop-color="#09005D"/>
<stop offset="1" stop-color="#1A0F91"/>
</linearGradient>
<linearGradient id="paint19_linear_744_4842" x1="487.5" y1="666.413" x2="573.673" y2="791.633" gradientUnits="userSpaceOnUse">
<stop stop-color="#09005D"/>
<stop offset="1" stop-color="#1A0F91"/>
</linearGradient>
<linearGradient id="paint20_linear_744_4842" x1="847.915" y1="887.781" x2="863.198" y2="514.013" gradientUnits="userSpaceOnUse">
<stop stop-color="#E1473D"/>
<stop offset="1" stop-color="#E9605A"/>
</linearGradient>
<linearGradient id="paint21_linear_744_4842" x1="691.337" y1="536.78" x2="666.327" y2="706.295" gradientUnits="userSpaceOnUse">
<stop stop-color="#E1473D"/>
<stop offset="1" stop-color="#E9605A"/>
</linearGradient>
<linearGradient id="paint22_linear_744_4842" x1="1376.03" y1="845.88" x2="1149.54" y2="883.396" gradientUnits="userSpaceOnUse">
<stop stop-color="#FF928E"/>
<stop offset="1" stop-color="#FE7062"/>
</linearGradient>
<linearGradient id="paint23_linear_744_4842" x1="728.986" y1="1173.55" x2="726.809" y2="446.401" gradientUnits="userSpaceOnUse">
<stop stop-color="#FF928E"/>
<stop offset="1" stop-color="#FE7062"/>
</linearGradient>
<linearGradient id="paint24_linear_744_4842" x1="663.108" y1="872.24" x2="1046.48" y2="514.71" gradientUnits="userSpaceOnUse">
<stop stop-color="#FEBBBA"/>
<stop offset="1" stop-color="#FF928E"/>
</linearGradient>
<linearGradient id="paint25_linear_744_4842" x1="603.244" y1="985.399" x2="689.417" y2="1110.62" gradientUnits="userSpaceOnUse">
<stop stop-color="#09005D"/>
<stop offset="1" stop-color="#1A0F91"/>
</linearGradient>
<linearGradient id="paint26_linear_744_4842" x1="600.145" y1="987.531" x2="686.318" y2="1112.75" gradientUnits="userSpaceOnUse">
<stop stop-color="#09005D"/>
<stop offset="1" stop-color="#1A0F91"/>
</linearGradient>
<linearGradient id="paint27_linear_744_4842" x1="596.407" y1="990.104" x2="682.58" y2="1115.32" gradientUnits="userSpaceOnUse">
<stop stop-color="#09005D"/>
<stop offset="1" stop-color="#1A0F91"/>
</linearGradient>
<linearGradient id="paint28_linear_744_4842" x1="589.94" y1="994.554" x2="676.113" y2="1119.77" gradientUnits="userSpaceOnUse">
<stop stop-color="#09005D"/>
<stop offset="1" stop-color="#1A0F91"/>
</linearGradient>
<linearGradient id="paint29_linear_744_4842" x1="585.676" y1="997.488" x2="671.849" y2="1122.71" gradientUnits="userSpaceOnUse">
<stop stop-color="#09005D"/>
<stop offset="1" stop-color="#1A0F91"/>
</linearGradient>
<linearGradient id="paint30_linear_744_4842" x1="583.029" y1="999.31" x2="669.202" y2="1124.53" gradientUnits="userSpaceOnUse">
<stop stop-color="#09005D"/>
<stop offset="1" stop-color="#1A0F91"/>
</linearGradient>
<linearGradient id="paint31_linear_744_4842" x1="634.881" y1="994.554" x2="721.054" y2="1119.77" gradientUnits="userSpaceOnUse">
<stop stop-color="#09005D"/>
<stop offset="1" stop-color="#1A0F91"/>
</linearGradient>
<linearGradient id="paint32_linear_744_4842" x1="630.617" y1="997.489" x2="716.791" y2="1122.71" gradientUnits="userSpaceOnUse">
<stop stop-color="#09005D"/>
<stop offset="1" stop-color="#1A0F91"/>
</linearGradient>
<linearGradient id="paint33_linear_744_4842" x1="627.97" y1="999.311" x2="714.142" y2="1124.53" gradientUnits="userSpaceOnUse">
<stop stop-color="#09005D"/>
<stop offset="1" stop-color="#1A0F91"/>
</linearGradient>
<linearGradient id="paint34_linear_744_4842" x1="607.678" y1="982.348" x2="693.851" y2="1107.57" gradientUnits="userSpaceOnUse">
<stop stop-color="#09005D"/>
<stop offset="1" stop-color="#1A0F91"/>
</linearGradient>
<linearGradient id="paint35_linear_744_4842" x1="1093.35" y1="882.206" x2="1093.81" y2="941.953" gradientUnits="userSpaceOnUse">
<stop stop-color="#4F52FF"/>
<stop offset="1" stop-color="#4042E2"/>
</linearGradient>
<linearGradient id="paint36_linear_744_4842" x1="1120.72" y1="1048.6" x2="1070.17" y2="1048.6" gradientUnits="userSpaceOnUse">
<stop stop-color="#09005D"/>
<stop offset="1" stop-color="#1A0F91"/>
</linearGradient>
<linearGradient id="paint37_linear_744_4842" x1="1115.91" y1="1034.37" x2="1101.26" y2="1034.37" gradientUnits="userSpaceOnUse">
<stop stop-color="#FEBBBA"/>
<stop offset="1" stop-color="#FF928E"/>
</linearGradient>
<linearGradient id="paint38_linear_744_4842" x1="1213.07" y1="881.278" x2="1213.54" y2="941.025" gradientUnits="userSpaceOnUse">
<stop stop-color="#4F52FF"/>
<stop offset="1" stop-color="#4042E2"/>
</linearGradient>
<linearGradient id="paint39_linear_744_4842" x1="1224.25" y1="1042.33" x2="1195" y2="1042.33" gradientUnits="userSpaceOnUse">
<stop stop-color="#09005D"/>
<stop offset="1" stop-color="#1A0F91"/>
</linearGradient>
<linearGradient id="paint40_linear_744_4842" x1="1209.05" y1="1022.16" x2="1191.54" y2="1022.16" gradientUnits="userSpaceOnUse">
<stop stop-color="#FEBBBA"/>
<stop offset="1" stop-color="#FF928E"/>
</linearGradient>
<linearGradient id="paint41_linear_744_4842" x1="1167.21" y1="566.024" x2="1140.43" y2="924.181" gradientUnits="userSpaceOnUse">
<stop stop-color="#4F52FF"/>
<stop offset="1" stop-color="#4042E2"/>
</linearGradient>
<linearGradient id="paint42_linear_744_4842" x1="988.871" y1="656.685" x2="1390.23" y2="1005.76" gradientUnits="userSpaceOnUse">
<stop stop-color="#4F52FF"/>
<stop offset="1" stop-color="#4042E2"/>
</linearGradient>
<linearGradient id="paint43_linear_744_4842" x1="1150.05" y1="957.323" x2="1141.66" y2="940.545" gradientUnits="userSpaceOnUse">
<stop stop-color="#09005D"/>
<stop offset="1" stop-color="#1A0F91"/>
</linearGradient>
<linearGradient id="paint44_linear_744_4842" x1="1128.83" y1="766.962" x2="1191.16" y2="822.152" gradientUnits="userSpaceOnUse">
<stop stop-color="#FEBBBA"/>
<stop offset="1" stop-color="#FF928E"/>
</linearGradient>
<linearGradient id="paint45_linear_744_4842" x1="1022.33" y1="619.692" x2="1421.88" y2="967.197" gradientUnits="userSpaceOnUse">
<stop stop-color="#4F52FF"/>
<stop offset="1" stop-color="#4042E2"/>
</linearGradient>
<linearGradient id="paint46_linear_744_4842" x1="959.523" y1="691.906" x2="1359.07" y2="1039.41" gradientUnits="userSpaceOnUse">
<stop stop-color="#4F52FF"/>
<stop offset="1" stop-color="#4042E2"/>
</linearGradient>
<linearGradient id="paint47_linear_744_4842" x1="1012" y1="772.182" x2="962.917" y2="772.182" gradientUnits="userSpaceOnUse">
<stop stop-color="#FEBBBA"/>
<stop offset="1" stop-color="#FF928E"/>
</linearGradient>
<linearGradient id="paint48_linear_744_4842" x1="1059.71" y1="641.014" x2="1060.25" y2="732.673" gradientUnits="userSpaceOnUse">
<stop stop-color="#FEBBBA"/>
<stop offset="1" stop-color="#FF928E"/>
</linearGradient>
<linearGradient id="paint49_linear_744_4842" x1="924.23" y1="720.429" x2="1183.37" y2="864.934" gradientUnits="userSpaceOnUse">
<stop stop-color="#09005D"/>
<stop offset="1" stop-color="#1A0F91"/>
</linearGradient>
<linearGradient id="paint50_linear_744_4842" x1="710.745" y1="624.722" x2="976.134" y2="772.701" gradientUnits="userSpaceOnUse">
<stop stop-color="#09005D"/>
<stop offset="1" stop-color="#1A0F91"/>
</linearGradient>
<linearGradient id="paint51_linear_744_4842" x1="1029.97" y1="625.943" x2="1066.1" y2="691.459" gradientUnits="userSpaceOnUse">
<stop stop-color="#FEBBBA"/>
<stop offset="1" stop-color="#FF928E"/>
</linearGradient>
<linearGradient id="paint52_linear_744_4842" x1="1071.1" y1="635.765" x2="914.56" y2="655.558" gradientUnits="userSpaceOnUse">
<stop stop-color="#09005D"/>
<stop offset="1" stop-color="#1A0F91"/>
</linearGradient>
<linearGradient id="paint53_linear_744_4842" x1="1088.62" y1="682.16" x2="1058.1" y2="640.246" gradientUnits="userSpaceOnUse">
<stop stop-color="#FEBBBA"/>
<stop offset="1" stop-color="#FF928E"/>
</linearGradient>
<linearGradient id="paint54_linear_744_4842" x1="1104.22" y1="794.756" x2="1166.55" y2="849.946" gradientUnits="userSpaceOnUse">
<stop stop-color="#FEBBBA"/>
<stop offset="1" stop-color="#FF928E"/>
</linearGradient>
<linearGradient id="paint55_linear_744_4842" x1="968.131" y1="766.418" x2="950.554" y2="766.418" gradientUnits="userSpaceOnUse">
<stop stop-color="#FEBBBA"/>
<stop offset="1" stop-color="#FF928E"/>
</linearGradient>
<linearGradient id="paint56_linear_744_4842" x1="376.318" y1="1179.06" x2="381.876" y2="1399.52" gradientUnits="userSpaceOnUse">
<stop stop-color="#4F52FF"/>
<stop offset="1" stop-color="#4042E2"/>
</linearGradient>
<linearGradient id="paint57_linear_744_4842" x1="343.541" y1="1299.1" x2="413.775" y2="1299.1" gradientUnits="userSpaceOnUse">
<stop stop-color="#09005D"/>
<stop offset="1" stop-color="#1A0F91"/>
</linearGradient>
<linearGradient id="paint58_linear_744_4842" x1="350.217" y1="1279.32" x2="370.574" y2="1279.32" gradientUnits="userSpaceOnUse">
<stop stop-color="#A22B25"/>
<stop offset="1" stop-color="#C0423C"/>
</linearGradient>
<linearGradient id="paint59_linear_744_4842" x1="231.823" y1="1192.17" x2="227.191" y2="1377.43" gradientUnits="userSpaceOnUse">
<stop stop-color="#4F52FF"/>
<stop offset="1" stop-color="#4042E2"/>
</linearGradient>
<linearGradient id="paint60_linear_744_4842" x1="214.752" y1="1303.62" x2="255.403" y2="1303.62" gradientUnits="userSpaceOnUse">
<stop stop-color="#09005D"/>
<stop offset="1" stop-color="#1A0F91"/>
</linearGradient>
<linearGradient id="paint61_linear_744_4842" x1="235.882" y1="1268.7" x2="260.211" y2="1268.7" gradientUnits="userSpaceOnUse">
<stop stop-color="#A22B25"/>
<stop offset="1" stop-color="#C0423C"/>
</linearGradient>
<linearGradient id="paint62_linear_744_4842" x1="535.259" y1="421.986" x2="460.228" y2="697.1" gradientUnits="userSpaceOnUse">
<stop stop-color="#4F52FF"/>
<stop offset="1" stop-color="#4042E2"/>
</linearGradient>
<linearGradient id="paint63_linear_744_4842" x1="435.76" y1="298.603" x2="399.633" y2="759.904" gradientUnits="userSpaceOnUse">
<stop stop-color="#09005D"/>
<stop offset="1" stop-color="#1A0F91"/>
</linearGradient>
<linearGradient id="paint64_linear_744_4842" x1="570.517" y1="756.238" x2="474.16" y2="881.596" gradientUnits="userSpaceOnUse">
<stop stop-color="#A22B25"/>
<stop offset="1" stop-color="#C0423C"/>
</linearGradient>
<linearGradient id="paint65_linear_744_4842" x1="365.821" y1="686.823" x2="236.587" y2="-105.252" gradientUnits="userSpaceOnUse">
<stop stop-color="#4F52FF"/>
<stop offset="1" stop-color="#4042E2"/>
</linearGradient>
<linearGradient id="paint66_linear_744_4842" x1="508.393" y1="638.825" x2="445.867" y2="786.108" gradientUnits="userSpaceOnUse">
<stop stop-color="#4F52FF"/>
<stop offset="1" stop-color="#4042E2"/>
</linearGradient>
<linearGradient id="paint67_linear_744_4842" x1="363.432" y1="739.812" x2="363.432" y2="862.78" gradientUnits="userSpaceOnUse">
<stop stop-color="#A22B25"/>
<stop offset="1" stop-color="#C0423C"/>
</linearGradient>
<linearGradient id="paint68_linear_744_4842" x1="351.13" y1="693.172" x2="376.835" y2="773.066" gradientUnits="userSpaceOnUse">
<stop stop-color="#A22B25"/>
<stop offset="1" stop-color="#C0423C"/>
</linearGradient>
<linearGradient id="paint69_linear_744_4842" x1="341.924" y1="699.283" x2="397.941" y2="771.404" gradientUnits="userSpaceOnUse">
<stop stop-color="#09005D"/>
<stop offset="1" stop-color="#1A0F91"/>
</linearGradient>
<linearGradient id="paint70_linear_744_4842" x1="331.669" y1="699.434" x2="357.374" y2="779.328" gradientUnits="userSpaceOnUse">
<stop stop-color="#A22B25"/>
<stop offset="1" stop-color="#C0423C"/>
</linearGradient>
<linearGradient id="paint71_linear_744_4842" x1="583.378" y1="748.815" x2="616.725" y2="630.016" gradientUnits="userSpaceOnUse">
<stop stop-color="#A22B25"/>
<stop offset="1" stop-color="#C0423C"/>
</linearGradient>
<linearGradient id="paint72_linear_744_4842" x1="352.899" y1="890.883" x2="351.046" y2="1002.04" gradientUnits="userSpaceOnUse">
<stop stop-color="#A22B25"/>
<stop offset="1" stop-color="#C0423C"/>
</linearGradient>
<linearGradient id="paint73_linear_744_4842" x1="338.287" y1="952.804" x2="431.99" y2="983.537" gradientUnits="userSpaceOnUse">
<stop stop-color="#09005D"/>
<stop offset="1" stop-color="#1A0F91"/>
</linearGradient>
<linearGradient id="paint74_linear_744_4842" x1="467.258" y1="892.116" x2="534.342" y2="963.02" gradientUnits="userSpaceOnUse">
<stop stop-color="#09005D"/>
<stop offset="1" stop-color="#1A0F91"/>
</linearGradient>
<linearGradient id="paint75_linear_744_4842" x1="1258.43" y1="284.158" x2="1186.18" y2="407.82" gradientUnits="userSpaceOnUse">
<stop stop-color="#FF928E"/>
<stop offset="1" stop-color="#FE7062"/>
</linearGradient>
<clipPath id="clip0_744_4842">
<rect width="1535" height="1535" fill="white"/>
</clipPath>
</defs>
</svg>
