<svg width="1535" height="1535" viewBox="0 0 1535 1535" fill="none" xmlns="http://www.w3.org/2000/svg">
<g clip-path="url(#clip0_744_4636)">
<path d="M1211.2 1179.01C1187.51 1203.72 1165.09 1219.66 1147.38 1232.25C939.189 1380.25 692.842 1337.11 640.486 1326.58C563.174 1311.02 413.73 1280.94 305.684 1155.06C142.221 964.604 167.675 664.547 294.468 466.476C317.661 430.245 440.17 229.156 689.17 196.908C839.863 177.392 1015.52 216.754 1142.73 322.344C1409.75 543.988 1390.74 991.747 1211.2 1179.01Z" fill="url(#paint0_linear_744_4636)"/>
<path d="M434.078 398.105C427.98 363.096 523.354 304.179 496.196 233.82L425.064 206.925C425.064 206.925 432.568 301.681 408.217 336.096C383.865 370.512 368.458 348.012 372.775 322.696C377.092 297.381 417.18 235.005 402.29 207.037C402.29 207.037 390.333 184.972 365.247 205.794C340.162 226.615 286.55 206.853 269.905 188.255C269.905 188.255 270.345 202.902 255.729 236.482C241.114 270.062 224.001 302.815 253.199 318.341C282.396 333.868 327.043 338.699 326.234 359.049C325.425 379.398 242.319 387.564 217.603 326.58C217.603 326.58 190.285 378.217 195.53 395.691C200.775 413.165 231.629 431.716 280.463 420.921C329.298 410.124 354.899 419.804 354.293 435.066C353.686 450.328 207.398 460.423 190.405 409.245C190.405 409.245 181.426 517.732 187.249 530.262C193.072 542.791 256.926 542.837 295.138 528.023C333.351 513.211 371.704 527.713 379.983 541.171C388.262 554.629 336.655 545.443 312.889 553.669C289.124 561.895 186.139 552.217 186.139 552.217C186.139 552.217 198.339 560.273 200.763 597.336C203.186 634.399 228.84 694.015 251.467 688.801C274.094 683.586 376.115 637.82 411.195 635.593C446.275 633.366 474.918 639.032 458.952 651.928C442.986 664.826 397.732 668.37 366.051 680.489C334.37 692.607 256.809 733.852 238.003 719.856C238.003 719.856 269.641 814.44 362.967 822.186C362.967 822.186 406.44 797.314 429.073 755.956C451.707 714.597 463.058 698.234 479.257 700.915C495.455 703.598 479.549 732.009 464.781 757.408C450.014 782.806 416.87 842.567 394.908 846.313C394.908 846.313 536.053 849.765 554.819 755.305C572.419 666.72 563.18 655.792 561.963 654.775C566.755 658.229 712.583 761.468 766.08 568.391C766.08 568.391 741.552 609.032 709.94 605.686C678.328 602.34 628.262 628.161 627.694 605.57C627.125 582.979 741.914 595.4 763.201 551.811C784.487 508.221 760.078 438.287 709.677 420.32C709.677 420.32 710.678 464.822 670.401 492.623C630.123 520.425 568.281 546.959 581.269 510.559C594.256 474.16 711.595 421.506 716.402 389.212C721.207 356.92 623.549 296.543 623.549 296.543C623.549 296.543 622.267 313.59 597.41 365.674C572.553 417.758 533.555 471.863 526.826 457.27C520.098 442.677 548.043 409.157 571.889 378.251C595.734 347.345 607.849 298.138 592.096 284.65C576.344 271.163 518.276 242.167 518.276 242.167C518.276 242.167 499.723 315.151 494.541 349.004C489.356 382.86 440.176 433.114 434.078 398.105ZM558.33 582.71C526.375 617.024 526.655 577.402 532.617 550.688C537.143 530.409 590.285 548.396 558.33 582.71ZM506.896 509.98C486.277 533.166 470.535 529.941 472.214 512.782C476.073 473.356 527.515 486.793 506.896 509.98ZM443.63 439.584C433.259 452.876 425.844 455.236 419.273 437.26C412.702 419.284 454 426.293 443.63 439.584Z" fill="#BDD0FB"/>
<path d="M1349.26 760.859C1337.11 1037.53 1085.18 1251.18 786.538 1238.07C487.901 1224.96 255.655 990.052 267.8 713.383C279.946 436.714 531.885 223.058 830.522 236.168C1129.16 249.278 1361.41 484.191 1349.26 760.859Z" fill="url(#paint1_linear_744_4636)"/>
<path opacity="0.11" d="M779.236 1102.16C1013.8 1102.16 1203.95 922.531 1203.95 700.944C1203.95 479.357 1013.8 299.725 779.236 299.725C544.673 299.725 354.523 479.357 354.523 700.944C354.523 922.531 544.673 1102.16 779.236 1102.16Z" fill="white"/>
<g opacity="0.68">
<path d="M946.802 739.543C946.672 827.983 940.607 916.602 925.021 1003.79C921.075 1025.57 916.501 1047.24 911.051 1068.71C905.584 1090.17 899.273 1111.45 891.545 1132.25C883.752 1152.99 874.708 1173.44 862.443 1192.13C856.263 1201.4 849.253 1210.29 840.602 1217.6C836.278 1221.23 831.529 1224.45 826.305 1226.81C821.093 1229.16 815.396 1230.64 809.614 1230.75C803.839 1230.92 798.056 1229.79 792.741 1227.64C787.405 1225.52 782.54 1222.45 778.112 1218.94C769.254 1211.85 762.09 1203.06 755.799 1193.86C743.317 1175.31 734.15 1154.9 726.276 1134.19C718.45 1113.42 712.077 1092.17 706.562 1070.72C701.058 1049.26 696.437 1027.6 692.459 1005.83C684.519 962.274 679.104 918.302 675.45 874.21C671.822 830.11 670.004 785.869 669.78 741.622C669.671 719.501 670.275 697.384 671.061 675.28C671.89 653.177 673.107 631.088 674.734 609.029C678.006 564.917 682.893 520.903 690.158 477.25C693.803 455.429 698.053 433.7 703.166 412.163C708.292 390.634 714.248 369.276 721.637 348.38C725.35 337.942 729.411 327.616 734.042 317.532C738.665 307.45 743.839 297.589 749.92 288.265C756.015 278.983 763.022 270.122 771.747 263.029C776.108 259.514 780.914 256.455 786.179 254.383C791.423 252.284 797.113 251.221 802.772 251.436C808.435 251.597 814.018 253.01 819.169 255.278C824.327 257.557 829.067 260.657 833.418 264.171C842.121 271.244 849.325 279.891 855.715 288.971C868.42 307.258 877.998 327.426 886.294 347.946C894.53 368.523 901.33 389.632 907.253 410.959C913.155 432.297 918.153 453.872 922.478 475.574C939.594 562.458 946.546 651.088 946.802 739.543ZM940.255 739.543C940.336 695.476 938.662 651.398 934.999 607.484C931.389 563.571 925.919 519.785 917.77 476.483C913.701 454.836 908.962 433.31 903.323 412.024C897.664 390.747 891.132 369.689 883.179 349.175C875.17 328.719 865.881 308.621 853.556 290.464C847.36 281.45 840.371 272.888 831.984 265.923C827.793 262.461 823.242 259.419 818.317 257.178C813.398 254.965 808.099 253.514 802.71 253.373C797.325 253.202 791.946 254.286 786.964 256.336C781.965 258.366 777.376 261.352 773.192 264.8C764.821 271.754 758.038 280.502 752.143 289.702C746.26 298.942 741.25 308.741 736.783 318.771C732.308 328.803 728.393 339.089 724.82 349.489C717.712 370.312 712.02 391.613 707.155 413.088C702.303 434.571 698.308 456.249 694.915 478.018C688.155 521.566 683.766 565.471 680.986 609.457C678.179 653.449 677.21 697.541 677.289 741.613C677.172 785.678 678.645 829.755 681.92 873.701C685.221 917.639 690.277 961.467 697.844 1004.86C701.636 1026.56 706.065 1048.14 711.372 1069.5C716.687 1090.86 722.855 1112.01 730.446 1132.63C738.079 1153.2 747.004 1173.43 759.067 1191.66C765.137 1200.69 772.045 1209.26 780.416 1216.06C784.599 1219.43 789.152 1222.35 794.073 1224.34C798.979 1226.35 804.244 1227.46 809.518 1227.28C814.791 1227.15 819.986 1225.75 824.809 1223.54C829.64 1221.31 834.095 1218.25 838.187 1214.75C846.378 1207.73 853.138 1199.05 859.101 1189.93C870.953 1171.56 879.75 1151.28 887.297 1130.68C894.786 1110.02 900.886 1088.85 906.147 1067.49C911.393 1046.11 915.769 1024.52 919.524 1002.82C927.04 959.413 932.033 915.58 935.354 871.642C938.719 827.701 940.273 783.619 940.255 739.543Z" fill="white"/>
<path d="M1169.91 739.543C1169.6 796.496 1162.28 853.473 1147.03 908.395C1131.52 963.191 1108.14 1015.91 1076.39 1063.23C1060.52 1086.87 1042.53 1109.12 1022.43 1129.31C1002.35 1149.49 980.13 1167.6 956.015 1182.78C931.877 1197.9 905.807 1210 878.517 1218.21C851.242 1226.44 822.77 1230.74 794.271 1230.77C765.773 1230.76 737.293 1226.5 710.004 1218.29C682.699 1210.1 656.608 1198.01 632.446 1182.91C608.305 1167.75 586.056 1149.65 565.936 1129.48C545.806 1109.3 527.785 1087.06 511.874 1063.42C480.062 1016.08 456.629 963.347 441.044 908.524C433.373 881.062 427.673 853.058 423.896 824.804C420.139 796.546 418.252 768.05 418.122 739.543C418.27 711.036 420.175 682.541 423.949 654.288C427.744 626.039 433.466 598.043 441.155 570.592C456.779 515.792 480.248 463.089 512.08 415.804C527.998 392.188 546.021 369.967 566.149 349.816C586.27 329.674 608.503 311.596 632.639 296.481C656.794 281.416 682.879 269.422 710.137 261.236C737.376 253.016 765.811 248.729 794.271 248.701C822.732 248.753 851.16 253.064 878.386 261.305C905.629 269.512 931.692 281.531 955.822 296.612C979.932 311.744 1002.13 329.837 1022.22 349.988C1042.31 370.148 1060.3 392.373 1076.18 415.99C1107.95 463.268 1131.37 515.947 1146.92 570.721C1162.2 625.623 1169.56 682.59 1169.91 739.543ZM1162.4 739.543C1162.32 683.237 1155.31 626.871 1140.45 572.518C1125.51 518.249 1103.02 465.856 1072.05 418.74C1056.58 395.206 1039 373.023 1019.31 352.859C999.621 332.726 977.869 314.511 954.079 299.372C930.261 284.317 904.539 272.199 877.569 264.004C850.613 255.801 822.468 251.49 794.272 251.396C766.076 251.514 737.939 255.849 710.995 264.072C684.039 272.29 658.34 284.432 634.547 299.502C610.784 314.659 589.064 332.889 569.403 353.03C549.751 373.203 532.211 395.39 516.771 418.924C485.869 466.035 463.424 518.404 448.558 572.646C441.153 599.798 435.791 627.484 432.158 655.376C428.516 683.272 426.718 711.403 426.656 739.543C426.736 767.682 428.551 795.811 432.21 823.702C435.861 851.589 441.245 879.267 448.669 906.408C463.573 960.628 486.055 1012.96 516.978 1060.02C532.423 1083.54 549.967 1105.7 569.617 1125.84C589.277 1145.95 610.981 1164.17 634.74 1179.28C658.527 1194.31 684.219 1206.36 711.128 1214.58C738.022 1222.81 766.113 1227.16 794.272 1227.31C822.431 1227.19 850.53 1222.86 877.438 1214.65C904.362 1206.46 930.075 1194.42 953.886 1179.41C977.671 1164.31 999.408 1146.12 1019.1 1126.02C1038.78 1105.88 1056.36 1083.72 1071.84 1060.21C1102.83 1013.14 1125.36 960.784 1140.34 906.537C1155.23 852.206 1162.28 795.849 1162.4 739.543Z" fill="white"/>
<path d="M355.936 546.151C355.664 546.149 355.445 545.926 355.447 545.654C355.449 545.384 355.668 545.166 355.936 545.164L468.744 544.253L581.552 543.737L807.168 543.32L1032.78 543.779L1145.59 544.343L1258.4 545.327C1258.58 545.329 1258.73 545.478 1258.73 545.661C1258.73 545.842 1258.58 545.988 1258.4 545.989L1145.59 546.973L1032.78 547.537L807.168 547.996L581.552 547.579L468.744 547.063L355.936 546.151Z" fill="white"/>
<path d="M486.321 356.707C486.325 356.44 486.542 356.226 486.807 356.221C513.503 355.798 540.2 355.617 566.897 355.31L646.987 354.794C673.684 354.573 700.381 354.597 727.078 354.529L807.168 354.377L967.348 354.836L1047.44 355.4C1074.14 355.734 1100.83 355.93 1127.53 356.384C1127.71 356.387 1127.86 356.538 1127.85 356.72C1127.85 356.899 1127.71 357.043 1127.53 357.046C1100.83 357.499 1074.14 357.695 1047.44 358.03L967.348 358.594L807.168 359.053L727.078 358.9C700.381 358.833 673.684 358.856 646.987 358.636L566.897 358.12C540.2 357.813 513.503 357.631 486.807 357.209C486.534 357.204 486.317 356.979 486.321 356.707Z" fill="white"/>
<path d="M316.734 735.094C316.462 735.092 316.243 734.87 316.244 734.598C316.246 734.328 316.465 734.11 316.734 734.108L439.343 733.2L561.951 732.68L807.168 732.264L1052.38 732.723L1174.99 733.287L1297.6 734.27C1297.78 734.272 1297.93 734.421 1297.93 734.604C1297.93 734.785 1297.78 734.931 1297.6 734.933L1174.99 735.916L1052.38 736.481L807.168 736.939L561.951 736.523L439.343 736.003L316.734 735.094Z" fill="white"/>
<path d="M355.936 923.052L468.744 922.14L581.552 921.624L807.168 921.207L1032.78 921.666L1145.59 922.23L1258.4 923.214C1258.58 923.215 1258.73 923.365 1258.73 923.548C1258.73 923.729 1258.58 923.875 1258.4 923.876L1145.59 924.86L1032.78 925.424L807.168 925.883L581.552 925.467L468.744 924.95L355.936 924.039C355.664 924.037 355.445 923.814 355.447 923.541C355.449 923.272 355.668 923.054 355.936 923.052Z" fill="white"/>
<path d="M1145.4 1112.49C1145.4 1113.44 1144.63 1114.22 1143.67 1114.22H502.949C501.993 1114.22 501.22 1113.44 501.22 1112.49C501.22 1111.53 501.993 1110.76 502.949 1110.76H1143.67C1144.63 1110.76 1145.4 1111.53 1145.4 1112.49Z" fill="white"/>
</g>
<path d="M1024.83 715.779C1038.06 716.853 1047.95 728.489 1046.88 741.717C1045.8 754.943 1034.17 764.832 1020.94 763.758C1007.71 762.684 997.823 751.048 998.897 737.821C999.971 724.594 1011.61 714.705 1024.83 715.779ZM1024.06 725.301C1016.08 724.653 1009.07 730.616 1008.42 738.594C1007.77 746.572 1013.73 753.59 1021.71 754.237C1029.69 754.885 1036.71 748.921 1037.35 740.943C1038 732.965 1032.04 725.948 1024.06 725.301Z" fill="white"/>
<path d="M1074.06 743.924C1076.36 715.704 1055.26 690.882 1027.04 688.591C1025.29 688.449 1023.56 688.404 1021.84 688.444C1019.53 688.498 1017.77 686.416 1018.3 684.166L1020.01 676.808C1020.39 675.202 1021.83 674.093 1023.48 674.105C1025.05 674.115 1026.62 674.18 1028.2 674.309C1064.3 677.239 1091.28 708.99 1088.35 745.084C1088.13 747.818 1087.73 750.497 1087.18 753.115C1086.77 755.076 1084.82 756.311 1082.88 755.815L1075.74 753.996C1073.94 753.536 1072.82 751.743 1073.19 749.918C1073.6 747.963 1073.9 745.965 1074.06 743.924Z" fill="white"/>
<path d="M1110.96 746.921C1114.9 698.355 1078.6 655.639 1030.04 651.696L1030 651.693C1027.87 651.521 1026.38 649.534 1026.86 647.458L1028.55 640.241C1029.96 639.207 1030.87 638.542 1032.28 637.508C1088.18 642.634 1129.8 692.004 1125.24 748.081C1124.85 752.975 1124.09 757.755 1123.03 762.411C1122.6 764.305 1120.66 765.445 1118.78 764.965L1111.65 763.15C1109.84 762.688 1108.69 760.875 1109.1 759.05C1109.99 755.107 1110.62 751.062 1110.96 746.921Z" fill="white"/>
<path d="M1147.86 749.916C1153.31 682.801 1104.57 623.579 1038.37 615.374C1036.29 615.117 1034.87 613.154 1035.34 611.114L1037.01 603.952C1037.42 602.214 1039.08 601.034 1040.85 601.263C1114.26 610.744 1168.19 676.533 1162.14 751.075C1161.57 758.077 1160.46 764.906 1158.9 771.548C1158.46 773.442 1156.52 774.583 1154.63 774.103L1147.52 772.29C1145.67 771.817 1144.57 769.949 1145 768.085C1146.37 762.188 1147.35 756.129 1147.86 749.916Z" fill="white"/>
<path d="M972.782 1298.46C972.573 1319.11 954.826 1335.86 933.138 1335.91L408.861 1337.05C387.016 1337.1 368.883 1320.36 368.364 1299.62L343.934 323.12C343.353 299.902 361.688 281.126 384.882 281.237L941.396 283.897C964.412 284.007 982.875 302.879 982.641 325.996L972.782 1298.46Z" fill="url(#paint2_linear_744_4636)"/>
<path d="M925.527 382.356C925.683 360.045 907.378 341.837 884.635 341.736L442.933 339.794C420.05 339.694 401.892 357.804 402.382 380.195L420.54 1210.46C420.984 1230.79 438.97 1247.21 460.706 1247.18L880.34 1246.51C901.95 1246.48 919.579 1230.05 919.722 1209.78L925.527 382.356Z" fill="#7D97F4"/>
<path d="M730.337 310.143C730.349 314.472 726.867 317.963 722.561 317.944L607.609 317.423C603.293 317.403 599.753 313.876 599.7 309.542C599.648 305.205 603.108 301.703 607.428 301.724L722.511 302.261C726.822 302.281 730.326 305.811 730.337 310.143Z" fill="url(#paint3_linear_744_4636)"/>
<g opacity="0.27">
<path d="M831.145 971.264L897.362 905.521L894.907 1044.22L831.287 971.421L831.145 971.264Z" fill="url(#paint4_linear_744_4636)"/>
<path d="M799.163 1003.02L892.754 1110.19L893.701 1111.28L891.003 1196.2C890.789 1204.34 886.428 1212.18 879.526 1217.97C873.44 1223.07 865.541 1226.19 857.274 1226.86L725.033 1076.65L799.163 1003.02Z" fill="url(#paint5_linear_744_4636)"/>
<path d="M877.641 862.664L802.052 938.015L770.166 969.809L696.029 1043.71L574.143 905.283L574.16 905.265L648.012 830.406L647.796 830.402L647.395 830.192V830.174L679.581 797.939L679.883 797.975L679.96 798.001L680.015 797.975L680.065 797.939L755.69 721.353L906.403 568.938L900.715 818.962L877.641 862.664Z" fill="url(#paint6_linear_744_4636)"/>
<path d="M798.957 1227.04L573.401 1227.21L693.622 1107.83L798.957 1227.04Z" fill="url(#paint7_linear_744_4636)"/>
<path d="M664.641 1075.01L511.926 1227.25L497.972 1227.26C488.677 1227.27 479.665 1224.13 472.901 1218.5C466.115 1212.87 462.128 1205.22 461.841 1197.21L455.489 1025.56L542.777 937.067L664.641 1075.01Z" fill="url(#paint8_linear_744_4636)"/>
<path d="M513.317 903.67L453.347 964.775L448.474 830.344L513.263 903.67H513.317Z" fill="white"/>
<path d="M758.264 654.338L637.063 513.396L764.759 381.281L870.16 380.603C892.599 380.459 910.13 398.22 909.583 420.428L907.578 502.385L758.264 654.338Z" fill="url(#paint9_linear_744_4636)"/>
<path d="M524.766 382.824L700.112 381.697L607.001 478.429L524.766 382.824Z" fill="url(#paint10_linear_744_4636)"/>
<path d="M604.857 546.725L726.038 687.125L650.505 764.008L618.716 796.367L545.82 871.641L448.156 759.289V759.272L444.936 713.24L444.672 712.988L604.857 546.725Z" fill="url(#paint11_linear_744_4636)"/>
<path d="M464.453 384.03L574.783 511.888L441.569 650.251L433.186 424.177C432.445 404.537 445.904 387.96 464.453 384.03Z" fill="url(#paint12_linear_744_4636)"/>
</g>
<path d="M665.554 430.392C665.554 433.791 662.799 436.546 659.4 436.546H467.18C463.781 436.546 461.026 433.791 461.026 430.392V430.358C461.026 426.959 463.781 424.204 467.18 424.204H659.4C662.799 424.204 665.554 426.959 665.554 430.358V430.392Z" fill="white"/>
<path d="M665.554 463.893C665.554 467.292 662.799 470.047 659.4 470.047H467.18C463.781 470.047 461.026 467.292 461.026 463.893V463.859C461.026 460.46 463.781 457.705 467.18 457.705H659.4C662.799 457.705 665.554 460.46 665.554 463.859V463.893Z" fill="white"/>
<path d="M665.554 497.393C665.554 500.792 662.799 503.547 659.4 503.547H467.18C463.781 503.547 461.026 500.792 461.026 497.393V497.359C461.026 493.96 463.781 491.205 467.18 491.205H659.4C662.799 491.205 665.554 493.96 665.554 497.359V497.393Z" fill="white"/>
<path d="M798.089 489.994C791.141 489.994 784.998 486.356 781.658 480.262C764.284 448.575 743.573 406.847 743.573 388.003C743.573 357.943 768.029 333.487 798.09 333.487C828.15 333.487 852.606 357.943 852.606 388.003C852.606 406.849 831.896 448.576 814.522 480.262C811.181 486.355 805.038 489.994 798.089 489.994ZM798.09 342.222C772.846 342.222 752.308 362.759 752.308 388.003C752.308 401.07 765.797 433.166 789.317 476.063C791.101 479.316 794.381 481.259 798.09 481.259C801.799 481.259 805.079 479.316 806.863 476.063C830.382 433.168 843.871 401.072 843.871 388.003C843.871 362.759 823.334 342.222 798.09 342.222Z" fill="white"/>
<path d="M798.09 422.264C779.863 422.264 765.034 407.435 765.034 389.208C765.034 370.981 779.863 356.152 798.09 356.152C816.317 356.152 831.146 370.981 831.146 389.208C831.146 407.435 816.317 422.264 798.09 422.264ZM798.09 364.887C784.68 364.887 773.769 375.797 773.769 389.208C773.769 402.619 784.679 413.529 798.09 413.529C811.501 413.529 822.41 402.619 822.41 389.208C822.41 375.798 811.5 364.887 798.09 364.887Z" fill="white"/>
<path d="M817.976 533.76C820.609 522.61 813.704 511.437 802.554 508.804C791.404 506.171 780.23 513.076 777.597 524.226C774.964 535.376 781.869 546.549 793.019 549.182C804.17 551.815 815.343 544.911 817.976 533.76Z" fill="white"/>
<path d="M835.552 1242.16C834.215 1242.16 832.886 1241.61 831.917 1240.55L822.512 1230.17C820.694 1228.16 820.847 1225.06 822.852 1223.24C824.859 1221.42 827.96 1221.58 829.778 1223.58L839.184 1233.96C841.002 1235.97 840.849 1239.07 838.843 1240.89C837.904 1241.74 836.725 1242.16 835.552 1242.16ZM812.039 1216.21C810.703 1216.21 809.373 1215.66 808.405 1214.6L798.999 1204.22C797.181 1202.21 797.334 1199.11 799.341 1197.29C801.349 1195.47 804.447 1195.63 806.265 1197.63L815.67 1208.01C817.488 1210.02 817.335 1213.12 815.33 1214.94C814.39 1215.79 813.213 1216.21 812.039 1216.21ZM788.525 1190.26C787.189 1190.26 785.859 1189.71 784.891 1188.65L775.485 1178.27C773.667 1176.26 773.82 1173.16 775.825 1171.34C777.836 1169.52 780.933 1169.68 782.751 1171.68L792.157 1182.06C793.975 1184.07 793.822 1187.17 791.816 1188.99C790.876 1189.84 789.699 1190.26 788.525 1190.26ZM765.012 1164.31C763.676 1164.31 762.346 1163.77 761.378 1162.7L751.972 1152.32C750.154 1150.31 750.308 1147.21 752.313 1145.39C754.323 1143.57 757.419 1143.73 759.238 1145.73L768.644 1156.11C770.462 1158.12 770.309 1161.22 768.302 1163.04C767.363 1163.89 766.186 1164.31 765.012 1164.31ZM741.498 1138.36C740.162 1138.36 738.832 1137.82 737.864 1136.75L728.458 1126.37C726.64 1124.36 726.794 1121.26 728.799 1119.44C730.805 1117.63 733.906 1117.78 735.724 1119.78L745.13 1130.16C746.948 1132.17 746.795 1135.27 744.789 1137.09C743.851 1137.94 742.672 1138.36 741.498 1138.36ZM717.986 1112.41C716.649 1112.41 715.32 1111.86 714.351 1110.8L704.946 1100.42C703.128 1098.41 703.281 1095.31 705.286 1093.49C707.296 1091.68 710.391 1091.83 712.212 1093.83L721.618 1104.21C723.436 1106.22 723.282 1109.32 721.277 1111.14C720.337 1111.99 719.159 1112.41 717.986 1112.41ZM694.472 1086.46C693.135 1086.46 691.804 1085.92 690.837 1084.85L681.433 1074.47C679.615 1072.46 679.768 1069.36 681.775 1067.54C683.783 1065.73 686.884 1065.88 688.7 1067.88L698.104 1078.26C699.922 1080.27 699.768 1083.37 697.762 1085.19C696.823 1086.04 695.645 1086.46 694.472 1086.46ZM670.959 1060.51C669.622 1060.51 668.293 1059.97 667.324 1058.9L657.919 1048.52C656.101 1046.51 656.254 1043.41 658.261 1041.59C660.269 1039.78 663.366 1039.93 665.185 1041.93L674.591 1052.31C676.409 1054.32 676.255 1057.42 674.25 1059.24C673.311 1060.09 672.132 1060.51 670.959 1060.51ZM647.445 1034.56C646.108 1034.56 644.777 1034.02 643.81 1032.95L634.406 1022.57C632.588 1020.56 632.741 1017.46 634.748 1015.64C636.756 1013.83 639.857 1013.98 641.672 1015.99L651.076 1026.37C652.894 1028.37 652.741 1031.47 650.735 1033.29C649.796 1034.14 648.619 1034.56 647.445 1034.56ZM623.932 1008.61C622.596 1008.61 621.266 1008.07 620.298 1007L610.892 996.618C609.074 994.613 609.227 991.512 611.232 989.694C613.239 987.877 616.337 988.029 618.158 990.035L627.564 1000.41C629.382 1002.42 629.228 1005.52 627.223 1007.34C626.283 1008.19 625.106 1008.61 623.932 1008.61ZM600.42 982.659C599.083 982.659 597.753 982.117 596.785 981.049L587.38 970.669C585.562 968.663 585.715 965.563 587.72 963.744C589.726 961.927 592.825 962.078 594.646 964.086L604.051 974.465C605.869 976.471 605.716 979.572 603.711 981.39C602.772 982.24 601.593 982.659 600.42 982.659ZM576.905 956.71C575.569 956.71 574.239 956.167 573.271 955.099L563.865 944.719C562.047 942.714 562.2 939.613 564.206 937.795C566.214 935.977 569.312 936.13 571.131 938.136L580.537 948.515C582.355 950.521 582.202 953.622 580.196 955.44C579.258 956.291 578.079 956.71 576.905 956.71ZM554.041 930.267C552.282 930.267 550.582 929.318 549.702 927.654C547.366 923.23 546.131 918.24 546.131 913.219C546.131 912.678 546.146 912.137 546.173 911.598C546.31 908.895 548.597 906.835 551.317 906.951C554.022 907.09 556.102 909.393 555.964 912.098C555.945 912.471 555.936 912.845 555.936 913.219C555.936 916.649 556.778 920.056 558.372 923.074C559.637 925.469 558.721 928.434 556.327 929.699C555.596 930.085 554.813 930.267 554.041 930.267ZM559.994 898.316C558.771 898.316 557.548 897.863 556.598 896.949C554.646 895.073 554.583 891.97 556.458 890.017L566.162 879.916C568.039 877.962 571.144 877.903 573.094 879.777C575.046 881.653 575.109 884.756 573.234 886.709L563.53 896.81C562.567 897.812 561.281 898.316 559.994 898.316ZM584.254 873.063C583.031 873.063 581.808 872.608 580.857 871.696C578.905 869.82 578.842 866.717 580.718 864.764L590.421 854.662C592.299 852.708 595.402 852.649 597.354 854.524C599.306 856.399 599.369 859.503 597.493 861.456L587.79 871.557C586.827 872.559 585.541 873.063 584.254 873.063ZM608.513 847.81C607.29 847.81 606.068 847.355 605.117 846.442C603.165 844.567 603.102 841.463 604.977 839.51L614.681 829.409C616.559 827.455 619.662 827.395 621.614 829.27C623.566 831.146 623.629 834.249 621.753 836.202L612.05 846.303C611.086 847.305 609.8 847.81 608.513 847.81ZM632.773 822.556C631.55 822.556 630.327 822.103 629.376 821.189C627.424 819.314 627.362 816.21 629.237 814.257L638.941 804.156C640.819 802.202 643.921 802.142 645.873 804.017C647.825 805.892 647.888 808.996 646.012 810.949L636.308 821.05C635.346 822.052 634.06 822.556 632.773 822.556ZM657.032 797.303C655.809 797.303 654.586 796.848 653.636 795.935C651.684 794.06 651.621 790.956 653.496 789.003L663.2 778.902C665.077 776.949 668.182 776.889 670.132 778.763C672.084 780.639 672.147 783.742 670.272 785.695L660.568 795.796C659.605 796.799 658.319 797.303 657.032 797.303ZM681.292 772.049C680.069 772.049 678.846 771.595 677.895 770.682C675.943 768.807 675.88 765.703 677.756 763.75L687.459 753.649C689.336 751.697 692.439 751.633 694.392 753.51C696.344 755.386 696.407 758.489 694.531 760.442L684.828 770.543C683.865 771.545 682.579 772.049 681.292 772.049ZM705.551 746.796C704.328 746.796 703.106 746.343 702.155 745.429C700.203 743.553 700.14 740.45 702.016 738.497L711.72 728.396C713.598 726.442 716.7 726.382 718.652 728.257C720.604 730.133 720.667 733.236 718.791 735.189L709.088 745.29C708.125 746.292 706.839 746.796 705.551 746.796ZM729.811 721.543C728.588 721.543 727.365 721.089 726.415 720.176C724.462 718.3 724.4 715.197 726.275 713.244L735.979 703.143C737.857 701.189 740.959 701.13 742.911 703.004C744.863 704.88 744.926 707.983 743.05 709.936L733.346 720.037C732.384 721.039 731.098 721.543 729.811 721.543ZM754.071 696.289C752.848 696.289 751.625 695.835 750.674 694.922C748.722 693.047 748.659 689.943 750.535 687.99L760.238 677.889C762.115 675.938 765.217 675.873 767.171 677.75C769.123 679.626 769.186 682.729 767.31 684.682L757.607 694.783C756.643 695.785 755.358 696.289 754.071 696.289ZM778.33 671.036C777.107 671.036 775.885 670.582 774.934 669.669C772.982 667.793 772.919 664.69 774.794 662.737L784.498 652.636C786.376 650.682 789.479 650.622 791.43 652.497C793.382 654.372 793.445 657.476 791.57 659.429L781.866 669.53C780.903 670.532 779.617 671.036 778.33 671.036ZM802.589 645.783C801.366 645.783 800.144 645.329 799.193 644.416C797.241 642.54 797.178 639.437 799.054 637.484L808.758 627.383C810.636 625.429 813.738 625.37 815.69 627.244C817.642 629.119 817.705 632.223 815.829 634.176L806.126 644.277C805.163 645.279 803.877 645.783 802.589 645.783ZM826.849 620.529C825.626 620.529 824.403 620.075 823.453 619.162C821.501 617.286 821.438 614.183 823.313 612.23L832.496 602.672C832.641 602.522 832.781 602.373 832.916 602.223C834.738 600.217 837.836 600.068 839.842 601.889C841.847 603.708 841.996 606.809 840.177 608.813C839.976 609.034 839.773 609.252 839.564 609.469L830.385 619.023C829.422 620.026 828.136 620.529 826.849 620.529ZM843.261 591.109C840.702 591.109 838.547 589.123 838.375 586.532C838.122 582.722 836.846 579.05 834.687 575.914C833.153 573.684 833.715 570.632 835.944 569.096C838.174 567.563 841.228 568.124 842.763 570.354C845.922 574.942 847.788 580.311 848.158 585.881C848.337 588.583 846.294 590.918 843.592 591.098C843.481 591.105 843.37 591.109 843.261 591.109ZM825.06 562.087C823.692 562.087 822.331 561.517 821.361 560.403L814.823 552.895C813.044 550.854 813.259 547.757 815.3 545.979C817.341 544.201 820.438 544.414 822.218 546.457L828.756 553.965C830.534 556.006 830.32 559.103 828.279 560.882C827.35 561.69 826.202 562.087 825.06 562.087Z" fill="white"/>
<path d="M502.722 631.023C502.722 631.023 486.851 638.743 483.933 647.611C481.591 654.727 464.042 655.644 462.309 669.638C461.414 676.863 456.067 682.649 448.87 683.753C430.947 686.5 403.326 695.807 398.906 726.926C395.533 750.679 407.641 759.685 420.349 762.803C429.683 765.092 435.885 774.171 433.997 783.594C432.186 792.632 434.887 803.08 450.545 811.342C485.633 829.857 520.675 767.479 520.675 767.479L527.856 658.563L502.722 631.023Z" fill="url(#paint13_linear_744_4636)"/>
<path d="M693.648 605.203C693.648 605.203 623.589 716.016 540.281 737.42C540.281 737.42 556.514 783.654 569.043 788.946C569.043 788.946 671.535 703.427 697.874 620.949L693.648 605.203Z" fill="url(#paint14_linear_744_4636)"/>
<path d="M358.494 1313.96L356.223 1332.63C355.793 1336.17 353.005 1338.97 349.461 1339.38C343.477 1340.06 333.874 1340.76 324.479 1339.77C320.355 1339.33 317.678 1335.16 318.934 1331.2C321.225 1324 325.415 1313.18 331.456 1306.82H352.162C355.99 1306.82 358.956 1310.16 358.494 1313.96Z" fill="url(#paint15_linear_744_4636)"/>
<path d="M520.675 1095.3L524.17 1115.86C524.17 1115.86 512.466 1234.41 510.384 1281.83C510.058 1289.27 511.981 1296.61 515.883 1302.95L536.234 1336L484.512 1305.48L483.482 1299.17L491.949 1287.53L480.859 1154.72C480.207 1146.92 481.817 1139.09 485.496 1132.18L496.194 1112.08L520.675 1095.3Z" fill="url(#paint16_linear_744_4636)"/>
<path d="M539.64 1340.79H523.135C520.045 1340.79 517.132 1339.37 515.247 1336.92C510.102 1330.23 499.441 1317.19 494.343 1316.85C487.481 1316.39 488.359 1340.79 488.359 1340.79H484.512L479.64 1310.47C478.414 1302.84 482.207 1295.29 489.056 1291.71C489.056 1291.71 490.625 1303.31 499.131 1308.45C507.637 1313.58 533.744 1331.95 533.744 1331.95C533.744 1331.95 536.941 1331.5 540.452 1332.13C545.66 1333.07 544.932 1340.79 539.64 1340.79Z" fill="url(#paint17_linear_744_4636)"/>
<path d="M449.833 1105.07C449.833 1105.07 381.268 1235.13 370.369 1264.82C359.469 1294.52 355.651 1319.29 355.505 1321.64C355.277 1325.3 350.718 1328.82 338.151 1328.82C331.665 1328.82 328.489 1326.22 326.934 1323.7C325.607 1321.55 325.538 1318.87 326.656 1316.6C330.622 1308.58 343.209 1282.93 347.87 1271.29C353.436 1257.4 365.408 1194.45 371.973 1172.57C378.539 1150.68 385.96 1126.94 414.552 1105.07C414.552 1105.07 434.18 1085.84 449.833 1105.07Z" fill="url(#paint18_linear_744_4636)"/>
<path d="M493.147 891.955C510.833 817.01 466.028 774.622 466.028 774.622C494.299 747.484 545.809 735.136 545.809 735.136C545.809 735.136 594.961 771.07 589.13 799.197C585.713 815.682 554.581 897.94 554.581 897.94C554.581 897.94 525.794 911.564 493.147 891.955Z" fill="url(#paint19_linear_744_4636)"/>
<path d="M453.933 929.059C461.131 907.375 493.146 891.955 493.146 891.955C525.794 911.563 554.581 897.939 554.581 897.939C554.581 897.939 561.037 922.616 556.581 945.548C552.126 968.48 524.17 1115.86 524.17 1115.86C480.121 1124.79 412.375 1106.88 412.375 1106.88C440.433 1057.07 446.735 950.743 453.933 929.059Z" fill="url(#paint20_linear_744_4636)"/>
<path d="M513.676 685.61L499.297 750.2C497.92 755.889 503.106 754.958 508.858 753.874C518.278 752.098 530.419 748.44 534.477 741.111C534.89 740.365 535.097 739.522 535.213 738.677L541.391 693.888C541.881 690.335 539.96 686.886 536.681 685.432L524.759 680.146C520.17 678.111 514.857 680.73 513.676 685.61Z" fill="url(#paint21_linear_744_4636)"/>
<path d="M466.028 774.622C466.028 774.622 365.665 846.426 453.192 921.877C453.192 921.877 456.529 925.653 463.095 927.616C466.41 928.607 476.215 936.025 481.186 939.893C482.784 941.136 485.094 940.713 486.168 938.997C487.01 937.652 487.109 935.971 486.43 934.536L474.006 908.263C470.555 905.042 465.274 904.814 461.558 907.724C459.188 909.58 455.715 908.803 454.388 906.1C447.622 892.32 434.846 851.79 487.138 805.992C489.104 804.271 489.601 801.423 488.395 799.105C484.721 792.047 476.318 778.032 466.028 774.622Z" fill="url(#paint22_linear_744_4636)"/>
<path d="M541.219 626.73C541.219 626.73 556.527 637.093 563.105 663.483C569.684 689.873 558.993 699.339 548.036 698.759C537.078 698.179 521.189 694.79 507.423 675.857C493.657 656.925 521.158 614.067 541.219 626.73Z" fill="url(#paint23_linear_744_4636)"/>
<path d="M521.305 665.213C521.305 665.213 515.696 627.398 547.092 633.182L553.44 639.791C553.44 639.791 568.808 622.485 551.802 609.403C534.795 596.321 511.196 599.671 498.14 623.487C485.084 647.303 480.345 664.039 491.289 678.838C502.232 693.637 510.464 680.944 510.464 680.944C510.464 680.944 505.445 668.136 509.609 662.639C513.774 657.143 519.147 665.835 519.147 665.835L521.305 665.213Z" fill="url(#paint24_linear_744_4636)"/>
<path d="M517.015 668.451C517.015 668.451 514.245 648.996 504.309 654.557C494.373 660.119 507.89 672.731 513.31 677.023L517.015 668.451Z" fill="url(#paint25_linear_744_4636)"/>
<path d="M693.166 628.016C693.378 630.302 684.878 631.882 682.173 622.137C682.916 617.906 684.237 599.379 687.481 596.501C704.758 581.171 735.566 563.926 735.566 563.926C739.012 569.186 734.493 572.651 734.493 572.651L719.114 583.03C720.718 588.343 723.059 593.041 723.324 599.107C723.525 603.701 721.828 608.199 718.779 611.683C715.718 615.18 711.598 619.696 707.884 623.124C700.854 629.612 693.166 628.016 693.166 628.016Z" fill="url(#paint26_linear_744_4636)"/>
<path d="M701.519 620.463L699.169 619.496C699.481 618.736 706.861 600.802 710.431 597.072C711.787 595.656 712.442 594.444 712.381 593.467C712.351 592.938 712.089 592.416 711.592 591.884L699.149 598.539L693.652 607.145L691.51 605.775L697.362 596.609L711.938 588.815L712.596 589.351C714.07 590.556 714.833 591.851 714.92 593.311C715.027 595.051 714.161 596.855 712.271 598.831C709.582 601.64 703.598 615.398 701.519 620.463Z" fill="url(#paint27_linear_744_4636)"/>
<path d="M1272.91 1346.74C1299.14 1347.24 1320.68 1326.1 1320.68 1299.86V1091.27C1320.68 1063.86 1298.65 1041.56 1271.25 1041.26C1189 1040.37 1019.37 1040.32 880.571 1052.02C861.631 1053.62 846.899 1069.14 846.212 1088.13L833.24 1289.8C832.276 1316.48 853.365 1338.76 880.053 1339.27L1272.91 1346.74Z" fill="url(#paint28_linear_744_4636)"/>
<path d="M1273.04 1113.84C1273.39 1131.59 1272.86 1159.75 1272.43 1177.94C1272.21 1187.41 1263.9 1194.62 1254.49 1193.52L1186.81 1185.59C1177.79 1184.53 1171.44 1176.22 1172.78 1167.24L1181.09 1111.82C1182.27 1103.95 1189.03 1098.13 1196.98 1098.13H1256.97C1265.71 1098.13 1272.87 1105.1 1273.04 1113.84Z" fill="white"/>
<path opacity="0.37" d="M1096.15 1218.88L1039.69 1224.97C1031.79 1225.82 1025.05 1219.3 1025.63 1211.38L1037.97 1043.42C1061.64 1042.67 1084.99 1042.12 1107.52 1041.73V1206.22C1107.52 1212.72 1102.62 1218.18 1096.15 1218.88Z" fill="white"/>
<path d="M1073.01 1189.77C1072.84 1192.79 1070.33 1195.12 1067.34 1195.12C1067.23 1195.12 1067.12 1195.11 1067.01 1195.1C1063.88 1194.92 1061.49 1192.24 1061.67 1189.11L1070.19 1042.52C1074 1042.42 1077.79 1042.34 1081.58 1042.25L1073.01 1189.77Z" fill="white"/>
<path d="M1241.74 1166.75C1242.73 1166.75 1243.57 1165.98 1243.63 1164.97L1246.56 1118.8C1246.62 1117.76 1245.83 1116.86 1244.79 1116.79C1243.69 1116.71 1242.84 1117.52 1242.78 1118.56L1239.85 1164.74C1239.78 1165.78 1240.57 1166.68 1241.62 1166.74C1241.66 1166.75 1241.7 1166.75 1241.74 1166.75Z" fill="url(#paint29_linear_744_4636)"/>
<path d="M1235.71 1166.75C1236.73 1166.75 1237.57 1165.94 1237.6 1164.92L1239.14 1117.86C1239.17 1116.82 1238.35 1115.94 1237.31 1115.91C1236.1 1115.85 1235.39 1116.69 1235.35 1117.74L1233.82 1164.79C1233.78 1165.84 1234.61 1166.71 1235.65 1166.75C1235.65 1166.75 1235.69 1166.75 1235.71 1166.75Z" fill="url(#paint30_linear_744_4636)"/>
<path d="M1227.54 1166.74C1226.49 1166.7 1225.69 1165.81 1225.74 1164.77C1226.49 1148.96 1227.92 1118.81 1227.94 1117.78C1227.95 1116.74 1228.8 1115.91 1229.84 1115.91C1230.88 1115.91 1231.73 1116.75 1231.73 1117.8C1231.73 1118.58 1229.89 1157.21 1229.52 1164.94C1229.47 1165.96 1228.63 1166.75 1227.63 1166.75C1227.6 1166.75 1227.57 1166.75 1227.54 1166.74Z" fill="url(#paint31_linear_744_4636)"/>
<path d="M1215.01 1168.64C1217.04 1168.64 1218.72 1167.03 1218.79 1164.99C1220.39 1119.4 1220.11 1118.37 1219.92 1117.69C1219.37 1115.67 1217.27 1114.48 1215.27 1115.03C1213.42 1115.54 1212.26 1117.33 1212.52 1119.19C1212.64 1121.93 1211.79 1148.45 1211.22 1164.72C1211.15 1166.81 1212.78 1168.57 1214.87 1168.64C1214.92 1168.64 1214.96 1168.64 1215.01 1168.64Z" fill="url(#paint32_linear_744_4636)"/>
<path d="M1206.8 1166.75C1207.85 1166.75 1208.7 1165.9 1208.7 1164.85V1118.68C1208.7 1117.64 1207.85 1116.79 1206.8 1116.79C1205.76 1116.79 1204.91 1117.64 1204.91 1118.68V1164.85C1204.91 1165.9 1205.76 1166.75 1206.8 1166.75Z" fill="url(#paint33_linear_744_4636)"/>
<path d="M1200.18 1166.75C1201.2 1166.75 1202.05 1165.93 1202.07 1164.9C1202.43 1148.86 1203.28 1122.65 1204.04 1119.5C1204.37 1118.9 1204.37 1118.15 1203.97 1117.54C1203.39 1116.66 1202.22 1116.42 1201.35 1116.99C1200.31 1117.67 1199.33 1118.31 1198.28 1164.81C1198.26 1165.86 1199.09 1166.72 1200.13 1166.75L1200.18 1166.75Z" fill="url(#paint34_linear_744_4636)"/>
<path d="M1251.93 1170.95C1253.93 1170.95 1255.6 1169.38 1255.7 1167.36L1258.23 1118.88C1258.34 1116.79 1256.73 1115.01 1254.64 1114.9C1252.66 1114.76 1250.78 1116.4 1250.67 1118.49L1248.14 1166.97C1248.03 1169.06 1249.64 1170.84 1251.73 1170.95C1251.79 1170.95 1251.86 1170.95 1251.93 1170.95Z" fill="url(#paint35_linear_744_4636)"/>
<path d="M1284.35 1010.79V864.295C1284.35 845.049 1268.88 829.388 1249.64 829.179C1191.88 828.55 1072.75 828.518 975.275 836.732C961.974 837.853 951.628 848.755 951.146 862.094L942.035 1003.72C941.358 1022.45 956.169 1038.11 974.911 1038.46L1250.8 1043.7C1269.23 1044.05 1284.35 1029.21 1284.35 1010.79Z" fill="url(#paint36_linear_744_4636)"/>
<path d="M1250.9 880.145C1251.14 892.61 1250.77 912.388 1250.47 925.165C1250.31 931.813 1244.48 936.879 1237.87 936.105L1190.34 930.533C1184 929.791 1179.54 923.955 1180.49 917.649L1186.32 878.725C1187.15 873.199 1191.9 869.111 1197.48 869.111H1239.61C1245.75 869.111 1250.78 874.008 1250.9 880.145Z" fill="white"/>
<path opacity="0.37" d="M1126.67 953.912L1087.02 958.189C1081.47 958.788 1076.74 954.212 1077.14 948.646L1085.81 830.69C1102.44 830.163 1118.83 829.779 1134.65 829.509V945.023C1134.65 949.589 1131.21 953.422 1126.67 953.912Z" fill="white"/>
<path d="M1110.42 933.467C1110.3 935.589 1108.54 937.225 1106.44 937.225C1106.36 937.225 1106.28 937.222 1106.21 937.217C1104.01 937.09 1102.33 935.204 1102.46 933.005L1108.44 830.057C1111.12 829.991 1113.78 829.931 1116.43 829.872L1110.42 933.467Z" fill="white"/>
<path d="M1228.91 917.302C1229.61 917.302 1230.2 916.762 1230.24 916.056L1232.3 883.63C1232.34 882.898 1231.79 882.267 1231.05 882.22C1230.28 882.16 1229.69 882.732 1229.64 883.464L1227.59 915.89C1227.54 916.622 1228.1 917.253 1228.83 917.3C1228.86 917.302 1228.89 917.302 1228.91 917.302Z" fill="url(#paint37_linear_744_4636)"/>
<path d="M1224.68 917.302C1225.39 917.302 1225.99 916.736 1226.01 916.017L1227.09 882.971C1227.11 882.236 1226.53 881.62 1225.8 881.597C1224.96 881.555 1224.45 882.15 1224.43 882.882L1223.35 915.929C1223.33 916.663 1223.9 917.279 1224.64 917.302C1224.64 917.302 1224.67 917.302 1224.68 917.302Z" fill="url(#paint38_linear_744_4636)"/>
<path d="M1218.94 917.3C1218.21 917.266 1217.64 916.643 1217.68 915.91C1218.2 904.809 1219.21 883.635 1219.22 882.913C1219.23 882.186 1219.82 881.597 1220.55 881.597C1221.29 881.597 1221.88 882.191 1221.88 882.926C1221.88 883.474 1220.59 910.603 1220.33 916.035C1220.3 916.749 1219.71 917.302 1219 917.302C1218.98 917.302 1218.96 917.302 1218.94 917.3Z" fill="url(#paint39_linear_744_4636)"/>
<path d="M1210.14 918.632C1211.57 918.632 1212.75 917.502 1212.8 916.066C1213.92 884.048 1213.72 883.326 1213.59 882.849C1213.21 881.428 1211.73 880.595 1210.33 880.981C1209.03 881.337 1208.21 882.599 1208.39 883.9C1208.48 885.824 1207.88 904.453 1207.48 915.879C1207.43 917.346 1208.58 918.58 1210.05 918.629C1210.08 918.631 1210.11 918.632 1210.14 918.632Z" fill="url(#paint40_linear_744_4636)"/>
<path d="M1204.38 917.303C1205.11 917.303 1205.71 916.708 1205.71 915.973V883.548C1205.71 882.812 1205.11 882.218 1204.38 882.218C1203.64 882.218 1203.05 882.812 1203.05 883.548V915.973C1203.05 916.708 1203.64 917.303 1204.38 917.303Z" fill="url(#paint41_linear_744_4636)"/>
<path d="M1199.73 917.303C1200.45 917.303 1201.04 916.726 1201.06 916.004C1201.31 904.737 1201.9 886.334 1202.44 884.121C1202.67 883.704 1202.67 883.174 1202.39 882.742C1201.98 882.125 1201.16 881.958 1200.55 882.361C1199.82 882.836 1199.13 883.285 1198.4 915.942C1198.38 916.677 1198.96 917.285 1199.7 917.303L1199.73 917.303Z" fill="url(#paint42_linear_744_4636)"/>
<path d="M1236.07 920.255C1237.47 920.255 1238.65 919.154 1238.72 917.733L1240.49 883.685C1240.57 882.218 1239.44 880.968 1237.98 880.891C1236.58 880.792 1235.26 881.942 1235.18 883.409L1233.41 917.458C1233.33 918.925 1234.46 920.174 1235.93 920.252C1235.97 920.255 1236.02 920.255 1236.07 920.255Z" fill="url(#paint43_linear_744_4636)"/>
<path d="M1077.8 1313.24V1166.75C1077.8 1147.51 1064.43 1131.85 1047.8 1131.64C997.883 1131.01 894.928 1130.98 810.689 1139.19C799.194 1140.31 790.253 1151.21 789.836 1164.55L781.963 1306.18C781.378 1324.91 794.177 1340.56 810.375 1340.92L1048.81 1346.16C1064.73 1346.51 1077.8 1331.67 1077.8 1313.24Z" fill="url(#paint44_linear_744_4636)"/>
<path d="M1048.89 1182.6C1049.1 1195.07 1048.78 1214.85 1048.52 1227.62C1048.38 1234.27 1043.34 1239.34 1037.63 1238.56L996.55 1232.99C991.078 1232.25 987.222 1226.41 988.039 1220.11L993.081 1181.18C993.797 1175.66 997.9 1171.57 1002.73 1171.57H1039.14C1044.44 1171.57 1048.78 1176.47 1048.89 1182.6Z" fill="white"/>
<path opacity="0.37" d="M941.53 1256.37L907.261 1260.65C902.466 1261.25 898.374 1256.67 898.727 1251.1L906.219 1133.15C920.584 1132.62 934.754 1132.24 948.427 1131.97V1247.48C948.427 1252.05 945.454 1255.88 941.53 1256.37Z" fill="white"/>
<path d="M927.485 1235.93C927.379 1238.05 925.86 1239.68 924.046 1239.68C923.979 1239.68 923.912 1239.68 923.844 1239.68C921.943 1239.55 920.491 1237.66 920.604 1235.46L925.771 1132.52C928.088 1132.45 930.386 1132.39 932.684 1132.33L927.485 1235.93Z" fill="white"/>
<path d="M1029.89 1219.76C1030.49 1219.76 1031 1219.22 1031.04 1218.51L1032.81 1186.09C1032.85 1185.36 1032.37 1184.72 1031.74 1184.68C1031.07 1184.62 1030.56 1185.19 1030.52 1185.92L1028.74 1218.35C1028.7 1219.08 1029.18 1219.71 1029.82 1219.76C1029.84 1219.76 1029.87 1219.76 1029.89 1219.76Z" fill="url(#paint45_linear_744_4636)"/>
<path d="M1026.23 1219.76C1026.85 1219.76 1027.36 1219.19 1027.38 1218.48L1028.31 1185.43C1028.33 1184.69 1027.84 1184.08 1027.2 1184.05C1026.47 1184.01 1026.04 1184.61 1026.02 1185.34L1025.08 1218.39C1025.06 1219.12 1025.56 1219.74 1026.19 1219.76C1026.19 1219.76 1026.22 1219.76 1026.23 1219.76Z" fill="url(#paint46_linear_744_4636)"/>
<path d="M1021.27 1219.76C1020.64 1219.72 1020.15 1219.1 1020.18 1218.37C1020.64 1207.27 1021.5 1186.09 1021.52 1185.37C1021.52 1184.64 1022.04 1184.05 1022.67 1184.05C1023.3 1184.05 1023.82 1184.65 1023.82 1185.38C1023.82 1185.93 1022.7 1213.06 1022.47 1218.49C1022.44 1219.21 1021.94 1219.76 1021.33 1219.76C1021.31 1219.76 1021.29 1219.76 1021.27 1219.76Z" fill="url(#paint47_linear_744_4636)"/>
<path d="M1013.67 1221.09C1014.9 1221.09 1015.92 1219.96 1015.96 1218.52C1016.93 1186.51 1016.76 1185.78 1016.65 1185.31C1016.32 1183.89 1015.04 1183.05 1013.83 1183.44C1012.7 1183.8 1012 1185.06 1012.15 1186.36C1012.23 1188.28 1011.71 1206.91 1011.37 1218.34C1011.32 1219.8 1012.32 1221.04 1013.58 1221.09C1013.61 1221.09 1013.64 1221.09 1013.67 1221.09Z" fill="url(#paint48_linear_744_4636)"/>
<path d="M1008.69 1219.76C1009.32 1219.76 1009.84 1219.17 1009.84 1218.43V1186.01C1009.84 1185.27 1009.32 1184.68 1008.69 1184.68C1008.05 1184.68 1007.54 1185.27 1007.54 1186.01V1218.43C1007.54 1219.17 1008.05 1219.76 1008.69 1219.76Z" fill="url(#paint49_linear_744_4636)"/>
<path d="M1004.67 1219.76C1005.29 1219.76 1005.8 1219.18 1005.81 1218.46C1006.03 1207.2 1006.55 1188.79 1007.01 1186.58C1007.21 1186.16 1007.21 1185.63 1006.97 1185.2C1006.62 1184.58 1005.91 1184.42 1005.38 1184.82C1004.75 1185.29 1004.15 1185.74 1003.52 1218.4C1003.5 1219.14 1004.01 1219.74 1004.64 1219.76L1004.67 1219.76Z" fill="url(#paint50_linear_744_4636)"/>
<path d="M1036.07 1222.71C1037.29 1222.71 1038.3 1221.61 1038.37 1220.19L1039.9 1186.14C1039.96 1184.68 1038.99 1183.43 1037.72 1183.35C1036.52 1183.25 1035.37 1184.4 1035.31 1185.87L1033.77 1219.92C1033.71 1221.38 1034.68 1222.63 1035.95 1222.71C1035.99 1222.71 1036.03 1222.71 1036.07 1222.71Z" fill="url(#paint51_linear_744_4636)"/>
</g>
<defs>
<linearGradient id="paint0_linear_744_4636" x1="1490.96" y1="1683.04" x2="465.274" y2="409.199" gradientUnits="userSpaceOnUse">
<stop stop-color="#DAE3FE"/>
<stop offset="1" stop-color="#E9EFFD"/>
</linearGradient>
<linearGradient id="paint1_linear_744_4636" x1="267.345" y1="737.121" x2="1349.72" y2="737.121" gradientUnits="userSpaceOnUse">
<stop stop-color="#4F52FF"/>
<stop offset="1" stop-color="#4042E2"/>
</linearGradient>
<linearGradient id="paint2_linear_744_4636" x1="1120.86" y1="-112.059" x2="570.323" y2="984.812" gradientUnits="userSpaceOnUse">
<stop stop-color="#09005D"/>
<stop offset="1" stop-color="#1A0F91"/>
</linearGradient>
<linearGradient id="paint3_linear_744_4636" x1="686.483" y1="-28.2614" x2="675.277" y2="148.23" gradientUnits="userSpaceOnUse">
<stop stop-color="#09005D"/>
<stop offset="1" stop-color="#1A0F91"/>
</linearGradient>
<linearGradient id="paint4_linear_744_4636" x1="831.145" y1="974.871" x2="897.362" y2="974.871" gradientUnits="userSpaceOnUse">
<stop stop-color="#DAE3FE"/>
<stop offset="1" stop-color="#E9EFFD"/>
</linearGradient>
<linearGradient id="paint5_linear_744_4636" x1="725.033" y1="1114.94" x2="893.702" y2="1114.94" gradientUnits="userSpaceOnUse">
<stop stop-color="#DAE3FE"/>
<stop offset="1" stop-color="#E9EFFD"/>
</linearGradient>
<linearGradient id="paint6_linear_744_4636" x1="574.142" y1="806.326" x2="906.404" y2="806.326" gradientUnits="userSpaceOnUse">
<stop stop-color="#DAE3FE"/>
<stop offset="1" stop-color="#E9EFFD"/>
</linearGradient>
<linearGradient id="paint7_linear_744_4636" x1="573.401" y1="1167.52" x2="798.957" y2="1167.52" gradientUnits="userSpaceOnUse">
<stop stop-color="#DAE3FE"/>
<stop offset="1" stop-color="#E9EFFD"/>
</linearGradient>
<linearGradient id="paint8_linear_744_4636" x1="455.489" y1="1082.17" x2="664.64" y2="1082.17" gradientUnits="userSpaceOnUse">
<stop stop-color="#DAE3FE"/>
<stop offset="1" stop-color="#E9EFFD"/>
</linearGradient>
<linearGradient id="paint9_linear_744_4636" x1="637.063" y1="517.47" x2="909.596" y2="517.47" gradientUnits="userSpaceOnUse">
<stop stop-color="#DAE3FE"/>
<stop offset="1" stop-color="#E9EFFD"/>
</linearGradient>
<linearGradient id="paint10_linear_744_4636" x1="524.766" y1="430.063" x2="700.112" y2="430.063" gradientUnits="userSpaceOnUse">
<stop stop-color="#DAE3FE"/>
<stop offset="1" stop-color="#E9EFFD"/>
</linearGradient>
<linearGradient id="paint11_linear_744_4636" x1="444.672" y1="709.183" x2="726.038" y2="709.183" gradientUnits="userSpaceOnUse">
<stop stop-color="#DAE3FE"/>
<stop offset="1" stop-color="#E9EFFD"/>
</linearGradient>
<linearGradient id="paint12_linear_744_4636" x1="433.157" y1="517.141" x2="574.783" y2="517.141" gradientUnits="userSpaceOnUse">
<stop stop-color="#DAE3FE"/>
<stop offset="1" stop-color="#E9EFFD"/>
</linearGradient>
<linearGradient id="paint13_linear_744_4636" x1="530.636" y1="567.499" x2="483.558" y2="685.591" gradientUnits="userSpaceOnUse">
<stop stop-color="#09005D"/>
<stop offset="1" stop-color="#1A0F91"/>
</linearGradient>
<linearGradient id="paint14_linear_744_4636" x1="641.331" y1="657.499" x2="514.635" y2="832.63" gradientUnits="userSpaceOnUse">
<stop stop-color="#FEBBBA"/>
<stop offset="1" stop-color="#FF928E"/>
</linearGradient>
<linearGradient id="paint15_linear_744_4636" x1="358.542" y1="1323.54" x2="318.622" y2="1323.54" gradientUnits="userSpaceOnUse">
<stop stop-color="#4F52FF"/>
<stop offset="1" stop-color="#4042E2"/>
</linearGradient>
<linearGradient id="paint16_linear_744_4636" x1="527.223" y1="1480.96" x2="469.775" y2="809.544" gradientUnits="userSpaceOnUse">
<stop stop-color="#FEBBBA"/>
<stop offset="1" stop-color="#FF928E"/>
</linearGradient>
<linearGradient id="paint17_linear_744_4636" x1="544.005" y1="1316.25" x2="479.412" y2="1316.25" gradientUnits="userSpaceOnUse">
<stop stop-color="#4F52FF"/>
<stop offset="1" stop-color="#4042E2"/>
</linearGradient>
<linearGradient id="paint18_linear_744_4636" x1="411.664" y1="1490.95" x2="354.202" y2="819.357" gradientUnits="userSpaceOnUse">
<stop stop-color="#FEBBBA"/>
<stop offset="1" stop-color="#FF928E"/>
</linearGradient>
<linearGradient id="paint19_linear_744_4636" x1="876.337" y1="694.908" x2="702.647" y2="759.341" gradientUnits="userSpaceOnUse">
<stop stop-color="#FF928E"/>
<stop offset="1" stop-color="#FE7062"/>
</linearGradient>
<linearGradient id="paint20_linear_744_4636" x1="367.573" y1="816.961" x2="511.199" y2="1046.76" gradientUnits="userSpaceOnUse">
<stop stop-color="#4F52FF"/>
<stop offset="1" stop-color="#4042E2"/>
</linearGradient>
<linearGradient id="paint21_linear_744_4636" x1="533.523" y1="819.145" x2="522.732" y2="740.198" gradientUnits="userSpaceOnUse">
<stop stop-color="#FEBBBA"/>
<stop offset="1" stop-color="#FF928E"/>
</linearGradient>
<linearGradient id="paint22_linear_744_4636" x1="489.047" y1="857.616" x2="417.361" y2="857.616" gradientUnits="userSpaceOnUse">
<stop stop-color="#FEBBBA"/>
<stop offset="1" stop-color="#FF928E"/>
</linearGradient>
<linearGradient id="paint23_linear_744_4636" x1="552.738" y1="724.071" x2="492.937" y2="541.406" gradientUnits="userSpaceOnUse">
<stop stop-color="#FEBBBA"/>
<stop offset="1" stop-color="#FF928E"/>
</linearGradient>
<linearGradient id="paint24_linear_744_4636" x1="561.229" y1="576.996" x2="492.102" y2="683.69" gradientUnits="userSpaceOnUse">
<stop stop-color="#09005D"/>
<stop offset="1" stop-color="#1A0F91"/>
</linearGradient>
<linearGradient id="paint25_linear_744_4636" x1="530.89" y1="731.224" x2="471.089" y2="548.559" gradientUnits="userSpaceOnUse">
<stop stop-color="#FEBBBA"/>
<stop offset="1" stop-color="#FF928E"/>
</linearGradient>
<linearGradient id="paint26_linear_744_4636" x1="656.543" y1="668.504" x2="529.846" y2="843.634" gradientUnits="userSpaceOnUse">
<stop stop-color="#FEBBBA"/>
<stop offset="1" stop-color="#FF928E"/>
</linearGradient>
<linearGradient id="paint27_linear_744_4636" x1="691.51" y1="604.639" x2="714.929" y2="604.639" gradientUnits="userSpaceOnUse">
<stop stop-color="#FEBBBA"/>
<stop offset="1" stop-color="#FF928E"/>
</linearGradient>
<linearGradient id="paint28_linear_744_4636" x1="1335.49" y1="938.569" x2="1097.37" y2="1182.29" gradientUnits="userSpaceOnUse">
<stop stop-color="#FF928E"/>
<stop offset="1" stop-color="#FE7062"/>
</linearGradient>
<linearGradient id="paint29_linear_744_4636" x1="1220.31" y1="1108.51" x2="1341.48" y2="1284.58" gradientUnits="userSpaceOnUse">
<stop stop-color="#09005D"/>
<stop offset="1" stop-color="#1A0F91"/>
</linearGradient>
<linearGradient id="paint30_linear_744_4636" x1="1215.96" y1="1111.51" x2="1337.12" y2="1287.57" gradientUnits="userSpaceOnUse">
<stop stop-color="#09005D"/>
<stop offset="1" stop-color="#1A0F91"/>
</linearGradient>
<linearGradient id="paint31_linear_744_4636" x1="1210.7" y1="1115.12" x2="1331.86" y2="1291.19" gradientUnits="userSpaceOnUse">
<stop stop-color="#09005D"/>
<stop offset="1" stop-color="#1A0F91"/>
</linearGradient>
<linearGradient id="paint32_linear_744_4636" x1="1201.61" y1="1121.38" x2="1322.77" y2="1297.45" gradientUnits="userSpaceOnUse">
<stop stop-color="#09005D"/>
<stop offset="1" stop-color="#1A0F91"/>
</linearGradient>
<linearGradient id="paint33_linear_744_4636" x1="1195.61" y1="1125.51" x2="1316.78" y2="1301.57" gradientUnits="userSpaceOnUse">
<stop stop-color="#09005D"/>
<stop offset="1" stop-color="#1A0F91"/>
</linearGradient>
<linearGradient id="paint34_linear_744_4636" x1="1191.89" y1="1128.07" x2="1313.05" y2="1304.13" gradientUnits="userSpaceOnUse">
<stop stop-color="#09005D"/>
<stop offset="1" stop-color="#1A0F91"/>
</linearGradient>
<linearGradient id="paint35_linear_744_4636" x1="1226.55" y1="1104.22" x2="1347.71" y2="1280.28" gradientUnits="userSpaceOnUse">
<stop stop-color="#09005D"/>
<stop offset="1" stop-color="#1A0F91"/>
</linearGradient>
<linearGradient id="paint36_linear_744_4636" x1="1272.12" y1="825.955" x2="1034" y2="999.645" gradientUnits="userSpaceOnUse">
<stop stop-color="#FF928E"/>
<stop offset="1" stop-color="#FE7062"/>
</linearGradient>
<linearGradient id="paint37_linear_744_4636" x1="1213.87" y1="876.402" x2="1298.96" y2="1000.05" gradientUnits="userSpaceOnUse">
<stop stop-color="#09005D"/>
<stop offset="1" stop-color="#1A0F91"/>
</linearGradient>
<linearGradient id="paint38_linear_744_4636" x1="1210.81" y1="878.507" x2="1295.9" y2="1002.15" gradientUnits="userSpaceOnUse">
<stop stop-color="#09005D"/>
<stop offset="1" stop-color="#1A0F91"/>
</linearGradient>
<linearGradient id="paint39_linear_744_4636" x1="1207.12" y1="881.048" x2="1292.21" y2="1004.69" gradientUnits="userSpaceOnUse">
<stop stop-color="#09005D"/>
<stop offset="1" stop-color="#1A0F91"/>
</linearGradient>
<linearGradient id="paint40_linear_744_4636" x1="1200.73" y1="885.442" x2="1285.82" y2="1009.09" gradientUnits="userSpaceOnUse">
<stop stop-color="#09005D"/>
<stop offset="1" stop-color="#1A0F91"/>
</linearGradient>
<linearGradient id="paint41_linear_744_4636" x1="1196.52" y1="888.34" x2="1281.61" y2="1011.99" gradientUnits="userSpaceOnUse">
<stop stop-color="#09005D"/>
<stop offset="1" stop-color="#1A0F91"/>
</linearGradient>
<linearGradient id="paint42_linear_744_4636" x1="1193.91" y1="890.139" x2="1279" y2="1013.79" gradientUnits="userSpaceOnUse">
<stop stop-color="#09005D"/>
<stop offset="1" stop-color="#1A0F91"/>
</linearGradient>
<linearGradient id="paint43_linear_744_4636" x1="1218.25" y1="873.389" x2="1303.34" y2="997.036" gradientUnits="userSpaceOnUse">
<stop stop-color="#09005D"/>
<stop offset="1" stop-color="#1A0F91"/>
</linearGradient>
<linearGradient id="paint44_linear_744_4636" x1="1000.68" y1="1124.46" x2="874.611" y2="1342.97" gradientUnits="userSpaceOnUse">
<stop stop-color="#FF928E"/>
<stop offset="1" stop-color="#FE7062"/>
</linearGradient>
<linearGradient id="paint45_linear_744_4636" x1="1014.68" y1="1178.82" x2="1099.91" y2="1302.68" gradientUnits="userSpaceOnUse">
<stop stop-color="#09005D"/>
<stop offset="1" stop-color="#1A0F91"/>
</linearGradient>
<linearGradient id="paint46_linear_744_4636" x1="1012.3" y1="1180.99" x2="1097.3" y2="1304.51" gradientUnits="userSpaceOnUse">
<stop stop-color="#09005D"/>
<stop offset="1" stop-color="#1A0F91"/>
</linearGradient>
<linearGradient id="paint47_linear_744_4636" x1="1009.33" y1="1183.5" x2="1094.45" y2="1307.19" gradientUnits="userSpaceOnUse">
<stop stop-color="#09005D"/>
<stop offset="1" stop-color="#1A0F91"/>
</linearGradient>
<linearGradient id="paint48_linear_744_4636" x1="1004.24" y1="1187.97" x2="1088.92" y2="1311.02" gradientUnits="userSpaceOnUse">
<stop stop-color="#09005D"/>
<stop offset="1" stop-color="#1A0F91"/>
</linearGradient>
<linearGradient id="paint49_linear_744_4636" x1="1000.86" y1="1190.84" x2="1085.63" y2="1314.02" gradientUnits="userSpaceOnUse">
<stop stop-color="#09005D"/>
<stop offset="1" stop-color="#1A0F91"/>
</linearGradient>
<linearGradient id="paint50_linear_744_4636" x1="998.739" y1="1192.59" x2="1083.85" y2="1316.28" gradientUnits="userSpaceOnUse">
<stop stop-color="#09005D"/>
<stop offset="1" stop-color="#1A0F91"/>
</linearGradient>
<linearGradient id="paint51_linear_744_4636" x1="1018.18" y1="1175.91" x2="1103.05" y2="1299.25" gradientUnits="userSpaceOnUse">
<stop stop-color="#09005D"/>
<stop offset="1" stop-color="#1A0F91"/>
</linearGradient>
<clipPath id="clip0_744_4636">
<rect width="1535" height="1535" fill="white"/>
</clipPath>
</defs>
</svg>
